<?xml version="1.0" encoding="UTF-8" standalone="no"?>
<!DOCTYPE svg PUBLIC "-//W3C//DTD SVG 1.1//EN"
 "http://www.w3.org/Graphics/SVG/1.1/DTD/svg11.dtd">
<!-- Generated by graphviz version 2.36.0 (20140111.2315)
 -->
<!-- Title: G Pages: 1 -->
<svg width="112pt" height="684pt"
 viewBox="0.00 0.00 112.00 684.00" xmlns="http://www.w3.org/2000/svg" xmlns:xlink="http://www.w3.org/1999/xlink">
<g id="graph0" class="graph" transform="scale(1 1) rotate(0) translate(4 680)">
<title>G</title>
<polygon fill="white" stroke="none" points="-4,4 -4,-680 108,-680 108,4 -4,4"/>
<!-- serialization::serialization -->
<g id="node1" class="node"><title>serialization::serialization</title>
<polygon fill="#fffaf3" stroke="black" points="80.8333,-88 20.5,-88 20.5,-72 83.5,-72 83.5,-85.3333 80.8333,-88"/>
<polyline fill="none" stroke="black" points="80.8333,-88 80.8333,-85.3333 "/>
<polyline fill="none" stroke="black" points="83.5,-85.3333 80.8333,-85.3333 "/>
<text text-anchor="start" x="23" y="-78.5" font-family="Helvetica,sans-Serif" font-weight="bold" font-size="10.00">serialization</text>
</g>
<!-- serialization::inspect -->
<g id="node6" class="node"><title>serialization::inspect</title>
<polygon fill="#fffaf3" stroke="black" points="89,-250 9,-250 9,-110 95,-110 95,-244 89,-250"/>
<polyline fill="none" stroke="black" points="89,-250 89,-244 "/>
<polyline fill="none" stroke="black" points="95,-244 89,-244 "/>
<text text-anchor="start" x="11" y="-240.5" font-family="Helvetica,sans-Serif" font-weight="bold" font-size="10.00">inspect</text>
<text text-anchor="start" x="11" y="-225" font-family="Helvetica,sans-Serif" font-size="10.00" fill="forestgreen">+</text>
<text text-anchor="start" x="18" y="-225" font-family="Helvetica,sans-Serif" font-size="10.00">Bool</text>
<text text-anchor="start" x="11" y="-215" font-family="Helvetica,sans-Serif" font-size="10.00" fill="forestgreen">+</text>
<text text-anchor="start" x="18" y="-215" font-family="Helvetica,sans-Serif" font-size="10.00">Byte</text>
<text text-anchor="start" x="11" y="-205" font-family="Helvetica,sans-Serif" font-size="10.00" fill="forestgreen">+</text>
<text text-anchor="start" x="18" y="-205" font-family="Helvetica,sans-Serif" font-size="10.00">CString</text>
<text text-anchor="start" x="11" y="-195" font-family="Helvetica,sans-Serif" font-size="10.00" fill="forestgreen">+</text>
<text text-anchor="start" x="18" y="-195" font-family="Helvetica,sans-Serif" font-size="10.00">Char</text>
<text text-anchor="start" x="11" y="-185" font-family="Helvetica,sans-Serif" font-size="10.00" fill="forestgreen">+</text>
<text text-anchor="start" x="18" y="-185" font-family="Helvetica,sans-Serif" font-size="10.00">Collection</text>
<text text-anchor="start" x="11" y="-175" font-family="Helvetica,sans-Serif" font-size="10.00" fill="forestgreen">+</text>
<text text-anchor="start" x="18" y="-175" font-family="Helvetica,sans-Serif" font-size="10.00">Float</text>
<text text-anchor="start" x="11" y="-165" font-family="Helvetica,sans-Serif" font-size="10.00" fill="forestgreen">+</text>
<text text-anchor="start" x="18" y="-165" font-family="Helvetica,sans-Serif" font-size="10.00">Int</text>
<text text-anchor="start" x="11" y="-155" font-family="Helvetica,sans-Serif" font-size="10.00" fill="forestgreen">+</text>
<text text-anchor="start" x="18" y="-155" font-family="Helvetica,sans-Serif" font-size="10.00">Map</text>
<text text-anchor="start" x="11" y="-145" font-family="Helvetica,sans-Serif" font-size="10.00" fill="forestgreen">+</text>
<text text-anchor="start" x="18" y="-145" font-family="Helvetica,sans-Serif" font-size="10.00">Serializable</text>
<text text-anchor="start" x="11" y="-135" font-family="Helvetica,sans-Serif" font-size="10.00" fill="forestgreen">+</text>
<text text-anchor="start" x="18" y="-135" font-family="Helvetica,sans-Serif" font-size="10.00">SimpleCollection</text>
<text text-anchor="start" x="11" y="-125" font-family="Helvetica,sans-Serif" font-size="10.00" fill="forestgreen">+</text>
<text text-anchor="start" x="18" y="-125" font-family="Helvetica,sans-Serif" font-size="10.00">Sys</text>
<text text-anchor="start" x="11" y="-115" font-family="Helvetica,sans-Serif" font-size="10.00" fill="forestgreen">+</text>
<text text-anchor="start" x="18" y="-115" font-family="Helvetica,sans-Serif" font-size="10.00">Text</text>
</g>
<!-- serialization::serialization&#45;&gt;serialization::inspect -->
<g id="edge1" class="edge"><title>serialization::serialization&#45;&gt;serialization::inspect</title>
<path fill="none" stroke="black" stroke-width="0.5" stroke-dasharray="5,2" d="M52,-88.0479C52,-92.2447 52,-98.0464 52,-104.707"/>
<polygon fill="black" stroke="black" stroke-width="0.5" points="52,-109.956 49.7501,-104.956 52,-107.456 52.0001,-104.956 52.0001,-104.956 52.0001,-104.956 52,-107.456 54.2501,-104.956 52,-109.956 52,-109.956"/>
</g>
<!-- serialization::engine_tools -->
<g id="node2" class="node"><title>serialization::engine_tools</title>
<polygon fill="#fffaf3" stroke="black" points="85,-434 13,-434 13,-374 91,-374 91,-428 85,-434"/>
<polyline fill="none" stroke="black" points="85,-434 85,-428 "/>
<polyline fill="none" stroke="black" points="91,-428 85,-428 "/>
<text text-anchor="start" x="15" y="-424.5" font-family="Helvetica,sans-Serif" font-weight="bold" font-size="10.00">engine_tools</text>
<text text-anchor="start" x="15" y="-409" font-family="Helvetica,sans-Serif" font-size="10.00" fill="forestgreen">+</text>
<text text-anchor="start" x="22" y="-409" font-family="Helvetica,sans-Serif" font-size="10.00">Object</text>
<text text-anchor="start" x="15" y="-399" font-family="Helvetica,sans-Serif" font-size="10.00" fill="forestgreen">+</text>
<text text-anchor="start" x="22" y="-399" font-family="Helvetica,sans-Serif" font-size="10.00">StrictHashMap</text>
<text text-anchor="start" x="15" y="-389" font-family="Helvetica,sans-Serif" font-size="10.00" fill="forestgreen">+</text>
<text text-anchor="start" x="22" y="-389" font-family="Helvetica,sans-Serif" font-size="10.00">String</text>
<text text-anchor="start" x="15" y="-379" font-family="Helvetica,sans-Serif" font-size="10.00" fill="forestgreen">+</text>
<text text-anchor="start" x="22" y="-379" font-family="Helvetica,sans-Serif" font-size="10.00">Text</text>
</g>
<!-- serialization::serialization_core -->
<g id="node5" class="node"><title>serialization::serialization_core</title>
<polygon fill="#fffaf3" stroke="black" points="98,-676 0,-676 0,-456 104,-456 104,-670 98,-676"/>
<polyline fill="none" stroke="black" points="98,-676 98,-670 "/>
<polyline fill="none" stroke="black" points="104,-670 98,-670 "/>
<text text-anchor="start" x="2" y="-666.5" font-family="Helvetica,sans-Serif" font-weight="bold" font-size="10.00">serialization_core</text>
<text text-anchor="start" x="2" y="-651" font-family="Helvetica,sans-Serif" font-size="10.00" fill="forestgreen">+</text>
<text text-anchor="start" x="9" y="-651" font-family="Helvetica,sans-Serif" font-size="10.00">AttributeError</text>
<text text-anchor="start" x="2" y="-641" font-family="Helvetica,sans-Serif" font-size="10.00" fill="forestgreen">+</text>
<text text-anchor="start" x="9" y="-641" font-family="Helvetica,sans-Serif" font-size="10.00">AttributeMissingError</text>
<text text-anchor="start" x="2" y="-631" font-family="Helvetica,sans-Serif" font-size="10.00" fill="forestgreen">+</text>
<text text-anchor="start" x="9" y="-631" font-family="Helvetica,sans-Serif" font-size="10.00">AttributeTypeError</text>
<text text-anchor="start" x="2" y="-621" font-family="Helvetica,sans-Serif" font-size="10.00" fill="forestgreen">+</text>
<text text-anchor="start" x="9" y="-621" font-family="Helvetica,sans-Serif" font-size="10.00">Bool</text>
<text text-anchor="start" x="2" y="-611" font-family="Helvetica,sans-Serif" font-size="10.00" fill="forestgreen">+</text>
<text text-anchor="start" x="9" y="-611" font-family="Helvetica,sans-Serif" font-size="10.00">Byte</text>
<text text-anchor="start" x="2" y="-601" font-family="Helvetica,sans-Serif" font-size="10.00" fill="forestgreen">+</text>
<text text-anchor="start" x="9" y="-601" font-family="Helvetica,sans-Serif" font-size="10.00">CString</text>
<text text-anchor="start" x="2" y="-591" font-family="Helvetica,sans-Serif" font-size="10.00" fill="forestgreen">+</text>
<text text-anchor="start" x="9" y="-591" font-family="Helvetica,sans-Serif" font-size="10.00">Char</text>
<text text-anchor="start" x="2" y="-581" font-family="Helvetica,sans-Serif" font-size="10.00" fill="forestgreen">+</text>
<text text-anchor="start" x="9" y="-581" font-family="Helvetica,sans-Serif" font-size="10.00">Couple</text>
<text text-anchor="start" x="2" y="-571" font-family="Helvetica,sans-Serif" font-size="10.00" fill="forestgreen">+</text>
<text text-anchor="start" x="9" y="-571" font-family="Helvetica,sans-Serif" font-size="10.00">Deserializer</text>
<text text-anchor="start" x="2" y="-561" font-family="Helvetica,sans-Serif" font-size="10.00" fill="forestgreen">+</text>
<text text-anchor="start" x="9" y="-561" font-family="Helvetica,sans-Serif" font-size="10.00">DirectSerializable</text>
<text text-anchor="start" x="2" y="-551" font-family="Helvetica,sans-Serif" font-size="10.00" fill="forestgreen">+</text>
<text text-anchor="start" x="9" y="-551" font-family="Helvetica,sans-Serif" font-size="10.00">Error</text>
<text text-anchor="start" x="2" y="-541" font-family="Helvetica,sans-Serif" font-size="10.00" fill="forestgreen">+</text>
<text text-anchor="start" x="9" y="-541" font-family="Helvetica,sans-Serif" font-size="10.00">Float</text>
<text text-anchor="start" x="2" y="-531" font-family="Helvetica,sans-Serif" font-size="10.00" fill="forestgreen">+</text>
<text text-anchor="start" x="9" y="-531" font-family="Helvetica,sans-Serif" font-size="10.00">Int</text>
<text text-anchor="start" x="2" y="-521" font-family="Helvetica,sans-Serif" font-size="10.00" fill="forestgreen">+</text>
<text text-anchor="start" x="9" y="-521" font-family="Helvetica,sans-Serif" font-size="10.00">Map</text>
<text text-anchor="start" x="2" y="-511" font-family="Helvetica,sans-Serif" font-size="10.00" fill="forestgreen">+</text>
<text text-anchor="start" x="9" y="-511" font-family="Helvetica,sans-Serif" font-size="10.00">MinHeap</text>
<text text-anchor="start" x="2" y="-501" font-family="Helvetica,sans-Serif" font-size="10.00" fill="forestgreen">+</text>
<text text-anchor="start" x="9" y="-501" font-family="Helvetica,sans-Serif" font-size="10.00">Ref</text>
<text text-anchor="start" x="2" y="-491" font-family="Helvetica,sans-Serif" font-size="10.00" fill="forestgreen">+</text>
<text text-anchor="start" x="9" y="-491" font-family="Helvetica,sans-Serif" font-size="10.00">Serializable</text>
<text text-anchor="start" x="2" y="-481" font-family="Helvetica,sans-Serif" font-size="10.00" fill="forestgreen">+</text>
<text text-anchor="start" x="9" y="-481" font-family="Helvetica,sans-Serif" font-size="10.00">Serializer</text>
<text text-anchor="start" x="2" y="-471" font-family="Helvetica,sans-Serif" font-size="10.00" fill="forestgreen">+</text>
<text text-anchor="start" x="9" y="-471" font-family="Helvetica,sans-Serif" font-size="10.00">SimpleCollection</text>
<text text-anchor="start" x="2" y="-461" font-family="Helvetica,sans-Serif" font-size="10.00" fill="forestgreen">+</text>
<text text-anchor="start" x="9" y="-461" font-family="Helvetica,sans-Serif" font-size="10.00">Text</text>
</g>
<!-- serialization::engine_tools&#45;&gt;serialization::serialization_core -->
<g id="edge2" class="edge"><title>serialization::engine_tools&#45;&gt;serialization::serialization_core</title>
<path fill="none" stroke="black" stroke-width="0.5" stroke-dasharray="5,2" d="M52,-434.346C52,-439.32 52,-444.736 52,-450.444"/>
<polygon fill="black" stroke="black" stroke-width="0.5" points="52,-455.762 49.7501,-450.762 52,-453.262 52.0001,-450.762 52.0001,-450.762 52.0001,-450.762 52,-453.262 54.2501,-450.762 52,-455.762 52,-455.762"/>
</g>
<!-- serialization::safe -->
<g id="node3" class="node"><title>serialization::safe</title>
<polygon fill="#fffaf3" stroke="black" points="88.5,-50 9.5,-50 9.5,-0 94.5,-0 94.5,-44 88.5,-50"/>
<polyline fill="none" stroke="black" points="88.5,-50 88.5,-44 "/>
<polyline fill="none" stroke="black" points="94.5,-44 88.5,-44 "/>
<text text-anchor="start" x="12" y="-40.5" font-family="Helvetica,sans-Serif" font-weight="bold" font-size="10.00">safe</text>
<text text-anchor="start" x="12" y="-25" font-family="Helvetica,sans-Serif" font-size="10.00" fill="forestgreen">+</text>
<text text-anchor="start" x="19" y="-25" font-family="Helvetica,sans-Serif" font-size="10.00">Deserializer</text>
<text text-anchor="start" x="12" y="-15" font-family="Helvetica,sans-Serif" font-size="10.00" fill="forestgreen">+</text>
<text text-anchor="start" x="19" y="-15" font-family="Helvetica,sans-Serif" font-size="10.00">SafeDeserializer</text>
<text text-anchor="start" x="12" y="-5" font-family="Helvetica,sans-Serif" font-size="10.00" fill="forestgreen">+</text>
<text text-anchor="start" x="19" y="-5" font-family="Helvetica,sans-Serif" font-size="10.00">Sys</text>
</g>
<!-- serialization::safe&#45;&gt;serialization::serialization -->
<g id="edge3" class="edge"><title>serialization::safe&#45;&gt;serialization::serialization</title>
<path fill="none" stroke="black" stroke-width="0.5" stroke-dasharray="5,2" d="M52,-50.0189C52,-55.6884 52,-61.5107 52,-66.4355"/>
<polygon fill="black" stroke="black" stroke-width="0.5" points="52,-71.7417 49.7501,-66.7417 52,-69.2417 52.0001,-66.7417 52.0001,-66.7417 52.0001,-66.7417 52,-69.2417 54.2501,-66.7417 52,-71.7417 52,-71.7417"/>
</g>
<!-- serialization::caching -->
<g id="node4" class="node"><title>serialization::caching</title>
<polygon fill="#fffaf3" stroke="black" points="96,-352 2,-352 2,-272 102,-272 102,-346 96,-352"/>
<polyline fill="none" stroke="black" points="96,-352 96,-346 "/>
<polyline fill="none" stroke="black" points="102,-346 96,-346 "/>
<text text-anchor="start" x="4" y="-342.5" font-family="Helvetica,sans-Serif" font-weight="bold" font-size="10.00">caching</text>
<text text-anchor="start" x="4" y="-327" font-family="Helvetica,sans-Serif" font-size="10.00" fill="forestgreen">+</text>
<text text-anchor="start" x="11" y="-327" font-family="Helvetica,sans-Serif" font-size="10.00">AsyncCache</text>
<text text-anchor="start" x="4" y="-317" font-family="Helvetica,sans-Serif" font-size="10.00" fill="forestgreen">+</text>
<text text-anchor="start" x="11" y="-317" font-family="Helvetica,sans-Serif" font-size="10.00">CachingDeserializer</text>
<text text-anchor="start" x="4" y="-307" font-family="Helvetica,sans-Serif" font-size="10.00" fill="forestgreen">+</text>
<text text-anchor="start" x="11" y="-307" font-family="Helvetica,sans-Serif" font-size="10.00">CachingSerializer</text>
<text text-anchor="start" x="4" y="-297" font-family="Helvetica,sans-Serif" font-size="10.00" fill="forestgreen">+</text>
<text text-anchor="start" x="11" y="-297" font-family="Helvetica,sans-Serif" font-size="10.00">DeserializerCache</text>
<text text-anchor="start" x="4" y="-287" font-family="Helvetica,sans-Serif" font-size="10.00" fill="forestgreen">+</text>
<text text-anchor="start" x="11" y="-287" font-family="Helvetica,sans-Serif" font-size="10.00">DuplexCache</text>
<text text-anchor="start" x="4" y="-277" font-family="Helvetica,sans-Serif" font-size="10.00" fill="forestgreen">+</text>
<text text-anchor="start" x="11" y="-277" font-family="Helvetica,sans-Serif" font-size="10.00">SerializerCache</text>
</g>
<!-- serialization::caching&#45;&gt;serialization::engine_tools -->
<g id="edge4" class="edge"><title>serialization::caching&#45;&gt;serialization::engine_tools</title>
<path fill="none" stroke="black" stroke-width="0.5" stroke-dasharray="5,2" d="M52,-352.213C52,-357.685 52,-363.272 52,-368.644"/>
<polygon fill="black" stroke="black" stroke-width="0.5" points="52,-373.933 49.7501,-368.933 52,-371.433 52.0001,-368.933 52.0001,-368.933 52.0001,-368.933 52,-371.433 54.2501,-368.933 52,-373.933 52,-373.933"/>
</g>
<!-- serialization::inspect&#45;&gt;serialization::caching -->
<g id="edge5" class="edge"><title>serialization::inspect&#45;&gt;serialization::caching</title>
<path fill="none" stroke="black" stroke-width="0.5" stroke-dasharray="5,2" d="M52,-250.187C52,-255.735 52,-261.243 52,-266.547"/>
<polygon fill="black" stroke="black" stroke-width="0.5" points="52,-271.777 49.7501,-266.777 52,-269.277 52.0001,-266.777 52.0001,-266.777 52.0001,-266.777 52,-269.277 54.2501,-266.777 52,-271.777 52,-271.777"/>
</g>
</g>
</svg>
