<?xml version="1.0" encoding="UTF-8" standalone="no"?>
<!DOCTYPE svg PUBLIC "-//W3C//DTD SVG 1.1//EN"
 "http://www.w3.org/Graphics/SVG/1.1/DTD/svg11.dtd">
<!-- Generated by graphviz version 2.36.0 (20140111.2315)
 -->
<!-- Title: G Pages: 1 -->
<svg width="487pt" height="320pt"
 viewBox="0.00 0.00 487.00 320.00" xmlns="http://www.w3.org/2000/svg" xmlns:xlink="http://www.w3.org/1999/xlink">
<g id="graph0" class="graph" transform="scale(1 1) rotate(0) translate(4 316)">
<title>G</title>
<polygon fill="white" stroke="none" points="-4,4 -4,-316 483,-316 483,4 -4,4"/>
<!-- app::app -->
<g id="node1" class="node"><title>app::app</title>
<polygon fill="#fffaf3" stroke="black" points="37.8333,-128 17.5,-128 17.5,-112 40.5,-112 40.5,-125.333 37.8333,-128"/>
<polyline fill="none" stroke="black" points="37.8333,-128 37.8333,-125.333 "/>
<polyline fill="none" stroke="black" points="40.5,-125.333 37.8333,-125.333 "/>
<text text-anchor="start" x="20" y="-118.5" font-family="Helvetica,sans-Serif" font-weight="bold" font-size="10.00">app</text>
</g>
<!-- app::assets -->
<g id="node3" class="node"><title>app::assets</title>
<polygon fill="#fffaf3" stroke="black" points="52,-307 3.55271e-15,-307 3.55271e-15,-267 58,-267 58,-301 52,-307"/>
<polyline fill="none" stroke="black" points="52,-307 52,-301 "/>
<polyline fill="none" stroke="black" points="58,-301 52,-301 "/>
<text text-anchor="start" x="2" y="-297.5" font-family="Helvetica,sans-Serif" font-weight="bold" font-size="10.00">assets</text>
<text text-anchor="start" x="2" y="-282" font-family="Helvetica,sans-Serif" font-size="10.00" fill="forestgreen">+</text>
<text text-anchor="start" x="9" y="-282" font-family="Helvetica,sans-Serif" font-size="10.00">Asset</text>
<text text-anchor="start" x="2" y="-272" font-family="Helvetica,sans-Serif" font-size="10.00" fill="forestgreen">+</text>
<text text-anchor="start" x="9" y="-272" font-family="Helvetica,sans-Serif" font-size="10.00">TextAsset</text>
</g>
<!-- app::app&#45;&gt;app::assets -->
<g id="edge1" class="edge"><title>app::app&#45;&gt;app::assets</title>
<path fill="none" stroke="black" stroke-width="0.5" stroke-dasharray="5,2" d="M29,-128.09C29,-150.901 29,-223.142 29,-261.507"/>
<polygon fill="black" stroke="black" stroke-width="0.5" points="29,-266.911 26.7501,-261.911 29,-264.411 29.0001,-261.911 29.0001,-261.911 29.0001,-261.911 29,-264.411 31.2501,-261.911 29,-266.911 29,-266.911"/>
</g>
<!-- app::app_base -->
<g id="node5" class="node"><title>app::app_base</title>
<polygon fill="#fffaf3" stroke="black" points="213,-312 139,-312 139,-262 219,-262 219,-306 213,-312"/>
<polyline fill="none" stroke="black" points="213,-312 213,-306 "/>
<polyline fill="none" stroke="black" points="219,-306 213,-306 "/>
<text text-anchor="start" x="141" y="-302.5" font-family="Helvetica,sans-Serif" font-weight="bold" font-size="10.00">app_base</text>
<text text-anchor="start" x="141" y="-287" font-family="Helvetica,sans-Serif" font-size="10.00" fill="forestgreen">+</text>
<text text-anchor="start" x="148" y="-287" font-family="Helvetica,sans-Serif" font-size="10.00">App</text>
<text text-anchor="start" x="141" y="-277" font-family="Helvetica,sans-Serif" font-size="10.00" fill="forestgreen">+</text>
<text text-anchor="start" x="148" y="-277" font-family="Helvetica,sans-Serif" font-size="10.00">AppComponent</text>
<text text-anchor="start" x="141" y="-267" font-family="Helvetica,sans-Serif" font-size="10.00" fill="forestgreen">+</text>
<text text-anchor="start" x="148" y="-267" font-family="Helvetica,sans-Serif" font-size="10.00">Sys</text>
</g>
<!-- app::app&#45;&gt;app::app_base -->
<g id="edge2" class="edge"><title>app::app&#45;&gt;app::app_base</title>
<path fill="none" stroke="black" stroke-width="0.5" stroke-dasharray="5,2" d="M28.0773,-128.177C25.8966,-148.397 22.5679,-206.537 51,-240 71.5834,-264.225 105.915,-275.693 133.843,-281.121"/>
<polygon fill="black" stroke="black" stroke-width="0.5" points="138.979,-282.066 133.654,-283.374 136.52,-281.613 134.061,-281.161 134.061,-281.161 134.061,-281.161 136.52,-281.613 134.469,-278.948 138.979,-282.066 138.979,-282.066"/>
</g>
<!-- app::data_store -->
<g id="node2" class="node"><title>app::data_store</title>
<polygon fill="#fffaf3" stroke="black" points="113.5,-140 62.5,-140 62.5,-100 119.5,-100 119.5,-134 113.5,-140"/>
<polyline fill="none" stroke="black" points="113.5,-140 113.5,-134 "/>
<polyline fill="none" stroke="black" points="119.5,-134 113.5,-134 "/>
<text text-anchor="start" x="65" y="-130.5" font-family="Helvetica,sans-Serif" font-weight="bold" font-size="10.00">data_store</text>
<text text-anchor="start" x="65" y="-115" font-family="Helvetica,sans-Serif" font-size="10.00" fill="forestgreen">+</text>
<text text-anchor="start" x="72" y="-115" font-family="Helvetica,sans-Serif" font-size="10.00">App</text>
<text text-anchor="start" x="65" y="-105" font-family="Helvetica,sans-Serif" font-size="10.00" fill="forestgreen">+</text>
<text text-anchor="start" x="72" y="-105" font-family="Helvetica,sans-Serif" font-size="10.00">DataStore</text>
</g>
<!-- app::data_store&#45;&gt;app::app_base -->
<g id="edge3" class="edge"><title>app::data_store&#45;&gt;app::app_base</title>
<path fill="none" stroke="black" stroke-width="0.5" stroke-dasharray="5,2" d="M94.5164,-140.376C99.632,-165.011 110.796,-208.163 131,-240 135.02,-246.335 140.093,-252.418 145.425,-257.969"/>
<polygon fill="black" stroke="black" stroke-width="0.5" points="149.148,-261.724 144.03,-259.758 147.388,-259.949 145.628,-258.174 145.628,-258.174 145.628,-258.174 147.388,-259.949 147.225,-256.589 149.148,-261.724 149.148,-261.724"/>
</g>
<!-- app::audio -->
<g id="node4" class="node"><title>app::audio</title>
<polygon fill="#fffaf3" stroke="black" points="210.5,-150 141.5,-150 141.5,-90 216.5,-90 216.5,-144 210.5,-150"/>
<polyline fill="none" stroke="black" points="210.5,-150 210.5,-144 "/>
<polyline fill="none" stroke="black" points="216.5,-144 210.5,-144 "/>
<text text-anchor="start" x="144" y="-140.5" font-family="Helvetica,sans-Serif" font-weight="bold" font-size="10.00">audio</text>
<text text-anchor="start" x="144" y="-125" font-family="Helvetica,sans-Serif" font-size="10.00" fill="forestgreen">+</text>
<text text-anchor="start" x="151" y="-125" font-family="Helvetica,sans-Serif" font-size="10.00">Music</text>
<text text-anchor="start" x="144" y="-115" font-family="Helvetica,sans-Serif" font-size="10.00" fill="forestgreen">+</text>
<text text-anchor="start" x="151" y="-115" font-family="Helvetica,sans-Serif" font-size="10.00">PlayableAudio</text>
<text text-anchor="start" x="144" y="-105" font-family="Helvetica,sans-Serif" font-size="10.00" fill="forestgreen">+</text>
<text text-anchor="start" x="151" y="-105" font-family="Helvetica,sans-Serif" font-size="10.00">Sound</text>
<text text-anchor="start" x="144" y="-95" font-family="Helvetica,sans-Serif" font-size="10.00" fill="forestgreen">+</text>
<text text-anchor="start" x="151" y="-95" font-family="Helvetica,sans-Serif" font-size="10.00">Sys</text>
</g>
<!-- app::audio&#45;&gt;app::app_base -->
<g id="edge4" class="edge"><title>app::audio&#45;&gt;app::app_base</title>
<path fill="none" stroke="black" stroke-width="0.5" stroke-dasharray="5,2" d="M179,-150.119C179,-180.204 179,-226.886 179,-256.947"/>
<polygon fill="black" stroke="black" stroke-width="0.5" points="179,-261.991 176.75,-256.991 179,-259.491 179,-256.991 179,-256.991 179,-256.991 179,-259.491 181.25,-256.991 179,-261.991 179,-261.991"/>
</g>
<!-- app::http_request -->
<g id="node6" class="node"><title>app::http_request</title>
<polygon fill="#fffaf3" stroke="black" points="359,-155 239,-155 239,-85 365,-85 365,-149 359,-155"/>
<polyline fill="none" stroke="black" points="359,-155 359,-149 "/>
<polyline fill="none" stroke="black" points="365,-149 359,-149 "/>
<text text-anchor="start" x="241" y="-145.5" font-family="Helvetica,sans-Serif" font-weight="bold" font-size="10.00">http_request</text>
<text text-anchor="start" x="241" y="-130" font-family="Helvetica,sans-Serif" font-size="10.00" fill="forestgreen">+</text>
<text text-anchor="start" x="248" y="-130" font-family="Helvetica,sans-Serif" font-size="10.00">App</text>
<text text-anchor="start" x="241" y="-120" font-family="Helvetica,sans-Serif" font-size="10.00" fill="forestgreen">+</text>
<text text-anchor="start" x="248" y="-120" font-family="Helvetica,sans-Serif" font-size="10.00">AsyncHttpRequest</text>
<text text-anchor="start" x="241" y="-110" font-family="Helvetica,sans-Serif" font-size="10.00" fill="forestgreen">+</text>
<text text-anchor="start" x="248" y="-110" font-family="Helvetica,sans-Serif" font-size="10.00">HttpRequestResult</text>
<text text-anchor="start" x="241" y="-100" font-family="Helvetica,sans-Serif" font-size="10.00" fill="forestgreen">+</text>
<text text-anchor="start" x="248" y="-100" font-family="Helvetica,sans-Serif" font-size="10.00">SimpleAsyncHttpRequest</text>
<text text-anchor="start" x="241" y="-90" font-family="Helvetica,sans-Serif" font-size="10.00" fill="forestgreen">+</text>
<text text-anchor="start" x="248" y="-90" font-family="Helvetica,sans-Serif" font-size="10.00">Text</text>
</g>
<!-- app::http_request&#45;&gt;app::app_base -->
<g id="edge5" class="edge"><title>app::http_request&#45;&gt;app::app_base</title>
<path fill="none" stroke="black" stroke-width="0.5" stroke-dasharray="5,2" d="M283.523,-155.056C269.458,-179.696 248.849,-213.229 227,-240 221.923,-246.22 216.061,-252.457 210.216,-258.241"/>
<polygon fill="black" stroke="black" stroke-width="0.5" points="206.585,-261.78 208.595,-256.679 208.376,-260.035 210.166,-258.29 210.166,-258.29 210.166,-258.29 208.376,-260.035 211.736,-259.901 206.585,-261.78 206.585,-261.78"/>
</g>
<!-- app::ui -->
<g id="node7" class="node"><title>app::ui</title>
<polygon fill="#fffaf3" stroke="black" points="473,-240 387,-240 387,-2.84217e-14 479,-2.84217e-14 479,-234 473,-240"/>
<polyline fill="none" stroke="black" points="473,-240 473,-234 "/>
<polyline fill="none" stroke="black" points="479,-234 473,-234 "/>
<text text-anchor="start" x="389" y="-230.5" font-family="Helvetica,sans-Serif" font-weight="bold" font-size="10.00">ui</text>
<text text-anchor="start" x="389" y="-215" font-family="Helvetica,sans-Serif" font-size="10.00" fill="forestgreen">+</text>
<text text-anchor="start" x="396" y="-215" font-family="Helvetica,sans-Serif" font-size="10.00">App</text>
<text text-anchor="start" x="389" y="-205" font-family="Helvetica,sans-Serif" font-size="10.00" fill="forestgreen">+</text>
<text text-anchor="start" x="396" y="-205" font-family="Helvetica,sans-Serif" font-size="10.00">AppComponent</text>
<text text-anchor="start" x="389" y="-195" font-family="Helvetica,sans-Serif" font-size="10.00" fill="forestgreen">+</text>
<text text-anchor="start" x="396" y="-195" font-family="Helvetica,sans-Serif" font-size="10.00">AppEvent</text>
<text text-anchor="start" x="389" y="-185" font-family="Helvetica,sans-Serif" font-size="10.00" fill="forestgreen">+</text>
<text text-anchor="start" x="396" y="-185" font-family="Helvetica,sans-Serif" font-size="10.00">AppObserver</text>
<text text-anchor="start" x="389" y="-175" font-family="Helvetica,sans-Serif" font-size="10.00" fill="forestgreen">+</text>
<text text-anchor="start" x="396" y="-175" font-family="Helvetica,sans-Serif" font-size="10.00">Button</text>
<text text-anchor="start" x="389" y="-165" font-family="Helvetica,sans-Serif" font-size="10.00" fill="forestgreen">+</text>
<text text-anchor="start" x="396" y="-165" font-family="Helvetica,sans-Serif" font-size="10.00">ButtonPressEvent</text>
<text text-anchor="start" x="389" y="-155" font-family="Helvetica,sans-Serif" font-size="10.00" fill="forestgreen">+</text>
<text text-anchor="start" x="396" y="-155" font-family="Helvetica,sans-Serif" font-size="10.00">CheckBox</text>
<text text-anchor="start" x="389" y="-145" font-family="Helvetica,sans-Serif" font-size="10.00" fill="forestgreen">+</text>
<text text-anchor="start" x="396" y="-145" font-family="Helvetica,sans-Serif" font-size="10.00">CompositeControl</text>
<text text-anchor="start" x="389" y="-135" font-family="Helvetica,sans-Serif" font-size="10.00" fill="forestgreen">+</text>
<text text-anchor="start" x="396" y="-135" font-family="Helvetica,sans-Serif" font-size="10.00">Control</text>
<text text-anchor="start" x="389" y="-125" font-family="Helvetica,sans-Serif" font-size="10.00" fill="forestgreen">+</text>
<text text-anchor="start" x="396" y="-125" font-family="Helvetica,sans-Serif" font-size="10.00">HorizontalLayout</text>
<text text-anchor="start" x="389" y="-115" font-family="Helvetica,sans-Serif" font-size="10.00" fill="forestgreen">+</text>
<text text-anchor="start" x="396" y="-115" font-family="Helvetica,sans-Serif" font-size="10.00">Label</text>
<text text-anchor="start" x="389" y="-105" font-family="Helvetica,sans-Serif" font-size="10.00" fill="forestgreen">+</text>
<text text-anchor="start" x="396" y="-105" font-family="Helvetica,sans-Serif" font-size="10.00">Layout</text>
<text text-anchor="start" x="389" y="-95" font-family="Helvetica,sans-Serif" font-size="10.00" fill="forestgreen">+</text>
<text text-anchor="start" x="396" y="-95" font-family="Helvetica,sans-Serif" font-size="10.00">ListLayout</text>
<text text-anchor="start" x="389" y="-85" font-family="Helvetica,sans-Serif" font-size="10.00" fill="forestgreen">+</text>
<text text-anchor="start" x="396" y="-85" font-family="Helvetica,sans-Serif" font-size="10.00">Sys</text>
<text text-anchor="start" x="389" y="-75" font-family="Helvetica,sans-Serif" font-size="10.00" fill="forestgreen">+</text>
<text text-anchor="start" x="396" y="-75" font-family="Helvetica,sans-Serif" font-size="10.00">Text</text>
<text text-anchor="start" x="389" y="-65" font-family="Helvetica,sans-Serif" font-size="10.00" fill="forestgreen">+</text>
<text text-anchor="start" x="396" y="-65" font-family="Helvetica,sans-Serif" font-size="10.00">TextInput</text>
<text text-anchor="start" x="389" y="-55" font-family="Helvetica,sans-Serif" font-size="10.00" fill="forestgreen">+</text>
<text text-anchor="start" x="396" y="-55" font-family="Helvetica,sans-Serif" font-size="10.00">TextView</text>
<text text-anchor="start" x="389" y="-45" font-family="Helvetica,sans-Serif" font-size="10.00" fill="forestgreen">+</text>
<text text-anchor="start" x="396" y="-45" font-family="Helvetica,sans-Serif" font-size="10.00">ToggleEvent</text>
<text text-anchor="start" x="389" y="-35" font-family="Helvetica,sans-Serif" font-size="10.00" fill="forestgreen">+</text>
<text text-anchor="start" x="396" y="-35" font-family="Helvetica,sans-Serif" font-size="10.00">VerticalLayout</text>
<text text-anchor="start" x="389" y="-25" font-family="Helvetica,sans-Serif" font-size="10.00" fill="forestgreen">+</text>
<text text-anchor="start" x="396" y="-25" font-family="Helvetica,sans-Serif" font-size="10.00">View</text>
<text text-anchor="start" x="389" y="-15" font-family="Helvetica,sans-Serif" font-size="10.00" fill="forestgreen">+</text>
<text text-anchor="start" x="396" y="-15" font-family="Helvetica,sans-Serif" font-size="10.00">ViewEvent</text>
<text text-anchor="start" x="389" y="-5" font-family="Helvetica,sans-Serif" font-size="10.00" fill="forestgreen">+</text>
<text text-anchor="start" x="396" y="-5" font-family="Helvetica,sans-Serif" font-size="10.00">Window</text>
</g>
<!-- app::ui&#45;&gt;app::app_base -->
<g id="edge6" class="edge"><title>app::ui&#45;&gt;app::app_base</title>
<path fill="none" stroke="black" stroke-width="0.5" stroke-dasharray="5,2" d="M386.804,-229.859C383.436,-233.51 379.84,-236.916 376,-240 332.717,-274.769 267.775,-284.138 224.424,-286.219"/>
<polygon fill="black" stroke="black" stroke-width="0.5" points="219.248,-286.438 224.148,-283.979 221.745,-286.332 224.243,-286.227 224.243,-286.227 224.243,-286.227 221.745,-286.332 224.338,-288.475 219.248,-286.438 219.248,-286.438"/>
</g>
</g>
</svg>
