<?xml version="1.0" encoding="UTF-8" standalone="no"?>
<!DOCTYPE svg PUBLIC "-//W3C//DTD SVG 1.1//EN"
 "http://www.w3.org/Graphics/SVG/1.1/DTD/svg11.dtd">
<!-- Generated by graphviz version 2.36.0 (20140111.2315)
 -->
<!-- Title: G Pages: 1 -->
<svg width="135pt" height="222pt"
 viewBox="0.00 0.00 135.00 222.00" xmlns="http://www.w3.org/2000/svg" xmlns:xlink="http://www.w3.org/1999/xlink">
<g id="graph0" class="graph" transform="scale(1 1) rotate(0) translate(4 218)">
<title>G</title>
<polygon fill="white" stroke="none" points="-4,4 -4,-218 131,-218 131,4 -4,4"/>
<!-- nlp::nlp_server -->
<g id="node1" class="node"><title>nlp::nlp_server</title>
<polygon fill="#fffaf3" stroke="black" points="48,-40 0,-40 0,-0 54,-0 54,-34 48,-40"/>
<polyline fill="none" stroke="black" points="48,-40 48,-34 "/>
<polyline fill="none" stroke="black" points="54,-34 48,-34 "/>
<text text-anchor="start" x="2" y="-30.5" font-family="Helvetica,sans-Serif" font-weight="bold" font-size="10.00">nlp_server</text>
<text text-anchor="start" x="2" y="-15" font-family="Helvetica,sans-Serif" font-size="10.00" fill="forestgreen">+</text>
<text text-anchor="start" x="9" y="-15" font-family="Helvetica,sans-Serif" font-size="10.00">Config</text>
<text text-anchor="start" x="2" y="-5" font-family="Helvetica,sans-Serif" font-size="10.00" fill="forestgreen">+</text>
<text text-anchor="start" x="9" y="-5" font-family="Helvetica,sans-Serif" font-size="10.00">Sys</text>
</g>
<!-- nlp::nlp -->
<g id="node2" class="node"><title>nlp::nlp</title>
<polygon fill="#fffaf3" stroke="black" points="94,-102 28,-102 28,-62 100,-62 100,-96 94,-102"/>
<polyline fill="none" stroke="black" points="94,-102 94,-96 "/>
<polyline fill="none" stroke="black" points="100,-96 94,-96 "/>
<text text-anchor="start" x="30" y="-92.5" font-family="Helvetica,sans-Serif" font-weight="bold" font-size="10.00">nlp</text>
<text text-anchor="start" x="30" y="-77" font-family="Helvetica,sans-Serif" font-size="10.00" fill="forestgreen">+</text>
<text text-anchor="start" x="37" y="-77" font-family="Helvetica,sans-Serif" font-size="10.00">NLPFileIndex</text>
<text text-anchor="start" x="30" y="-67" font-family="Helvetica,sans-Serif" font-size="10.00" fill="forestgreen">+</text>
<text text-anchor="start" x="37" y="-67" font-family="Helvetica,sans-Serif" font-size="10.00">NLPIndex</text>
</g>
<!-- nlp::nlp_server&#45;&gt;nlp::nlp -->
<g id="edge1" class="edge"><title>nlp::nlp_server&#45;&gt;nlp::nlp</title>
<path fill="none" stroke="black" stroke-width="0.5" stroke-dasharray="5,2" d="M38.9107,-40.3146C42.2776,-45.7745 45.9794,-51.7774 49.4814,-57.4563"/>
<polygon fill="black" stroke="black" stroke-width="0.5" points="52.1116,-61.7215 47.572,-58.6467 50.7994,-59.5936 49.4871,-57.4657 49.4871,-57.4657 49.4871,-57.4657 50.7994,-59.5936 51.4023,-56.2847 52.1116,-61.7215 52.1116,-61.7215"/>
</g>
<!-- nlp::stanford -->
<g id="node4" class="node"><title>nlp::stanford</title>
<polygon fill="#fffaf3" stroke="black" points="106.5,-214 15.5,-214 15.5,-124 112.5,-124 112.5,-208 106.5,-214"/>
<polyline fill="none" stroke="black" points="106.5,-214 106.5,-208 "/>
<polyline fill="none" stroke="black" points="112.5,-208 106.5,-208 "/>
<text text-anchor="start" x="18" y="-204.5" font-family="Helvetica,sans-Serif" font-weight="bold" font-size="10.00">stanford</text>
<text text-anchor="start" x="18" y="-189" font-family="Helvetica,sans-Serif" font-size="10.00" fill="forestgreen">+</text>
<text text-anchor="start" x="25" y="-189" font-family="Helvetica,sans-Serif" font-size="10.00">NLPClient</text>
<text text-anchor="start" x="18" y="-179" font-family="Helvetica,sans-Serif" font-size="10.00" fill="forestgreen">+</text>
<text text-anchor="start" x="25" y="-179" font-family="Helvetica,sans-Serif" font-size="10.00">NLPDocument</text>
<text text-anchor="start" x="18" y="-169" font-family="Helvetica,sans-Serif" font-size="10.00" fill="forestgreen">+</text>
<text text-anchor="start" x="25" y="-169" font-family="Helvetica,sans-Serif" font-size="10.00">NLPJavaProcessor</text>
<text text-anchor="start" x="18" y="-159" font-family="Helvetica,sans-Serif" font-size="10.00" fill="forestgreen">+</text>
<text text-anchor="start" x="25" y="-159" font-family="Helvetica,sans-Serif" font-size="10.00">NLPProcessor</text>
<text text-anchor="start" x="18" y="-149" font-family="Helvetica,sans-Serif" font-size="10.00" fill="forestgreen">+</text>
<text text-anchor="start" x="25" y="-149" font-family="Helvetica,sans-Serif" font-size="10.00">NLPSentence</text>
<text text-anchor="start" x="18" y="-139" font-family="Helvetica,sans-Serif" font-size="10.00" fill="forestgreen">+</text>
<text text-anchor="start" x="25" y="-139" font-family="Helvetica,sans-Serif" font-size="10.00">NLPServer</text>
<text text-anchor="start" x="18" y="-129" font-family="Helvetica,sans-Serif" font-size="10.00" fill="forestgreen">+</text>
<text text-anchor="start" x="25" y="-129" font-family="Helvetica,sans-Serif" font-size="10.00">NLPToken</text>
</g>
<!-- nlp::nlp&#45;&gt;nlp::stanford -->
<g id="edge2" class="edge"><title>nlp::nlp&#45;&gt;nlp::stanford</title>
<path fill="none" stroke="black" stroke-width="0.5" stroke-dasharray="5,2" d="M64,-102.288C64,-107.238 64,-112.794 64,-118.524"/>
<polygon fill="black" stroke="black" stroke-width="0.5" points="64,-123.823 61.7501,-118.823 64,-121.323 64.0001,-118.823 64.0001,-118.823 64.0001,-118.823 64,-121.323 66.2501,-118.823 64,-123.823 64,-123.823"/>
</g>
<!-- nlp::nlp_index -->
<g id="node3" class="node"><title>nlp::nlp_index</title>
<polygon fill="#fffaf3" stroke="black" points="121.5,-40 76.5,-40 76.5,-0 127.5,-0 127.5,-34 121.5,-40"/>
<polyline fill="none" stroke="black" points="121.5,-40 121.5,-34 "/>
<polyline fill="none" stroke="black" points="127.5,-34 121.5,-34 "/>
<text text-anchor="start" x="79" y="-30.5" font-family="Helvetica,sans-Serif" font-weight="bold" font-size="10.00">nlp_index</text>
<text text-anchor="start" x="79" y="-15" font-family="Helvetica,sans-Serif" font-size="10.00" fill="forestgreen">+</text>
<text text-anchor="start" x="86" y="-15" font-family="Helvetica,sans-Serif" font-size="10.00">Config</text>
<text text-anchor="start" x="79" y="-5" font-family="Helvetica,sans-Serif" font-size="10.00" fill="forestgreen">+</text>
<text text-anchor="start" x="86" y="-5" font-family="Helvetica,sans-Serif" font-size="10.00">Sys</text>
</g>
<!-- nlp::nlp_index&#45;&gt;nlp::nlp -->
<g id="edge3" class="edge"><title>nlp::nlp_index&#45;&gt;nlp::nlp</title>
<path fill="none" stroke="black" stroke-width="0.5" stroke-dasharray="5,2" d="M89.7674,-40.3146C86.3095,-45.7745 82.5076,-51.7774 78.911,-57.4563"/>
<polygon fill="black" stroke="black" stroke-width="0.5" points="76.2097,-61.7215 76.9841,-56.2935 77.5473,-59.6095 78.885,-57.4974 78.885,-57.4974 78.885,-57.4974 77.5473,-59.6095 80.7858,-58.7013 76.2097,-61.7215 76.2097,-61.7215"/>
</g>
</g>
</svg>
