<?xml version="1.0" encoding="UTF-8" standalone="no"?>
<!DOCTYPE svg PUBLIC "-//W3C//DTD SVG 1.1//EN"
 "http://www.w3.org/Graphics/SVG/1.1/DTD/svg11.dtd">
<!-- Generated by graphviz version 2.36.0 (20140111.2315)
 -->
<!-- Title: G Pages: 1 -->
<svg width="306pt" height="332pt"
 viewBox="0.00 0.00 306.00 332.00" xmlns="http://www.w3.org/2000/svg" xmlns:xlink="http://www.w3.org/1999/xlink">
<g id="graph0" class="graph" transform="scale(1 1) rotate(0) translate(4 328)">
<title>G</title>
<polygon fill="white" stroke="none" points="-4,4 -4,-328 302,-328 302,4 -4,4"/>
<!-- pthreads::extra -->
<g id="node1" class="node"><title>pthreads::extra</title>
<polygon fill="#fffaf3" stroke="black" points="36.5,-162 -0.5,-162 -0.5,-122 42.5,-122 42.5,-156 36.5,-162"/>
<polyline fill="none" stroke="black" points="36.5,-162 36.5,-156 "/>
<polyline fill="none" stroke="black" points="42.5,-156 36.5,-156 "/>
<text text-anchor="start" x="2" y="-152.5" font-family="Helvetica,sans-Serif" font-weight="bold" font-size="10.00">extra</text>
<text text-anchor="start" x="2" y="-137" font-family="Helvetica,sans-Serif" font-size="10.00" fill="forestgreen">+</text>
<text text-anchor="start" x="9" y="-137" font-family="Helvetica,sans-Serif" font-size="10.00">Sys</text>
<text text-anchor="start" x="2" y="-127" font-family="Helvetica,sans-Serif" font-size="10.00" fill="forestgreen">+</text>
<text text-anchor="start" x="9" y="-127" font-family="Helvetica,sans-Serif" font-size="10.00">Thread</text>
</g>
<!-- pthreads::pthreads -->
<g id="node3" class="node"><title>pthreads::pthreads</title>
<polygon fill="#fffaf3" stroke="black" points="136,-324 72,-324 72,-234 142,-234 142,-318 136,-324"/>
<polyline fill="none" stroke="black" points="136,-324 136,-318 "/>
<polyline fill="none" stroke="black" points="142,-318 136,-318 "/>
<text text-anchor="start" x="74" y="-314.5" font-family="Helvetica,sans-Serif" font-weight="bold" font-size="10.00">pthreads</text>
<text text-anchor="start" x="74" y="-299" font-family="Helvetica,sans-Serif" font-size="10.00" fill="forestgreen">+</text>
<text text-anchor="start" x="81" y="-299" font-family="Helvetica,sans-Serif" font-size="10.00">AtomicInt</text>
<text text-anchor="start" x="74" y="-289" font-family="Helvetica,sans-Serif" font-size="10.00" fill="forestgreen">+</text>
<text text-anchor="start" x="81" y="-289" font-family="Helvetica,sans-Serif" font-size="10.00">Barrier</text>
<text text-anchor="start" x="74" y="-279" font-family="Helvetica,sans-Serif" font-size="10.00" fill="forestgreen">+</text>
<text text-anchor="start" x="81" y="-279" font-family="Helvetica,sans-Serif" font-size="10.00">MainThread</text>
<text text-anchor="start" x="74" y="-269" font-family="Helvetica,sans-Serif" font-size="10.00" fill="forestgreen">+</text>
<text text-anchor="start" x="81" y="-269" font-family="Helvetica,sans-Serif" font-size="10.00">Mutex</text>
<text text-anchor="start" x="74" y="-259" font-family="Helvetica,sans-Serif" font-size="10.00" fill="forestgreen">+</text>
<text text-anchor="start" x="81" y="-259" font-family="Helvetica,sans-Serif" font-size="10.00">PthreadCond</text>
<text text-anchor="start" x="74" y="-249" font-family="Helvetica,sans-Serif" font-size="10.00" fill="forestgreen">+</text>
<text text-anchor="start" x="81" y="-249" font-family="Helvetica,sans-Serif" font-size="10.00">Sys</text>
<text text-anchor="start" x="74" y="-239" font-family="Helvetica,sans-Serif" font-size="10.00" fill="forestgreen">+</text>
<text text-anchor="start" x="81" y="-239" font-family="Helvetica,sans-Serif" font-size="10.00">Thread</text>
</g>
<!-- pthreads::extra&#45;&gt;pthreads::pthreads -->
<g id="edge1" class="edge"><title>pthreads::extra&#45;&gt;pthreads::pthreads</title>
<path fill="none" stroke="black" stroke-width="0.5" stroke-dasharray="5,2" d="M28.7045,-162.067C34.7796,-176.279 43.8919,-195.925 54,-212 58.4052,-219.005 63.4369,-226.123 68.6063,-232.963"/>
<polygon fill="black" stroke="black" stroke-width="0.5" points="71.8384,-237.183 67.0119,-234.582 70.3183,-235.198 68.7982,-233.214 68.7982,-233.214 68.7982,-233.214 70.3183,-235.198 70.5844,-231.845 71.8384,-237.183 71.8384,-237.183"/>
</g>
<!-- pthreads::threadpool -->
<g id="node2" class="node"><title>pthreads::threadpool</title>
<polygon fill="#fffaf3" stroke="black" points="260,-50 204,-50 204,-0 266,-0 266,-44 260,-50"/>
<polyline fill="none" stroke="black" points="260,-50 260,-44 "/>
<polyline fill="none" stroke="black" points="266,-44 260,-44 "/>
<text text-anchor="start" x="206" y="-40.5" font-family="Helvetica,sans-Serif" font-weight="bold" font-size="10.00">threadpool</text>
<text text-anchor="start" x="206" y="-25" font-family="Helvetica,sans-Serif" font-size="10.00" fill="forestgreen">+</text>
<text text-anchor="start" x="213" y="-25" font-family="Helvetica,sans-Serif" font-size="10.00">JoinTask</text>
<text text-anchor="start" x="206" y="-15" font-family="Helvetica,sans-Serif" font-size="10.00" fill="forestgreen">+</text>
<text text-anchor="start" x="213" y="-15" font-family="Helvetica,sans-Serif" font-size="10.00">Task</text>
<text text-anchor="start" x="206" y="-5" font-family="Helvetica,sans-Serif" font-size="10.00" fill="forestgreen">+</text>
<text text-anchor="start" x="213" y="-5" font-family="Helvetica,sans-Serif" font-size="10.00">ThreadPool</text>
</g>
<!-- pthreads::concurrent_collections -->
<g id="node5" class="node"><title>pthreads::concurrent_collections</title>
<polygon fill="#fffaf3" stroke="black" points="292.5,-212 171.5,-212 171.5,-72 298.5,-72 298.5,-206 292.5,-212"/>
<polyline fill="none" stroke="black" points="292.5,-212 292.5,-206 "/>
<polyline fill="none" stroke="black" points="298.5,-206 292.5,-206 "/>
<text text-anchor="start" x="174" y="-202.5" font-family="Helvetica,sans-Serif" font-weight="bold" font-size="10.00">concurrent_collections</text>
<text text-anchor="start" x="174" y="-187" font-family="Helvetica,sans-Serif" font-size="10.00" fill="forestgreen">+</text>
<text text-anchor="start" x="181" y="-187" font-family="Helvetica,sans-Serif" font-size="10.00">Array</text>
<text text-anchor="start" x="174" y="-177" font-family="Helvetica,sans-Serif" font-size="10.00" fill="forestgreen">+</text>
<text text-anchor="start" x="181" y="-177" font-family="Helvetica,sans-Serif" font-size="10.00">BlockingQueue</text>
<text text-anchor="start" x="174" y="-167" font-family="Helvetica,sans-Serif" font-size="10.00" fill="forestgreen">+</text>
<text text-anchor="start" x="181" y="-167" font-family="Helvetica,sans-Serif" font-size="10.00">Collection</text>
<text text-anchor="start" x="174" y="-157" font-family="Helvetica,sans-Serif" font-size="10.00" fill="forestgreen">+</text>
<text text-anchor="start" x="181" y="-157" font-family="Helvetica,sans-Serif" font-size="10.00">ConcurrentArray</text>
<text text-anchor="start" x="174" y="-147" font-family="Helvetica,sans-Serif" font-size="10.00" fill="forestgreen">+</text>
<text text-anchor="start" x="181" y="-147" font-family="Helvetica,sans-Serif" font-size="10.00">ConcurrentCollection</text>
<text text-anchor="start" x="174" y="-137" font-family="Helvetica,sans-Serif" font-size="10.00" fill="forestgreen">+</text>
<text text-anchor="start" x="181" y="-137" font-family="Helvetica,sans-Serif" font-size="10.00">ConcurrentList</text>
<text text-anchor="start" x="174" y="-127" font-family="Helvetica,sans-Serif" font-size="10.00" fill="forestgreen">+</text>
<text text-anchor="start" x="181" y="-127" font-family="Helvetica,sans-Serif" font-size="10.00">ConcurrentSequence</text>
<text text-anchor="start" x="174" y="-117" font-family="Helvetica,sans-Serif" font-size="10.00" fill="forestgreen">+</text>
<text text-anchor="start" x="181" y="-117" font-family="Helvetica,sans-Serif" font-size="10.00">ConcurrentSequenceRead</text>
<text text-anchor="start" x="174" y="-107" font-family="Helvetica,sans-Serif" font-size="10.00" fill="forestgreen">+</text>
<text text-anchor="start" x="181" y="-107" font-family="Helvetica,sans-Serif" font-size="10.00">List</text>
<text text-anchor="start" x="174" y="-97" font-family="Helvetica,sans-Serif" font-size="10.00" fill="forestgreen">+</text>
<text text-anchor="start" x="181" y="-97" font-family="Helvetica,sans-Serif" font-size="10.00">ReverseBlockingQueue</text>
<text text-anchor="start" x="174" y="-87" font-family="Helvetica,sans-Serif" font-size="10.00" fill="forestgreen">+</text>
<text text-anchor="start" x="181" y="-87" font-family="Helvetica,sans-Serif" font-size="10.00">Sequence</text>
<text text-anchor="start" x="174" y="-77" font-family="Helvetica,sans-Serif" font-size="10.00" fill="forestgreen">+</text>
<text text-anchor="start" x="181" y="-77" font-family="Helvetica,sans-Serif" font-size="10.00">SequenceRead</text>
</g>
<!-- pthreads::threadpool&#45;&gt;pthreads::concurrent_collections -->
<g id="edge2" class="edge"><title>pthreads::threadpool&#45;&gt;pthreads::concurrent_collections</title>
<path fill="none" stroke="black" stroke-width="0.5" stroke-dasharray="5,2" d="M235,-50.1078C235,-55.2533 235,-60.9448 235,-66.8958"/>
<polygon fill="black" stroke="black" stroke-width="0.5" points="235,-71.9494 232.75,-66.9494 235,-69.4494 235,-66.9494 235,-66.9494 235,-66.9494 235,-69.4494 237.25,-66.9495 235,-71.9494 235,-71.9494"/>
</g>
<!-- pthreads::redef_collections -->
<g id="node4" class="node"><title>pthreads::redef_collections</title>
<polygon fill="#fffaf3" stroke="black" points="144.333,-157.5 64.5,-157.5 64.5,-126.5 149.5,-126.5 149.5,-152.333 144.333,-157.5"/>
<polyline fill="none" stroke="black" points="144.333,-157.5 144.333,-152.333 "/>
<polyline fill="none" stroke="black" points="149.5,-152.333 144.333,-152.333 "/>
<text text-anchor="start" x="67" y="-147.5" font-family="Helvetica,sans-Serif" font-weight="bold" font-size="10.00">redef_collections</text>
<text text-anchor="start" x="67" y="-132" font-family="Helvetica,sans-Serif" font-size="10.00" fill="forestgreen">+</text>
<text text-anchor="start" x="74" y="-132" font-family="Helvetica,sans-Serif" font-size="10.00">Array</text>
</g>
<!-- pthreads::redef_collections&#45;&gt;pthreads::pthreads -->
<g id="edge3" class="edge"><title>pthreads::redef_collections&#45;&gt;pthreads::pthreads</title>
<path fill="none" stroke="black" stroke-width="0.5" stroke-dasharray="5,2" d="M107,-157.704C107,-174.675 107,-203.483 107,-228.654"/>
<polygon fill="black" stroke="black" stroke-width="0.5" points="107,-233.964 104.75,-228.964 107,-231.464 107,-228.964 107,-228.964 107,-228.964 107,-231.464 109.25,-228.964 107,-233.964 107,-233.964"/>
</g>
<!-- pthreads::concurrent_collections&#45;&gt;pthreads::pthreads -->
<g id="edge4" class="edge"><title>pthreads::concurrent_collections&#45;&gt;pthreads::pthreads</title>
<path fill="none" stroke="black" stroke-width="0.5" stroke-dasharray="5,2" d="M171.75,-209.709C162.822,-219.125 153.874,-228.562 145.603,-237.286"/>
<polygon fill="black" stroke="black" stroke-width="0.5" points="142.101,-240.98 143.908,-235.803 143.821,-239.165 145.541,-237.351 145.541,-237.351 145.541,-237.351 143.821,-239.165 147.174,-238.899 142.101,-240.98 142.101,-240.98"/>
</g>
</g>
</svg>
