<?xml version="1.0" encoding="UTF-8" standalone="no"?>
<!DOCTYPE svg PUBLIC "-//W3C//DTD SVG 1.1//EN"
 "http://www.w3.org/Graphics/SVG/1.1/DTD/svg11.dtd">
<!-- Generated by graphviz version 2.36.0 (20140111.2315)
 -->
<!-- Title: G Pages: 1 -->
<svg width="92pt" height="200pt"
 viewBox="0.00 0.00 92.00 200.00" xmlns="http://www.w3.org/2000/svg" xmlns:xlink="http://www.w3.org/1999/xlink">
<g id="graph0" class="graph" transform="scale(1 1) rotate(0) translate(4 196)">
<title>G</title>
<polygon fill="white" stroke="none" points="-4,4 -4,-196 88,-196 88,4 -4,4"/>
<!-- cocoa::app_kit -->
<g id="node1" class="node"><title>cocoa::app_kit</title>
<polygon fill="#fffaf3" stroke="black" points="60.3333,-69.5 18.5,-69.5 18.5,-38.5 65.5,-38.5 65.5,-64.3333 60.3333,-69.5"/>
<polyline fill="none" stroke="black" points="60.3333,-69.5 60.3333,-64.3333 "/>
<polyline fill="none" stroke="black" points="65.5,-64.3333 60.3333,-64.3333 "/>
<text text-anchor="start" x="21" y="-59.5" font-family="Helvetica,sans-Serif" font-weight="bold" font-size="10.00">app_kit</text>
<text text-anchor="start" x="21" y="-44" font-family="Helvetica,sans-Serif" font-size="10.00" fill="forestgreen">+</text>
<text text-anchor="start" x="28" y="-44" font-family="Helvetica,sans-Serif" font-size="10.00">NSAlert</text>
</g>
<!-- cocoa::foundation -->
<g id="node3" class="node"><title>cocoa::foundation</title>
<polygon fill="#fffaf3" stroke="black" points="78.5,-192 -0.5,-192 -0.5,-92 84.5,-92 84.5,-186 78.5,-192"/>
<polyline fill="none" stroke="black" points="78.5,-192 78.5,-186 "/>
<polyline fill="none" stroke="black" points="84.5,-186 78.5,-186 "/>
<text text-anchor="start" x="2" y="-182.5" font-family="Helvetica,sans-Serif" font-weight="bold" font-size="10.00">foundation</text>
<text text-anchor="start" x="2" y="-167" font-family="Helvetica,sans-Serif" font-size="10.00" fill="forestgreen">+</text>
<text text-anchor="start" x="9" y="-167" font-family="Helvetica,sans-Serif" font-size="10.00">CString</text>
<text text-anchor="start" x="2" y="-157" font-family="Helvetica,sans-Serif" font-size="10.00" fill="forestgreen">+</text>
<text text-anchor="start" x="9" y="-157" font-family="Helvetica,sans-Serif" font-size="10.00">NSData</text>
<text text-anchor="start" x="2" y="-147" font-family="Helvetica,sans-Serif" font-size="10.00" fill="forestgreen">+</text>
<text text-anchor="start" x="9" y="-147" font-family="Helvetica,sans-Serif" font-size="10.00">NSError</text>
<text text-anchor="start" x="2" y="-137" font-family="Helvetica,sans-Serif" font-size="10.00" fill="forestgreen">+</text>
<text text-anchor="start" x="9" y="-137" font-family="Helvetica,sans-Serif" font-size="10.00">NSIndexPath</text>
<text text-anchor="start" x="2" y="-127" font-family="Helvetica,sans-Serif" font-size="10.00" fill="forestgreen">+</text>
<text text-anchor="start" x="9" y="-127" font-family="Helvetica,sans-Serif" font-size="10.00">NSObject</text>
<text text-anchor="start" x="2" y="-117" font-family="Helvetica,sans-Serif" font-size="10.00" fill="forestgreen">+</text>
<text text-anchor="start" x="9" y="-117" font-family="Helvetica,sans-Serif" font-size="10.00">NSString</text>
<text text-anchor="start" x="2" y="-107" font-family="Helvetica,sans-Serif" font-size="10.00" fill="forestgreen">+</text>
<text text-anchor="start" x="9" y="-107" font-family="Helvetica,sans-Serif" font-size="10.00">NSUserDefaults</text>
<text text-anchor="start" x="2" y="-97" font-family="Helvetica,sans-Serif" font-size="10.00" fill="forestgreen">+</text>
<text text-anchor="start" x="9" y="-97" font-family="Helvetica,sans-Serif" font-size="10.00">Text</text>
</g>
<!-- cocoa::app_kit&#45;&gt;cocoa::foundation -->
<g id="edge1" class="edge"><title>cocoa::app_kit&#45;&gt;cocoa::foundation</title>
<path fill="none" stroke="black" stroke-width="0.5" stroke-dasharray="5,2" d="M42,-69.5887C42,-74.5307 42,-80.3789 42,-86.5679"/>
<polygon fill="black" stroke="black" stroke-width="0.5" points="42,-91.8343 39.7501,-86.8342 42,-89.3343 42.0001,-86.8343 42.0001,-86.8343 42.0001,-86.8343 42,-89.3343 44.2501,-86.8343 42,-91.8343 42,-91.8343"/>
</g>
<!-- cocoa::cocoa -->
<g id="node2" class="node"><title>cocoa::cocoa</title>
<polygon fill="#fffaf3" stroke="black" points="55.8333,-16 25.5,-16 25.5,-0 58.5,-0 58.5,-13.3333 55.8333,-16"/>
<polyline fill="none" stroke="black" points="55.8333,-16 55.8333,-13.3333 "/>
<polyline fill="none" stroke="black" points="58.5,-13.3333 55.8333,-13.3333 "/>
<text text-anchor="start" x="28" y="-6.5" font-family="Helvetica,sans-Serif" font-weight="bold" font-size="10.00">cocoa</text>
</g>
<!-- cocoa::cocoa&#45;&gt;cocoa::app_kit -->
<g id="edge2" class="edge"><title>cocoa::cocoa&#45;&gt;cocoa::app_kit</title>
<path fill="none" stroke="black" stroke-width="0.5" stroke-dasharray="5,2" d="M42,-16.2657C42,-20.8255 42,-26.9483 42,-32.8864"/>
<polygon fill="black" stroke="black" stroke-width="0.5" points="42,-38.2377 39.7501,-33.2377 42,-35.7377 42.0001,-33.2377 42.0001,-33.2377 42.0001,-33.2377 42,-35.7377 44.2501,-33.2378 42,-38.2377 42,-38.2377"/>
</g>
</g>
</svg>
