<?xml version="1.0" encoding="UTF-8" standalone="no"?>
<!DOCTYPE svg PUBLIC "-//W3C//DTD SVG 1.1//EN"
 "http://www.w3.org/Graphics/SVG/1.1/DTD/svg11.dtd">
<!-- Generated by graphviz version 2.36.0 (20140111.2315)
 -->
<!-- Title: G Pages: 1 -->
<svg width="887pt" height="252pt"
 viewBox="0.00 0.00 887.00 252.00" xmlns="http://www.w3.org/2000/svg" xmlns:xlink="http://www.w3.org/1999/xlink">
<g id="graph0" class="graph" transform="scale(1 1) rotate(0) translate(4 248)">
<title>G</title>
<polygon fill="white" stroke="none" points="-4,4 -4,-248 883,-248 883,4 -4,4"/>
<!-- vsm::IndexMatchSorter -->
<g id="node1" class="node"><title>vsm::IndexMatchSorter</title>
<polygon fill="white" stroke="none" points="88.5,-46 -0.5,-46 -0.5,-28 88.5,-28 88.5,-46"/>
<polygon fill="none" stroke="forestgreen" points="0,-28 0,-46 89,-46 89,-28 0,-28"/>
<text text-anchor="start" x="3.5" y="-35.5" font-family="Helvetica,sans-Serif" font-weight="bold" font-size="10.00">IndexMatchSorter</text>
</g>
<!-- vsm::IndexMatch -->
<g id="node2" class="node"><title>vsm::IndexMatch</title>
<polygon fill="white" stroke="none" points="253.5,-46 110.5,-46 110.5,-28 253.5,-28 253.5,-46"/>
<polygon fill="none" stroke="forestgreen" points="111,-28 111,-46 254,-46 254,-28 111,-28"/>
<text text-anchor="start" x="114.5" y="-35.5" font-family="Helvetica,sans-Serif" font-weight="bold" font-size="10.00">IndexMatch[DOC: Document]</text>
</g>
<!-- vsm::StringIndex -->
<g id="node3" class="node"><title>vsm::StringIndex</title>
<polygon fill="white" stroke="none" points="616,-150 234,-150 234,-96 616,-96 616,-150"/>
<polygon fill="none" stroke="forestgreen" points="234,-132 234,-150 616,-150 616,-132 234,-132"/>
<text text-anchor="start" x="397.5" y="-139.5" font-family="Helvetica,sans-Serif" font-weight="bold" font-size="10.00">StringIndex</text>
<polygon fill="none" stroke="forestgreen" points="234,-96 234,-132 616,-132 616,-96 234,-96"/>
<text text-anchor="start" x="237" y="-122" font-family="Helvetica,sans-Serif" font-size="10.00" fill="forestgreen">+</text>
<text text-anchor="start" x="244" y="-122" font-family="Helvetica,sans-Serif" font-size="10.00"> index_string(title: String, uri: String, string: String, auto_update: nullable Bool): DOC</text>
<text text-anchor="start" x="237" y="-112" font-family="Helvetica,sans-Serif" font-size="10.00" fill="forestgreen">+</text>
<text text-anchor="start" x="244" y="-112" font-family="Helvetica,sans-Serif" font-size="10.00"> match_string(query: String): Array[IndexMatch[DOC]]</text>
<text text-anchor="start" x="237" y="-102" font-family="Helvetica,sans-Serif" font-size="10.00" fill="forestgreen">+</text>
<text text-anchor="start" x="244" y="-102" font-family="Helvetica,sans-Serif" font-size="10.00"> parse_string(string: String): Vector</text>
</g>
<!-- vsm::VSMIndex -->
<g id="node7" class="node"><title>vsm::VSMIndex</title>
<polygon fill="white" stroke="none" points="555,-243.5 295,-243.5 295,-172.5 555,-172.5 555,-243.5"/>
<polygon fill="none" stroke="forestgreen" points="295,-225 295,-243 555,-243 555,-225 295,-225"/>
<text text-anchor="start" x="401" y="-232.5" font-family="Helvetica,sans-Serif" font-weight="bold" font-size="10.00">VSMIndex</text>
<polygon fill="none" stroke="forestgreen" points="295,-208 295,-225 555,-225 555,-208 295,-208"/>
<text text-anchor="start" x="298" y="-215" font-family="Helvetica,sans-Serif" font-size="10.00" fill="forestgreen">+</text>
<text text-anchor="start" x="305" y="-215" font-family="Helvetica,sans-Serif" font-size="10.00"> DOC: Document</text>
<polygon fill="none" stroke="forestgreen" points="295,-172 295,-208 555,-208 555,-172 295,-172"/>
<text text-anchor="start" x="298" y="-198" font-family="Helvetica,sans-Serif" font-size="10.00" fill="forestgreen">+</text>
<text text-anchor="start" x="305" y="-198" font-family="Helvetica,sans-Serif" font-size="10.00"> index_document(doc: DOC, auto_update: nullable Bool)</text>
<text text-anchor="start" x="298" y="-188" font-family="Helvetica,sans-Serif" font-size="10.00" fill="forestgreen">+</text>
<text text-anchor="start" x="305" y="-188" font-family="Helvetica,sans-Serif" font-size="10.00"> match_vector(query: Vector): Array[IndexMatch[DOC]]</text>
<text text-anchor="start" x="298" y="-178" font-family="Helvetica,sans-Serif" font-size="10.00" fill="forestgreen">+</text>
<text text-anchor="start" x="305" y="-178" font-family="Helvetica,sans-Serif" font-size="10.00"> update_index()</text>
</g>
<!-- vsm::StringIndex&#45;&gt;vsm::VSMIndex -->
<g id="edge1" class="edge"><title>vsm::StringIndex&#45;&gt;vsm::VSMIndex</title>
<path fill="none" stroke="black" stroke-width="0.5" d="M425,-150.262C425,-155.643 425,-161.422 425,-167.158"/>
<polygon fill="none" stroke="black" stroke-width="0.5" points="423.25,-167.402 425,-172.402 426.75,-167.402 423.25,-167.402"/>
</g>
<!-- vsm::Vector -->
<g id="node4" class="node"><title>vsm::Vector</title>
<polygon fill="white" stroke="none" points="801.5,-74 596.5,-74 596.5,-0 801.5,-0 801.5,-74"/>
<polygon fill="none" stroke="forestgreen" points="597,-56 597,-74 802,-74 802,-56 597,-56"/>
<text text-anchor="start" x="684" y="-63.5" font-family="Helvetica,sans-Serif" font-weight="bold" font-size="10.00">Vector</text>
<polygon fill="none" stroke="forestgreen" points="597,-0 597,-56 802,-56 802,-0 597,-0"/>
<text text-anchor="start" x="600" y="-46" font-family="Helvetica,sans-Serif" font-size="10.00" fill="forestgreen">+</text>
<text text-anchor="start" x="607" y="-46" font-family="Helvetica,sans-Serif" font-size="10.00"> cosine_similarity(other: SELF): Float</text>
<text text-anchor="start" x="600" y="-36" font-family="Helvetica,sans-Serif" font-size="10.00" fill="forestgreen">+</text>
<text text-anchor="start" x="607" y="-36" font-family="Helvetica,sans-Serif" font-size="10.00"> inc(obj: nullable Object)</text>
<text text-anchor="start" x="600" y="-26" font-family="Helvetica,sans-Serif" font-size="10.00" fill="forestgreen">+</text>
<text text-anchor="start" x="607" y="-26" font-family="Helvetica,sans-Serif" font-size="10.00"> norm(): Float</text>
<text text-anchor="start" x="600" y="-16" font-family="Helvetica,sans-Serif" font-size="10.00" fill="forestgreen">+</text>
<text text-anchor="start" x="607" y="-16" font-family="Helvetica,sans-Serif" font-size="10.00"> sorted_dimensions(): Array[nullable Object]</text>
<text text-anchor="start" x="600" y="-6" font-family="Helvetica,sans-Serif" font-size="10.00" fill="forestgreen">+</text>
<text text-anchor="start" x="607" y="-6" font-family="Helvetica,sans-Serif" font-size="10.00"> tmp(): ArrayMap[nullable Object, Float]</text>
</g>
<!-- vsm::FileIndex -->
<g id="node5" class="node"><title>vsm::FileIndex</title>
<polygon fill="white" stroke="none" points="575,-74 275,-74 275,-0 575,-0 575,-74"/>
<polygon fill="none" stroke="forestgreen" points="275,-56 275,-74 575,-74 575,-56 275,-56"/>
<text text-anchor="start" x="403.5" y="-63.5" font-family="Helvetica,sans-Serif" font-weight="bold" font-size="10.00">FileIndex</text>
<polygon fill="none" stroke="forestgreen" points="275,-0 275,-56 575,-56 575,-0 275,-0"/>
<text text-anchor="start" x="278" y="-46" font-family="Helvetica,sans-Serif" font-size="10.00" fill="forestgreen">+</text>
<text text-anchor="start" x="285" y="-46" font-family="Helvetica,sans-Serif" font-size="10.00"> accept_file(path: String): Bool</text>
<text text-anchor="start" x="278" y="-36" font-family="Helvetica,sans-Serif" font-size="10.00" fill="forestgreen">+</text>
<text text-anchor="start" x="285" y="-36" font-family="Helvetica,sans-Serif" font-size="10.00"> index_dir(dir: String, auto_update: nullable Bool)</text>
<text text-anchor="start" x="278" y="-26" font-family="Helvetica,sans-Serif" font-size="10.00" fill="forestgreen">+</text>
<text text-anchor="start" x="285" y="-26" font-family="Helvetica,sans-Serif" font-size="10.00"> index_file(path: String, auto_update: nullable Bool): nullable DOC</text>
<text text-anchor="start" x="278" y="-16" font-family="Helvetica,sans-Serif" font-size="10.00" fill="forestgreen">+</text>
<text text-anchor="start" x="285" y="-16" font-family="Helvetica,sans-Serif" font-size="10.00"> index_files(paths: Collection[String], auto_update: nullable Bool)</text>
<text text-anchor="start" x="278" y="-6" font-family="Helvetica,sans-Serif" font-size="10.00" fill="forestgreen">+</text>
<text text-anchor="start" x="285" y="-6" font-family="Helvetica,sans-Serif" font-size="10.00"> parse_file(file: String): Vector</text>
</g>
<!-- vsm::FileIndex&#45;&gt;vsm::StringIndex -->
<g id="edge2" class="edge"><title>vsm::FileIndex&#45;&gt;vsm::StringIndex</title>
<path fill="none" stroke="black" stroke-width="0.5" d="M425,-74.1111C425,-79.5804 425,-85.1858 425,-90.546"/>
<polygon fill="none" stroke="black" stroke-width="0.5" points="423.25,-90.8105 425,-95.8105 426.75,-90.8105 423.25,-90.8105"/>
</g>
<!-- vsm::Document -->
<g id="node6" class="node"><title>vsm::Document</title>
<polygon fill="white" stroke="none" points="879,-46 823,-46 823,-28 879,-28 879,-46"/>
<polygon fill="none" stroke="forestgreen" points="823,-28 823,-46 879,-46 879,-28 823,-28"/>
<text text-anchor="start" x="826.5" y="-35.5" font-family="Helvetica,sans-Serif" font-weight="bold" font-size="10.00">Document</text>
</g>
</g>
</svg>
