<?xml version="1.0" encoding="UTF-8" standalone="no"?>
<!DOCTYPE svg PUBLIC "-//W3C//DTD SVG 1.1//EN"
 "http://www.w3.org/Graphics/SVG/1.1/DTD/svg11.dtd">
<!-- Generated by graphviz version 2.36.0 (20140111.2315)
 -->
<!-- Title: G Pages: 1 -->
<svg width="505pt" height="484pt"
 viewBox="0.00 0.00 505.00 484.00" xmlns="http://www.w3.org/2000/svg" xmlns:xlink="http://www.w3.org/1999/xlink">
<g id="graph0" class="graph" transform="scale(1 1) rotate(0) translate(4 480)">
<title>G</title>
<polygon fill="white" stroke="none" points="-4,4 -4,-480 501,-480 501,4 -4,4"/>
<!-- nitcorn::pthreads -->
<g id="node1" class="node"><title>nitcorn::pthreads</title>
<polygon fill="#fffaf3" stroke="black" points="172.833,-35.5 114,-35.5 114,-4.5 178,-4.5 178,-30.3333 172.833,-35.5"/>
<polyline fill="none" stroke="black" points="172.833,-35.5 172.833,-30.3333 "/>
<polyline fill="none" stroke="black" points="178,-30.3333 172.833,-30.3333 "/>
<text text-anchor="start" x="116" y="-25.5" font-family="Helvetica,sans-Serif" font-weight="bold" font-size="10.00">pthreads</text>
<text text-anchor="start" x="116" y="-10" font-family="Helvetica,sans-Serif" font-size="10.00" fill="forestgreen">+</text>
<text text-anchor="start" x="123" y="-10" font-family="Helvetica,sans-Serif" font-size="10.00">HttpFactory</text>
</g>
<!-- nitcorn::nitcorn -->
<g id="node2" class="node"><title>nitcorn::nitcorn</title>
<polygon fill="#fffaf3" stroke="black" points="207.833,-78 171.5,-78 171.5,-62 210.5,-62 210.5,-75.3333 207.833,-78"/>
<polyline fill="none" stroke="black" points="207.833,-78 207.833,-75.3333 "/>
<polyline fill="none" stroke="black" points="210.5,-75.3333 207.833,-75.3333 "/>
<text text-anchor="start" x="174" y="-68.5" font-family="Helvetica,sans-Serif" font-weight="bold" font-size="10.00">nitcorn</text>
</g>
<!-- nitcorn::pthreads&#45;&gt;nitcorn::nitcorn -->
<g id="edge1" class="edge"><title>nitcorn::pthreads&#45;&gt;nitcorn::nitcorn</title>
<path fill="none" stroke="black" stroke-width="0.5" stroke-dasharray="5,2" d="M159.746,-35.6624C166.51,-42.8772 174.524,-51.4257 180.744,-58.0599"/>
<polygon fill="black" stroke="black" stroke-width="0.5" points="184.357,-61.9142 179.296,-59.8054 182.647,-60.0904 180.937,-58.2665 180.937,-58.2665 180.937,-58.2665 182.647,-60.0904 182.579,-56.7276 184.357,-61.9142 184.357,-61.9142"/>
</g>
<!-- nitcorn::signal_handler -->
<g id="node3" class="node"><title>nitcorn::signal_handler</title>
<polygon fill="#fffaf3" stroke="black" points="94.3333,-140.5 24.5,-140.5 24.5,-109.5 99.5,-109.5 99.5,-135.333 94.3333,-140.5"/>
<polyline fill="none" stroke="black" points="94.3333,-140.5 94.3333,-135.333 "/>
<polyline fill="none" stroke="black" points="99.5,-135.333 94.3333,-135.333 "/>
<text text-anchor="start" x="27" y="-130.5" font-family="Helvetica,sans-Serif" font-weight="bold" font-size="10.00">signal_handler</text>
<text text-anchor="start" x="27" y="-115" font-family="Helvetica,sans-Serif" font-size="10.00" fill="forestgreen">+</text>
<text text-anchor="start" x="34" y="-115" font-family="Helvetica,sans-Serif" font-size="10.00">HttpFactory</text>
</g>
<!-- nitcorn::nitcorn&#45;&gt;nitcorn::signal_handler -->
<g id="edge2" class="edge"><title>nitcorn::nitcorn&#45;&gt;nitcorn::signal_handler</title>
<path fill="none" stroke="black" stroke-width="0.5" stroke-dasharray="5,2" d="M171.702,-77.3431C155.357,-82.8702 131.397,-91.3377 111,-100 105.86,-102.183 100.489,-104.633 95.2654,-107.112"/>
<polygon fill="black" stroke="black" stroke-width="0.5" points="90.5209,-109.39 94.0547,-105.197 92.7747,-108.308 95.0284,-107.226 95.0284,-107.226 95.0284,-107.226 92.7747,-108.308 96.0022,-109.254 90.5209,-109.39 90.5209,-109.39"/>
</g>
<!-- nitcorn::file_server -->
<g id="node14" class="node"><title>nitcorn::file_server</title>
<polygon fill="#fffaf3" stroke="black" points="343.5,-145 292.5,-145 292.5,-105 349.5,-105 349.5,-139 343.5,-145"/>
<polyline fill="none" stroke="black" points="343.5,-145 343.5,-139 "/>
<polyline fill="none" stroke="black" points="349.5,-139 343.5,-139 "/>
<text text-anchor="start" x="295" y="-135.5" font-family="Helvetica,sans-Serif" font-weight="bold" font-size="10.00">file_server</text>
<text text-anchor="start" x="295" y="-120" font-family="Helvetica,sans-Serif" font-size="10.00" fill="forestgreen">+</text>
<text text-anchor="start" x="302" y="-120" font-family="Helvetica,sans-Serif" font-size="10.00">FileServer</text>
<text text-anchor="start" x="295" y="-110" font-family="Helvetica,sans-Serif" font-size="10.00" fill="forestgreen">+</text>
<text text-anchor="start" x="302" y="-110" font-family="Helvetica,sans-Serif" font-size="10.00">String</text>
</g>
<!-- nitcorn::nitcorn&#45;&gt;nitcorn::file_server -->
<g id="edge3" class="edge"><title>nitcorn::nitcorn&#45;&gt;nitcorn::file_server</title>
<path fill="none" stroke="black" stroke-width="0.5" stroke-dasharray="5,2" d="M210.546,-76.0617C228.885,-81.1137 256.876,-89.6096 280,-100 282.633,-101.183 285.313,-102.491 287.977,-103.868"/>
<polygon fill="black" stroke="black" stroke-width="0.5" points="292.742,-106.409 287.271,-106.042 290.536,-105.233 288.33,-104.057 288.33,-104.057 288.33,-104.057 290.536,-105.233 289.388,-102.071 292.742,-106.409 292.742,-106.409"/>
</g>
<!-- nitcorn::reactor -->
<g id="node12" class="node"><title>nitcorn::reactor</title>
<polygon fill="#fffaf3" stroke="black" points="184,-272 120,-272 120,-172 190,-172 190,-266 184,-272"/>
<polyline fill="none" stroke="black" points="184,-272 184,-266 "/>
<polyline fill="none" stroke="black" points="190,-266 184,-266 "/>
<text text-anchor="start" x="122" y="-262.5" font-family="Helvetica,sans-Serif" font-weight="bold" font-size="10.00">reactor</text>
<text text-anchor="start" x="122" y="-247" font-family="Helvetica,sans-Serif" font-size="10.00" fill="forestgreen">+</text>
<text text-anchor="start" x="129" y="-247" font-family="Helvetica,sans-Serif" font-size="10.00">Action</text>
<text text-anchor="start" x="122" y="-237" font-family="Helvetica,sans-Serif" font-size="10.00" fill="forestgreen">+</text>
<text text-anchor="start" x="129" y="-237" font-family="Helvetica,sans-Serif" font-size="10.00">HttpFactory</text>
<text text-anchor="start" x="122" y="-227" font-family="Helvetica,sans-Serif" font-size="10.00" fill="forestgreen">+</text>
<text text-anchor="start" x="129" y="-227" font-family="Helvetica,sans-Serif" font-size="10.00">HttpServer</text>
<text text-anchor="start" x="122" y="-217" font-family="Helvetica,sans-Serif" font-size="10.00" fill="forestgreen">+</text>
<text text-anchor="start" x="129" y="-217" font-family="Helvetica,sans-Serif" font-size="10.00">Interface</text>
<text text-anchor="start" x="122" y="-207" font-family="Helvetica,sans-Serif" font-size="10.00" fill="forestgreen">+</text>
<text text-anchor="start" x="129" y="-207" font-family="Helvetica,sans-Serif" font-size="10.00">Interfaces</text>
<text text-anchor="start" x="122" y="-197" font-family="Helvetica,sans-Serif" font-size="10.00" fill="forestgreen">+</text>
<text text-anchor="start" x="129" y="-197" font-family="Helvetica,sans-Serif" font-size="10.00">ServerConfig</text>
<text text-anchor="start" x="122" y="-187" font-family="Helvetica,sans-Serif" font-size="10.00" fill="forestgreen">+</text>
<text text-anchor="start" x="129" y="-187" font-family="Helvetica,sans-Serif" font-size="10.00">Sys</text>
<text text-anchor="start" x="122" y="-177" font-family="Helvetica,sans-Serif" font-size="10.00" fill="forestgreen">+</text>
<text text-anchor="start" x="129" y="-177" font-family="Helvetica,sans-Serif" font-size="10.00">VirtualHosts</text>
</g>
<!-- nitcorn::signal_handler&#45;&gt;nitcorn::reactor -->
<g id="edge4" class="edge"><title>nitcorn::signal_handler&#45;&gt;nitcorn::reactor</title>
<path fill="none" stroke="black" stroke-width="0.5" stroke-dasharray="5,2" d="M76.5312,-140.844C87.1748,-151.716 102.149,-167.013 116.168,-181.333"/>
<polygon fill="black" stroke="black" stroke-width="0.5" points="119.708,-184.949 114.602,-182.95 117.959,-183.163 116.21,-181.376 116.21,-181.376 116.21,-181.376 117.959,-183.163 117.818,-179.802 119.708,-184.949 119.708,-184.949"/>
</g>
<!-- nitcorn::token -->
<g id="node4" class="node"><title>nitcorn::token</title>
<polygon fill="#fffaf3" stroke="black" points="392.333,-339.5 366.5,-339.5 366.5,-308.5 397.5,-308.5 397.5,-334.333 392.333,-339.5"/>
<polyline fill="none" stroke="black" points="392.333,-339.5 392.333,-334.333 "/>
<polyline fill="none" stroke="black" points="397.5,-334.333 392.333,-334.333 "/>
<text text-anchor="start" x="369" y="-329.5" font-family="Helvetica,sans-Serif" font-weight="bold" font-size="10.00">token</text>
<text text-anchor="start" x="369" y="-314" font-family="Helvetica,sans-Serif" font-size="10.00" fill="forestgreen">+</text>
<text text-anchor="start" x="376" y="-314" font-family="Helvetica,sans-Serif" font-size="10.00">Sys</text>
</g>
<!-- nitcorn::proxy -->
<g id="node5" class="node"><title>nitcorn::proxy</title>
<polygon fill="#fffaf3" stroke="black" points="182.833,-140.5 122,-140.5 122,-109.5 188,-109.5 188,-135.333 182.833,-140.5"/>
<polyline fill="none" stroke="black" points="182.833,-140.5 182.833,-135.333 "/>
<polyline fill="none" stroke="black" points="188,-135.333 182.833,-135.333 "/>
<text text-anchor="start" x="124" y="-130.5" font-family="Helvetica,sans-Serif" font-weight="bold" font-size="10.00">proxy</text>
<text text-anchor="start" x="124" y="-115" font-family="Helvetica,sans-Serif" font-size="10.00" fill="forestgreen">+</text>
<text text-anchor="start" x="131" y="-115" font-family="Helvetica,sans-Serif" font-size="10.00">ProxyAction</text>
</g>
<!-- nitcorn::proxy&#45;&gt;nitcorn::reactor -->
<g id="edge5" class="edge"><title>nitcorn::proxy&#45;&gt;nitcorn::reactor</title>
<path fill="none" stroke="black" stroke-width="0.5" stroke-dasharray="5,2" d="M155,-140.844C155,-147.977 155,-157.014 155,-166.431"/>
<polygon fill="black" stroke="black" stroke-width="0.5" points="155,-171.691 152.75,-166.691 155,-169.191 155,-166.691 155,-166.691 155,-166.691 155,-169.191 157.25,-166.691 155,-171.691 155,-171.691"/>
</g>
<!-- nitcorn::server_config -->
<g id="node6" class="node"><title>nitcorn::server_config</title>
<polygon fill="#fffaf3" stroke="black" points="417,-476 353,-476 353,-376 423,-376 423,-470 417,-476"/>
<polyline fill="none" stroke="black" points="417,-476 417,-470 "/>
<polyline fill="none" stroke="black" points="423,-470 417,-470 "/>
<text text-anchor="start" x="355" y="-466.5" font-family="Helvetica,sans-Serif" font-weight="bold" font-size="10.00">server_config</text>
<text text-anchor="start" x="355" y="-451" font-family="Helvetica,sans-Serif" font-size="10.00" fill="forestgreen">+</text>
<text text-anchor="start" x="362" y="-451" font-family="Helvetica,sans-Serif" font-size="10.00">Action</text>
<text text-anchor="start" x="355" y="-441" font-family="Helvetica,sans-Serif" font-size="10.00" fill="forestgreen">+</text>
<text text-anchor="start" x="362" y="-441" font-family="Helvetica,sans-Serif" font-size="10.00">Interface</text>
<text text-anchor="start" x="355" y="-431" font-family="Helvetica,sans-Serif" font-size="10.00" fill="forestgreen">+</text>
<text text-anchor="start" x="362" y="-431" font-family="Helvetica,sans-Serif" font-size="10.00">Interfaces</text>
<text text-anchor="start" x="355" y="-421" font-family="Helvetica,sans-Serif" font-size="10.00" fill="forestgreen">+</text>
<text text-anchor="start" x="362" y="-421" font-family="Helvetica,sans-Serif" font-size="10.00">Route</text>
<text text-anchor="start" x="355" y="-411" font-family="Helvetica,sans-Serif" font-size="10.00" fill="forestgreen">+</text>
<text text-anchor="start" x="362" y="-411" font-family="Helvetica,sans-Serif" font-size="10.00">Routes</text>
<text text-anchor="start" x="355" y="-401" font-family="Helvetica,sans-Serif" font-size="10.00" fill="forestgreen">+</text>
<text text-anchor="start" x="362" y="-401" font-family="Helvetica,sans-Serif" font-size="10.00">ServerConfig</text>
<text text-anchor="start" x="355" y="-391" font-family="Helvetica,sans-Serif" font-size="10.00" fill="forestgreen">+</text>
<text text-anchor="start" x="362" y="-391" font-family="Helvetica,sans-Serif" font-size="10.00">VirtualHost</text>
<text text-anchor="start" x="355" y="-381" font-family="Helvetica,sans-Serif" font-size="10.00" fill="forestgreen">+</text>
<text text-anchor="start" x="362" y="-381" font-family="Helvetica,sans-Serif" font-size="10.00">VirtualHosts</text>
</g>
<!-- nitcorn::restful -->
<g id="node7" class="node"><title>nitcorn::restful</title>
<polygon fill="#fffaf3" stroke="black" points="266,-40 200,-40 200,-0 272,-0 272,-34 266,-40"/>
<polyline fill="none" stroke="black" points="266,-40 266,-34 "/>
<polyline fill="none" stroke="black" points="272,-34 266,-34 "/>
<text text-anchor="start" x="202" y="-30.5" font-family="Helvetica,sans-Serif" font-weight="bold" font-size="10.00">restful</text>
<text text-anchor="start" x="202" y="-15" font-family="Helvetica,sans-Serif" font-size="10.00" fill="forestgreen">+</text>
<text text-anchor="start" x="209" y="-15" font-family="Helvetica,sans-Serif" font-size="10.00">RestfulAction</text>
<text text-anchor="start" x="202" y="-5" font-family="Helvetica,sans-Serif" font-size="10.00" fill="forestgreen">+</text>
<text text-anchor="start" x="209" y="-5" font-family="Helvetica,sans-Serif" font-size="10.00">RestfulTask</text>
</g>
<!-- nitcorn::restful&#45;&gt;nitcorn::nitcorn -->
<g id="edge6" class="edge"><title>nitcorn::restful&#45;&gt;nitcorn::nitcorn</title>
<path fill="none" stroke="black" stroke-width="0.5" stroke-dasharray="5,2" d="M217.956,-40.2469C212.344,-46.2327 206.347,-52.6294 201.438,-57.866"/>
<polygon fill="black" stroke="black" stroke-width="0.5" points="197.92,-61.6183 199.699,-56.4317 199.63,-59.7944 201.34,-57.9706 201.34,-57.9706 201.34,-57.9706 199.63,-59.7944 202.982,-59.5095 197.92,-61.6183 197.92,-61.6183"/>
</g>
<!-- nitcorn::sessions -->
<g id="node8" class="node"><title>nitcorn::sessions</title>
<polygon fill="#fffaf3" stroke="black" points="402.5,-257 311.5,-257 311.5,-187 408.5,-187 408.5,-251 402.5,-257"/>
<polyline fill="none" stroke="black" points="402.5,-257 402.5,-251 "/>
<polyline fill="none" stroke="black" points="408.5,-251 402.5,-251 "/>
<text text-anchor="start" x="314" y="-247.5" font-family="Helvetica,sans-Serif" font-weight="bold" font-size="10.00">sessions</text>
<text text-anchor="start" x="314" y="-232" font-family="Helvetica,sans-Serif" font-size="10.00" fill="forestgreen">+</text>
<text text-anchor="start" x="321" y="-232" font-family="Helvetica,sans-Serif" font-size="10.00">HttpRequest</text>
<text text-anchor="start" x="314" y="-222" font-family="Helvetica,sans-Serif" font-size="10.00" fill="forestgreen">+</text>
<text text-anchor="start" x="321" y="-222" font-family="Helvetica,sans-Serif" font-size="10.00">HttpRequestParser</text>
<text text-anchor="start" x="314" y="-212" font-family="Helvetica,sans-Serif" font-size="10.00" fill="forestgreen">+</text>
<text text-anchor="start" x="321" y="-212" font-family="Helvetica,sans-Serif" font-size="10.00">HttpResponse</text>
<text text-anchor="start" x="314" y="-202" font-family="Helvetica,sans-Serif" font-size="10.00" fill="forestgreen">+</text>
<text text-anchor="start" x="321" y="-202" font-family="Helvetica,sans-Serif" font-size="10.00">Session</text>
<text text-anchor="start" x="314" y="-192" font-family="Helvetica,sans-Serif" font-size="10.00" fill="forestgreen">+</text>
<text text-anchor="start" x="321" y="-192" font-family="Helvetica,sans-Serif" font-size="10.00">Sys</text>
</g>
<!-- nitcorn::sessions&#45;&gt;nitcorn::token -->
<g id="edge7" class="edge"><title>nitcorn::sessions&#45;&gt;nitcorn::token</title>
<path fill="none" stroke="black" stroke-width="0.5" stroke-dasharray="5,2" d="M367.51,-257.135C370.894,-272.519 374.771,-290.139 377.662,-303.282"/>
<polygon fill="black" stroke="black" stroke-width="0.5" points="378.758,-308.263 375.486,-303.863 378.221,-305.822 377.684,-303.38 377.684,-303.38 377.684,-303.38 378.221,-305.822 379.881,-302.896 378.758,-308.263 378.758,-308.263"/>
</g>
<!-- nitcorn::sessions&#45;&gt;nitcorn::server_config -->
<g id="edge8" class="edge"><title>nitcorn::sessions&#45;&gt;nitcorn::server_config</title>
<path fill="none" stroke="black" stroke-width="0.5" stroke-dasharray="5,2" d="M389.174,-257.33C396.823,-268.34 404.034,-281.054 408,-294 415.549,-318.644 412.66,-346.807 407.024,-370.689"/>
<polygon fill="black" stroke="black" stroke-width="0.5" points="405.782,-375.717 404.797,-370.324 406.382,-373.29 406.981,-370.863 406.981,-370.863 406.981,-370.863 406.382,-373.29 409.165,-371.403 405.782,-375.717 405.782,-375.717"/>
</g>
<!-- nitcorn::http_request -->
<g id="node15" class="node"><title>nitcorn::http_request</title>
<polygon fill="#fffaf3" stroke="black" points="281.5,-451 190.5,-451 190.5,-401 287.5,-401 287.5,-445 281.5,-451"/>
<polyline fill="none" stroke="black" points="281.5,-451 281.5,-445 "/>
<polyline fill="none" stroke="black" points="287.5,-445 281.5,-445 "/>
<text text-anchor="start" x="193" y="-441.5" font-family="Helvetica,sans-Serif" font-weight="bold" font-size="10.00">http_request</text>
<text text-anchor="start" x="193" y="-426" font-family="Helvetica,sans-Serif" font-size="10.00" fill="forestgreen">+</text>
<text text-anchor="start" x="200" y="-426" font-family="Helvetica,sans-Serif" font-size="10.00">Deserializer</text>
<text text-anchor="start" x="193" y="-416" font-family="Helvetica,sans-Serif" font-size="10.00" fill="forestgreen">+</text>
<text text-anchor="start" x="200" y="-416" font-family="Helvetica,sans-Serif" font-size="10.00">HttpRequest</text>
<text text-anchor="start" x="193" y="-406" font-family="Helvetica,sans-Serif" font-size="10.00" fill="forestgreen">+</text>
<text text-anchor="start" x="200" y="-406" font-family="Helvetica,sans-Serif" font-size="10.00">HttpRequestParser</text>
</g>
<!-- nitcorn::sessions&#45;&gt;nitcorn::http_request -->
<g id="edge9" class="edge"><title>nitcorn::sessions&#45;&gt;nitcorn::http_request</title>
<path fill="none" stroke="black" stroke-width="0.5" stroke-dasharray="5,2" d="M350.552,-257.041C341.984,-284.565 327.679,-323.599 308,-354 297.842,-369.692 283.863,-384.864 271.142,-397.127"/>
<polygon fill="black" stroke="black" stroke-width="0.5" points="267.24,-400.836 269.314,-395.761 269.052,-399.114 270.864,-397.391 270.864,-397.391 270.864,-397.391 269.052,-399.114 272.414,-399.022 267.24,-400.836 267.24,-400.836"/>
</g>
<!-- nitcorn::http_response -->
<g id="node16" class="node"><title>nitcorn::http_response</title>
<polygon fill="#fffaf3" stroke="black" points="292,-354 210,-354 210,-294 298,-294 298,-348 292,-354"/>
<polyline fill="none" stroke="black" points="292,-354 292,-348 "/>
<polyline fill="none" stroke="black" points="298,-348 292,-348 "/>
<text text-anchor="start" x="212" y="-344.5" font-family="Helvetica,sans-Serif" font-weight="bold" font-size="10.00">http_response</text>
<text text-anchor="start" x="212" y="-329" font-family="Helvetica,sans-Serif" font-size="10.00" fill="forestgreen">+</text>
<text text-anchor="start" x="219" y="-329" font-family="Helvetica,sans-Serif" font-size="10.00">Deserializer</text>
<text text-anchor="start" x="212" y="-319" font-family="Helvetica,sans-Serif" font-size="10.00" fill="forestgreen">+</text>
<text text-anchor="start" x="219" y="-319" font-family="Helvetica,sans-Serif" font-size="10.00">HttpResponse</text>
<text text-anchor="start" x="212" y="-309" font-family="Helvetica,sans-Serif" font-size="10.00" fill="forestgreen">+</text>
<text text-anchor="start" x="219" y="-309" font-family="Helvetica,sans-Serif" font-size="10.00">HttpStatusCodes</text>
<text text-anchor="start" x="212" y="-299" font-family="Helvetica,sans-Serif" font-size="10.00" fill="forestgreen">+</text>
<text text-anchor="start" x="219" y="-299" font-family="Helvetica,sans-Serif" font-size="10.00">Sys</text>
</g>
<!-- nitcorn::sessions&#45;&gt;nitcorn::http_response -->
<g id="edge10" class="edge"><title>nitcorn::sessions&#45;&gt;nitcorn::http_response</title>
<path fill="none" stroke="black" stroke-width="0.5" stroke-dasharray="5,2" d="M323.817,-257.135C312.502,-267.81 300.045,-279.561 288.825,-290.146"/>
<polygon fill="black" stroke="black" stroke-width="0.5" points="285.071,-293.688 287.164,-288.62 286.889,-291.973 288.708,-290.257 288.708,-290.257 288.708,-290.257 286.889,-291.973 290.252,-291.894 285.071,-293.688 285.071,-293.688"/>
</g>
<!-- nitcorn::http_errors -->
<g id="node9" class="node"><title>nitcorn::http_errors</title>
<polygon fill="#fffaf3" stroke="black" points="283.833,-237.5 215,-237.5 215,-206.5 289,-206.5 289,-232.333 283.833,-237.5"/>
<polyline fill="none" stroke="black" points="283.833,-237.5 283.833,-232.333 "/>
<polyline fill="none" stroke="black" points="289,-232.333 283.833,-232.333 "/>
<text text-anchor="start" x="217" y="-227.5" font-family="Helvetica,sans-Serif" font-weight="bold" font-size="10.00">http_errors</text>
<text text-anchor="start" x="217" y="-212" font-family="Helvetica,sans-Serif" font-size="10.00" fill="forestgreen">+</text>
<text text-anchor="start" x="224" y="-212" font-family="Helvetica,sans-Serif" font-size="10.00">ErrorTemplate</text>
</g>
<!-- nitcorn::http_errors&#45;&gt;nitcorn::http_response -->
<g id="edge11" class="edge"><title>nitcorn::http_errors&#45;&gt;nitcorn::http_response</title>
<path fill="none" stroke="black" stroke-width="0.5" stroke-dasharray="5,2" d="M252.295,-237.755C252.561,-251.049 252.962,-271.106 253.309,-288.425"/>
<polygon fill="black" stroke="black" stroke-width="0.5" points="253.414,-293.702 251.064,-288.748 253.364,-291.202 253.314,-288.703 253.314,-288.703 253.314,-288.703 253.364,-291.202 255.564,-288.658 253.414,-293.702 253.414,-293.702"/>
</g>
<!-- nitcorn::log -->
<g id="node10" class="node"><title>nitcorn::log</title>
<polygon fill="#fffaf3" stroke="black" points="264,-150 210,-150 210,-100 270,-100 270,-144 264,-150"/>
<polyline fill="none" stroke="black" points="264,-150 264,-144 "/>
<polyline fill="none" stroke="black" points="270,-144 264,-144 "/>
<text text-anchor="start" x="212" y="-140.5" font-family="Helvetica,sans-Serif" font-weight="bold" font-size="10.00">log</text>
<text text-anchor="start" x="212" y="-125" font-family="Helvetica,sans-Serif" font-size="10.00" fill="forestgreen">+</text>
<text text-anchor="start" x="219" y="-125" font-family="Helvetica,sans-Serif" font-size="10.00">Action</text>
<text text-anchor="start" x="212" y="-115" font-family="Helvetica,sans-Serif" font-size="10.00" fill="forestgreen">+</text>
<text text-anchor="start" x="219" y="-115" font-family="Helvetica,sans-Serif" font-size="10.00">HttpServer</text>
<text text-anchor="start" x="212" y="-105" font-family="Helvetica,sans-Serif" font-size="10.00" fill="forestgreen">+</text>
<text text-anchor="start" x="219" y="-105" font-family="Helvetica,sans-Serif" font-size="10.00">Sys</text>
</g>
<!-- nitcorn::log&#45;&gt;nitcorn::reactor -->
<g id="edge12" class="edge"><title>nitcorn::log&#45;&gt;nitcorn::reactor</title>
<path fill="none" stroke="black" stroke-width="0.5" stroke-dasharray="5,2" d="M218.11,-150.465C210.554,-158.91 201.852,-168.636 193.37,-178.115"/>
<polygon fill="black" stroke="black" stroke-width="0.5" points="190.008,-181.874 191.665,-176.647 191.675,-180.01 193.342,-178.147 193.342,-178.147 193.342,-178.147 191.675,-180.01 195.019,-179.648 190.008,-181.874 190.008,-181.874"/>
</g>
<!-- nitcorn::http_request_buffer -->
<g id="node11" class="node"><title>nitcorn::http_request_buffer</title>
<polygon fill="#fffaf3" stroke="black" points="90.8333,-339.5 0,-339.5 0,-308.5 96,-308.5 96,-334.333 90.8333,-339.5"/>
<polyline fill="none" stroke="black" points="90.8333,-339.5 90.8333,-334.333 "/>
<polyline fill="none" stroke="black" points="96,-334.333 90.8333,-334.333 "/>
<text text-anchor="start" x="2" y="-329.5" font-family="Helvetica,sans-Serif" font-weight="bold" font-size="10.00">http_request_buffer</text>
<text text-anchor="start" x="2" y="-314" font-family="Helvetica,sans-Serif" font-size="10.00" fill="forestgreen">+</text>
<text text-anchor="start" x="9" y="-314" font-family="Helvetica,sans-Serif" font-size="10.00">HTTPConnection</text>
</g>
<!-- nitcorn::reactor&#45;&gt;nitcorn::http_request_buffer -->
<g id="edge13" class="edge"><title>nitcorn::reactor&#45;&gt;nitcorn::http_request_buffer</title>
<path fill="none" stroke="black" stroke-width="0.5" stroke-dasharray="5,2" d="M119.964,-255.744C102.582,-271.988 82.2368,-291.003 67.6219,-304.662"/>
<polygon fill="black" stroke="black" stroke-width="0.5" points="63.659,-308.365 65.7757,-303.308 65.4855,-306.658 67.312,-304.951 67.312,-304.951 67.312,-304.951 65.4855,-306.658 68.8483,-306.595 63.659,-308.365 63.659,-308.365"/>
</g>
<!-- nitcorn::vararg_routes -->
<g id="node13" class="node"><title>nitcorn::vararg_routes</title>
<polygon fill="#fffaf3" stroke="black" points="181.5,-349 118.5,-349 118.5,-299 187.5,-299 187.5,-343 181.5,-349"/>
<polyline fill="none" stroke="black" points="181.5,-349 181.5,-343 "/>
<polyline fill="none" stroke="black" points="187.5,-343 181.5,-343 "/>
<text text-anchor="start" x="121" y="-339.5" font-family="Helvetica,sans-Serif" font-weight="bold" font-size="10.00">vararg_routes</text>
<text text-anchor="start" x="121" y="-324" font-family="Helvetica,sans-Serif" font-size="10.00" fill="forestgreen">+</text>
<text text-anchor="start" x="128" y="-324" font-family="Helvetica,sans-Serif" font-size="10.00">HttpRequest</text>
<text text-anchor="start" x="121" y="-314" font-family="Helvetica,sans-Serif" font-size="10.00" fill="forestgreen">+</text>
<text text-anchor="start" x="128" y="-314" font-family="Helvetica,sans-Serif" font-size="10.00">Route</text>
<text text-anchor="start" x="121" y="-304" font-family="Helvetica,sans-Serif" font-size="10.00" fill="forestgreen">+</text>
<text text-anchor="start" x="128" y="-304" font-family="Helvetica,sans-Serif" font-size="10.00">Routes</text>
</g>
<!-- nitcorn::reactor&#45;&gt;nitcorn::vararg_routes -->
<g id="edge14" class="edge"><title>nitcorn::reactor&#45;&gt;nitcorn::vararg_routes</title>
<path fill="none" stroke="black" stroke-width="0.5" stroke-dasharray="5,2" d="M154.018,-272.121C153.87,-279.521 153.721,-286.946 153.585,-293.749"/>
<polygon fill="black" stroke="black" stroke-width="0.5" points="153.484,-298.819 151.334,-293.775 153.534,-296.319 153.584,-293.82 153.584,-293.82 153.584,-293.82 153.534,-296.319 155.833,-293.865 153.484,-298.819 153.484,-298.819"/>
</g>
<!-- nitcorn::reactor&#45;&gt;nitcorn::http_response -->
<g id="edge15" class="edge"><title>nitcorn::reactor&#45;&gt;nitcorn::http_response</title>
<path fill="none" stroke="black" stroke-width="0.5" stroke-dasharray="5,2" d="M190.182,-258.538C200.379,-268.837 211.463,-280.033 221.488,-290.16"/>
<polygon fill="black" stroke="black" stroke-width="0.5" points="225.13,-293.839 220.013,-291.868 223.371,-292.062 221.612,-290.285 221.612,-290.285 221.612,-290.285 223.371,-292.062 223.211,-288.702 225.13,-293.839 225.13,-293.839"/>
</g>
<!-- nitcorn::vararg_routes&#45;&gt;nitcorn::server_config -->
<g id="edge16" class="edge"><title>nitcorn::vararg_routes&#45;&gt;nitcorn::server_config</title>
<path fill="none" stroke="black" stroke-width="0.5" stroke-dasharray="5,2" d="M187.488,-348.471C191.279,-350.524 195.159,-352.418 199,-354 240.679,-371.161 255.794,-360.18 298,-376 315.06,-382.394 332.873,-391.514 348.106,-400.155"/>
<polygon fill="black" stroke="black" stroke-width="0.5" points="352.747,-402.818 347.291,-402.281 350.579,-401.574 348.41,-400.33 348.41,-400.33 348.41,-400.33 350.579,-401.574 349.53,-398.378 352.747,-402.818 352.747,-402.818"/>
</g>
<!-- nitcorn::vararg_routes&#45;&gt;nitcorn::http_request -->
<g id="edge17" class="edge"><title>nitcorn::vararg_routes&#45;&gt;nitcorn::http_request</title>
<path fill="none" stroke="black" stroke-width="0.5" stroke-dasharray="5,2" d="M173.818,-349.207C186.087,-363.473 201.673,-381.596 214.527,-396.543"/>
<polygon fill="black" stroke="black" stroke-width="0.5" points="218.075,-400.669 213.109,-398.345 216.445,-398.774 214.815,-396.878 214.815,-396.878 214.815,-396.878 216.445,-398.774 216.521,-395.411 218.075,-400.669 218.075,-400.669"/>
</g>
<!-- nitcorn::file_server&#45;&gt;nitcorn::sessions -->
<g id="edge18" class="edge"><title>nitcorn::file_server&#45;&gt;nitcorn::sessions</title>
<path fill="none" stroke="black" stroke-width="0.5" stroke-dasharray="5,2" d="M328.892,-145.225C333.253,-155.848 338.832,-169.438 344.058,-182.168"/>
<polygon fill="black" stroke="black" stroke-width="0.5" points="345.965,-186.812 341.985,-183.041 345.015,-184.499 344.066,-182.186 344.066,-182.186 344.066,-182.186 345.015,-184.499 346.147,-181.332 345.965,-186.812 345.965,-186.812"/>
</g>
<!-- nitcorn::file_server&#45;&gt;nitcorn::http_errors -->
<g id="edge19" class="edge"><title>nitcorn::file_server&#45;&gt;nitcorn::http_errors</title>
<path fill="none" stroke="black" stroke-width="0.5" stroke-dasharray="5,2" d="M307.037,-145.225C295.015,-161.777 277.761,-185.532 265.79,-202.014"/>
<polygon fill="black" stroke="black" stroke-width="0.5" points="262.562,-206.458 263.68,-201.091 264.031,-204.436 265.5,-202.413 265.5,-202.413 265.5,-202.413 264.031,-204.436 267.321,-203.735 262.562,-206.458 262.562,-206.458"/>
</g>
<!-- nitcorn::file_server&#45;&gt;nitcorn::reactor -->
<g id="edge20" class="edge"><title>nitcorn::file_server&#45;&gt;nitcorn::reactor</title>
<path fill="none" stroke="black" stroke-width="0.5" stroke-dasharray="5,2" d="M292.347,-143.964C288.283,-146.158 284.092,-148.242 280,-150 247.69,-163.877 234.276,-154.115 204,-172 200.724,-173.935 197.51,-176.14 194.392,-178.518"/>
<polygon fill="black" stroke="black" stroke-width="0.5" points="190.203,-181.86 192.709,-176.983 192.158,-180.301 194.112,-178.742 194.112,-178.742 194.112,-178.742 192.158,-180.301 195.515,-180.501 190.203,-181.86 190.203,-181.86"/>
</g>
<!-- nitcorn::media_types -->
<g id="node17" class="node"><title>nitcorn::media_types</title>
<polygon fill="#fffaf3" stroke="black" points="491,-242 431,-242 431,-202 497,-202 497,-236 491,-242"/>
<polyline fill="none" stroke="black" points="491,-242 491,-236 "/>
<polyline fill="none" stroke="black" points="497,-236 491,-236 "/>
<text text-anchor="start" x="433" y="-232.5" font-family="Helvetica,sans-Serif" font-weight="bold" font-size="10.00">media_types</text>
<text text-anchor="start" x="433" y="-217" font-family="Helvetica,sans-Serif" font-size="10.00" fill="forestgreen">+</text>
<text text-anchor="start" x="440" y="-217" font-family="Helvetica,sans-Serif" font-size="10.00">MediaTypes</text>
<text text-anchor="start" x="433" y="-207" font-family="Helvetica,sans-Serif" font-size="10.00" fill="forestgreen">+</text>
<text text-anchor="start" x="440" y="-207" font-family="Helvetica,sans-Serif" font-size="10.00">Sys</text>
</g>
<!-- nitcorn::file_server&#45;&gt;nitcorn::media_types -->
<g id="edge21" class="edge"><title>nitcorn::file_server&#45;&gt;nitcorn::media_types</title>
<path fill="none" stroke="black" stroke-width="0.5" stroke-dasharray="5,2" d="M349.629,-136.012C370.08,-143.953 397.64,-156.315 419,-172 428.761,-179.167 438.074,-188.683 445.67,-197.421"/>
<polygon fill="black" stroke="black" stroke-width="0.5" points="449.255,-201.634 444.301,-199.284 447.635,-199.73 446.014,-197.826 446.014,-197.826 446.014,-197.826 447.635,-199.73 447.728,-196.368 449.255,-201.634 449.255,-201.634"/>
</g>
</g>
</svg>
