<?xml version="1.0" encoding="UTF-8" standalone="no"?>
<!DOCTYPE svg PUBLIC "-//W3C//DTD SVG 1.1//EN"
 "http://www.w3.org/Graphics/SVG/1.1/DTD/svg11.dtd">
<!-- Generated by graphviz version 2.36.0 (20140111.2315)
 -->
<!-- Title: G Pages: 1 -->
<svg width="307pt" height="704pt"
 viewBox="0.00 0.00 307.00 704.00" xmlns="http://www.w3.org/2000/svg" xmlns:xlink="http://www.w3.org/1999/xlink">
<g id="graph0" class="graph" transform="scale(1 1) rotate(0) translate(4 700)">
<title>G</title>
<polygon fill="white" stroke="none" points="-4,4 -4,-700 303,-700 303,4 -4,4"/>
<!-- markdown::decorators -->
<g id="node1" class="node"><title>markdown::decorators</title>
<polygon fill="#fffaf3" stroke="black" points="72.5,-99 -0.5,-99 -0.5,-59 78.5,-59 78.5,-93 72.5,-99"/>
<polyline fill="none" stroke="black" points="72.5,-99 72.5,-93 "/>
<polyline fill="none" stroke="black" points="78.5,-93 72.5,-93 "/>
<text text-anchor="start" x="2" y="-89.5" font-family="Helvetica,sans-Serif" font-weight="bold" font-size="10.00">decorators</text>
<text text-anchor="start" x="2" y="-74" font-family="Helvetica,sans-Serif" font-size="10.00" fill="forestgreen">+</text>
<text text-anchor="start" x="9" y="-74" font-family="Helvetica,sans-Serif" font-size="10.00">InlineDecorator</text>
<text text-anchor="start" x="2" y="-64" font-family="Helvetica,sans-Serif" font-size="10.00" fill="forestgreen">+</text>
<text text-anchor="start" x="9" y="-64" font-family="Helvetica,sans-Serif" font-size="10.00">MdDecorator</text>
</g>
<!-- markdown::markdown -->
<g id="node3" class="node"><title>markdown::markdown</title>
<polygon fill="#fffaf3" stroke="black" points="191,-696 79,-696 79,-126 197,-126 197,-690 191,-696"/>
<polyline fill="none" stroke="black" points="191,-696 191,-690 "/>
<polyline fill="none" stroke="black" points="197,-690 191,-690 "/>
<text text-anchor="start" x="81" y="-686.5" font-family="Helvetica,sans-Serif" font-weight="bold" font-size="10.00">markdown</text>
<text text-anchor="start" x="81" y="-671" font-family="Helvetica,sans-Serif" font-size="10.00" fill="forestgreen">+</text>
<text text-anchor="start" x="88" y="-671" font-family="Helvetica,sans-Serif" font-size="10.00">Block</text>
<text text-anchor="start" x="81" y="-661" font-family="Helvetica,sans-Serif" font-size="10.00" fill="forestgreen">+</text>
<text text-anchor="start" x="88" y="-661" font-family="Helvetica,sans-Serif" font-size="10.00">BlockCode</text>
<text text-anchor="start" x="81" y="-651" font-family="Helvetica,sans-Serif" font-size="10.00" fill="forestgreen">+</text>
<text text-anchor="start" x="88" y="-651" font-family="Helvetica,sans-Serif" font-size="10.00">BlockFence</text>
<text text-anchor="start" x="81" y="-641" font-family="Helvetica,sans-Serif" font-size="10.00" fill="forestgreen">+</text>
<text text-anchor="start" x="88" y="-641" font-family="Helvetica,sans-Serif" font-size="10.00">BlockHeadline</text>
<text text-anchor="start" x="81" y="-631" font-family="Helvetica,sans-Serif" font-size="10.00" fill="forestgreen">+</text>
<text text-anchor="start" x="88" y="-631" font-family="Helvetica,sans-Serif" font-size="10.00">BlockList</text>
<text text-anchor="start" x="81" y="-621" font-family="Helvetica,sans-Serif" font-size="10.00" fill="forestgreen">+</text>
<text text-anchor="start" x="88" y="-621" font-family="Helvetica,sans-Serif" font-size="10.00">BlockListItem</text>
<text text-anchor="start" x="81" y="-611" font-family="Helvetica,sans-Serif" font-size="10.00" fill="forestgreen">+</text>
<text text-anchor="start" x="88" y="-611" font-family="Helvetica,sans-Serif" font-size="10.00">BlockNone</text>
<text text-anchor="start" x="81" y="-601" font-family="Helvetica,sans-Serif" font-size="10.00" fill="forestgreen">+</text>
<text text-anchor="start" x="88" y="-601" font-family="Helvetica,sans-Serif" font-size="10.00">BlockOrderedList</text>
<text text-anchor="start" x="81" y="-591" font-family="Helvetica,sans-Serif" font-size="10.00" fill="forestgreen">+</text>
<text text-anchor="start" x="88" y="-591" font-family="Helvetica,sans-Serif" font-size="10.00">BlockParagraph</text>
<text text-anchor="start" x="81" y="-581" font-family="Helvetica,sans-Serif" font-size="10.00" fill="forestgreen">+</text>
<text text-anchor="start" x="88" y="-581" font-family="Helvetica,sans-Serif" font-size="10.00">BlockQuote</text>
<text text-anchor="start" x="81" y="-571" font-family="Helvetica,sans-Serif" font-size="10.00" fill="forestgreen">+</text>
<text text-anchor="start" x="88" y="-571" font-family="Helvetica,sans-Serif" font-size="10.00">BlockRuler</text>
<text text-anchor="start" x="81" y="-561" font-family="Helvetica,sans-Serif" font-size="10.00" fill="forestgreen">+</text>
<text text-anchor="start" x="88" y="-561" font-family="Helvetica,sans-Serif" font-size="10.00">BlockUnorderedList</text>
<text text-anchor="start" x="81" y="-551" font-family="Helvetica,sans-Serif" font-size="10.00" fill="forestgreen">+</text>
<text text-anchor="start" x="88" y="-551" font-family="Helvetica,sans-Serif" font-size="10.00">BlockXML</text>
<text text-anchor="start" x="81" y="-541" font-family="Helvetica,sans-Serif" font-size="10.00" fill="forestgreen">+</text>
<text text-anchor="start" x="88" y="-541" font-family="Helvetica,sans-Serif" font-size="10.00">Decorator</text>
<text text-anchor="start" x="81" y="-531" font-family="Helvetica,sans-Serif" font-size="10.00" fill="forestgreen">+</text>
<text text-anchor="start" x="88" y="-531" font-family="Helvetica,sans-Serif" font-size="10.00">HTMLDecorator</text>
<text text-anchor="start" x="81" y="-521" font-family="Helvetica,sans-Serif" font-size="10.00" fill="forestgreen">+</text>
<text text-anchor="start" x="88" y="-521" font-family="Helvetica,sans-Serif" font-size="10.00">HeadLine</text>
<text text-anchor="start" x="81" y="-511" font-family="Helvetica,sans-Serif" font-size="10.00" fill="forestgreen">+</text>
<text text-anchor="start" x="88" y="-511" font-family="Helvetica,sans-Serif" font-size="10.00">Line</text>
<text text-anchor="start" x="81" y="-501" font-family="Helvetica,sans-Serif" font-size="10.00" fill="forestgreen">+</text>
<text text-anchor="start" x="88" y="-501" font-family="Helvetica,sans-Serif" font-size="10.00">LineBlockquote</text>
<text text-anchor="start" x="81" y="-491" font-family="Helvetica,sans-Serif" font-size="10.00" fill="forestgreen">+</text>
<text text-anchor="start" x="88" y="-491" font-family="Helvetica,sans-Serif" font-size="10.00">LineCode</text>
<text text-anchor="start" x="81" y="-481" font-family="Helvetica,sans-Serif" font-size="10.00" fill="forestgreen">+</text>
<text text-anchor="start" x="88" y="-481" font-family="Helvetica,sans-Serif" font-size="10.00">LineEmpty</text>
<text text-anchor="start" x="81" y="-471" font-family="Helvetica,sans-Serif" font-size="10.00" fill="forestgreen">+</text>
<text text-anchor="start" x="88" y="-471" font-family="Helvetica,sans-Serif" font-size="10.00">LineFence</text>
<text text-anchor="start" x="81" y="-461" font-family="Helvetica,sans-Serif" font-size="10.00" fill="forestgreen">+</text>
<text text-anchor="start" x="88" y="-461" font-family="Helvetica,sans-Serif" font-size="10.00">LineHR</text>
<text text-anchor="start" x="81" y="-451" font-family="Helvetica,sans-Serif" font-size="10.00" fill="forestgreen">+</text>
<text text-anchor="start" x="88" y="-451" font-family="Helvetica,sans-Serif" font-size="10.00">LineHeadline</text>
<text text-anchor="start" x="81" y="-441" font-family="Helvetica,sans-Serif" font-size="10.00" fill="forestgreen">+</text>
<text text-anchor="start" x="88" y="-441" font-family="Helvetica,sans-Serif" font-size="10.00">LineHeadline1</text>
<text text-anchor="start" x="81" y="-431" font-family="Helvetica,sans-Serif" font-size="10.00" fill="forestgreen">+</text>
<text text-anchor="start" x="88" y="-431" font-family="Helvetica,sans-Serif" font-size="10.00">LineHeadline2</text>
<text text-anchor="start" x="81" y="-421" font-family="Helvetica,sans-Serif" font-size="10.00" fill="forestgreen">+</text>
<text text-anchor="start" x="88" y="-421" font-family="Helvetica,sans-Serif" font-size="10.00">LineList</text>
<text text-anchor="start" x="81" y="-411" font-family="Helvetica,sans-Serif" font-size="10.00" fill="forestgreen">+</text>
<text text-anchor="start" x="88" y="-411" font-family="Helvetica,sans-Serif" font-size="10.00">LineOList</text>
<text text-anchor="start" x="81" y="-401" font-family="Helvetica,sans-Serif" font-size="10.00" fill="forestgreen">+</text>
<text text-anchor="start" x="88" y="-401" font-family="Helvetica,sans-Serif" font-size="10.00">LineOther</text>
<text text-anchor="start" x="81" y="-391" font-family="Helvetica,sans-Serif" font-size="10.00" fill="forestgreen">+</text>
<text text-anchor="start" x="88" y="-391" font-family="Helvetica,sans-Serif" font-size="10.00">LineUList</text>
<text text-anchor="start" x="81" y="-381" font-family="Helvetica,sans-Serif" font-size="10.00" fill="forestgreen">+</text>
<text text-anchor="start" x="88" y="-381" font-family="Helvetica,sans-Serif" font-size="10.00">LineXML</text>
<text text-anchor="start" x="81" y="-371" font-family="Helvetica,sans-Serif" font-size="10.00" fill="forestgreen">+</text>
<text text-anchor="start" x="88" y="-371" font-family="Helvetica,sans-Serif" font-size="10.00">LinkRef</text>
<text text-anchor="start" x="81" y="-361" font-family="Helvetica,sans-Serif" font-size="10.00" fill="forestgreen">+</text>
<text text-anchor="start" x="88" y="-361" font-family="Helvetica,sans-Serif" font-size="10.00">MDBlock</text>
<text text-anchor="start" x="81" y="-351" font-family="Helvetica,sans-Serif" font-size="10.00" fill="forestgreen">+</text>
<text text-anchor="start" x="88" y="-351" font-family="Helvetica,sans-Serif" font-size="10.00">MDLine</text>
<text text-anchor="start" x="81" y="-341" font-family="Helvetica,sans-Serif" font-size="10.00" fill="forestgreen">+</text>
<text text-anchor="start" x="88" y="-341" font-family="Helvetica,sans-Serif" font-size="10.00">MDLocation</text>
<text text-anchor="start" x="81" y="-331" font-family="Helvetica,sans-Serif" font-size="10.00" fill="forestgreen">+</text>
<text text-anchor="start" x="88" y="-331" font-family="Helvetica,sans-Serif" font-size="10.00">MarkdownProcessor</text>
<text text-anchor="start" x="81" y="-321" font-family="Helvetica,sans-Serif" font-size="10.00" fill="forestgreen">+</text>
<text text-anchor="start" x="88" y="-321" font-family="Helvetica,sans-Serif" font-size="10.00">String</text>
<text text-anchor="start" x="81" y="-311" font-family="Helvetica,sans-Serif" font-size="10.00" fill="forestgreen">+</text>
<text text-anchor="start" x="88" y="-311" font-family="Helvetica,sans-Serif" font-size="10.00">Text</text>
<text text-anchor="start" x="81" y="-301" font-family="Helvetica,sans-Serif" font-size="10.00" fill="forestgreen">+</text>
<text text-anchor="start" x="88" y="-301" font-family="Helvetica,sans-Serif" font-size="10.00">Token</text>
<text text-anchor="start" x="81" y="-291" font-family="Helvetica,sans-Serif" font-size="10.00" fill="forestgreen">+</text>
<text text-anchor="start" x="88" y="-291" font-family="Helvetica,sans-Serif" font-size="10.00">TokenCode</text>
<text text-anchor="start" x="81" y="-281" font-family="Helvetica,sans-Serif" font-size="10.00" fill="forestgreen">+</text>
<text text-anchor="start" x="88" y="-281" font-family="Helvetica,sans-Serif" font-size="10.00">TokenCodeDouble</text>
<text text-anchor="start" x="81" y="-271" font-family="Helvetica,sans-Serif" font-size="10.00" fill="forestgreen">+</text>
<text text-anchor="start" x="88" y="-271" font-family="Helvetica,sans-Serif" font-size="10.00">TokenCodeSingle</text>
<text text-anchor="start" x="81" y="-261" font-family="Helvetica,sans-Serif" font-size="10.00" fill="forestgreen">+</text>
<text text-anchor="start" x="88" y="-261" font-family="Helvetica,sans-Serif" font-size="10.00">TokenEm</text>
<text text-anchor="start" x="81" y="-251" font-family="Helvetica,sans-Serif" font-size="10.00" fill="forestgreen">+</text>
<text text-anchor="start" x="88" y="-251" font-family="Helvetica,sans-Serif" font-size="10.00">TokenEmStar</text>
<text text-anchor="start" x="81" y="-241" font-family="Helvetica,sans-Serif" font-size="10.00" fill="forestgreen">+</text>
<text text-anchor="start" x="88" y="-241" font-family="Helvetica,sans-Serif" font-size="10.00">TokenEmUnderscore</text>
<text text-anchor="start" x="81" y="-231" font-family="Helvetica,sans-Serif" font-size="10.00" fill="forestgreen">+</text>
<text text-anchor="start" x="88" y="-231" font-family="Helvetica,sans-Serif" font-size="10.00">TokenEntity</text>
<text text-anchor="start" x="81" y="-221" font-family="Helvetica,sans-Serif" font-size="10.00" fill="forestgreen">+</text>
<text text-anchor="start" x="88" y="-221" font-family="Helvetica,sans-Serif" font-size="10.00">TokenEscape</text>
<text text-anchor="start" x="81" y="-211" font-family="Helvetica,sans-Serif" font-size="10.00" fill="forestgreen">+</text>
<text text-anchor="start" x="88" y="-211" font-family="Helvetica,sans-Serif" font-size="10.00">TokenHTML</text>
<text text-anchor="start" x="81" y="-201" font-family="Helvetica,sans-Serif" font-size="10.00" fill="forestgreen">+</text>
<text text-anchor="start" x="88" y="-201" font-family="Helvetica,sans-Serif" font-size="10.00">TokenImage</text>
<text text-anchor="start" x="81" y="-191" font-family="Helvetica,sans-Serif" font-size="10.00" fill="forestgreen">+</text>
<text text-anchor="start" x="88" y="-191" font-family="Helvetica,sans-Serif" font-size="10.00">TokenLink</text>
<text text-anchor="start" x="81" y="-181" font-family="Helvetica,sans-Serif" font-size="10.00" fill="forestgreen">+</text>
<text text-anchor="start" x="88" y="-181" font-family="Helvetica,sans-Serif" font-size="10.00">TokenLinkOrImage</text>
<text text-anchor="start" x="81" y="-171" font-family="Helvetica,sans-Serif" font-size="10.00" fill="forestgreen">+</text>
<text text-anchor="start" x="88" y="-171" font-family="Helvetica,sans-Serif" font-size="10.00">TokenNone</text>
<text text-anchor="start" x="81" y="-161" font-family="Helvetica,sans-Serif" font-size="10.00" fill="forestgreen">+</text>
<text text-anchor="start" x="88" y="-161" font-family="Helvetica,sans-Serif" font-size="10.00">TokenStrike</text>
<text text-anchor="start" x="81" y="-151" font-family="Helvetica,sans-Serif" font-size="10.00" fill="forestgreen">+</text>
<text text-anchor="start" x="88" y="-151" font-family="Helvetica,sans-Serif" font-size="10.00">TokenStrong</text>
<text text-anchor="start" x="81" y="-141" font-family="Helvetica,sans-Serif" font-size="10.00" fill="forestgreen">+</text>
<text text-anchor="start" x="88" y="-141" font-family="Helvetica,sans-Serif" font-size="10.00">TokenStrongStar</text>
<text text-anchor="start" x="81" y="-131" font-family="Helvetica,sans-Serif" font-size="10.00" fill="forestgreen">+</text>
<text text-anchor="start" x="88" y="-131" font-family="Helvetica,sans-Serif" font-size="10.00">TokenStrongUnderscore</text>
</g>
<!-- markdown::decorators&#45;&gt;markdown::markdown -->
<g id="edge1" class="edge"><title>markdown::decorators&#45;&gt;markdown::markdown</title>
<path fill="none" stroke="black" stroke-width="0.5" stroke-dasharray="5,2" d="M44.7506,-99.1686C51.6389,-122.13 63.9467,-163.156 77.4084,-208.028"/>
<polygon fill="black" stroke="black" stroke-width="0.5" points="78.8843,-212.948 75.2923,-208.805 78.1659,-210.553 77.4474,-208.158 77.4474,-208.158 77.4474,-208.158 78.1659,-210.553 79.6026,-207.512 78.8843,-212.948 78.8843,-212.948"/>
</g>
<!-- markdown::man -->
<g id="node2" class="node"><title>markdown::man</title>
<polygon fill="#fffaf3" stroke="black" points="169.833,-94.5 101,-94.5 101,-63.5 175,-63.5 175,-89.3333 169.833,-94.5"/>
<polyline fill="none" stroke="black" points="169.833,-94.5 169.833,-89.3333 "/>
<polyline fill="none" stroke="black" points="175,-89.3333 169.833,-89.3333 "/>
<text text-anchor="start" x="103" y="-84.5" font-family="Helvetica,sans-Serif" font-weight="bold" font-size="10.00">man</text>
<text text-anchor="start" x="103" y="-69" font-family="Helvetica,sans-Serif" font-size="10.00" fill="forestgreen">+</text>
<text text-anchor="start" x="110" y="-69" font-family="Helvetica,sans-Serif" font-size="10.00">ManDecorator</text>
</g>
<!-- markdown::man&#45;&gt;markdown::markdown -->
<g id="edge2" class="edge"><title>markdown::man&#45;&gt;markdown::markdown</title>
<path fill="none" stroke="black" stroke-width="0.5" stroke-dasharray="5,2" d="M138,-94.6055C138,-101.359 138,-110.21 138,-120.641"/>
<polygon fill="black" stroke="black" stroke-width="0.5" points="138,-125.886 135.75,-120.886 138,-123.386 138,-120.886 138,-120.886 138,-120.886 138,-123.386 140.25,-120.886 138,-125.886 138,-125.886"/>
</g>
<!-- markdown::nitmd -->
<g id="node4" class="node"><title>markdown::nitmd</title>
<polygon fill="#fffaf3" stroke="black" points="99.3333,-31.5 71.5,-31.5 71.5,-0.5 104.5,-0.5 104.5,-26.3333 99.3333,-31.5"/>
<polyline fill="none" stroke="black" points="99.3333,-31.5 99.3333,-26.3333 "/>
<polyline fill="none" stroke="black" points="104.5,-26.3333 99.3333,-26.3333 "/>
<text text-anchor="start" x="74" y="-21.5" font-family="Helvetica,sans-Serif" font-weight="bold" font-size="10.00">nitmd</text>
<text text-anchor="start" x="74" y="-6" font-family="Helvetica,sans-Serif" font-size="10.00" fill="forestgreen">+</text>
<text text-anchor="start" x="81" y="-6" font-family="Helvetica,sans-Serif" font-size="10.00">Sys</text>
</g>
<!-- markdown::nitmd&#45;&gt;markdown::decorators -->
<g id="edge3" class="edge"><title>markdown::nitmd&#45;&gt;markdown::decorators</title>
<path fill="none" stroke="black" stroke-width="0.5" stroke-dasharray="5,2" d="M76.1385,-31.7664C70.5941,-38.6685 63.8607,-47.051 57.6578,-54.773"/>
<polygon fill="black" stroke="black" stroke-width="0.5" points="54.2772,-58.9814 55.6543,-53.6742 55.8428,-57.0324 57.4085,-55.0833 57.4085,-55.0833 57.4085,-55.0833 55.8428,-57.0324 59.1627,-56.4924 54.2772,-58.9814 54.2772,-58.9814"/>
</g>
<!-- markdown::nitmd&#45;&gt;markdown::man -->
<g id="edge4" class="edge"><title>markdown::nitmd&#45;&gt;markdown::man</title>
<path fill="none" stroke="black" stroke-width="0.5" stroke-dasharray="5,2" d="M100.104,-31.7664C106.859,-40.0084 115.345,-50.3613 122.574,-59.1798"/>
<polygon fill="black" stroke="black" stroke-width="0.5" points="126.008,-63.3696 121.098,-60.929 124.423,-61.4361 122.838,-59.5026 122.838,-59.5026 122.838,-59.5026 124.423,-61.4361 124.578,-58.0763 126.008,-63.3696 126.008,-63.3696"/>
</g>
<!-- markdown::wikilinks -->
<g id="node5" class="node"><title>markdown::wikilinks</title>
<polygon fill="#fffaf3" stroke="black" points="293,-104 197,-104 197,-54 299,-54 299,-98 293,-104"/>
<polyline fill="none" stroke="black" points="293,-104 293,-98 "/>
<polyline fill="none" stroke="black" points="299,-98 293,-98 "/>
<text text-anchor="start" x="199" y="-94.5" font-family="Helvetica,sans-Serif" font-weight="bold" font-size="10.00">wikilinks</text>
<text text-anchor="start" x="199" y="-79" font-family="Helvetica,sans-Serif" font-size="10.00" fill="forestgreen">+</text>
<text text-anchor="start" x="206" y="-79" font-family="Helvetica,sans-Serif" font-size="10.00">Decorator</text>
<text text-anchor="start" x="199" y="-69" font-family="Helvetica,sans-Serif" font-size="10.00" fill="forestgreen">+</text>
<text text-anchor="start" x="206" y="-69" font-family="Helvetica,sans-Serif" font-size="10.00">MarkdownProcessor</text>
<text text-anchor="start" x="199" y="-59" font-family="Helvetica,sans-Serif" font-size="10.00" fill="forestgreen">+</text>
<text text-anchor="start" x="206" y="-59" font-family="Helvetica,sans-Serif" font-size="10.00">TokenWikiLink</text>
</g>
<!-- markdown::wikilinks&#45;&gt;markdown::markdown -->
<g id="edge5" class="edge"><title>markdown::wikilinks&#45;&gt;markdown::markdown</title>
<path fill="none" stroke="black" stroke-width="0.5" stroke-dasharray="5,2" d="M239.911,-104.266C230.779,-131.663 215.042,-178.874 198.629,-228.112"/>
<polygon fill="black" stroke="black" stroke-width="0.5" points="197.039,-232.883 196.486,-227.428 197.83,-230.511 198.62,-228.14 198.62,-228.14 198.62,-228.14 197.83,-230.511 200.755,-228.851 197.039,-232.883 197.039,-232.883"/>
</g>
</g>
</svg>
