<?xml version="1.0" encoding="UTF-8" standalone="no"?>
<!DOCTYPE svg PUBLIC "-//W3C//DTD SVG 1.1//EN"
 "http://www.w3.org/Graphics/SVG/1.1/DTD/svg11.dtd">
<!-- Generated by graphviz version 2.36.0 (20140111.2315)
 -->
<!-- Title: G Pages: 1 -->
<svg width="48pt" height="156pt"
 viewBox="0.00 0.00 48.00 156.00" xmlns="http://www.w3.org/2000/svg" xmlns:xlink="http://www.w3.org/1999/xlink">
<g id="graph0" class="graph" transform="scale(1 1) rotate(0) translate(4 152)">
<title>G</title>
<polygon fill="white" stroke="none" points="-4,4 -4,-152 44,-152 44,4 -4,4"/>
<!-- logic::lexpr -->
<g id="node1" class="node"><title>logic::lexpr</title>
<polygon fill="#fffaf3" stroke="black" points="35,-148 -1,-148 -1,-38 41,-38 41,-142 35,-148"/>
<polyline fill="none" stroke="black" points="35,-148 35,-142 "/>
<polyline fill="none" stroke="black" points="41,-142 35,-142 "/>
<text text-anchor="start" x="1" y="-138.5" font-family="Helvetica,sans-Serif" font-weight="bold" font-size="10.00">lexpr</text>
<text text-anchor="start" x="1" y="-123" font-family="Helvetica,sans-Serif" font-size="10.00" fill="forestgreen">+</text>
<text text-anchor="start" x="8" y="-123" font-family="Helvetica,sans-Serif" font-size="10.00">CNF</text>
<text text-anchor="start" x="1" y="-113" font-family="Helvetica,sans-Serif" font-size="10.00" fill="forestgreen">+</text>
<text text-anchor="start" x="8" y="-113" font-family="Helvetica,sans-Serif" font-size="10.00">LAnd</text>
<text text-anchor="start" x="1" y="-103" font-family="Helvetica,sans-Serif" font-size="10.00" fill="forestgreen">+</text>
<text text-anchor="start" x="8" y="-103" font-family="Helvetica,sans-Serif" font-size="10.00">LExpr</text>
<text text-anchor="start" x="1" y="-93" font-family="Helvetica,sans-Serif" font-size="10.00" fill="forestgreen">+</text>
<text text-anchor="start" x="8" y="-93" font-family="Helvetica,sans-Serif" font-size="10.00">LFalse</text>
<text text-anchor="start" x="1" y="-83" font-family="Helvetica,sans-Serif" font-size="10.00" fill="forestgreen">+</text>
<text text-anchor="start" x="8" y="-83" font-family="Helvetica,sans-Serif" font-size="10.00">LNot</text>
<text text-anchor="start" x="1" y="-73" font-family="Helvetica,sans-Serif" font-size="10.00" fill="forestgreen">+</text>
<text text-anchor="start" x="8" y="-73" font-family="Helvetica,sans-Serif" font-size="10.00">LOr</text>
<text text-anchor="start" x="1" y="-63" font-family="Helvetica,sans-Serif" font-size="10.00" fill="forestgreen">+</text>
<text text-anchor="start" x="8" y="-63" font-family="Helvetica,sans-Serif" font-size="10.00">LTrue</text>
<text text-anchor="start" x="1" y="-53" font-family="Helvetica,sans-Serif" font-size="10.00" fill="forestgreen">+</text>
<text text-anchor="start" x="8" y="-53" font-family="Helvetica,sans-Serif" font-size="10.00">LVar</text>
<text text-anchor="start" x="1" y="-43" font-family="Helvetica,sans-Serif" font-size="10.00" fill="forestgreen">+</text>
<text text-anchor="start" x="8" y="-43" font-family="Helvetica,sans-Serif" font-size="10.00">Sys</text>
</g>
<!-- logic::logic -->
<g id="node2" class="node"><title>logic::logic</title>
<polygon fill="#fffaf3" stroke="black" points="31.8333,-16 5.5,-16 5.5,-0 34.5,-0 34.5,-13.3333 31.8333,-16"/>
<polyline fill="none" stroke="black" points="31.8333,-16 31.8333,-13.3333 "/>
<polyline fill="none" stroke="black" points="34.5,-13.3333 31.8333,-13.3333 "/>
<text text-anchor="start" x="8" y="-6.5" font-family="Helvetica,sans-Serif" font-weight="bold" font-size="10.00">logic</text>
</g>
<!-- logic::logic&#45;&gt;logic::lexpr -->
<g id="edge1" class="edge"><title>logic::logic&#45;&gt;logic::lexpr</title>
<path fill="none" stroke="black" stroke-width="0.5" stroke-dasharray="5,2" d="M20,-16.0765C20,-20.3251 20,-26.1768 20,-32.7625"/>
<polygon fill="black" stroke="black" stroke-width="0.5" points="20,-37.9274 17.7501,-32.9274 20,-35.4274 20.0001,-32.9274 20.0001,-32.9274 20.0001,-32.9274 20,-35.4274 22.2501,-32.9275 20,-37.9274 20,-37.9274"/>
</g>
</g>
</svg>
