<?xml version="1.0" encoding="UTF-8" standalone="no"?>
<!DOCTYPE svg PUBLIC "-//W3C//DTD SVG 1.1//EN"
 "http://www.w3.org/Graphics/SVG/1.1/DTD/svg11.dtd">
<!-- Generated by graphviz version 2.36.0 (20140111.2315)
 -->
<!-- Title: G Pages: 1 -->
<svg width="531pt" height="636pt"
 viewBox="0.00 0.00 531.00 636.00" xmlns="http://www.w3.org/2000/svg" xmlns:xlink="http://www.w3.org/1999/xlink">
<g id="graph0" class="graph" transform="scale(1 1) rotate(0) translate(4 632)">
<title>G</title>
<polygon fill="white" stroke="none" points="-4,4 -4,-632 527,-632 527,4 -4,4"/>
<!-- popcorn::pop_sessions -->
<g id="node1" class="node"><title>popcorn::pop_sessions</title>
<polygon fill="#fffaf3" stroke="black" points="237.833,-319.5 173,-319.5 173,-288.5 243,-288.5 243,-314.333 237.833,-319.5"/>
<polyline fill="none" stroke="black" points="237.833,-319.5 237.833,-314.333 "/>
<polyline fill="none" stroke="black" points="243,-314.333 237.833,-314.333 "/>
<text text-anchor="start" x="175" y="-309.5" font-family="Helvetica,sans-Serif" font-weight="bold" font-size="10.00">pop_sessions</text>
<text text-anchor="start" x="175" y="-294" font-family="Helvetica,sans-Serif" font-size="10.00" fill="forestgreen">+</text>
<text text-anchor="start" x="182" y="-294" font-family="Helvetica,sans-Serif" font-size="10.00">SessionInit</text>
</g>
<!-- popcorn::pop_handlers -->
<g id="node13" class="node"><title>popcorn::pop_handlers</title>
<polygon fill="#fffaf3" stroke="black" points="186,-491 116,-491 116,-421 192,-421 192,-485 186,-491"/>
<polyline fill="none" stroke="black" points="186,-491 186,-485 "/>
<polyline fill="none" stroke="black" points="192,-485 186,-485 "/>
<text text-anchor="start" x="118" y="-481.5" font-family="Helvetica,sans-Serif" font-weight="bold" font-size="10.00">pop_handlers</text>
<text text-anchor="start" x="118" y="-466" font-family="Helvetica,sans-Serif" font-size="10.00" fill="forestgreen">+</text>
<text text-anchor="start" x="125" y="-466" font-family="Helvetica,sans-Serif" font-size="10.00">App</text>
<text text-anchor="start" x="118" y="-456" font-family="Helvetica,sans-Serif" font-size="10.00" fill="forestgreen">+</text>
<text text-anchor="start" x="125" y="-456" font-family="Helvetica,sans-Serif" font-size="10.00">Handler</text>
<text text-anchor="start" x="118" y="-446" font-family="Helvetica,sans-Serif" font-size="10.00" fill="forestgreen">+</text>
<text text-anchor="start" x="125" y="-446" font-family="Helvetica,sans-Serif" font-size="10.00">HttpResponse</text>
<text text-anchor="start" x="118" y="-436" font-family="Helvetica,sans-Serif" font-size="10.00" fill="forestgreen">+</text>
<text text-anchor="start" x="125" y="-436" font-family="Helvetica,sans-Serif" font-size="10.00">Router</text>
<text text-anchor="start" x="118" y="-426" font-family="Helvetica,sans-Serif" font-size="10.00" fill="forestgreen">+</text>
<text text-anchor="start" x="125" y="-426" font-family="Helvetica,sans-Serif" font-size="10.00">StaticHandler</text>
</g>
<!-- popcorn::pop_sessions&#45;&gt;popcorn::pop_handlers -->
<g id="edge1" class="edge"><title>popcorn::pop_sessions&#45;&gt;popcorn::pop_handlers</title>
<path fill="none" stroke="black" stroke-width="0.5" stroke-dasharray="5,2" d="M202.724,-319.656C194.764,-341.768 179.407,-384.424 168.053,-415.963"/>
<polygon fill="black" stroke="black" stroke-width="0.5" points="166.267,-420.925 165.844,-415.458 167.114,-418.572 167.961,-416.22 167.961,-416.22 167.961,-416.22 167.114,-418.572 170.078,-416.982 166.267,-420.925 166.267,-420.925"/>
</g>
<!-- popcorn::pop_tasks -->
<g id="node2" class="node"><title>popcorn::pop_tasks</title>
<polygon fill="#fffaf3" stroke="black" points="46.5,-324 -0.5,-324 -0.5,-284 52.5,-284 52.5,-318 46.5,-324"/>
<polyline fill="none" stroke="black" points="46.5,-324 46.5,-318 "/>
<polyline fill="none" stroke="black" points="52.5,-318 46.5,-318 "/>
<text text-anchor="start" x="2" y="-314.5" font-family="Helvetica,sans-Serif" font-weight="bold" font-size="10.00">pop_tasks</text>
<text text-anchor="start" x="2" y="-299" font-family="Helvetica,sans-Serif" font-size="10.00" fill="forestgreen">+</text>
<text text-anchor="start" x="9" y="-299" font-family="Helvetica,sans-Serif" font-size="10.00">App</text>
<text text-anchor="start" x="2" y="-289" font-family="Helvetica,sans-Serif" font-size="10.00" fill="forestgreen">+</text>
<text text-anchor="start" x="9" y="-289" font-family="Helvetica,sans-Serif" font-size="10.00">PopTask</text>
</g>
<!-- popcorn::pop_tasks&#45;&gt;popcorn::pop_handlers -->
<g id="edge2" class="edge"><title>popcorn::pop_tasks&#45;&gt;popcorn::pop_handlers</title>
<path fill="none" stroke="black" stroke-width="0.5" stroke-dasharray="5,2" d="M42.4717,-324.303C62.3746,-347.626 96.3264,-387.414 121.554,-416.977"/>
<polygon fill="black" stroke="black" stroke-width="0.5" points="124.897,-420.895 119.94,-418.552 123.274,-418.994 121.652,-417.092 121.652,-417.092 121.652,-417.092 123.274,-418.994 123.363,-415.631 124.897,-420.895 124.897,-420.895"/>
</g>
<!-- popcorn::pop_json -->
<g id="node3" class="node"><title>popcorn::pop_json</title>
<polygon fill="#fffaf3" stroke="black" points="335,-324 265,-324 265,-284 341,-284 341,-318 335,-324"/>
<polyline fill="none" stroke="black" points="335,-324 335,-318 "/>
<polyline fill="none" stroke="black" points="341,-318 335,-318 "/>
<text text-anchor="start" x="267" y="-314.5" font-family="Helvetica,sans-Serif" font-weight="bold" font-size="10.00">pop_json</text>
<text text-anchor="start" x="267" y="-299" font-family="Helvetica,sans-Serif" font-size="10.00" fill="forestgreen">+</text>
<text text-anchor="start" x="274" y="-299" font-family="Helvetica,sans-Serif" font-size="10.00">Handler</text>
<text text-anchor="start" x="267" y="-289" font-family="Helvetica,sans-Serif" font-size="10.00" fill="forestgreen">+</text>
<text text-anchor="start" x="274" y="-289" font-family="Helvetica,sans-Serif" font-size="10.00">HttpResponse</text>
</g>
<!-- popcorn::pop_json&#45;&gt;popcorn::pop_handlers -->
<g id="edge3" class="edge"><title>popcorn::pop_json&#45;&gt;popcorn::pop_handlers</title>
<path fill="none" stroke="black" stroke-width="0.5" stroke-dasharray="5,2" d="M279.452,-324.237C268.412,-333.535 255.244,-345.034 244,-356 224.366,-375.149 203.698,-397.693 187.127,-416.428"/>
<polygon fill="black" stroke="black" stroke-width="0.5" points="183.44,-420.61 185.059,-415.372 185.093,-418.735 186.746,-416.86 186.746,-416.86 186.746,-416.86 185.093,-418.735 188.434,-418.348 183.44,-420.61 183.44,-420.61"/>
</g>
<!-- popcorn::pop_validation -->
<g id="node14" class="node"><title>popcorn::pop_validation</title>
<polygon fill="#fffaf3" stroke="black" points="345,-556 255,-556 255,-356 351,-356 351,-550 345,-556"/>
<polyline fill="none" stroke="black" points="345,-556 345,-550 "/>
<polyline fill="none" stroke="black" points="351,-550 345,-550 "/>
<text text-anchor="start" x="257" y="-546.5" font-family="Helvetica,sans-Serif" font-weight="bold" font-size="10.00">pop_validation</text>
<text text-anchor="start" x="257" y="-531" font-family="Helvetica,sans-Serif" font-size="10.00" fill="forestgreen">+</text>
<text text-anchor="start" x="264" y="-531" font-family="Helvetica,sans-Serif" font-size="10.00">ArrayField</text>
<text text-anchor="start" x="257" y="-521" font-family="Helvetica,sans-Serif" font-size="10.00" fill="forestgreen">+</text>
<text text-anchor="start" x="264" y="-521" font-family="Helvetica,sans-Serif" font-size="10.00">ArrayValidator</text>
<text text-anchor="start" x="257" y="-511" font-family="Helvetica,sans-Serif" font-size="10.00" fill="forestgreen">+</text>
<text text-anchor="start" x="264" y="-511" font-family="Helvetica,sans-Serif" font-size="10.00">BoolField</text>
<text text-anchor="start" x="257" y="-501" font-family="Helvetica,sans-Serif" font-size="10.00" fill="forestgreen">+</text>
<text text-anchor="start" x="264" y="-501" font-family="Helvetica,sans-Serif" font-size="10.00">DocumentValidator</text>
<text text-anchor="start" x="257" y="-491" font-family="Helvetica,sans-Serif" font-size="10.00" fill="forestgreen">+</text>
<text text-anchor="start" x="264" y="-491" font-family="Helvetica,sans-Serif" font-size="10.00">EmailField</text>
<text text-anchor="start" x="257" y="-481" font-family="Helvetica,sans-Serif" font-size="10.00" fill="forestgreen">+</text>
<text text-anchor="start" x="264" y="-481" font-family="Helvetica,sans-Serif" font-size="10.00">FieldValidator</text>
<text text-anchor="start" x="257" y="-471" font-family="Helvetica,sans-Serif" font-size="10.00" fill="forestgreen">+</text>
<text text-anchor="start" x="264" y="-471" font-family="Helvetica,sans-Serif" font-size="10.00">FieldsMatch</text>
<text text-anchor="start" x="257" y="-461" font-family="Helvetica,sans-Serif" font-size="10.00" fill="forestgreen">+</text>
<text text-anchor="start" x="264" y="-461" font-family="Helvetica,sans-Serif" font-size="10.00">FloatField</text>
<text text-anchor="start" x="257" y="-451" font-family="Helvetica,sans-Serif" font-size="10.00" fill="forestgreen">+</text>
<text text-anchor="start" x="264" y="-451" font-family="Helvetica,sans-Serif" font-size="10.00">ISBNField</text>
<text text-anchor="start" x="257" y="-441" font-family="Helvetica,sans-Serif" font-size="10.00" fill="forestgreen">+</text>
<text text-anchor="start" x="264" y="-441" font-family="Helvetica,sans-Serif" font-size="10.00">IntField</text>
<text text-anchor="start" x="257" y="-431" font-family="Helvetica,sans-Serif" font-size="10.00" fill="forestgreen">+</text>
<text text-anchor="start" x="264" y="-431" font-family="Helvetica,sans-Serif" font-size="10.00">ObjectField</text>
<text text-anchor="start" x="257" y="-421" font-family="Helvetica,sans-Serif" font-size="10.00" fill="forestgreen">+</text>
<text text-anchor="start" x="264" y="-421" font-family="Helvetica,sans-Serif" font-size="10.00">ObjectValidator</text>
<text text-anchor="start" x="257" y="-411" font-family="Helvetica,sans-Serif" font-size="10.00" fill="forestgreen">+</text>
<text text-anchor="start" x="264" y="-411" font-family="Helvetica,sans-Serif" font-size="10.00">RegexField</text>
<text text-anchor="start" x="257" y="-401" font-family="Helvetica,sans-Serif" font-size="10.00" fill="forestgreen">+</text>
<text text-anchor="start" x="264" y="-401" font-family="Helvetica,sans-Serif" font-size="10.00">RequiredField</text>
<text text-anchor="start" x="257" y="-391" font-family="Helvetica,sans-Serif" font-size="10.00" fill="forestgreen">+</text>
<text text-anchor="start" x="264" y="-391" font-family="Helvetica,sans-Serif" font-size="10.00">StringField</text>
<text text-anchor="start" x="257" y="-381" font-family="Helvetica,sans-Serif" font-size="10.00" fill="forestgreen">+</text>
<text text-anchor="start" x="264" y="-381" font-family="Helvetica,sans-Serif" font-size="10.00">URLField</text>
<text text-anchor="start" x="257" y="-371" font-family="Helvetica,sans-Serif" font-size="10.00" fill="forestgreen">+</text>
<text text-anchor="start" x="264" y="-371" font-family="Helvetica,sans-Serif" font-size="10.00">UniqueField</text>
<text text-anchor="start" x="257" y="-361" font-family="Helvetica,sans-Serif" font-size="10.00" fill="forestgreen">+</text>
<text text-anchor="start" x="264" y="-361" font-family="Helvetica,sans-Serif" font-size="10.00">ValidationResult</text>
</g>
<!-- popcorn::pop_json&#45;&gt;popcorn::pop_validation -->
<g id="edge4" class="edge"><title>popcorn::pop_json&#45;&gt;popcorn::pop_validation</title>
<path fill="none" stroke="black" stroke-width="0.5" stroke-dasharray="5,2" d="M303,-324.303C303,-331.715 303,-340.789 303,-350.67"/>
<polygon fill="black" stroke="black" stroke-width="0.5" points="303,-355.906 300.75,-350.906 303,-353.406 303,-350.906 303,-350.906 303,-350.906 303,-353.406 305.25,-350.906 303,-355.906 303,-355.906"/>
</g>
<!-- popcorn::pop_templates -->
<g id="node4" class="node"><title>popcorn::pop_templates</title>
<polygon fill="#fffaf3" stroke="black" points="406.833,-217.5 336,-217.5 336,-186.5 412,-186.5 412,-212.333 406.833,-217.5"/>
<polyline fill="none" stroke="black" points="406.833,-217.5 406.833,-212.333 "/>
<polyline fill="none" stroke="black" points="412,-212.333 406.833,-212.333 "/>
<text text-anchor="start" x="338" y="-207.5" font-family="Helvetica,sans-Serif" font-weight="bold" font-size="10.00">pop_templates</text>
<text text-anchor="start" x="338" y="-192" font-family="Helvetica,sans-Serif" font-size="10.00" fill="forestgreen">+</text>
<text text-anchor="start" x="345" y="-192" font-family="Helvetica,sans-Serif" font-size="10.00">HttpResponse</text>
</g>
<!-- popcorn::pop_templates&#45;&gt;popcorn::pop_json -->
<g id="edge5" class="edge"><title>popcorn::pop_templates&#45;&gt;popcorn::pop_json</title>
<path fill="none" stroke="black" stroke-width="0.5" stroke-dasharray="5,2" d="M363.524,-217.755C351.976,-234.019 333.242,-260.406 319.672,-279.519"/>
<polygon fill="black" stroke="black" stroke-width="0.5" points="316.687,-283.723 317.747,-278.343 318.134,-281.684 319.582,-279.646 319.582,-279.646 319.582,-279.646 318.134,-281.684 321.416,-280.948 316.687,-283.723 316.687,-283.723"/>
</g>
<!-- popcorn::pop_config -->
<g id="node5" class="node"><title>popcorn::pop_config</title>
<polygon fill="#fffaf3" stroke="black" points="502.833,-319.5 450,-319.5 450,-288.5 508,-288.5 508,-314.333 502.833,-319.5"/>
<polyline fill="none" stroke="black" points="502.833,-319.5 502.833,-314.333 "/>
<polyline fill="none" stroke="black" points="508,-314.333 502.833,-314.333 "/>
<text text-anchor="start" x="452" y="-309.5" font-family="Helvetica,sans-Serif" font-weight="bold" font-size="10.00">pop_config</text>
<text text-anchor="start" x="452" y="-294" font-family="Helvetica,sans-Serif" font-size="10.00" fill="forestgreen">+</text>
<text text-anchor="start" x="459" y="-294" font-family="Helvetica,sans-Serif" font-size="10.00">AppConfig</text>
</g>
<!-- popcorn::popcorn -->
<g id="node6" class="node"><title>popcorn::popcorn</title>
<polygon fill="#fffaf3" stroke="black" points="130.5,-222 89.5,-222 89.5,-182 136.5,-182 136.5,-216 130.5,-222"/>
<polyline fill="none" stroke="black" points="130.5,-222 130.5,-216 "/>
<polyline fill="none" stroke="black" points="136.5,-216 130.5,-216 "/>
<text text-anchor="start" x="92" y="-212.5" font-family="Helvetica,sans-Serif" font-weight="bold" font-size="10.00">popcorn</text>
<text text-anchor="start" x="92" y="-197" font-family="Helvetica,sans-Serif" font-size="10.00" fill="forestgreen">+</text>
<text text-anchor="start" x="99" y="-197" font-family="Helvetica,sans-Serif" font-size="10.00">App</text>
<text text-anchor="start" x="92" y="-187" font-family="Helvetica,sans-Serif" font-size="10.00" fill="forestgreen">+</text>
<text text-anchor="start" x="99" y="-187" font-family="Helvetica,sans-Serif" font-size="10.00">ErrorTpl</text>
</g>
<!-- popcorn::popcorn&#45;&gt;popcorn::pop_sessions -->
<g id="edge6" class="edge"><title>popcorn::popcorn&#45;&gt;popcorn::pop_sessions</title>
<path fill="none" stroke="black" stroke-width="0.5" stroke-dasharray="5,2" d="M124.494,-222.029C130.622,-231.489 138.617,-242.829 147,-252 158.032,-264.069 171.915,-275.888 183.648,-285.105"/>
<polygon fill="black" stroke="black" stroke-width="0.5" points="187.865,-288.378 182.535,-287.089 185.89,-286.845 183.915,-285.312 183.915,-285.312 183.915,-285.312 185.89,-286.845 185.295,-283.535 187.865,-288.378 187.865,-288.378"/>
</g>
<!-- popcorn::popcorn&#45;&gt;popcorn::pop_tasks -->
<g id="edge7" class="edge"><title>popcorn::popcorn&#45;&gt;popcorn::pop_tasks</title>
<path fill="none" stroke="black" stroke-width="0.5" stroke-dasharray="5,2" d="M96.2255,-222.281C81.903,-238.744 61.2695,-262.46 46.0726,-279.928"/>
<polygon fill="black" stroke="black" stroke-width="0.5" points="42.723,-283.778 44.3073,-278.529 44.3639,-281.892 46.0048,-280.006 46.0048,-280.006 46.0048,-280.006 44.3639,-281.892 47.7023,-281.483 42.723,-283.778 42.723,-283.778"/>
</g>
<!-- popcorn::pop_logging -->
<g id="node11" class="node"><title>popcorn::pop_logging</title>
<polygon fill="#fffaf3" stroke="black" points="145,-334 75,-334 75,-274 151,-274 151,-328 145,-334"/>
<polyline fill="none" stroke="black" points="145,-334 145,-328 "/>
<polyline fill="none" stroke="black" points="151,-328 145,-328 "/>
<text text-anchor="start" x="77" y="-324.5" font-family="Helvetica,sans-Serif" font-weight="bold" font-size="10.00">pop_logging</text>
<text text-anchor="start" x="77" y="-309" font-family="Helvetica,sans-Serif" font-size="10.00" fill="forestgreen">+</text>
<text text-anchor="start" x="84" y="-309" font-family="Helvetica,sans-Serif" font-size="10.00">ConsoleLog</text>
<text text-anchor="start" x="77" y="-299" font-family="Helvetica,sans-Serif" font-size="10.00" fill="forestgreen">+</text>
<text text-anchor="start" x="84" y="-299" font-family="Helvetica,sans-Serif" font-size="10.00">HttpRequest</text>
<text text-anchor="start" x="77" y="-289" font-family="Helvetica,sans-Serif" font-size="10.00" fill="forestgreen">+</text>
<text text-anchor="start" x="84" y="-289" font-family="Helvetica,sans-Serif" font-size="10.00">HttpResponse</text>
<text text-anchor="start" x="77" y="-279" font-family="Helvetica,sans-Serif" font-size="10.00" fill="forestgreen">+</text>
<text text-anchor="start" x="84" y="-279" font-family="Helvetica,sans-Serif" font-size="10.00">RequestClock</text>
</g>
<!-- popcorn::popcorn&#45;&gt;popcorn::pop_logging -->
<g id="edge8" class="edge"><title>popcorn::popcorn&#45;&gt;popcorn::pop_logging</title>
<path fill="none" stroke="black" stroke-width="0.5" stroke-dasharray="5,2" d="M113,-222.281C113,-235.437 113,-253.225 113,-268.755"/>
<polygon fill="black" stroke="black" stroke-width="0.5" points="113,-273.925 110.75,-268.925 113,-271.425 113,-268.925 113,-268.925 113,-268.925 113,-271.425 115.25,-268.925 113,-273.925 113,-273.925"/>
</g>
<!-- popcorn::pop_tests -->
<g id="node7" class="node"><title>popcorn::pop_tests</title>
<polygon fill="#fffaf3" stroke="black" points="141,-95 79,-95 79,-35 147,-35 147,-89 141,-95"/>
<polyline fill="none" stroke="black" points="141,-95 141,-89 "/>
<polyline fill="none" stroke="black" points="147,-89 141,-89 "/>
<text text-anchor="start" x="81" y="-85.5" font-family="Helvetica,sans-Serif" font-weight="bold" font-size="10.00">pop_tests</text>
<text text-anchor="start" x="81" y="-70" font-family="Helvetica,sans-Serif" font-size="10.00" fill="forestgreen">+</text>
<text text-anchor="start" x="88" y="-70" font-family="Helvetica,sans-Serif" font-size="10.00">AppThread</text>
<text text-anchor="start" x="81" y="-60" font-family="Helvetica,sans-Serif" font-size="10.00" fill="forestgreen">+</text>
<text text-anchor="start" x="88" y="-60" font-family="Helvetica,sans-Serif" font-size="10.00">ClientThread</text>
<text text-anchor="start" x="81" y="-50" font-family="Helvetica,sans-Serif" font-size="10.00" fill="forestgreen">+</text>
<text text-anchor="start" x="88" y="-50" font-family="Helvetica,sans-Serif" font-size="10.00">Sys</text>
<text text-anchor="start" x="81" y="-40" font-family="Helvetica,sans-Serif" font-size="10.00" fill="forestgreen">+</text>
<text text-anchor="start" x="88" y="-40" font-family="Helvetica,sans-Serif" font-size="10.00">TestPopcorn</text>
</g>
<!-- popcorn::pop_tests&#45;&gt;popcorn::popcorn -->
<g id="edge9" class="edge"><title>popcorn::pop_tests&#45;&gt;popcorn::popcorn</title>
<path fill="none" stroke="black" stroke-width="0.5" stroke-dasharray="5,2" d="M113,-95.293C113,-119.559 113,-153.647 113,-176.488"/>
<polygon fill="black" stroke="black" stroke-width="0.5" points="113,-181.754 110.75,-176.754 113,-179.254 113,-176.754 113,-176.754 113,-176.754 113,-179.254 115.25,-176.754 113,-181.754 113,-181.754"/>
</g>
<!-- popcorn::pop_routes -->
<g id="node8" class="node"><title>popcorn::pop_routes</title>
<polygon fill="#fffaf3" stroke="black" points="190.5,-628 111.5,-628 111.5,-578 196.5,-578 196.5,-622 190.5,-628"/>
<polyline fill="none" stroke="black" points="190.5,-628 190.5,-622 "/>
<polyline fill="none" stroke="black" points="196.5,-622 190.5,-622 "/>
<text text-anchor="start" x="114" y="-618.5" font-family="Helvetica,sans-Serif" font-weight="bold" font-size="10.00">pop_routes</text>
<text text-anchor="start" x="114" y="-603" font-family="Helvetica,sans-Serif" font-size="10.00" fill="forestgreen">+</text>
<text text-anchor="start" x="121" y="-603" font-family="Helvetica,sans-Serif" font-size="10.00">AppGlobRoute</text>
<text text-anchor="start" x="114" y="-593" font-family="Helvetica,sans-Serif" font-size="10.00" fill="forestgreen">+</text>
<text text-anchor="start" x="121" y="-593" font-family="Helvetica,sans-Serif" font-size="10.00">AppParamRoute</text>
<text text-anchor="start" x="114" y="-583" font-family="Helvetica,sans-Serif" font-size="10.00" fill="forestgreen">+</text>
<text text-anchor="start" x="121" y="-583" font-family="Helvetica,sans-Serif" font-size="10.00">AppRoute</text>
</g>
<!-- popcorn::pop_repos -->
<g id="node9" class="node"><title>popcorn::pop_repos</title>
<polygon fill="#fffaf3" stroke="black" points="517.5,-252 434.5,-252 434.5,-152 523.5,-152 523.5,-246 517.5,-252"/>
<polyline fill="none" stroke="black" points="517.5,-252 517.5,-246 "/>
<polyline fill="none" stroke="black" points="523.5,-246 517.5,-246 "/>
<text text-anchor="start" x="437" y="-242.5" font-family="Helvetica,sans-Serif" font-weight="bold" font-size="10.00">pop_repos</text>
<text text-anchor="start" x="437" y="-227" font-family="Helvetica,sans-Serif" font-size="10.00" fill="forestgreen">+</text>
<text text-anchor="start" x="444" y="-227" font-family="Helvetica,sans-Serif" font-size="10.00">AppConfig</text>
<text text-anchor="start" x="437" y="-217" font-family="Helvetica,sans-Serif" font-size="10.00" fill="forestgreen">+</text>
<text text-anchor="start" x="444" y="-217" font-family="Helvetica,sans-Serif" font-size="10.00">Deserializer</text>
<text text-anchor="start" x="437" y="-207" font-family="Helvetica,sans-Serif" font-size="10.00" fill="forestgreen">+</text>
<text text-anchor="start" x="444" y="-207" font-family="Helvetica,sans-Serif" font-size="10.00">JsonObject</text>
<text text-anchor="start" x="437" y="-197" font-family="Helvetica,sans-Serif" font-size="10.00" fill="forestgreen">+</text>
<text text-anchor="start" x="444" y="-197" font-family="Helvetica,sans-Serif" font-size="10.00">JsonRepository</text>
<text text-anchor="start" x="437" y="-187" font-family="Helvetica,sans-Serif" font-size="10.00" fill="forestgreen">+</text>
<text text-anchor="start" x="444" y="-187" font-family="Helvetica,sans-Serif" font-size="10.00">MongoRepository</text>
<text text-anchor="start" x="437" y="-177" font-family="Helvetica,sans-Serif" font-size="10.00" fill="forestgreen">+</text>
<text text-anchor="start" x="444" y="-177" font-family="Helvetica,sans-Serif" font-size="10.00">RepoObject</text>
<text text-anchor="start" x="437" y="-167" font-family="Helvetica,sans-Serif" font-size="10.00" fill="forestgreen">+</text>
<text text-anchor="start" x="444" y="-167" font-family="Helvetica,sans-Serif" font-size="10.00">Repository</text>
<text text-anchor="start" x="437" y="-157" font-family="Helvetica,sans-Serif" font-size="10.00" fill="forestgreen">+</text>
<text text-anchor="start" x="444" y="-157" font-family="Helvetica,sans-Serif" font-size="10.00">RepositoryQuery</text>
</g>
<!-- popcorn::pop_repos&#45;&gt;popcorn::pop_config -->
<g id="edge10" class="edge"><title>popcorn::pop_repos&#45;&gt;popcorn::pop_config</title>
<path fill="none" stroke="black" stroke-width="0.5" stroke-dasharray="5,2" d="M479,-252.121C479,-263.187 479,-274.31 479,-283.322"/>
<polygon fill="black" stroke="black" stroke-width="0.5" points="479,-288.367 476.75,-283.367 479,-285.867 479,-283.367 479,-283.367 479,-283.367 479,-285.867 481.25,-283.367 479,-288.367 479,-288.367"/>
</g>
<!-- popcorn::pop_auth -->
<g id="node10" class="node"><title>popcorn::pop_auth</title>
<polygon fill="#fffaf3" stroke="black" points="261.5,-242 158.5,-242 158.5,-162 267.5,-162 267.5,-236 261.5,-242"/>
<polyline fill="none" stroke="black" points="261.5,-242 261.5,-236 "/>
<polyline fill="none" stroke="black" points="267.5,-236 261.5,-236 "/>
<text text-anchor="start" x="161" y="-232.5" font-family="Helvetica,sans-Serif" font-weight="bold" font-size="10.00">pop_auth</text>
<text text-anchor="start" x="161" y="-217" font-family="Helvetica,sans-Serif" font-size="10.00" fill="forestgreen">+</text>
<text text-anchor="start" x="168" y="-217" font-family="Helvetica,sans-Serif" font-size="10.00">AuthHandler</text>
<text text-anchor="start" x="161" y="-207" font-family="Helvetica,sans-Serif" font-size="10.00" fill="forestgreen">+</text>
<text text-anchor="start" x="168" y="-207" font-family="Helvetica,sans-Serif" font-size="10.00">GithubLogin</text>
<text text-anchor="start" x="161" y="-197" font-family="Helvetica,sans-Serif" font-size="10.00" fill="forestgreen">+</text>
<text text-anchor="start" x="168" y="-197" font-family="Helvetica,sans-Serif" font-size="10.00">GithubLogout</text>
<text text-anchor="start" x="161" y="-187" font-family="Helvetica,sans-Serif" font-size="10.00" fill="forestgreen">+</text>
<text text-anchor="start" x="168" y="-187" font-family="Helvetica,sans-Serif" font-size="10.00">GithubOAuthCallBack</text>
<text text-anchor="start" x="161" y="-177" font-family="Helvetica,sans-Serif" font-size="10.00" fill="forestgreen">+</text>
<text text-anchor="start" x="168" y="-177" font-family="Helvetica,sans-Serif" font-size="10.00">GithubUser</text>
<text text-anchor="start" x="161" y="-167" font-family="Helvetica,sans-Serif" font-size="10.00" fill="forestgreen">+</text>
<text text-anchor="start" x="168" y="-167" font-family="Helvetica,sans-Serif" font-size="10.00">Session</text>
</g>
<!-- popcorn::pop_auth&#45;&gt;popcorn::pop_sessions -->
<g id="edge11" class="edge"><title>popcorn::pop_auth&#45;&gt;popcorn::pop_sessions</title>
<path fill="none" stroke="black" stroke-width="0.5" stroke-dasharray="5,2" d="M211.038,-242.236C210.336,-256.281 209.574,-271.516 208.989,-283.218"/>
<polygon fill="black" stroke="black" stroke-width="0.5" points="208.734,-288.329 206.736,-283.222 208.858,-285.832 208.983,-283.335 208.983,-283.335 208.983,-283.335 208.858,-285.832 211.231,-283.447 208.734,-288.329 208.734,-288.329"/>
</g>
<!-- popcorn::pop_auth&#45;&gt;popcorn::pop_json -->
<g id="edge12" class="edge"><title>popcorn::pop_auth&#45;&gt;popcorn::pop_json</title>
<path fill="none" stroke="black" stroke-width="0.5" stroke-dasharray="5,2" d="M248.312,-242.236C259.803,-255.004 272.179,-268.755 282.247,-279.941"/>
<polygon fill="black" stroke="black" stroke-width="0.5" points="285.846,-283.94 280.828,-281.728 284.173,-282.081 282.501,-280.223 282.501,-280.223 282.501,-280.223 284.173,-282.081 284.173,-278.718 285.846,-283.94 285.846,-283.94"/>
</g>
<!-- popcorn::pop_logging&#45;&gt;popcorn::pop_handlers -->
<g id="edge13" class="edge"><title>popcorn::pop_logging&#45;&gt;popcorn::pop_handlers</title>
<path fill="none" stroke="black" stroke-width="0.5" stroke-dasharray="5,2" d="M121.003,-334.278C127.36,-357.537 136.311,-390.285 143.287,-415.805"/>
<polygon fill="black" stroke="black" stroke-width="0.5" points="144.654,-420.808 141.165,-416.578 143.995,-418.396 143.336,-415.985 143.336,-415.985 143.336,-415.985 143.995,-418.396 145.506,-415.392 144.654,-420.808 144.654,-420.808"/>
</g>
<!-- popcorn::pop_tracker -->
<g id="node12" class="node"><title>popcorn::pop_tracker</title>
<polygon fill="#fffaf3" stroke="black" points="360.5,-130 237.5,-130 237.5,-0 366.5,-0 366.5,-124 360.5,-130"/>
<polyline fill="none" stroke="black" points="360.5,-130 360.5,-124 "/>
<polyline fill="none" stroke="black" points="366.5,-124 360.5,-124 "/>
<text text-anchor="start" x="240" y="-120.5" font-family="Helvetica,sans-Serif" font-weight="bold" font-size="10.00">pop_tracker</text>
<text text-anchor="start" x="240" y="-105" font-family="Helvetica,sans-Serif" font-size="10.00" fill="forestgreen">+</text>
<text text-anchor="start" x="247" y="-105" font-family="Helvetica,sans-Serif" font-size="10.00">AppConfig</text>
<text text-anchor="start" x="240" y="-95" font-family="Helvetica,sans-Serif" font-size="10.00" fill="forestgreen">+</text>
<text text-anchor="start" x="247" y="-95" font-family="Helvetica,sans-Serif" font-size="10.00">Deserializer</text>
<text text-anchor="start" x="240" y="-85" font-family="Helvetica,sans-Serif" font-size="10.00" fill="forestgreen">+</text>
<text text-anchor="start" x="247" y="-85" font-family="Helvetica,sans-Serif" font-size="10.00">LogEntry</text>
<text text-anchor="start" x="240" y="-75" font-family="Helvetica,sans-Serif" font-size="10.00" fill="forestgreen">+</text>
<text text-anchor="start" x="247" y="-75" font-family="Helvetica,sans-Serif" font-size="10.00">PopTracker</text>
<text text-anchor="start" x="240" y="-65" font-family="Helvetica,sans-Serif" font-size="10.00" fill="forestgreen">+</text>
<text text-anchor="start" x="247" y="-65" font-family="Helvetica,sans-Serif" font-size="10.00">PopTrackerAPI</text>
<text text-anchor="start" x="240" y="-55" font-family="Helvetica,sans-Serif" font-size="10.00" fill="forestgreen">+</text>
<text text-anchor="start" x="247" y="-55" font-family="Helvetica,sans-Serif" font-size="10.00">PopTrackerBrowsers</text>
<text text-anchor="start" x="240" y="-45" font-family="Helvetica,sans-Serif" font-size="10.00" fill="forestgreen">+</text>
<text text-anchor="start" x="247" y="-45" font-family="Helvetica,sans-Serif" font-size="10.00">PopTrackerEntries</text>
<text text-anchor="start" x="240" y="-35" font-family="Helvetica,sans-Serif" font-size="10.00" fill="forestgreen">+</text>
<text text-anchor="start" x="247" y="-35" font-family="Helvetica,sans-Serif" font-size="10.00">PopTrackerQueries</text>
<text text-anchor="start" x="240" y="-25" font-family="Helvetica,sans-Serif" font-size="10.00" fill="forestgreen">+</text>
<text text-anchor="start" x="247" y="-25" font-family="Helvetica,sans-Serif" font-size="10.00">PopTrackerResponseTime</text>
<text text-anchor="start" x="240" y="-15" font-family="Helvetica,sans-Serif" font-size="10.00" fill="forestgreen">+</text>
<text text-anchor="start" x="247" y="-15" font-family="Helvetica,sans-Serif" font-size="10.00">TrackerHandler</text>
<text text-anchor="start" x="240" y="-5" font-family="Helvetica,sans-Serif" font-size="10.00" fill="forestgreen">+</text>
<text text-anchor="start" x="247" y="-5" font-family="Helvetica,sans-Serif" font-size="10.00">TrackerRepo</text>
</g>
<!-- popcorn::pop_tracker&#45;&gt;popcorn::pop_json -->
<g id="edge14" class="edge"><title>popcorn::pop_tracker&#45;&gt;popcorn::pop_json</title>
<path fill="none" stroke="black" stroke-width="0.5" stroke-dasharray="5,2" d="M302.271,-130.136C302.477,-179.063 302.75,-243.776 302.897,-278.493"/>
<polygon fill="black" stroke="black" stroke-width="0.5" points="302.919,-283.8 300.648,-278.809 302.908,-281.3 302.898,-278.8 302.898,-278.8 302.898,-278.8 302.908,-281.3 305.148,-278.79 302.919,-283.8 302.919,-283.8"/>
</g>
<!-- popcorn::pop_tracker&#45;&gt;popcorn::popcorn -->
<g id="edge15" class="edge"><title>popcorn::pop_tracker&#45;&gt;popcorn::popcorn</title>
<path fill="none" stroke="black" stroke-width="0.5" stroke-dasharray="5,2" d="M237.386,-93.5421C207.78,-108.149 173.473,-128.051 147,-152 139.096,-159.15 132.051,-168.473 126.452,-177.065"/>
<polygon fill="black" stroke="black" stroke-width="0.5" points="123.494,-181.744 124.264,-176.316 124.83,-179.631 126.166,-177.518 126.166,-177.518 126.166,-177.518 124.83,-179.631 128.068,-178.72 123.494,-181.744 123.494,-181.744"/>
</g>
<!-- popcorn::pop_tracker&#45;&gt;popcorn::pop_repos -->
<g id="edge16" class="edge"><title>popcorn::pop_tracker&#45;&gt;popcorn::pop_repos</title>
<path fill="none" stroke="black" stroke-width="0.5" stroke-dasharray="5,2" d="M366.312,-109.897C384.888,-123.06 404.998,-137.786 423,-152 425.528,-153.996 428.096,-156.069 430.67,-158.184"/>
<polygon fill="black" stroke="black" stroke-width="0.5" points="434.717,-161.537 429.431,-160.079 432.792,-159.942 430.867,-158.347 430.867,-158.347 430.867,-158.347 432.792,-159.942 432.302,-156.614 434.717,-161.537 434.717,-161.537"/>
</g>
<!-- popcorn::pop_handlers&#45;&gt;popcorn::pop_routes -->
<g id="edge17" class="edge"><title>popcorn::pop_handlers&#45;&gt;popcorn::pop_routes</title>
<path fill="none" stroke="black" stroke-width="0.5" stroke-dasharray="5,2" d="M154,-491.363C154,-516.122 154,-549.176 154,-572.691"/>
<polygon fill="black" stroke="black" stroke-width="0.5" points="154,-577.855 151.75,-572.855 154,-575.355 154,-572.855 154,-572.855 154,-572.855 154,-575.355 156.25,-572.855 154,-577.855 154,-577.855"/>
</g>
</g>
</svg>
