<?xml version="1.0" encoding="UTF-8" standalone="no"?>
<!DOCTYPE svg PUBLIC "-//W3C//DTD SVG 1.1//EN"
 "http://www.w3.org/Graphics/SVG/1.1/DTD/svg11.dtd">
<!-- Generated by graphviz version 2.36.0 (20140111.2315)
 -->
<!-- Title: G Pages: 1 -->
<svg width="584pt" height="94pt"
 viewBox="0.00 0.00 584.00 94.00" xmlns="http://www.w3.org/2000/svg" xmlns:xlink="http://www.w3.org/1999/xlink">
<g id="graph0" class="graph" transform="scale(1 1) rotate(0) translate(4 90)">
<title>G</title>
<polygon fill="white" stroke="none" points="-4,4 -4,-90 580,-90 580,4 -4,4"/>
<!-- sexp::SExpEntity -->
<g id="node1" class="node"><title>sexp::SExpEntity</title>
<polygon fill="white" stroke="none" points="285.5,-85.5 218.5,-85.5 218.5,-58.5 285.5,-58.5 285.5,-85.5"/>
<polygon fill="none" stroke="forestgreen" points="219,-58 219,-85 286,-85 286,-58 219,-58"/>
<text text-anchor="start" x="222.5" y="-74.5" font-family="Helvetica,sans-Serif" font-size="10.00">&lt;&lt;abstract&gt;&gt;</text>
<text text-anchor="start" x="226.5" y="-64.5" font-family="Helvetica,sans-Serif" font-weight="bold" font-style="italic" font-size="10.00">SExpEntity</text>
</g>
<!-- sexp::SExp -->
<g id="node2" class="node"><title>sexp::SExp</title>
<polygon fill="white" stroke="none" points="104,-35.5 0,-35.5 0,-0.5 104,-0.5 104,-35.5"/>
<polygon fill="none" stroke="forestgreen" points="0,-17 0,-35 104,-35 104,-17 0,-17"/>
<text text-anchor="start" x="39.5" y="-24.5" font-family="Helvetica,sans-Serif" font-weight="bold" font-size="10.00">SExp</text>
<polygon fill="none" stroke="forestgreen" points="0,-0 0,-17 104,-17 104,-0 0,-0"/>
<text text-anchor="start" x="3" y="-7" font-family="Helvetica,sans-Serif" font-size="10.00" fill="forestgreen">+</text>
<text text-anchor="start" x="10" y="-7" font-family="Helvetica,sans-Serif" font-size="10.00"> pretty_to_s(): String</text>
</g>
<!-- sexp::SExp&#45;&gt;sexp::SExpEntity -->
<g id="edge1" class="edge"><title>sexp::SExp&#45;&gt;sexp::SExpEntity</title>
<path fill="none" stroke="black" stroke-width="0.5" d="M104.24,-33.1543C107.88,-34.1228 111.494,-35.0791 115,-36 148.305,-44.7473 186.243,-54.4167 213.738,-61.3716"/>
<polygon fill="none" stroke="black" stroke-width="0.5" points="213.471,-63.1089 218.747,-62.6378 214.329,-59.7157 213.471,-63.1089"/>
</g>
<!-- sexp::SExpDQString -->
<g id="node3" class="node"><title>sexp::SExpDQString</title>
<polygon fill="white" stroke="none" points="202,-27 126,-27 126,-9 202,-9 202,-27"/>
<polygon fill="none" stroke="forestgreen" points="126,-9 126,-27 202,-27 202,-9 126,-9"/>
<text text-anchor="start" x="129.5" y="-16.5" font-family="Helvetica,sans-Serif" font-weight="bold" font-size="10.00">SExpDQString</text>
</g>
<!-- sexp::SExpDQString&#45;&gt;sexp::SExpEntity -->
<g id="edge2" class="edge"><title>sexp::SExpDQString&#45;&gt;sexp::SExpEntity</title>
<path fill="none" stroke="black" stroke-width="0.5" d="M177.75,-27.125C190.741,-34.8013 210.55,-46.5065 226.441,-55.8967"/>
<polygon fill="none" stroke="black" stroke-width="0.5" points="225.615,-57.4415 230.81,-58.4785 227.395,-54.4282 225.615,-57.4415"/>
</g>
<!-- sexp::SExpFloat -->
<g id="node4" class="node"><title>sexp::SExpFloat</title>
<polygon fill="white" stroke="none" points="280,-27 224,-27 224,-9 280,-9 280,-27"/>
<polygon fill="none" stroke="forestgreen" points="224,-9 224,-27 280,-27 280,-9 224,-9"/>
<text text-anchor="start" x="227.5" y="-16.5" font-family="Helvetica,sans-Serif" font-weight="bold" font-size="10.00">SExpFloat</text>
</g>
<!-- sexp::SExpFloat&#45;&gt;sexp::SExpEntity -->
<g id="edge3" class="edge"><title>sexp::SExpFloat&#45;&gt;sexp::SExpEntity</title>
<path fill="none" stroke="black" stroke-width="0.5" d="M252,-27.125C252,-34.0322 252,-44.2017 252,-53.0112"/>
<polygon fill="none" stroke="black" stroke-width="0.5" points="250.25,-53.2793 252,-58.2794 253.75,-53.2794 250.25,-53.2793"/>
</g>
<!-- sexp::SExpId -->
<g id="node5" class="node"><title>sexp::SExpId</title>
<polygon fill="white" stroke="none" points="343.5,-27 302.5,-27 302.5,-9 343.5,-9 343.5,-27"/>
<polygon fill="none" stroke="forestgreen" points="303,-9 303,-27 344,-27 344,-9 303,-9"/>
<text text-anchor="start" x="306.5" y="-16.5" font-family="Helvetica,sans-Serif" font-weight="bold" font-size="10.00">SExpId</text>
</g>
<!-- sexp::SExpId&#45;&gt;sexp::SExpEntity -->
<g id="edge4" class="edge"><title>sexp::SExpId&#45;&gt;sexp::SExpEntity</title>
<path fill="none" stroke="black" stroke-width="0.5" d="M311.906,-27.125C301.604,-34.67 285.988,-46.1075 273.282,-55.4131"/>
<polygon fill="none" stroke="black" stroke-width="0.5" points="272.096,-54.1123 269.097,-58.4785 274.165,-56.936 272.096,-54.1123"/>
</g>
<!-- sexp::SExpError -->
<g id="node6" class="node"><title>sexp::SExpError</title>
<polygon fill="white" stroke="none" points="422,-27 366,-27 366,-9 422,-9 422,-27"/>
<polygon fill="none" stroke="forestgreen" points="366,-9 366,-27 422,-27 422,-9 366,-9"/>
<text text-anchor="start" x="369.5" y="-16.5" font-family="Helvetica,sans-Serif" font-weight="bold" font-size="10.00">SExpError</text>
</g>
<!-- sexp::SExpError&#45;&gt;sexp::SExpEntity -->
<g id="edge5" class="edge"><title>sexp::SExpError&#45;&gt;sexp::SExpEntity</title>
<path fill="none" stroke="black" stroke-width="0.5" d="M375.792,-27.0623C368.996,-29.9855 361.186,-33.244 354,-36 333.051,-44.0342 309.362,-52.2166 290.09,-58.6476"/>
<polygon fill="none" stroke="black" stroke-width="0.5" points="289.482,-57.0054 285.29,-60.2438 290.587,-60.3267 289.482,-57.0054"/>
</g>
<!-- sexp::SExpProcessor -->
<g id="node7" class="node"><title>sexp::SExpProcessor</title>
<polygon fill="white" stroke="none" points="576,-35.5 444,-35.5 444,-0.5 576,-0.5 576,-35.5"/>
<polygon fill="none" stroke="forestgreen" points="444,-17 444,-35 576,-35 576,-17 444,-17"/>
<text text-anchor="start" x="473.5" y="-24.5" font-family="Helvetica,sans-Serif" font-weight="bold" font-size="10.00">SExpProcessor</text>
<polygon fill="none" stroke="forestgreen" points="444,-0 444,-17 576,-17 576,-0 444,-0"/>
<text text-anchor="start" x="447" y="-7" font-family="Helvetica,sans-Serif" font-size="10.00" fill="forestgreen">+</text>
<text text-anchor="start" x="454" y="-7" font-family="Helvetica,sans-Serif" font-size="10.00"> parse_entity(): SExpEntity</text>
</g>
</g>
</svg>
