<?xml version="1.0" encoding="UTF-8" standalone="no"?>
<!DOCTYPE svg PUBLIC "-//W3C//DTD SVG 1.1//EN"
 "http://www.w3.org/Graphics/SVG/1.1/DTD/svg11.dtd">
<!-- Generated by graphviz version 2.36.0 (20140111.2315)
 -->
<!-- Title: G Pages: 1 -->
<svg width="78pt" height="102pt"
 viewBox="0.00 0.00 78.00 102.00" xmlns="http://www.w3.org/2000/svg" xmlns:xlink="http://www.w3.org/1999/xlink">
<g id="graph0" class="graph" transform="scale(1 1) rotate(0) translate(4 98)">
<title>G</title>
<polygon fill="white" stroke="none" points="-4,4 -4,-98 74,-98 74,4 -4,4"/>
<!-- xdg_basedir::show_basedir -->
<g id="node1" class="node"><title>xdg_basedir::show_basedir</title>
<polygon fill="#fffaf3" stroke="black" points="64.8333,-31.5 0,-31.5 0,-0.5 70,-0.5 70,-26.3333 64.8333,-31.5"/>
<polyline fill="none" stroke="black" points="64.8333,-31.5 64.8333,-26.3333 "/>
<polyline fill="none" stroke="black" points="70,-26.3333 64.8333,-26.3333 "/>
<text text-anchor="start" x="2" y="-21.5" font-family="Helvetica,sans-Serif" font-weight="bold" font-size="10.00">show_basedir</text>
<text text-anchor="start" x="2" y="-6" font-family="Helvetica,sans-Serif" font-size="10.00" fill="forestgreen">+</text>
<text text-anchor="start" x="9" y="-6" font-family="Helvetica,sans-Serif" font-size="10.00">Sys</text>
</g>
<!-- xdg_basedir::xdg_basedir -->
<g id="node2" class="node"><title>xdg_basedir::xdg_basedir</title>
<polygon fill="#fffaf3" stroke="black" points="60.5,-94 3.5,-94 3.5,-54 66.5,-54 66.5,-88 60.5,-94"/>
<polyline fill="none" stroke="black" points="60.5,-94 60.5,-88 "/>
<polyline fill="none" stroke="black" points="66.5,-88 60.5,-88 "/>
<text text-anchor="start" x="6" y="-84.5" font-family="Helvetica,sans-Serif" font-weight="bold" font-size="10.00">xdg_basedir</text>
<text text-anchor="start" x="6" y="-69" font-family="Helvetica,sans-Serif" font-size="10.00" fill="forestgreen">+</text>
<text text-anchor="start" x="13" y="-69" font-family="Helvetica,sans-Serif" font-size="10.00">Sys</text>
<text text-anchor="start" x="6" y="-59" font-family="Helvetica,sans-Serif" font-size="10.00" fill="forestgreen">+</text>
<text text-anchor="start" x="13" y="-59" font-family="Helvetica,sans-Serif" font-size="10.00">XdgBasedir</text>
</g>
<!-- xdg_basedir::show_basedir&#45;&gt;xdg_basedir::xdg_basedir -->
<g id="edge1" class="edge"><title>xdg_basedir::show_basedir&#45;&gt;xdg_basedir::xdg_basedir</title>
<path fill="none" stroke="black" stroke-width="0.5" stroke-dasharray="5,2" d="M35,-31.7133C35,-36.874 35,-42.8185 35,-48.5601"/>
<polygon fill="black" stroke="black" stroke-width="0.5" points="35,-53.7476 32.7501,-48.7475 35,-51.2476 35.0001,-48.7476 35.0001,-48.7476 35.0001,-48.7476 35,-51.2476 37.2501,-48.7476 35,-53.7476 35,-53.7476"/>
</g>
</g>
</svg>
