<?xml version="1.0" encoding="UTF-8" standalone="no"?>
<!DOCTYPE svg PUBLIC "-//W3C//DTD SVG 1.1//EN"
 "http://www.w3.org/Graphics/SVG/1.1/DTD/svg11.dtd">
<!-- Generated by graphviz version 2.36.0 (20140111.2315)
 -->
<!-- Title: G Pages: 1 -->
<svg width="2100pt" height="208pt"
 viewBox="0.00 0.00 2100.00 208.00" xmlns="http://www.w3.org/2000/svg" xmlns:xlink="http://www.w3.org/1999/xlink">
<g id="graph0" class="graph" transform="scale(1 1) rotate(0) translate(4 204)">
<title>G</title>
<polygon fill="white" stroke="none" points="-4,4 -4,-204 2096,-204 2096,4 -4,4"/>
<!-- libevent::NativeEventBase -->
<g id="node1" class="node"><title>libevent::NativeEventBase</title>
<polygon fill="white" stroke="none" points="124,-103.5 7.10543e-15,-103.5 7.10543e-15,-20.5 124,-20.5 124,-103.5"/>
<polygon fill="none" stroke="forestgreen" points="0,-76 0,-103 124,-103 124,-76 0,-76"/>
<text text-anchor="start" x="36" y="-92.5" font-family="Helvetica,sans-Serif" font-size="10.00">&lt;&lt;extern&gt;&gt;</text>
<text text-anchor="start" x="22.5" y="-82.5" font-family="Helvetica,sans-Serif" font-weight="bold" font-style="italic" font-size="10.00">NativeEventBase</text>
<polygon fill="none" stroke="forestgreen" points="0,-20 0,-76 124,-76 124,-20 0,-20"/>
<text text-anchor="start" x="3" y="-66" font-family="Helvetica,sans-Serif" font-size="10.00" fill="forestgreen">+</text>
<text text-anchor="start" x="10" y="-66" font-family="Helvetica,sans-Serif" font-size="10.00"> dispatch()</text>
<text text-anchor="start" x="3" y="-56" font-family="Helvetica,sans-Serif" font-size="10.00" fill="forestgreen">+</text>
<text text-anchor="start" x="10" y="-56" font-family="Helvetica,sans-Serif" font-size="10.00"> is_valid(): Bool</text>
<text text-anchor="start" x="3" y="-46" font-family="Helvetica,sans-Serif" font-size="10.00" fill="forestgreen">+</text>
<text text-anchor="start" x="10" y="-46" font-family="Helvetica,sans-Serif" font-size="10.00"> loopexit()</text>
<text text-anchor="start" x="3" y="-36" font-family="Helvetica,sans-Serif" font-size="10.00" fill="forestgreen">+</text>
<text text-anchor="start" x="10" y="-36" font-family="Helvetica,sans-Serif" font-size="10.00"> new(): NativeEventBase</text>
<text text-anchor="start" x="3" y="-26" font-family="Helvetica,sans-Serif" font-size="10.00" fill="forestgreen">+</text>
<text text-anchor="start" x="10" y="-26" font-family="Helvetica,sans-Serif" font-size="10.00"> reinit(): Bool</text>
</g>
<!-- libevent::NativeEvent -->
<g id="node2" class="node"><title>libevent::NativeEvent</title>
<polygon fill="white" stroke="none" points="365.5,-199.5 302.5,-199.5 302.5,-146.5 365.5,-146.5 365.5,-199.5"/>
<polygon fill="none" stroke="forestgreen" points="303,-172 303,-199 366,-199 366,-172 303,-172"/>
<text text-anchor="start" x="308.5" y="-188.5" font-family="Helvetica,sans-Serif" font-size="10.00">&lt;&lt;extern&gt;&gt;</text>
<text text-anchor="start" x="306.5" y="-178.5" font-family="Helvetica,sans-Serif" font-weight="bold" font-style="italic" font-size="10.00">NativeEvent</text>
<polygon fill="none" stroke="forestgreen" points="303,-146 303,-172 366,-172 366,-146 303,-146"/>
<text text-anchor="start" x="306" y="-162" font-family="Helvetica,sans-Serif" font-size="10.00" fill="forestgreen">+</text>
<text text-anchor="start" x="313" y="-162" font-family="Helvetica,sans-Serif" font-size="10.00"> add()</text>
<text text-anchor="start" x="306" y="-152" font-family="Helvetica,sans-Serif" font-size="10.00" fill="forestgreen">+</text>
<text text-anchor="start" x="313" y="-152" font-family="Helvetica,sans-Serif" font-size="10.00"> del()</text>
</g>
<!-- libevent::NativeEvSignal -->
<g id="node3" class="node"><title>libevent::NativeEvSignal</title>
<polygon fill="white" stroke="none" points="521.5,-84 146.5,-84 146.5,-40 521.5,-40 521.5,-84"/>
<polygon fill="none" stroke="forestgreen" points="147,-57 147,-84 522,-84 522,-57 147,-57"/>
<text text-anchor="start" x="308.5" y="-73.5" font-family="Helvetica,sans-Serif" font-size="10.00">&lt;&lt;extern&gt;&gt;</text>
<text text-anchor="start" x="298.5" y="-63.5" font-family="Helvetica,sans-Serif" font-weight="bold" font-style="italic" font-size="10.00">NativeEvSignal</text>
<polygon fill="none" stroke="forestgreen" points="147,-40 147,-57 522,-57 522,-40 147,-40"/>
<text text-anchor="start" x="150" y="-47" font-family="Helvetica,sans-Serif" font-size="10.00" fill="forestgreen">+</text>
<text text-anchor="start" x="157" y="-47" font-family="Helvetica,sans-Serif" font-size="10.00"> new(base: NativeEventBase, signal: Int, handler: EventCallback): NativeEvSignal</text>
</g>
<!-- libevent::NativeEvSignal&#45;&gt;libevent::NativeEvent -->
<g id="edge1" class="edge"><title>libevent::NativeEvSignal&#45;&gt;libevent::NativeEvent</title>
<path fill="none" stroke="black" stroke-width="0.5" d="M334,-84.0163C334,-100.302 334,-123.1 334,-141.409"/>
<polygon fill="none" stroke="black" stroke-width="0.5" points="332.25,-141.444 334,-146.444 335.75,-141.444 332.25,-141.444"/>
</g>
<!-- libevent::EventCallback -->
<g id="node4" class="node"><title>libevent::EventCallback</title>
<polygon fill="white" stroke="none" points="650,-84 544,-84 544,-40 650,-40 650,-84"/>
<polygon fill="none" stroke="forestgreen" points="544,-57 544,-84 650,-84 650,-57 544,-57"/>
<text text-anchor="start" x="566" y="-73.5" font-family="Helvetica,sans-Serif" font-size="10.00">&lt;&lt;interface&gt;&gt;</text>
<text text-anchor="start" x="563.5" y="-63.5" font-family="Helvetica,sans-Serif" font-weight="bold" font-style="italic" font-size="10.00">EventCallback</text>
<polygon fill="none" stroke="forestgreen" points="544,-40 544,-57 650,-57 650,-40 544,-40"/>
<text text-anchor="start" x="547" y="-47" font-family="Helvetica,sans-Serif" font-size="10.00" fill="forestgreen">+</text>
<text text-anchor="start" x="554" y="-47" font-family="Helvetica,sans-Serif" font-size="10.00"> callback(events: Int)</text>
</g>
<!-- libevent::Connection -->
<g id="node5" class="node"><title>libevent::Connection</title>
<polygon fill="white" stroke="none" points="833.5,-99 672.5,-99 672.5,-25 833.5,-25 833.5,-99"/>
<polygon fill="none" stroke="forestgreen" points="673,-81 673,-99 834,-99 834,-81 673,-81"/>
<text text-anchor="start" x="726" y="-88.5" font-family="Helvetica,sans-Serif" font-weight="bold" font-size="10.00">Connection</text>
<polygon fill="none" stroke="forestgreen" points="673,-25 673,-81 834,-81 834,-25 673,-25"/>
<text text-anchor="start" x="676" y="-71" font-family="Helvetica,sans-Serif" font-size="10.00" fill="forestgreen">+</text>
<text text-anchor="start" x="683" y="-71" font-family="Helvetica,sans-Serif" font-size="10.00"> event_callback(events: Int): Bool</text>
<text text-anchor="start" x="676" y="-61" font-family="Helvetica,sans-Serif" font-size="10.00" fill="forestgreen">+</text>
<text text-anchor="start" x="683" y="-61" font-family="Helvetica,sans-Serif" font-size="10.00"> force_close()</text>
<text text-anchor="start" x="676" y="-51" font-family="Helvetica,sans-Serif" font-size="10.00" fill="forestgreen">+</text>
<text text-anchor="start" x="683" y="-51" font-family="Helvetica,sans-Serif" font-size="10.00"> read_callback(content: String)</text>
<text text-anchor="start" x="676" y="-41" font-family="Helvetica,sans-Serif" font-size="10.00" fill="forestgreen">+</text>
<text text-anchor="start" x="683" y="-41" font-family="Helvetica,sans-Serif" font-size="10.00"> write_callback()</text>
<text text-anchor="start" x="676" y="-31" font-family="Helvetica,sans-Serif" font-size="10.00" fill="forestgreen">+</text>
<text text-anchor="start" x="683" y="-31" font-family="Helvetica,sans-Serif" font-size="10.00"> write_file(path: String)</text>
</g>
<!-- libevent::NativeBufferEvent -->
<g id="node6" class="node"><title>libevent::NativeBufferEvent</title>
<polygon fill="white" stroke="none" points="1184.5,-123.5 855.5,-123.5 855.5,-0.5 1184.5,-0.5 1184.5,-123.5"/>
<polygon fill="none" stroke="forestgreen" points="856,-96 856,-123 1185,-123 1185,-96 856,-96"/>
<text text-anchor="start" x="994.5" y="-112.5" font-family="Helvetica,sans-Serif" font-size="10.00">&lt;&lt;extern&gt;&gt;</text>
<text text-anchor="start" x="978" y="-102.5" font-family="Helvetica,sans-Serif" font-weight="bold" font-style="italic" font-size="10.00">NativeBufferEvent</text>
<polygon fill="none" stroke="forestgreen" points="856,-0 856,-96 1185,-96 1185,-0 856,-0"/>
<text text-anchor="start" x="859" y="-86" font-family="Helvetica,sans-Serif" font-size="10.00" fill="forestgreen">+</text>
<text text-anchor="start" x="866" y="-86" font-family="Helvetica,sans-Serif" font-size="10.00"> enable(operation: Int)</text>
<text text-anchor="start" x="859" y="-76" font-family="Helvetica,sans-Serif" font-size="10.00" fill="forestgreen">+</text>
<text text-anchor="start" x="866" y="-76" font-family="Helvetica,sans-Serif" font-size="10.00"> input_buffer(): InputNativeEvBuffer</text>
<text text-anchor="start" x="859" y="-66" font-family="Helvetica,sans-Serif" font-size="10.00" fill="forestgreen">+</text>
<text text-anchor="start" x="866" y="-66" font-family="Helvetica,sans-Serif" font-size="10.00"> output_buffer(): OutputNativeEvBuffer</text>
<text text-anchor="start" x="859" y="-56" font-family="Helvetica,sans-Serif" font-size="10.00" fill="forestgreen">+</text>
<text text-anchor="start" x="866" y="-56" font-family="Helvetica,sans-Serif" font-size="10.00"> read_buffer(buf: NativeEvBuffer): Int</text>
<text text-anchor="start" x="859" y="-46" font-family="Helvetica,sans-Serif" font-size="10.00" fill="forestgreen">+</text>
<text text-anchor="start" x="866" y="-46" font-family="Helvetica,sans-Serif" font-size="10.00"> setcb(conn: Connection)</text>
<text text-anchor="start" x="859" y="-36" font-family="Helvetica,sans-Serif" font-size="10.00" fill="forestgreen">+</text>
<text text-anchor="start" x="866" y="-36" font-family="Helvetica,sans-Serif" font-size="10.00"> socket(base: NativeEventBase, fd: Int, options: Int): NativeBufferEvent</text>
<text text-anchor="start" x="859" y="-26" font-family="Helvetica,sans-Serif" font-size="10.00" fill="forestgreen">+</text>
<text text-anchor="start" x="866" y="-26" font-family="Helvetica,sans-Serif" font-size="10.00"> write(line: CString, length: Int): Int</text>
<text text-anchor="start" x="859" y="-16" font-family="Helvetica,sans-Serif" font-size="10.00" fill="forestgreen">+</text>
<text text-anchor="start" x="866" y="-16" font-family="Helvetica,sans-Serif" font-size="10.00"> write_buffer(buf: NativeEvBuffer): Int</text>
<text text-anchor="start" x="859" y="-6" font-family="Helvetica,sans-Serif" font-size="10.00" fill="forestgreen">+</text>
<text text-anchor="start" x="866" y="-6" font-family="Helvetica,sans-Serif" font-size="10.00"> write_byte(value: Int): Int</text>
</g>
<!-- libevent::NativeEvBuffer -->
<g id="node7" class="node"><title>libevent::NativeEvBuffer</title>
<polygon fill="white" stroke="none" points="1423,-199.5 1267,-199.5 1267,-146.5 1423,-146.5 1423,-199.5"/>
<polygon fill="none" stroke="forestgreen" points="1267,-172 1267,-199 1423,-199 1423,-172 1267,-172"/>
<text text-anchor="start" x="1319" y="-188.5" font-family="Helvetica,sans-Serif" font-size="10.00">&lt;&lt;extern&gt;&gt;</text>
<text text-anchor="start" x="1310" y="-178.5" font-family="Helvetica,sans-Serif" font-weight="bold" font-style="italic" font-size="10.00">NativeEvBuffer</text>
<polygon fill="none" stroke="forestgreen" points="1267,-146 1267,-172 1423,-172 1423,-146 1267,-146"/>
<text text-anchor="start" x="1270" y="-162" font-family="Helvetica,sans-Serif" font-size="10.00" fill="forestgreen">+</text>
<text text-anchor="start" x="1277" y="-162" font-family="Helvetica,sans-Serif" font-size="10.00"> length(): Int</text>
<text text-anchor="start" x="1270" y="-152" font-family="Helvetica,sans-Serif" font-size="10.00" fill="forestgreen">+</text>
<text text-anchor="start" x="1277" y="-152" font-family="Helvetica,sans-Serif" font-size="10.00"> remove(buffer: CString, len: Int)</text>
</g>
<!-- libevent::InputNativeEvBuffer -->
<g id="node8" class="node"><title>libevent::InputNativeEvBuffer</title>
<polygon fill="white" stroke="none" points="1307.5,-84 1206.5,-84 1206.5,-40 1307.5,-40 1307.5,-84"/>
<polygon fill="none" stroke="forestgreen" points="1207,-57 1207,-84 1308,-84 1308,-57 1207,-57"/>
<text text-anchor="start" x="1231.5" y="-73.5" font-family="Helvetica,sans-Serif" font-size="10.00">&lt;&lt;extern&gt;&gt;</text>
<text text-anchor="start" x="1210.5" y="-63.5" font-family="Helvetica,sans-Serif" font-weight="bold" font-style="italic" font-size="10.00">InputNativeEvBuffer</text>
<polygon fill="none" stroke="forestgreen" points="1207,-40 1207,-57 1308,-57 1308,-40 1207,-40"/>
<text text-anchor="start" x="1210" y="-47" font-family="Helvetica,sans-Serif" font-size="10.00" fill="forestgreen">+</text>
<text text-anchor="start" x="1217" y="-47" font-family="Helvetica,sans-Serif" font-size="10.00"> drain(length: Int)</text>
</g>
<!-- libevent::InputNativeEvBuffer&#45;&gt;libevent::NativeEvBuffer -->
<g id="edge2" class="edge"><title>libevent::InputNativeEvBuffer&#45;&gt;libevent::NativeEvBuffer</title>
<path fill="none" stroke="black" stroke-width="0.5" d="M1273.97,-84.0163C1287.34,-100.58 1306.15,-123.881 1321.06,-142.344"/>
<polygon fill="none" stroke="black" stroke-width="0.5" points="1319.87,-143.653 1324.37,-146.444 1322.59,-141.455 1319.87,-143.653"/>
</g>
<!-- libevent::OutputNativeEvBuffer -->
<g id="node9" class="node"><title>libevent::OutputNativeEvBuffer</title>
<polygon fill="white" stroke="none" points="1536,-84 1330,-84 1330,-40 1536,-40 1536,-84"/>
<polygon fill="none" stroke="forestgreen" points="1330,-57 1330,-84 1536,-84 1536,-57 1330,-57"/>
<text text-anchor="start" x="1407" y="-73.5" font-family="Helvetica,sans-Serif" font-size="10.00">&lt;&lt;extern&gt;&gt;</text>
<text text-anchor="start" x="1382" y="-63.5" font-family="Helvetica,sans-Serif" font-weight="bold" font-style="italic" font-size="10.00">OutputNativeEvBuffer</text>
<polygon fill="none" stroke="forestgreen" points="1330,-40 1330,-57 1536,-57 1536,-40 1330,-40"/>
<text text-anchor="start" x="1333" y="-47" font-family="Helvetica,sans-Serif" font-size="10.00" fill="forestgreen">+</text>
<text text-anchor="start" x="1340" y="-47" font-family="Helvetica,sans-Serif" font-size="10.00"> add_file(fd: Int, offset: Int, length: Int): Bool</text>
</g>
<!-- libevent::OutputNativeEvBuffer&#45;&gt;libevent::NativeEvBuffer -->
<g id="edge3" class="edge"><title>libevent::OutputNativeEvBuffer&#45;&gt;libevent::NativeEvBuffer</title>
<path fill="none" stroke="black" stroke-width="0.5" d="M1416.03,-84.0163C1402.66,-100.58 1383.85,-123.881 1368.94,-142.344"/>
<polygon fill="none" stroke="black" stroke-width="0.5" points="1367.41,-141.455 1365.63,-146.444 1370.13,-143.653 1367.41,-141.455"/>
</g>
<!-- libevent::ConnectionListener -->
<g id="node10" class="node"><title>libevent::ConnectionListener</title>
<polygon fill="white" stroke="none" points="1685.5,-88.5 1558.5,-88.5 1558.5,-35.5 1685.5,-35.5 1685.5,-88.5"/>
<polygon fill="none" stroke="forestgreen" points="1559,-61 1559,-88 1686,-88 1686,-61 1559,-61"/>
<text text-anchor="start" x="1596.5" y="-77.5" font-family="Helvetica,sans-Serif" font-size="10.00">&lt;&lt;extern&gt;&gt;</text>
<text text-anchor="start" x="1576.5" y="-67.5" font-family="Helvetica,sans-Serif" font-weight="bold" font-style="italic" font-size="10.00">ConnectionListener</text>
<polygon fill="none" stroke="forestgreen" points="1559,-35 1559,-61 1686,-61 1686,-35 1559,-35"/>
<text text-anchor="start" x="1562" y="-51" font-family="Helvetica,sans-Serif" font-size="10.00" fill="forestgreen">+</text>
<text text-anchor="start" x="1569" y="-51" font-family="Helvetica,sans-Serif" font-size="10.00"> base(): NativeEventBase</text>
<text text-anchor="start" x="1562" y="-41" font-family="Helvetica,sans-Serif" font-size="10.00" fill="forestgreen">+</text>
<text text-anchor="start" x="1569" y="-41" font-family="Helvetica,sans-Serif" font-size="10.00"> error_callback()</text>
</g>
<!-- libevent::ConnectionFactory -->
<g id="node11" class="node"><title>libevent::ConnectionFactory</title>
<polygon fill="white" stroke="none" points="2092,-89 1708,-89 1708,-35 2092,-35 2092,-89"/>
<polygon fill="none" stroke="forestgreen" points="1708,-71 1708,-89 2092,-89 2092,-71 1708,-71"/>
<text text-anchor="start" x="1855.5" y="-78.5" font-family="Helvetica,sans-Serif" font-weight="bold" font-size="10.00">ConnectionFactory</text>
<polygon fill="none" stroke="forestgreen" points="1708,-35 1708,-71 2092,-71 2092,-35 1708,-35"/>
<text text-anchor="start" x="1711" y="-61" font-family="Helvetica,sans-Serif" font-size="10.00" fill="forestgreen">+</text>
<text text-anchor="start" x="1718" y="-61" font-family="Helvetica,sans-Serif" font-size="10.00"> accept_connection(listener: ConnectionListener, fd: Int, addrin: Pointer, socklen: Int)</text>
<text text-anchor="start" x="1711" y="-51" font-family="Helvetica,sans-Serif" font-size="10.00" fill="forestgreen">+</text>
<text text-anchor="start" x="1718" y="-51" font-family="Helvetica,sans-Serif" font-size="10.00"> bind_to(address: String, port: Int): nullable ConnectionListener</text>
<text text-anchor="start" x="1711" y="-41" font-family="Helvetica,sans-Serif" font-size="10.00" fill="forestgreen">+</text>
<text text-anchor="start" x="1718" y="-41" font-family="Helvetica,sans-Serif" font-size="10.00"> spawn_connection(buffer_event: NativeBufferEvent, address: String): Connection</text>
</g>
</g>
</svg>
