<?xml version="1.0" encoding="UTF-8" standalone="no"?>
<!DOCTYPE svg PUBLIC "-//W3C//DTD SVG 1.1//EN"
 "http://www.w3.org/Graphics/SVG/1.1/DTD/svg11.dtd">
<!-- Generated by graphviz version 2.36.0 (20140111.2315)
 -->
<!-- Title: G Pages: 1 -->
<svg width="152pt" height="342pt"
 viewBox="0.00 0.00 152.00 342.00" xmlns="http://www.w3.org/2000/svg" xmlns:xlink="http://www.w3.org/1999/xlink">
<g id="graph0" class="graph" transform="scale(1 1) rotate(0) translate(4 338)">
<title>G</title>
<polygon fill="white" stroke="none" points="-4,4 -4,-338 148,-338 148,4 -4,4"/>
<!-- dom::dom -->
<g id="node1" class="node"><title>dom::dom</title>
<polygon fill="#fffaf3" stroke="black" points="101,-50 37,-50 37,-0 107,-0 107,-44 101,-50"/>
<polyline fill="none" stroke="black" points="101,-50 101,-44 "/>
<polyline fill="none" stroke="black" points="107,-44 101,-44 "/>
<text text-anchor="start" x="39" y="-40.5" font-family="Helvetica,sans-Serif" font-weight="bold" font-size="10.00">dom</text>
<text text-anchor="start" x="39" y="-25" font-family="Helvetica,sans-Serif" font-size="10.00" fill="forestgreen">+</text>
<text text-anchor="start" x="46" y="-25" font-family="Helvetica,sans-Serif" font-size="10.00">XMLAttrTag</text>
<text text-anchor="start" x="39" y="-15" font-family="Helvetica,sans-Serif" font-size="10.00" fill="forestgreen">+</text>
<text text-anchor="start" x="46" y="-15" font-family="Helvetica,sans-Serif" font-size="10.00">XMLEntity</text>
<text text-anchor="start" x="39" y="-5" font-family="Helvetica,sans-Serif" font-size="10.00" fill="forestgreen">+</text>
<text text-anchor="start" x="46" y="-5" font-family="Helvetica,sans-Serif" font-size="10.00">XMLStartTag</text>
</g>
<!-- dom::parser -->
<g id="node2" class="node"><title>dom::parser</title>
<polygon fill="#fffaf3" stroke="black" points="104.5,-112 33.5,-112 33.5,-72 110.5,-72 110.5,-106 104.5,-112"/>
<polyline fill="none" stroke="black" points="104.5,-112 104.5,-106 "/>
<polyline fill="none" stroke="black" points="110.5,-106 104.5,-106 "/>
<text text-anchor="start" x="36" y="-102.5" font-family="Helvetica,sans-Serif" font-weight="bold" font-size="10.00">parser</text>
<text text-anchor="start" x="36" y="-87" font-family="Helvetica,sans-Serif" font-size="10.00" fill="forestgreen">+</text>
<text text-anchor="start" x="43" y="-87" font-family="Helvetica,sans-Serif" font-size="10.00">Text</text>
<text text-anchor="start" x="36" y="-77" font-family="Helvetica,sans-Serif" font-size="10.00" fill="forestgreen">+</text>
<text text-anchor="start" x="43" y="-77" font-family="Helvetica,sans-Serif" font-size="10.00">XMLProcessor</text>
</g>
<!-- dom::dom&#45;&gt;dom::parser -->
<g id="edge1" class="edge"><title>dom::dom&#45;&gt;dom::parser</title>
<path fill="none" stroke="black" stroke-width="0.5" stroke-dasharray="5,2" d="M72,-50.2036C72,-55.5095 72,-61.1316 72,-66.4509"/>
<polygon fill="black" stroke="black" stroke-width="0.5" points="72,-71.6464 69.7501,-66.6463 72,-69.1464 72.0001,-66.6464 72.0001,-66.6464 72.0001,-66.6464 72,-69.1464 74.2501,-66.6464 72,-71.6464 72,-71.6464"/>
</g>
<!-- dom::xml_entities -->
<g id="node3" class="node"><title>dom::xml_entities</title>
<polygon fill="#fffaf3" stroke="black" points="138,-334 0,-334 0,-134 144,-134 144,-328 138,-334"/>
<polyline fill="none" stroke="black" points="138,-334 138,-328 "/>
<polyline fill="none" stroke="black" points="144,-328 138,-328 "/>
<text text-anchor="start" x="2" y="-324.5" font-family="Helvetica,sans-Serif" font-weight="bold" font-size="10.00">xml_entities</text>
<text text-anchor="start" x="2" y="-309" font-family="Helvetica,sans-Serif" font-size="10.00" fill="forestgreen">+</text>
<text text-anchor="start" x="9" y="-309" font-family="Helvetica,sans-Serif" font-size="10.00">BadXMLAttribute</text>
<text text-anchor="start" x="2" y="-299" font-family="Helvetica,sans-Serif" font-size="10.00" fill="forestgreen">+</text>
<text text-anchor="start" x="9" y="-299" font-family="Helvetica,sans-Serif" font-size="10.00">CDATA</text>
<text text-anchor="start" x="2" y="-289" font-family="Helvetica,sans-Serif" font-size="10.00" fill="forestgreen">+</text>
<text text-anchor="start" x="9" y="-289" font-family="Helvetica,sans-Serif" font-size="10.00">PCDATA</text>
<text text-anchor="start" x="2" y="-279" font-family="Helvetica,sans-Serif" font-size="10.00" fill="forestgreen">+</text>
<text text-anchor="start" x="9" y="-279" font-family="Helvetica,sans-Serif" font-size="10.00">XMLAttrTag</text>
<text text-anchor="start" x="2" y="-269" font-family="Helvetica,sans-Serif" font-size="10.00" fill="forestgreen">+</text>
<text text-anchor="start" x="9" y="-269" font-family="Helvetica,sans-Serif" font-size="10.00">XMLAttribute</text>
<text text-anchor="start" x="2" y="-259" font-family="Helvetica,sans-Serif" font-size="10.00" fill="forestgreen">+</text>
<text text-anchor="start" x="9" y="-259" font-family="Helvetica,sans-Serif" font-size="10.00">XMLCommentTag</text>
<text text-anchor="start" x="2" y="-249" font-family="Helvetica,sans-Serif" font-size="10.00" fill="forestgreen">+</text>
<text text-anchor="start" x="9" y="-249" font-family="Helvetica,sans-Serif" font-size="10.00">XMLDoctypeTag</text>
<text text-anchor="start" x="2" y="-239" font-family="Helvetica,sans-Serif" font-size="10.00" fill="forestgreen">+</text>
<text text-anchor="start" x="9" y="-239" font-family="Helvetica,sans-Serif" font-size="10.00">XMLDocument</text>
<text text-anchor="start" x="2" y="-229" font-family="Helvetica,sans-Serif" font-size="10.00" fill="forestgreen">+</text>
<text text-anchor="start" x="9" y="-229" font-family="Helvetica,sans-Serif" font-size="10.00">XMLEndTag</text>
<text text-anchor="start" x="2" y="-219" font-family="Helvetica,sans-Serif" font-size="10.00" fill="forestgreen">+</text>
<text text-anchor="start" x="9" y="-219" font-family="Helvetica,sans-Serif" font-size="10.00">XMLEntity</text>
<text text-anchor="start" x="2" y="-209" font-family="Helvetica,sans-Serif" font-size="10.00" fill="forestgreen">+</text>
<text text-anchor="start" x="9" y="-209" font-family="Helvetica,sans-Serif" font-size="10.00">XMLError</text>
<text text-anchor="start" x="2" y="-199" font-family="Helvetica,sans-Serif" font-size="10.00" fill="forestgreen">+</text>
<text text-anchor="start" x="9" y="-199" font-family="Helvetica,sans-Serif" font-size="10.00">XMLOnelinerTag</text>
<text text-anchor="start" x="2" y="-189" font-family="Helvetica,sans-Serif" font-size="10.00" fill="forestgreen">+</text>
<text text-anchor="start" x="9" y="-189" font-family="Helvetica,sans-Serif" font-size="10.00">XMLProcessingInstructionTag</text>
<text text-anchor="start" x="2" y="-179" font-family="Helvetica,sans-Serif" font-size="10.00" fill="forestgreen">+</text>
<text text-anchor="start" x="9" y="-179" font-family="Helvetica,sans-Serif" font-size="10.00">XMLPrologTag</text>
<text text-anchor="start" x="2" y="-169" font-family="Helvetica,sans-Serif" font-size="10.00" fill="forestgreen">+</text>
<text text-anchor="start" x="9" y="-169" font-family="Helvetica,sans-Serif" font-size="10.00">XMLSpecialTag</text>
<text text-anchor="start" x="2" y="-159" font-family="Helvetica,sans-Serif" font-size="10.00" fill="forestgreen">+</text>
<text text-anchor="start" x="9" y="-159" font-family="Helvetica,sans-Serif" font-size="10.00">XMLStartTag</text>
<text text-anchor="start" x="2" y="-149" font-family="Helvetica,sans-Serif" font-size="10.00" fill="forestgreen">+</text>
<text text-anchor="start" x="9" y="-149" font-family="Helvetica,sans-Serif" font-size="10.00">XMLStringAttr</text>
<text text-anchor="start" x="2" y="-139" font-family="Helvetica,sans-Serif" font-size="10.00" fill="forestgreen">+</text>
<text text-anchor="start" x="9" y="-139" font-family="Helvetica,sans-Serif" font-size="10.00">XMLTag</text>
</g>
<!-- dom::parser&#45;&gt;dom::xml_entities -->
<g id="edge2" class="edge"><title>dom::parser&#45;&gt;dom::xml_entities</title>
<path fill="none" stroke="black" stroke-width="0.5" stroke-dasharray="5,2" d="M72,-112.173C72,-117.029 72,-122.593 72,-128.608"/>
<polygon fill="black" stroke="black" stroke-width="0.5" points="72,-133.761 69.7501,-128.76 72,-131.261 72.0001,-128.761 72.0001,-128.761 72.0001,-128.761 72,-131.261 74.2501,-128.761 72,-133.761 72,-133.761"/>
</g>
</g>
</svg>
