<?xml version="1.0" encoding="UTF-8" standalone="no"?>
<!DOCTYPE svg PUBLIC "-//W3C//DTD SVG 1.1//EN"
 "http://www.w3.org/Graphics/SVG/1.1/DTD/svg11.dtd">
<!-- Generated by graphviz version 2.36.0 (20140111.2315)
 -->
<!-- Title: G Pages: 1 -->
<svg width="56pt" height="112pt"
 viewBox="0.00 0.00 56.00 112.00" xmlns="http://www.w3.org/2000/svg" xmlns:xlink="http://www.w3.org/1999/xlink">
<g id="graph0" class="graph" transform="scale(1 1) rotate(0) translate(4 108)">
<title>G</title>
<polygon fill="white" stroke="none" points="-4,4 -4,-108 52,-108 52,4 -4,4"/>
<!-- posix::ext -->
<g id="node1" class="node"><title>posix::ext</title>
<polygon fill="#fffaf3" stroke="black" points="42.8333,-31.5 0,-31.5 0,-0.5 48,-0.5 48,-26.3333 42.8333,-31.5"/>
<polyline fill="none" stroke="black" points="42.8333,-31.5 42.8333,-26.3333 "/>
<polyline fill="none" stroke="black" points="48,-26.3333 42.8333,-26.3333 "/>
<text text-anchor="start" x="2" y="-21.5" font-family="Helvetica,sans-Serif" font-weight="bold" font-size="10.00">ext</text>
<text text-anchor="start" x="2" y="-6" font-family="Helvetica,sans-Serif" font-size="10.00" fill="forestgreen">+</text>
<text text-anchor="start" x="9" y="-6" font-family="Helvetica,sans-Serif" font-size="10.00">Passwd</text>
</g>
<!-- posix::posix -->
<g id="node2" class="node"><title>posix::posix</title>
<polygon fill="#fffaf3" stroke="black" points="42,-104 0,-104 0,-54 48,-54 48,-98 42,-104"/>
<polyline fill="none" stroke="black" points="42,-104 42,-98 "/>
<polyline fill="none" stroke="black" points="48,-98 42,-98 "/>
<text text-anchor="start" x="2" y="-94.5" font-family="Helvetica,sans-Serif" font-weight="bold" font-size="10.00">posix</text>
<text text-anchor="start" x="2" y="-79" font-family="Helvetica,sans-Serif" font-size="10.00" fill="forestgreen">+</text>
<text text-anchor="start" x="9" y="-79" font-family="Helvetica,sans-Serif" font-size="10.00">Group</text>
<text text-anchor="start" x="2" y="-69" font-family="Helvetica,sans-Serif" font-size="10.00" fill="forestgreen">+</text>
<text text-anchor="start" x="9" y="-69" font-family="Helvetica,sans-Serif" font-size="10.00">Passwd</text>
<text text-anchor="start" x="2" y="-59" font-family="Helvetica,sans-Serif" font-size="10.00" fill="forestgreen">+</text>
<text text-anchor="start" x="9" y="-59" font-family="Helvetica,sans-Serif" font-size="10.00">Sys</text>
</g>
<!-- posix::ext&#45;&gt;posix::posix -->
<g id="edge1" class="edge"><title>posix::ext&#45;&gt;posix::posix</title>
<path fill="none" stroke="black" stroke-width="0.5" stroke-dasharray="5,2" d="M24,-31.7664C24,-36.8416 24,-42.7173 24,-48.5422"/>
<polygon fill="black" stroke="black" stroke-width="0.5" points="24,-53.8529 21.7501,-48.8528 24,-51.3529 24.0001,-48.8529 24.0001,-48.8529 24.0001,-48.8529 24,-51.3529 26.2501,-48.8529 24,-53.8529 24,-53.8529"/>
</g>
</g>
</svg>
