<?xml version="1.0" encoding="UTF-8" standalone="no"?>
<!DOCTYPE svg PUBLIC "-//W3C//DTD SVG 1.1//EN"
 "http://www.w3.org/Graphics/SVG/1.1/DTD/svg11.dtd">
<!-- Generated by graphviz version 2.36.0 (20140111.2315)
 -->
<!-- Title: G Pages: 1 -->
<svg width="122pt" height="302pt"
 viewBox="0.00 0.00 122.00 302.00" xmlns="http://www.w3.org/2000/svg" xmlns:xlink="http://www.w3.org/1999/xlink">
<g id="graph0" class="graph" transform="scale(1 1) rotate(0) translate(4 298)">
<title>G</title>
<polygon fill="white" stroke="none" points="-4,4 -4,-298 118,-298 118,4 -4,4"/>
<!-- mongodb::mongodb -->
<g id="node1" class="node"><title>mongodb::mongodb</title>
<polygon fill="#fffaf3" stroke="black" points="93.5,-162 14.5,-162 14.5,-72 99.5,-72 99.5,-156 93.5,-162"/>
<polyline fill="none" stroke="black" points="93.5,-162 93.5,-156 "/>
<polyline fill="none" stroke="black" points="99.5,-156 93.5,-156 "/>
<text text-anchor="start" x="17" y="-152.5" font-family="Helvetica,sans-Serif" font-weight="bold" font-size="10.00">mongodb</text>
<text text-anchor="start" x="17" y="-137" font-family="Helvetica,sans-Serif" font-size="10.00" fill="forestgreen">+</text>
<text text-anchor="start" x="24" y="-137" font-family="Helvetica,sans-Serif" font-size="10.00">JsonObject</text>
<text text-anchor="start" x="17" y="-127" font-family="Helvetica,sans-Serif" font-size="10.00" fill="forestgreen">+</text>
<text text-anchor="start" x="24" y="-127" font-family="Helvetica,sans-Serif" font-size="10.00">MongoClient</text>
<text text-anchor="start" x="17" y="-117" font-family="Helvetica,sans-Serif" font-size="10.00" fill="forestgreen">+</text>
<text text-anchor="start" x="24" y="-117" font-family="Helvetica,sans-Serif" font-size="10.00">MongoCollection</text>
<text text-anchor="start" x="17" y="-107" font-family="Helvetica,sans-Serif" font-size="10.00" fill="forestgreen">+</text>
<text text-anchor="start" x="24" y="-107" font-family="Helvetica,sans-Serif" font-size="10.00">MongoCursor</text>
<text text-anchor="start" x="17" y="-97" font-family="Helvetica,sans-Serif" font-size="10.00" fill="forestgreen">+</text>
<text text-anchor="start" x="24" y="-97" font-family="Helvetica,sans-Serif" font-size="10.00">MongoDb</text>
<text text-anchor="start" x="17" y="-87" font-family="Helvetica,sans-Serif" font-size="10.00" fill="forestgreen">+</text>
<text text-anchor="start" x="24" y="-87" font-family="Helvetica,sans-Serif" font-size="10.00">MongoError</text>
<text text-anchor="start" x="17" y="-77" font-family="Helvetica,sans-Serif" font-size="10.00" fill="forestgreen">+</text>
<text text-anchor="start" x="24" y="-77" font-family="Helvetica,sans-Serif" font-size="10.00">MongoObjectId</text>
</g>
<!-- mongodb::native_mongodb -->
<g id="node2" class="node"><title>mongodb::native_mongodb</title>
<polygon fill="#fffaf3" stroke="black" points="108,-294 0,-294 0,-184 114,-184 114,-288 108,-294"/>
<polyline fill="none" stroke="black" points="108,-294 108,-288 "/>
<polyline fill="none" stroke="black" points="114,-288 108,-288 "/>
<text text-anchor="start" x="2" y="-284.5" font-family="Helvetica,sans-Serif" font-weight="bold" font-size="10.00">native_mongodb</text>
<text text-anchor="start" x="2" y="-269" font-family="Helvetica,sans-Serif" font-size="10.00" fill="forestgreen">+</text>
<text text-anchor="start" x="9" y="-269" font-family="Helvetica,sans-Serif" font-size="10.00">BSONError</text>
<text text-anchor="start" x="2" y="-259" font-family="Helvetica,sans-Serif" font-size="10.00" fill="forestgreen">+</text>
<text text-anchor="start" x="9" y="-259" font-family="Helvetica,sans-Serif" font-size="10.00">BSONObjectId</text>
<text text-anchor="start" x="2" y="-249" font-family="Helvetica,sans-Serif" font-size="10.00" fill="forestgreen">+</text>
<text text-anchor="start" x="9" y="-249" font-family="Helvetica,sans-Serif" font-size="10.00">NativeBSON</text>
<text text-anchor="start" x="2" y="-239" font-family="Helvetica,sans-Serif" font-size="10.00" fill="forestgreen">+</text>
<text text-anchor="start" x="9" y="-239" font-family="Helvetica,sans-Serif" font-size="10.00">NativeCStringArray</text>
<text text-anchor="start" x="2" y="-229" font-family="Helvetica,sans-Serif" font-size="10.00" fill="forestgreen">+</text>
<text text-anchor="start" x="9" y="-229" font-family="Helvetica,sans-Serif" font-size="10.00">NativeMongoClient</text>
<text text-anchor="start" x="2" y="-219" font-family="Helvetica,sans-Serif" font-size="10.00" fill="forestgreen">+</text>
<text text-anchor="start" x="9" y="-219" font-family="Helvetica,sans-Serif" font-size="10.00">NativeMongoCollection</text>
<text text-anchor="start" x="2" y="-209" font-family="Helvetica,sans-Serif" font-size="10.00" fill="forestgreen">+</text>
<text text-anchor="start" x="9" y="-209" font-family="Helvetica,sans-Serif" font-size="10.00">NativeMongoCursor</text>
<text text-anchor="start" x="2" y="-199" font-family="Helvetica,sans-Serif" font-size="10.00" fill="forestgreen">+</text>
<text text-anchor="start" x="9" y="-199" font-family="Helvetica,sans-Serif" font-size="10.00">NativeMongoDb</text>
<text text-anchor="start" x="2" y="-189" font-family="Helvetica,sans-Serif" font-size="10.00" fill="forestgreen">+</text>
<text text-anchor="start" x="9" y="-189" font-family="Helvetica,sans-Serif" font-size="10.00">Sys</text>
</g>
<!-- mongodb::mongodb&#45;&gt;mongodb::native_mongodb -->
<g id="edge1" class="edge"><title>mongodb::mongodb&#45;&gt;mongodb::native_mongodb</title>
<path fill="none" stroke="black" stroke-width="0.5" stroke-dasharray="5,2" d="M57,-162.002C57,-167.431 57,-173.048 57,-178.657"/>
<polygon fill="black" stroke="black" stroke-width="0.5" points="57,-183.801 54.7501,-178.801 57,-181.301 57.0001,-178.801 57.0001,-178.801 57.0001,-178.801 57,-181.301 59.2501,-178.801 57,-183.801 57,-183.801"/>
</g>
<!-- mongodb::queries -->
<g id="node3" class="node"><title>mongodb::queries</title>
<polygon fill="#fffaf3" stroke="black" points="89,-50 19,-50 19,-0 95,-0 95,-44 89,-50"/>
<polyline fill="none" stroke="black" points="89,-50 89,-44 "/>
<polyline fill="none" stroke="black" points="95,-44 89,-44 "/>
<text text-anchor="start" x="21" y="-40.5" font-family="Helvetica,sans-Serif" font-weight="bold" font-size="10.00">queries</text>
<text text-anchor="start" x="21" y="-25" font-family="Helvetica,sans-Serif" font-size="10.00" fill="forestgreen">+</text>
<text text-anchor="start" x="28" y="-25" font-family="Helvetica,sans-Serif" font-size="10.00">MongoGroup</text>
<text text-anchor="start" x="21" y="-15" font-family="Helvetica,sans-Serif" font-size="10.00" fill="forestgreen">+</text>
<text text-anchor="start" x="28" y="-15" font-family="Helvetica,sans-Serif" font-size="10.00">MongoMatch</text>
<text text-anchor="start" x="21" y="-5" font-family="Helvetica,sans-Serif" font-size="10.00" fill="forestgreen">+</text>
<text text-anchor="start" x="28" y="-5" font-family="Helvetica,sans-Serif" font-size="10.00">MongoPipeline</text>
</g>
<!-- mongodb::queries&#45;&gt;mongodb::mongodb -->
<g id="edge2" class="edge"><title>mongodb::queries&#45;&gt;mongodb::mongodb</title>
<path fill="none" stroke="black" stroke-width="0.5" stroke-dasharray="5,2" d="M57,-50.1183C57,-55.2211 57,-60.7841 57,-66.4442"/>
<polygon fill="black" stroke="black" stroke-width="0.5" points="57,-71.6592 54.7501,-66.6591 57,-69.1592 57.0001,-66.6592 57.0001,-66.6592 57.0001,-66.6592 57,-69.1592 59.2501,-66.6592 57,-71.6592 57,-71.6592"/>
</g>
</g>
</svg>
