<?xml version="1.0" encoding="UTF-8" standalone="no"?>
<!DOCTYPE svg PUBLIC "-//W3C//DTD SVG 1.1//EN"
 "http://www.w3.org/Graphics/SVG/1.1/DTD/svg11.dtd">
<!-- Generated by graphviz version 2.36.0 (20140111.2315)
 -->
<!-- Title: G Pages: 1 -->
<svg width="1327pt" height="280pt"
 viewBox="0.00 0.00 1327.00 280.00" xmlns="http://www.w3.org/2000/svg" xmlns:xlink="http://www.w3.org/1999/xlink">
<g id="graph0" class="graph" transform="scale(1 1) rotate(0) translate(4 276)">
<title>G</title>
<polygon fill="white" stroke="none" points="-4,4 -4,-276 1323,-276 1323,4 -4,4"/>
<!-- opts::Option -->
<g id="node1" class="node"><title>opts::Option</title>
<polygon fill="white" stroke="none" points="497.5,-272 186.5,-272 186.5,-162 497.5,-162 497.5,-272"/>
<polygon fill="none" stroke="forestgreen" points="187,-245 187,-272 498,-272 498,-245 187,-245"/>
<text text-anchor="start" x="312.5" y="-261.5" font-family="Helvetica,sans-Serif" font-size="10.00">&lt;&lt;abstract&gt;&gt;</text>
<text text-anchor="start" x="326.5" y="-251.5" font-family="Helvetica,sans-Serif" font-weight="bold" font-style="italic" font-size="10.00">Option</text>
<polygon fill="none" stroke="forestgreen" points="187,-228 187,-245 498,-245 498,-228 187,-228"/>
<text text-anchor="start" x="190" y="-235" font-family="Helvetica,sans-Serif" font-size="10.00" fill="forestgreen">+</text>
<text text-anchor="start" x="197" y="-235" font-family="Helvetica,sans-Serif" font-size="10.00"> VALUE: nullable Object</text>
<polygon fill="none" stroke="forestgreen" points="187,-162 187,-228 498,-228 498,-162 187,-162"/>
<text text-anchor="start" x="190" y="-218" font-family="Helvetica,sans-Serif" font-size="10.00" fill="forestgreen">+</text>
<text text-anchor="start" x="197" y="-218" font-family="Helvetica,sans-Serif" font-size="10.00"> add_aliases(names: String)</text>
<text text-anchor="start" x="190" y="-208" font-family="Helvetica,sans-Serif" font-size="10.00" fill="forestgreen">+</text>
<text text-anchor="start" x="197" y="-208" font-family="Helvetica,sans-Serif" font-size="10.00"> init(help: String, default: VALUE, names: nullable Array[String])</text>
<text text-anchor="start" x="190" y="-198" font-family="Helvetica,sans-Serif" font-size="10.00" fill="forestgreen">+</text>
<text text-anchor="start" x="197" y="-198" font-family="Helvetica,sans-Serif" font-size="10.00"> init_opt(help: String, default: VALUE, names: nullable Array[String])</text>
<text text-anchor="start" x="190" y="-188" font-family="Helvetica,sans-Serif" font-size="10.00" fill="forestgreen">+</text>
<text text-anchor="start" x="197" y="-188" font-family="Helvetica,sans-Serif" font-size="10.00"> pretty(off: Int): String</text>
<text text-anchor="start" x="190" y="-178" font-family="Helvetica,sans-Serif" font-size="10.00" fill="forestgreen">+</text>
<text text-anchor="start" x="197" y="-178" font-family="Helvetica,sans-Serif" font-size="10.00"> pretty_default(): String</text>
<text text-anchor="start" x="190" y="-168" font-family="Helvetica,sans-Serif" font-size="10.00" fill="orange">#</text>
<text text-anchor="start" x="196" y="-168" font-family="Helvetica,sans-Serif" font-size="10.00"> read_param(opts: OptionContext, it: Iterator[String])</text>
</g>
<!-- opts::OptionText -->
<g id="node2" class="node"><title>opts::OptionText</title>
<polygon fill="white" stroke="none" points="156,-135.5 72,-135.5 72,-100.5 156,-100.5 156,-135.5"/>
<polygon fill="none" stroke="forestgreen" points="72,-117 72,-135 156,-135 156,-117 72,-117"/>
<text text-anchor="start" x="88" y="-124.5" font-family="Helvetica,sans-Serif" font-weight="bold" font-size="10.00">OptionText</text>
<polygon fill="none" stroke="forestgreen" points="72,-100 72,-117 156,-117 156,-100 72,-100"/>
<text text-anchor="start" x="75" y="-107" font-family="Helvetica,sans-Serif" font-size="10.00" fill="forestgreen">+</text>
<text text-anchor="start" x="82" y="-107" font-family="Helvetica,sans-Serif" font-size="10.00"> init(text: String)</text>
</g>
<!-- opts::OptionText&#45;&gt;opts::Option -->
<g id="edge1" class="edge"><title>opts::OptionText&#45;&gt;opts::Option</title>
<path fill="none" stroke="black" stroke-width="0.5" d="M152.936,-135.565C169.253,-142.507 189.264,-151.02 210.094,-159.882"/>
<polygon fill="none" stroke="black" stroke-width="0.5" points="209.546,-161.551 214.832,-161.898 210.917,-158.33 209.546,-161.551"/>
</g>
<!-- opts::OptionBool -->
<g id="node3" class="node"><title>opts::OptionBool</title>
<polygon fill="white" stroke="none" points="331.5,-135.5 178.5,-135.5 178.5,-100.5 331.5,-100.5 331.5,-135.5"/>
<polygon fill="none" stroke="forestgreen" points="179,-117 179,-135 332,-135 332,-117 179,-117"/>
<text text-anchor="start" x="228" y="-124.5" font-family="Helvetica,sans-Serif" font-weight="bold" font-size="10.00">OptionBool</text>
<polygon fill="none" stroke="forestgreen" points="179,-100 179,-117 332,-117 332,-100 179,-100"/>
<text text-anchor="start" x="182" y="-107" font-family="Helvetica,sans-Serif" font-size="10.00" fill="forestgreen">+</text>
<text text-anchor="start" x="189" y="-107" font-family="Helvetica,sans-Serif" font-size="10.00"> init(help: String, names: String)</text>
</g>
<!-- opts::OptionBool&#45;&gt;opts::Option -->
<g id="edge2" class="edge"><title>opts::OptionBool&#45;&gt;opts::Option</title>
<path fill="none" stroke="black" stroke-width="0.5" d="M270.154,-135.896C275.844,-142.24 282.68,-149.862 289.842,-157.847"/>
<polygon fill="none" stroke="black" stroke-width="0.5" points="288.74,-159.239 293.381,-161.793 291.345,-156.902 288.74,-159.239"/>
</g>
<!-- opts::OptionCount -->
<g id="node4" class="node"><title>opts::OptionCount</title>
<polygon fill="white" stroke="none" points="506.5,-135.5 353.5,-135.5 353.5,-100.5 506.5,-100.5 506.5,-135.5"/>
<polygon fill="none" stroke="forestgreen" points="354,-117 354,-135 507,-135 507,-117 354,-117"/>
<text text-anchor="start" x="400" y="-124.5" font-family="Helvetica,sans-Serif" font-weight="bold" font-size="10.00">OptionCount</text>
<polygon fill="none" stroke="forestgreen" points="354,-100 354,-117 507,-117 507,-100 354,-100"/>
<text text-anchor="start" x="357" y="-107" font-family="Helvetica,sans-Serif" font-size="10.00" fill="forestgreen">+</text>
<text text-anchor="start" x="364" y="-107" font-family="Helvetica,sans-Serif" font-size="10.00"> init(help: String, names: String)</text>
</g>
<!-- opts::OptionCount&#45;&gt;opts::Option -->
<g id="edge3" class="edge"><title>opts::OptionCount&#45;&gt;opts::Option</title>
<path fill="none" stroke="black" stroke-width="0.5" d="M414.672,-135.896C408.916,-142.24 402.002,-149.862 394.757,-157.847"/>
<polygon fill="none" stroke="black" stroke-width="0.5" points="393.241,-156.914 391.178,-161.793 395.833,-159.265 393.241,-156.914"/>
</g>
<!-- opts::OptionParameter -->
<g id="node5" class="node"><title>opts::OptionParameter</title>
<polygon fill="white" stroke="none" points="667,-140 529,-140 529,-96 667,-96 667,-140"/>
<polygon fill="none" stroke="forestgreen" points="529,-113 529,-140 667,-140 667,-113 529,-113"/>
<text text-anchor="start" x="568" y="-129.5" font-family="Helvetica,sans-Serif" font-size="10.00">&lt;&lt;abstract&gt;&gt;</text>
<text text-anchor="start" x="558.5" y="-119.5" font-family="Helvetica,sans-Serif" font-weight="bold" font-style="italic" font-size="10.00">OptionParameter</text>
<polygon fill="none" stroke="forestgreen" points="529,-96 529,-113 667,-113 667,-96 529,-96"/>
<text text-anchor="start" x="532" y="-103" font-family="Helvetica,sans-Serif" font-size="10.00" fill="orange">#</text>
<text text-anchor="start" x="538" y="-103" font-family="Helvetica,sans-Serif" font-size="10.00"> </text>
<text text-anchor="start" x="542" y="-103" font-family="Helvetica,sans-Serif" font-style="italic" font-size="10.00">convert</text>
<text text-anchor="start" x="575" y="-103" font-family="Helvetica,sans-Serif" font-size="10.00">(str: String): VALUE</text>
</g>
<!-- opts::OptionParameter&#45;&gt;opts::Option -->
<g id="edge4" class="edge"><title>opts::OptionParameter&#45;&gt;opts::Option</title>
<path fill="none" stroke="black" stroke-width="0.5" d="M542.452,-140.048C526.455,-146.109 508.207,-153.023 489.387,-160.154"/>
<polygon fill="none" stroke="black" stroke-width="0.5" points="488.646,-158.563 484.591,-161.971 489.887,-161.836 488.646,-158.563"/>
</g>
<!-- opts::OptionString -->
<g id="node6" class="node"><title>opts::OptionString</title>
<polygon fill="white" stroke="none" points="152.5,-54.5 -0.5,-54.5 -0.5,-19.5 152.5,-19.5 152.5,-54.5"/>
<polygon fill="none" stroke="forestgreen" points="0,-36 0,-54 153,-54 153,-36 0,-36"/>
<text text-anchor="start" x="46" y="-43.5" font-family="Helvetica,sans-Serif" font-weight="bold" font-size="10.00">OptionString</text>
<polygon fill="none" stroke="forestgreen" points="0,-19 0,-36 153,-36 153,-19 0,-19"/>
<text text-anchor="start" x="3" y="-26" font-family="Helvetica,sans-Serif" font-size="10.00" fill="forestgreen">+</text>
<text text-anchor="start" x="10" y="-26" font-family="Helvetica,sans-Serif" font-size="10.00"> init(help: String, names: String)</text>
</g>
<!-- opts::OptionString&#45;&gt;opts::OptionParameter -->
<g id="edge5" class="edge"><title>opts::OptionString&#45;&gt;opts::OptionParameter</title>
<path fill="none" stroke="black" stroke-width="0.5" d="M108.613,-54.5044C124.593,-61.8022 144.366,-69.692 163,-74 316.586,-109.508 361.323,-71.217 517,-96 519.179,-96.3469 521.384,-96.7265 523.606,-97.1338"/>
<polygon fill="none" stroke="black" stroke-width="0.5" points="523.572,-98.9091 528.812,-98.1319 524.231,-95.4717 523.572,-98.9091"/>
</g>
<!-- opts::OptionEnum -->
<g id="node7" class="node"><title>opts::OptionEnum</title>
<polygon fill="white" stroke="none" points="474,-59 174,-59 174,-15 474,-15 474,-59"/>
<polygon fill="none" stroke="forestgreen" points="174,-41 174,-59 474,-59 474,-41 174,-41"/>
<text text-anchor="start" x="294" y="-48.5" font-family="Helvetica,sans-Serif" font-weight="bold" font-size="10.00">OptionEnum</text>
<polygon fill="none" stroke="forestgreen" points="174,-15 174,-41 474,-41 474,-15 174,-15"/>
<text text-anchor="start" x="177" y="-31" font-family="Helvetica,sans-Serif" font-size="10.00" fill="forestgreen">+</text>
<text text-anchor="start" x="184" y="-31" font-family="Helvetica,sans-Serif" font-size="10.00"> init(values: Array[String], help: String, default: Int, names: String)</text>
<text text-anchor="start" x="177" y="-21" font-family="Helvetica,sans-Serif" font-size="10.00" fill="forestgreen">+</text>
<text text-anchor="start" x="184" y="-21" font-family="Helvetica,sans-Serif" font-size="10.00"> value_name(): String</text>
</g>
<!-- opts::OptionEnum&#45;&gt;opts::OptionParameter -->
<g id="edge6" class="edge"><title>opts::OptionEnum&#45;&gt;opts::OptionParameter</title>
<path fill="none" stroke="black" stroke-width="0.5" d="M397.067,-59.0668C436.211,-70.3528 484.331,-84.2268 523.666,-95.5679"/>
<polygon fill="none" stroke="black" stroke-width="0.5" points="523.62,-97.376 528.909,-97.0797 524.59,-94.013 523.62,-97.376"/>
</g>
<!-- opts::OptionInt -->
<g id="node8" class="node"><title>opts::OptionInt</title>
<polygon fill="white" stroke="none" points="700.5,-54.5 495.5,-54.5 495.5,-19.5 700.5,-19.5 700.5,-54.5"/>
<polygon fill="none" stroke="forestgreen" points="496,-36 496,-54 701,-54 701,-36 496,-36"/>
<text text-anchor="start" x="576.5" y="-43.5" font-family="Helvetica,sans-Serif" font-weight="bold" font-size="10.00">OptionInt</text>
<polygon fill="none" stroke="forestgreen" points="496,-19 496,-36 701,-36 701,-19 496,-19"/>
<text text-anchor="start" x="499" y="-26" font-family="Helvetica,sans-Serif" font-size="10.00" fill="forestgreen">+</text>
<text text-anchor="start" x="506" y="-26" font-family="Helvetica,sans-Serif" font-size="10.00"> init(help: String, default: Int, names: String)</text>
</g>
<!-- opts::OptionInt&#45;&gt;opts::OptionParameter -->
<g id="edge7" class="edge"><title>opts::OptionInt&#45;&gt;opts::OptionParameter</title>
<path fill="none" stroke="black" stroke-width="0.5" d="M598,-54.7539C598,-65.123 598,-78.6645 598,-90.4681"/>
<polygon fill="none" stroke="black" stroke-width="0.5" points="596.25,-90.7515 598,-95.7515 599.75,-90.7516 596.25,-90.7515"/>
</g>
<!-- opts::OptionFloat -->
<g id="node9" class="node"><title>opts::OptionFloat</title>
<polygon fill="white" stroke="none" points="939,-54.5 723,-54.5 723,-19.5 939,-19.5 939,-54.5"/>
<polygon fill="none" stroke="forestgreen" points="723,-36 723,-54 939,-54 939,-36 723,-36"/>
<text text-anchor="start" x="803.5" y="-43.5" font-family="Helvetica,sans-Serif" font-weight="bold" font-size="10.00">OptionFloat</text>
<polygon fill="none" stroke="forestgreen" points="723,-19 723,-36 939,-36 939,-19 723,-19"/>
<text text-anchor="start" x="726" y="-26" font-family="Helvetica,sans-Serif" font-size="10.00" fill="forestgreen">+</text>
<text text-anchor="start" x="733" y="-26" font-family="Helvetica,sans-Serif" font-size="10.00"> init(help: String, default: Float, names: String)</text>
</g>
<!-- opts::OptionFloat&#45;&gt;opts::OptionParameter -->
<g id="edge8" class="edge"><title>opts::OptionFloat&#45;&gt;opts::OptionParameter</title>
<path fill="none" stroke="black" stroke-width="0.5" d="M782.156,-54.561C748.185,-66.079 702.469,-81.5792 665.086,-94.2542"/>
<polygon fill="none" stroke="black" stroke-width="0.5" points="664.276,-92.6809 660.103,-95.9438 665.4,-95.9955 664.276,-92.6809"/>
</g>
<!-- opts::OptionArray -->
<g id="node10" class="node"><title>opts::OptionArray</title>
<polygon fill="white" stroke="none" points="1114.5,-54.5 961.5,-54.5 961.5,-19.5 1114.5,-19.5 1114.5,-54.5"/>
<polygon fill="none" stroke="forestgreen" points="962,-36 962,-54 1115,-54 1115,-36 962,-36"/>
<text text-anchor="start" x="1009.5" y="-43.5" font-family="Helvetica,sans-Serif" font-weight="bold" font-size="10.00">OptionArray</text>
<polygon fill="none" stroke="forestgreen" points="962,-19 962,-36 1115,-36 1115,-19 962,-19"/>
<text text-anchor="start" x="965" y="-26" font-family="Helvetica,sans-Serif" font-size="10.00" fill="forestgreen">+</text>
<text text-anchor="start" x="972" y="-26" font-family="Helvetica,sans-Serif" font-size="10.00"> init(help: String, names: String)</text>
</g>
<!-- opts::OptionArray&#45;&gt;opts::OptionParameter -->
<g id="edge9" class="edge"><title>opts::OptionArray&#45;&gt;opts::OptionParameter</title>
<path fill="none" stroke="black" stroke-width="0.5" d="M1003.62,-54.561C987.652,-61.5965 968.209,-69.2545 950,-74 856.041,-98.4866 744.253,-109.123 672.265,-113.68"/>
<polygon fill="none" stroke="black" stroke-width="0.5" points="672.034,-111.941 667.152,-113.998 672.251,-115.434 672.034,-111.941"/>
</g>
<!-- opts::OptionContext -->
<g id="node11" class="node"><title>opts::OptionContext</title>
<polygon fill="white" stroke="none" points="1319.5,-74 1136.5,-74 1136.5,-0 1319.5,-0 1319.5,-74"/>
<polygon fill="none" stroke="forestgreen" points="1137,-56 1137,-74 1320,-74 1320,-56 1137,-56"/>
<text text-anchor="start" x="1194.5" y="-63.5" font-family="Helvetica,sans-Serif" font-weight="bold" font-size="10.00">OptionContext</text>
<polygon fill="none" stroke="forestgreen" points="1137,-0 1137,-56 1320,-56 1320,-0 1137,-0"/>
<text text-anchor="start" x="1140" y="-46" font-family="Helvetica,sans-Serif" font-size="10.00" fill="forestgreen">+</text>
<text text-anchor="start" x="1147" y="-46" font-family="Helvetica,sans-Serif" font-size="10.00"> add_option(opts: Option)</text>
<text text-anchor="start" x="1140" y="-36" font-family="Helvetica,sans-Serif" font-size="10.00" fill="forestgreen">+</text>
<text text-anchor="start" x="1147" y="-36" font-family="Helvetica,sans-Serif" font-size="10.00"> errors(): Array[String]</text>
<text text-anchor="start" x="1140" y="-26" font-family="Helvetica,sans-Serif" font-size="10.00" fill="forestgreen">+</text>
<text text-anchor="start" x="1147" y="-26" font-family="Helvetica,sans-Serif" font-size="10.00"> parse(argv: nullable Collection[String])</text>
<text text-anchor="start" x="1140" y="-16" font-family="Helvetica,sans-Serif" font-size="10.00" fill="orange">#</text>
<text text-anchor="start" x="1146" y="-16" font-family="Helvetica,sans-Serif" font-size="10.00"> parse_intern(it: Iterator[String])</text>
<text text-anchor="start" x="1140" y="-6" font-family="Helvetica,sans-Serif" font-size="10.00" fill="forestgreen">+</text>
<text text-anchor="start" x="1147" y="-6" font-family="Helvetica,sans-Serif" font-size="10.00"> usage()</text>
</g>
</g>
</svg>
