<?xml version="1.0" encoding="UTF-8" standalone="no"?>
<!DOCTYPE svg PUBLIC "-//W3C//DTD SVG 1.1//EN"
 "http://www.w3.org/Graphics/SVG/1.1/DTD/svg11.dtd">
<!-- Generated by graphviz version 2.36.0 (20140111.2315)
 -->
<!-- Title: G Pages: 1 -->
<svg width="298pt" height="950pt"
 viewBox="0.00 0.00 298.00 950.00" xmlns="http://www.w3.org/2000/svg" xmlns:xlink="http://www.w3.org/1999/xlink">
<g id="graph0" class="graph" transform="scale(1 1) rotate(0) translate(4 946)">
<title>G</title>
<polygon fill="white" stroke="none" points="-4,4 -4,-946 294,-946 294,4 -4,4"/>
<!-- actors::actors_simple -->
<g id="node1" class="node"><title>actors::actors_simple</title>
<polygon fill="#fffaf3" stroke="black" points="129.5,-314 62.5,-314 62.5,-234 135.5,-234 135.5,-308 129.5,-314"/>
<polyline fill="none" stroke="black" points="129.5,-314 129.5,-308 "/>
<polyline fill="none" stroke="black" points="135.5,-308 129.5,-308 "/>
<text text-anchor="start" x="65" y="-304.5" font-family="Helvetica,sans-Serif" font-weight="bold" font-size="10.00">actors_simple</text>
<text text-anchor="start" x="65" y="-289" font-family="Helvetica,sans-Serif" font-size="10.00" fill="forestgreen">+</text>
<text text-anchor="start" x="72" y="-289" font-family="Helvetica,sans-Serif" font-size="10.00">A</text>
<text text-anchor="start" x="65" y="-279" font-family="Helvetica,sans-Serif" font-size="10.00" fill="forestgreen">+</text>
<text text-anchor="start" x="72" y="-279" font-family="Helvetica,sans-Serif" font-size="10.00">AMessagebar</text>
<text text-anchor="start" x="65" y="-269" font-family="Helvetica,sans-Serif" font-size="10.00" fill="forestgreen">+</text>
<text text-anchor="start" x="72" y="-269" font-family="Helvetica,sans-Serif" font-size="10.00">AMessagefoo</text>
<text text-anchor="start" x="65" y="-259" font-family="Helvetica,sans-Serif" font-size="10.00" fill="forestgreen">+</text>
<text text-anchor="start" x="72" y="-259" font-family="Helvetica,sans-Serif" font-size="10.00">ActorA</text>
<text text-anchor="start" x="65" y="-249" font-family="Helvetica,sans-Serif" font-size="10.00" fill="forestgreen">+</text>
<text text-anchor="start" x="72" y="-249" font-family="Helvetica,sans-Serif" font-size="10.00">MessageA</text>
<text text-anchor="start" x="65" y="-239" font-family="Helvetica,sans-Serif" font-size="10.00" fill="forestgreen">+</text>
<text text-anchor="start" x="72" y="-239" font-family="Helvetica,sans-Serif" font-size="10.00">ProxyA</text>
</g>
<!-- actors::actors_mandelbrot -->
<g id="node2" class="node"><title>actors::actors_mandelbrot</title>
<polygon fill="#fffaf3" stroke="black" points="153.5,-426 38.5,-426 38.5,-336 159.5,-336 159.5,-420 153.5,-426"/>
<polyline fill="none" stroke="black" points="153.5,-426 153.5,-420 "/>
<polyline fill="none" stroke="black" points="159.5,-420 153.5,-420 "/>
<text text-anchor="start" x="41" y="-416.5" font-family="Helvetica,sans-Serif" font-weight="bold" font-size="10.00">actors_mandelbrot</text>
<text text-anchor="start" x="41" y="-401" font-family="Helvetica,sans-Serif" font-size="10.00" fill="forestgreen">+</text>
<text text-anchor="start" x="48" y="-401" font-family="Helvetica,sans-Serif" font-size="10.00">ActorWorker</text>
<text text-anchor="start" x="41" y="-391" font-family="Helvetica,sans-Serif" font-size="10.00" fill="forestgreen">+</text>
<text text-anchor="start" x="48" y="-391" font-family="Helvetica,sans-Serif" font-size="10.00">MessageWorker</text>
<text text-anchor="start" x="41" y="-381" font-family="Helvetica,sans-Serif" font-size="10.00" fill="forestgreen">+</text>
<text text-anchor="start" x="48" y="-381" font-family="Helvetica,sans-Serif" font-size="10.00">ProxyWorker</text>
<text text-anchor="start" x="41" y="-371" font-family="Helvetica,sans-Serif" font-size="10.00" fill="forestgreen">+</text>
<text text-anchor="start" x="48" y="-371" font-family="Helvetica,sans-Serif" font-size="10.00">Worker</text>
<text text-anchor="start" x="41" y="-361" font-family="Helvetica,sans-Serif" font-size="10.00" fill="forestgreen">+</text>
<text text-anchor="start" x="48" y="-361" font-family="Helvetica,sans-Serif" font-size="10.00">WorkerMessageget_byte</text>
<text text-anchor="start" x="41" y="-351" font-family="Helvetica,sans-Serif" font-size="10.00" fill="forestgreen">+</text>
<text text-anchor="start" x="48" y="-351" font-family="Helvetica,sans-Serif" font-size="10.00">WorkerMessageput_line</text>
<text text-anchor="start" x="41" y="-341" font-family="Helvetica,sans-Serif" font-size="10.00" fill="forestgreen">+</text>
<text text-anchor="start" x="48" y="-341" font-family="Helvetica,sans-Serif" font-size="10.00">WorkerMessagework</text>
</g>
<!-- actors::actors_simple&#45;&gt;actors::actors_mandelbrot -->
<g id="edge1" class="edge"><title>actors::actors_simple&#45;&gt;actors::actors_mandelbrot</title>
<path fill="none" stroke="black" stroke-width="0.5" stroke-dasharray="5,2" d="M99,-314.098C99,-319.544 99,-325.197 99,-330.799"/>
<polygon fill="black" stroke="black" stroke-width="0.5" points="99,-335.922 96.7501,-330.922 99,-333.422 99.0001,-330.922 99.0001,-330.922 99.0001,-330.922 99,-333.422 101.25,-330.922 99,-335.922 99,-335.922"/>
</g>
<!-- actors::actors_fannkuchredux -->
<g id="node7" class="node"><title>actors::actors_fannkuchredux</title>
<polygon fill="#fffaf3" stroke="black" points="192.5,-598 -0.5,-598 -0.5,-448 198.5,-448 198.5,-592 192.5,-598"/>
<polyline fill="none" stroke="black" points="192.5,-598 192.5,-592 "/>
<polyline fill="none" stroke="black" points="198.5,-592 192.5,-592 "/>
<text text-anchor="start" x="2" y="-588.5" font-family="Helvetica,sans-Serif" font-weight="bold" font-size="10.00">actors_fannkuchredux</text>
<text text-anchor="start" x="2" y="-573" font-family="Helvetica,sans-Serif" font-size="10.00" fill="forestgreen">+</text>
<text text-anchor="start" x="9" y="-573" font-family="Helvetica,sans-Serif" font-size="10.00">ActorFannkuchRedux</text>
<text text-anchor="start" x="2" y="-563" font-family="Helvetica,sans-Serif" font-size="10.00" fill="forestgreen">+</text>
<text text-anchor="start" x="9" y="-563" font-family="Helvetica,sans-Serif" font-size="10.00">FannkuchRedux</text>
<text text-anchor="start" x="2" y="-553" font-family="Helvetica,sans-Serif" font-size="10.00" fill="forestgreen">+</text>
<text text-anchor="start" x="9" y="-553" font-family="Helvetica,sans-Serif" font-size="10.00">FannkuchReduxMessagecount</text>
<text text-anchor="start" x="2" y="-543" font-family="Helvetica,sans-Serif" font-size="10.00" fill="forestgreen">+</text>
<text text-anchor="start" x="9" y="-543" font-family="Helvetica,sans-Serif" font-size="10.00">FannkuchReduxMessagecount_flips</text>
<text text-anchor="start" x="2" y="-533" font-family="Helvetica,sans-Serif" font-size="10.00" fill="forestgreen">+</text>
<text text-anchor="start" x="9" y="-533" font-family="Helvetica,sans-Serif" font-size="10.00">FannkuchReduxMessagefirst_permutation</text>
<text text-anchor="start" x="2" y="-523" font-family="Helvetica,sans-Serif" font-size="10.00" fill="forestgreen">+</text>
<text text-anchor="start" x="9" y="-523" font-family="Helvetica,sans-Serif" font-size="10.00">FannkuchReduxMessagenext_permutation</text>
<text text-anchor="start" x="2" y="-513" font-family="Helvetica,sans-Serif" font-size="10.00" fill="forestgreen">+</text>
<text text-anchor="start" x="9" y="-513" font-family="Helvetica,sans-Serif" font-size="10.00">FannkuchReduxMessagep</text>
<text text-anchor="start" x="2" y="-503" font-family="Helvetica,sans-Serif" font-size="10.00" fill="forestgreen">+</text>
<text text-anchor="start" x="9" y="-503" font-family="Helvetica,sans-Serif" font-size="10.00">FannkuchReduxMessagepp</text>
<text text-anchor="start" x="2" y="-493" font-family="Helvetica,sans-Serif" font-size="10.00" fill="forestgreen">+</text>
<text text-anchor="start" x="9" y="-493" font-family="Helvetica,sans-Serif" font-size="10.00">FannkuchReduxMessageprint_p</text>
<text text-anchor="start" x="2" y="-483" font-family="Helvetica,sans-Serif" font-size="10.00" fill="forestgreen">+</text>
<text text-anchor="start" x="9" y="-483" font-family="Helvetica,sans-Serif" font-size="10.00">FannkuchReduxMessagerun</text>
<text text-anchor="start" x="2" y="-473" font-family="Helvetica,sans-Serif" font-size="10.00" fill="forestgreen">+</text>
<text text-anchor="start" x="9" y="-473" font-family="Helvetica,sans-Serif" font-size="10.00">FannkuchReduxMessagerun_task</text>
<text text-anchor="start" x="2" y="-463" font-family="Helvetica,sans-Serif" font-size="10.00" fill="forestgreen">+</text>
<text text-anchor="start" x="9" y="-463" font-family="Helvetica,sans-Serif" font-size="10.00">MessageFannkuchRedux</text>
<text text-anchor="start" x="2" y="-453" font-family="Helvetica,sans-Serif" font-size="10.00" fill="forestgreen">+</text>
<text text-anchor="start" x="9" y="-453" font-family="Helvetica,sans-Serif" font-size="10.00">ProxyFannkuchRedux</text>
</g>
<!-- actors::actors_mandelbrot&#45;&gt;actors::actors_fannkuchredux -->
<g id="edge2" class="edge"><title>actors::actors_mandelbrot&#45;&gt;actors::actors_fannkuchredux</title>
<path fill="none" stroke="black" stroke-width="0.5" stroke-dasharray="5,2" d="M99,-426.297C99,-431.572 99,-437.072 99,-442.654"/>
<polygon fill="black" stroke="black" stroke-width="0.5" points="99,-447.798 96.7501,-442.798 99,-445.298 99.0001,-442.798 99.0001,-442.798 99.0001,-442.798 99,-445.298 101.25,-442.798 99,-447.798 99,-447.798"/>
</g>
<!-- actors::actors_thread_ring -->
<g id="node3" class="node"><title>actors::actors_thread_ring</title>
<polygon fill="#fffaf3" stroke="black" points="169.5,-212 22.5,-212 22.5,-122 175.5,-122 175.5,-206 169.5,-212"/>
<polyline fill="none" stroke="black" points="169.5,-212 169.5,-206 "/>
<polyline fill="none" stroke="black" points="175.5,-206 169.5,-206 "/>
<text text-anchor="start" x="25" y="-202.5" font-family="Helvetica,sans-Serif" font-weight="bold" font-size="10.00">actors_thread_ring</text>
<text text-anchor="start" x="25" y="-187" font-family="Helvetica,sans-Serif" font-size="10.00" fill="forestgreen">+</text>
<text text-anchor="start" x="32" y="-187" font-family="Helvetica,sans-Serif" font-size="10.00">ActorThreadRing</text>
<text text-anchor="start" x="25" y="-177" font-family="Helvetica,sans-Serif" font-size="10.00" fill="forestgreen">+</text>
<text text-anchor="start" x="32" y="-177" font-family="Helvetica,sans-Serif" font-size="10.00">MessageThreadRing</text>
<text text-anchor="start" x="25" y="-167" font-family="Helvetica,sans-Serif" font-size="10.00" fill="forestgreen">+</text>
<text text-anchor="start" x="32" y="-167" font-family="Helvetica,sans-Serif" font-size="10.00">ProxyThreadRing</text>
<text text-anchor="start" x="25" y="-157" font-family="Helvetica,sans-Serif" font-size="10.00" fill="forestgreen">+</text>
<text text-anchor="start" x="32" y="-157" font-family="Helvetica,sans-Serif" font-size="10.00">ThreadRing</text>
<text text-anchor="start" x="25" y="-147" font-family="Helvetica,sans-Serif" font-size="10.00" fill="forestgreen">+</text>
<text text-anchor="start" x="32" y="-147" font-family="Helvetica,sans-Serif" font-size="10.00">ThreadRingMessageid</text>
<text text-anchor="start" x="25" y="-137" font-family="Helvetica,sans-Serif" font-size="10.00" fill="forestgreen">+</text>
<text text-anchor="start" x="32" y="-137" font-family="Helvetica,sans-Serif" font-size="10.00">ThreadRingMessagenext</text>
<text text-anchor="start" x="25" y="-127" font-family="Helvetica,sans-Serif" font-size="10.00" fill="forestgreen">+</text>
<text text-anchor="start" x="32" y="-127" font-family="Helvetica,sans-Serif" font-size="10.00">ThreadRingMessagesend_token</text>
</g>
<!-- actors::actors_thread_ring&#45;&gt;actors::actors_simple -->
<g id="edge3" class="edge"><title>actors::actors_thread_ring&#45;&gt;actors::actors_simple</title>
<path fill="none" stroke="black" stroke-width="0.5" stroke-dasharray="5,2" d="M99,-212.225C99,-217.718 99,-223.334 99,-228.826"/>
<polygon fill="black" stroke="black" stroke-width="0.5" points="99,-233.827 96.7501,-228.827 99,-231.327 99.0001,-228.827 99.0001,-228.827 99.0001,-228.827 99,-231.327 101.25,-228.827 99,-233.827 99,-233.827"/>
</g>
<!-- actors::actors_simple_simulation -->
<g id="node4" class="node"><title>actors::actors_simple_simulation</title>
<polygon fill="#fffaf3" stroke="black" points="156,-85 36,-85 36,-15 162,-15 162,-79 156,-85"/>
<polyline fill="none" stroke="black" points="156,-85 156,-79 "/>
<polyline fill="none" stroke="black" points="162,-79 156,-79 "/>
<text text-anchor="start" x="38" y="-75.5" font-family="Helvetica,sans-Serif" font-weight="bold" font-size="10.00">actors_simple_simulation</text>
<text text-anchor="start" x="38" y="-60" font-family="Helvetica,sans-Serif" font-size="10.00" fill="forestgreen">+</text>
<text text-anchor="start" x="45" y="-60" font-family="Helvetica,sans-Serif" font-size="10.00">AgentMessagecount</text>
<text text-anchor="start" x="38" y="-50" font-family="Helvetica,sans-Serif" font-size="10.00" fill="forestgreen">+</text>
<text text-anchor="start" x="45" y="-50" font-family="Helvetica,sans-Serif" font-size="10.00">AgentMessagegreet</text>
<text text-anchor="start" x="38" y="-40" font-family="Helvetica,sans-Serif" font-size="10.00" fill="forestgreen">+</text>
<text text-anchor="start" x="45" y="-40" font-family="Helvetica,sans-Serif" font-size="10.00">AgentMessagegreet_back</text>
<text text-anchor="start" x="38" y="-30" font-family="Helvetica,sans-Serif" font-size="10.00" fill="forestgreen">+</text>
<text text-anchor="start" x="45" y="-30" font-family="Helvetica,sans-Serif" font-size="10.00">AgentMessageothers</text>
<text text-anchor="start" x="38" y="-20" font-family="Helvetica,sans-Serif" font-size="10.00" fill="forestgreen">+</text>
<text text-anchor="start" x="45" y="-20" font-family="Helvetica,sans-Serif" font-size="10.00">ProxyAgent</text>
</g>
<!-- actors::actors_simple_simulation&#45;&gt;actors::actors_thread_ring -->
<g id="edge4" class="edge"><title>actors::actors_simple_simulation&#45;&gt;actors::actors_thread_ring</title>
<path fill="none" stroke="black" stroke-width="0.5" stroke-dasharray="5,2" d="M99,-85.1924C99,-95.0927 99,-106.103 99,-116.73"/>
<polygon fill="black" stroke="black" stroke-width="0.5" points="99,-121.909 96.7501,-116.909 99,-119.409 99.0001,-116.909 99.0001,-116.909 99.0001,-116.909 99,-119.409 101.25,-116.909 99,-121.909 99,-121.909"/>
</g>
<!-- actors::actors_agent_simulation -->
<g id="node5" class="node"><title>actors::actors_agent_simulation</title>
<polygon fill="#fffaf3" stroke="black" points="173.5,-942 18.5,-942 18.5,-772 179.5,-772 179.5,-936 173.5,-942"/>
<polyline fill="none" stroke="black" points="173.5,-942 173.5,-936 "/>
<polyline fill="none" stroke="black" points="179.5,-936 173.5,-936 "/>
<text text-anchor="start" x="21" y="-932.5" font-family="Helvetica,sans-Serif" font-weight="bold" font-size="10.00">actors_agent_simulation</text>
<text text-anchor="start" x="21" y="-917" font-family="Helvetica,sans-Serif" font-size="10.00" fill="forestgreen">+</text>
<text text-anchor="start" x="28" y="-917" font-family="Helvetica,sans-Serif" font-size="10.00">ActorAgent</text>
<text text-anchor="start" x="21" y="-907" font-family="Helvetica,sans-Serif" font-size="10.00" fill="forestgreen">+</text>
<text text-anchor="start" x="28" y="-907" font-family="Helvetica,sans-Serif" font-size="10.00">ActorClockAgent</text>
<text text-anchor="start" x="21" y="-897" font-family="Helvetica,sans-Serif" font-size="10.00" fill="forestgreen">+</text>
<text text-anchor="start" x="28" y="-897" font-family="Helvetica,sans-Serif" font-size="10.00">Agent</text>
<text text-anchor="start" x="21" y="-887" font-family="Helvetica,sans-Serif" font-size="10.00" fill="forestgreen">+</text>
<text text-anchor="start" x="28" y="-887" font-family="Helvetica,sans-Serif" font-size="10.00">AgentMessagedo_step</text>
<text text-anchor="start" x="21" y="-877" font-family="Helvetica,sans-Serif" font-size="10.00" fill="forestgreen">+</text>
<text text-anchor="start" x="28" y="-877" font-family="Helvetica,sans-Serif" font-size="10.00">AgentMessageend_step</text>
<text text-anchor="start" x="21" y="-867" font-family="Helvetica,sans-Serif" font-size="10.00" fill="forestgreen">+</text>
<text text-anchor="start" x="28" y="-867" font-family="Helvetica,sans-Serif" font-size="10.00">ClockAgent</text>
<text text-anchor="start" x="21" y="-857" font-family="Helvetica,sans-Serif" font-size="10.00" fill="forestgreen">+</text>
<text text-anchor="start" x="28" y="-857" font-family="Helvetica,sans-Serif" font-size="10.00">ClockAgentMessageagents</text>
<text text-anchor="start" x="21" y="-847" font-family="Helvetica,sans-Serif" font-size="10.00" fill="forestgreen">+</text>
<text text-anchor="start" x="28" y="-847" font-family="Helvetica,sans-Serif" font-size="10.00">ClockAgentMessagedo_step</text>
<text text-anchor="start" x="21" y="-837" font-family="Helvetica,sans-Serif" font-size="10.00" fill="forestgreen">+</text>
<text text-anchor="start" x="28" y="-837" font-family="Helvetica,sans-Serif" font-size="10.00">ClockAgentMessagefinished_step</text>
<text text-anchor="start" x="21" y="-827" font-family="Helvetica,sans-Serif" font-size="10.00" fill="forestgreen">+</text>
<text text-anchor="start" x="28" y="-827" font-family="Helvetica,sans-Serif" font-size="10.00">ClockAgentMessagenb_finished</text>
<text text-anchor="start" x="21" y="-817" font-family="Helvetica,sans-Serif" font-size="10.00" fill="forestgreen">+</text>
<text text-anchor="start" x="28" y="-817" font-family="Helvetica,sans-Serif" font-size="10.00">ClockAgentMessagenb_steps</text>
<text text-anchor="start" x="21" y="-807" font-family="Helvetica,sans-Serif" font-size="10.00" fill="forestgreen">+</text>
<text text-anchor="start" x="28" y="-807" font-family="Helvetica,sans-Serif" font-size="10.00">MessageAgent</text>
<text text-anchor="start" x="21" y="-797" font-family="Helvetica,sans-Serif" font-size="10.00" fill="forestgreen">+</text>
<text text-anchor="start" x="28" y="-797" font-family="Helvetica,sans-Serif" font-size="10.00">MessageClockAgent</text>
<text text-anchor="start" x="21" y="-787" font-family="Helvetica,sans-Serif" font-size="10.00" fill="forestgreen">+</text>
<text text-anchor="start" x="28" y="-787" font-family="Helvetica,sans-Serif" font-size="10.00">ProxyAgent</text>
<text text-anchor="start" x="21" y="-777" font-family="Helvetica,sans-Serif" font-size="10.00" fill="forestgreen">+</text>
<text text-anchor="start" x="28" y="-777" font-family="Helvetica,sans-Serif" font-size="10.00">ProxyClockAgent</text>
</g>
<!-- actors::actors_chameneosredux -->
<g id="node6" class="node"><title>actors::actors_chameneosredux</title>
<polygon fill="#fffaf3" stroke="black" points="162,-750 30,-750 30,-620 168,-620 168,-744 162,-750"/>
<polyline fill="none" stroke="black" points="162,-750 162,-744 "/>
<polyline fill="none" stroke="black" points="168,-744 162,-744 "/>
<text text-anchor="start" x="32" y="-740.5" font-family="Helvetica,sans-Serif" font-weight="bold" font-size="10.00">actors_chameneosredux</text>
<text text-anchor="start" x="32" y="-725" font-family="Helvetica,sans-Serif" font-size="10.00" fill="forestgreen">+</text>
<text text-anchor="start" x="39" y="-725" font-family="Helvetica,sans-Serif" font-size="10.00">ActorCreature</text>
<text text-anchor="start" x="32" y="-715" font-family="Helvetica,sans-Serif" font-size="10.00" fill="forestgreen">+</text>
<text text-anchor="start" x="39" y="-715" font-family="Helvetica,sans-Serif" font-size="10.00">Creature</text>
<text text-anchor="start" x="32" y="-705" font-family="Helvetica,sans-Serif" font-size="10.00" fill="forestgreen">+</text>
<text text-anchor="start" x="39" y="-705" font-family="Helvetica,sans-Serif" font-size="10.00">CreatureMessagecolor</text>
<text text-anchor="start" x="32" y="-695" font-family="Helvetica,sans-Serif" font-size="10.00" fill="forestgreen">+</text>
<text text-anchor="start" x="39" y="-695" font-family="Helvetica,sans-Serif" font-size="10.00">CreatureMessagecount</text>
<text text-anchor="start" x="32" y="-685" font-family="Helvetica,sans-Serif" font-size="10.00" fill="forestgreen">+</text>
<text text-anchor="start" x="39" y="-685" font-family="Helvetica,sans-Serif" font-size="10.00">CreatureMessageid</text>
<text text-anchor="start" x="32" y="-675" font-family="Helvetica,sans-Serif" font-size="10.00" fill="forestgreen">+</text>
<text text-anchor="start" x="39" y="-675" font-family="Helvetica,sans-Serif" font-size="10.00">CreatureMessageplace</text>
<text text-anchor="start" x="32" y="-665" font-family="Helvetica,sans-Serif" font-size="10.00" fill="forestgreen">+</text>
<text text-anchor="start" x="39" y="-665" font-family="Helvetica,sans-Serif" font-size="10.00">CreatureMessagerun</text>
<text text-anchor="start" x="32" y="-655" font-family="Helvetica,sans-Serif" font-size="10.00" fill="forestgreen">+</text>
<text text-anchor="start" x="39" y="-655" font-family="Helvetica,sans-Serif" font-size="10.00">CreatureMessagesamecount</text>
<text text-anchor="start" x="32" y="-645" font-family="Helvetica,sans-Serif" font-size="10.00" fill="forestgreen">+</text>
<text text-anchor="start" x="39" y="-645" font-family="Helvetica,sans-Serif" font-size="10.00">CreatureMessageto_string</text>
<text text-anchor="start" x="32" y="-635" font-family="Helvetica,sans-Serif" font-size="10.00" fill="forestgreen">+</text>
<text text-anchor="start" x="39" y="-635" font-family="Helvetica,sans-Serif" font-size="10.00">MessageCreature</text>
<text text-anchor="start" x="32" y="-625" font-family="Helvetica,sans-Serif" font-size="10.00" fill="forestgreen">+</text>
<text text-anchor="start" x="39" y="-625" font-family="Helvetica,sans-Serif" font-size="10.00">ProxyCreature</text>
</g>
<!-- actors::actors_chameneosredux&#45;&gt;actors::actors_agent_simulation -->
<g id="edge5" class="edge"><title>actors::actors_chameneosredux&#45;&gt;actors::actors_agent_simulation</title>
<path fill="none" stroke="black" stroke-width="0.5" stroke-dasharray="5,2" d="M99,-750.27C99,-755.669 99,-761.187 99,-766.729"/>
<polygon fill="black" stroke="black" stroke-width="0.5" points="99,-771.823 96.7501,-766.823 99,-769.323 99.0001,-766.823 99.0001,-766.823 99.0001,-766.823 99,-769.323 101.25,-766.823 99,-771.823 99,-771.823"/>
</g>
<!-- actors::actors_fannkuchredux&#45;&gt;actors::actors_chameneosredux -->
<g id="edge6" class="edge"><title>actors::actors_fannkuchredux&#45;&gt;actors::actors_chameneosredux</title>
<path fill="none" stroke="black" stroke-width="0.5" stroke-dasharray="5,2" d="M99,-598.379C99,-603.765 99,-609.185 99,-614.542"/>
<polygon fill="black" stroke="black" stroke-width="0.5" points="99,-619.873 96.7501,-614.873 99,-617.373 99.0001,-614.873 99.0001,-614.873 99.0001,-614.873 99,-617.373 101.25,-614.873 99,-619.873 99,-619.873"/>
</g>
<!-- actors::actors -->
<g id="node8" class="node"><title>actors::actors</title>
<polygon fill="#fffaf3" stroke="black" points="284,-100 184,-100 184,-0 290,-0 290,-94 284,-100"/>
<polyline fill="none" stroke="black" points="284,-100 284,-94 "/>
<polyline fill="none" stroke="black" points="290,-94 284,-94 "/>
<text text-anchor="start" x="186" y="-90.5" font-family="Helvetica,sans-Serif" font-weight="bold" font-size="10.00">actors</text>
<text text-anchor="start" x="186" y="-75" font-family="Helvetica,sans-Serif" font-size="10.00" fill="forestgreen">+</text>
<text text-anchor="start" x="193" y="-75" font-family="Helvetica,sans-Serif" font-size="10.00">Actor</text>
<text text-anchor="start" x="186" y="-65" font-family="Helvetica,sans-Serif" font-size="10.00" fill="forestgreen">+</text>
<text text-anchor="start" x="193" y="-65" font-family="Helvetica,sans-Serif" font-size="10.00">Future</text>
<text text-anchor="start" x="186" y="-55" font-family="Helvetica,sans-Serif" font-size="10.00" fill="forestgreen">+</text>
<text text-anchor="start" x="193" y="-55" font-family="Helvetica,sans-Serif" font-size="10.00">Mailbox</text>
<text text-anchor="start" x="186" y="-45" font-family="Helvetica,sans-Serif" font-size="10.00" fill="forestgreen">+</text>
<text text-anchor="start" x="193" y="-45" font-family="Helvetica,sans-Serif" font-size="10.00">Message</text>
<text text-anchor="start" x="186" y="-35" font-family="Helvetica,sans-Serif" font-size="10.00" fill="forestgreen">+</text>
<text text-anchor="start" x="193" y="-35" font-family="Helvetica,sans-Serif" font-size="10.00">Proxy</text>
<text text-anchor="start" x="186" y="-25" font-family="Helvetica,sans-Serif" font-size="10.00" fill="forestgreen">+</text>
<text text-anchor="start" x="193" y="-25" font-family="Helvetica,sans-Serif" font-size="10.00">ShutDownMessage</text>
<text text-anchor="start" x="186" y="-15" font-family="Helvetica,sans-Serif" font-size="10.00" fill="forestgreen">+</text>
<text text-anchor="start" x="193" y="-15" font-family="Helvetica,sans-Serif" font-size="10.00">SynchronizedCounter</text>
<text text-anchor="start" x="186" y="-5" font-family="Helvetica,sans-Serif" font-size="10.00" fill="forestgreen">+</text>
<text text-anchor="start" x="193" y="-5" font-family="Helvetica,sans-Serif" font-size="10.00">Sys</text>
</g>
</g>
</svg>
