<?xml version="1.0" encoding="UTF-8" standalone="no"?>
<!DOCTYPE svg PUBLIC "-//W3C//DTD SVG 1.1//EN"
 "http://www.w3.org/Graphics/SVG/1.1/DTD/svg11.dtd">
<!-- Generated by graphviz version 2.36.0 (20140111.2315)
 -->
<!-- Title: G Pages: 1 -->
<svg width="307pt" height="704pt"
 viewBox="0.00 0.00 307.00 704.00" xmlns="http://www.w3.org/2000/svg" xmlns:xlink="http://www.w3.org/1999/xlink">
<g id="graph0" class="graph" transform="scale(1 1) rotate(0) translate(4 700)">
<title>G</title>
<polygon fill="white" stroke="none" points="-4,4 -4,-700 303,-700 303,4 -4,4"/>
<!-- markdown::nitmd -->
<g id="node1" class="node"><title>markdown::nitmd</title>
<polygon fill="#fffaf3" stroke="black" points="97.3333,-31.5 69.5,-31.5 69.5,-0.5 102.5,-0.5 102.5,-26.3333 97.3333,-31.5"/>
<polyline fill="none" stroke="black" points="97.3333,-31.5 97.3333,-26.3333 "/>
<polyline fill="none" stroke="black" points="102.5,-26.3333 97.3333,-26.3333 "/>
<text text-anchor="start" x="72" y="-21.5" font-family="Helvetica,sans-Serif" font-weight="bold" font-size="10.00">nitmd</text>
<text text-anchor="start" x="72" y="-6" font-family="Helvetica,sans-Serif" font-size="10.00" fill="forestgreen">+</text>
<text text-anchor="start" x="79" y="-6" font-family="Helvetica,sans-Serif" font-size="10.00">Sys</text>
</g>
<!-- markdown::man -->
<g id="node3" class="node"><title>markdown::man</title>
<polygon fill="#fffaf3" stroke="black" points="68.8333,-94.5 0,-94.5 0,-63.5 74,-63.5 74,-89.3333 68.8333,-94.5"/>
<polyline fill="none" stroke="black" points="68.8333,-94.5 68.8333,-89.3333 "/>
<polyline fill="none" stroke="black" points="74,-89.3333 68.8333,-89.3333 "/>
<text text-anchor="start" x="2" y="-84.5" font-family="Helvetica,sans-Serif" font-weight="bold" font-size="10.00">man</text>
<text text-anchor="start" x="2" y="-69" font-family="Helvetica,sans-Serif" font-size="10.00" fill="forestgreen">+</text>
<text text-anchor="start" x="9" y="-69" font-family="Helvetica,sans-Serif" font-size="10.00">ManDecorator</text>
</g>
<!-- markdown::nitmd&#45;&gt;markdown::man -->
<g id="edge1" class="edge"><title>markdown::nitmd&#45;&gt;markdown::man</title>
<path fill="none" stroke="black" stroke-width="0.5" stroke-dasharray="5,2" d="M74.1385,-31.7664C67.5178,-40.0084 59.2016,-50.3613 52.1179,-59.1798"/>
<polygon fill="black" stroke="black" stroke-width="0.5" points="48.7523,-63.3696 50.1294,-58.0624 50.3179,-61.4205 51.8836,-59.4715 51.8836,-59.4715 51.8836,-59.4715 50.3179,-61.4205 53.6378,-60.8805 48.7523,-63.3696 48.7523,-63.3696"/>
</g>
<!-- markdown::decorators -->
<g id="node4" class="node"><title>markdown::decorators</title>
<polygon fill="#fffaf3" stroke="black" points="169.5,-99 96.5,-99 96.5,-59 175.5,-59 175.5,-93 169.5,-99"/>
<polyline fill="none" stroke="black" points="169.5,-99 169.5,-93 "/>
<polyline fill="none" stroke="black" points="175.5,-93 169.5,-93 "/>
<text text-anchor="start" x="99" y="-89.5" font-family="Helvetica,sans-Serif" font-weight="bold" font-size="10.00">decorators</text>
<text text-anchor="start" x="99" y="-74" font-family="Helvetica,sans-Serif" font-size="10.00" fill="forestgreen">+</text>
<text text-anchor="start" x="106" y="-74" font-family="Helvetica,sans-Serif" font-size="10.00">InlineDecorator</text>
<text text-anchor="start" x="99" y="-64" font-family="Helvetica,sans-Serif" font-size="10.00" fill="forestgreen">+</text>
<text text-anchor="start" x="106" y="-64" font-family="Helvetica,sans-Serif" font-size="10.00">MdDecorator</text>
</g>
<!-- markdown::nitmd&#45;&gt;markdown::decorators -->
<g id="edge2" class="edge"><title>markdown::nitmd&#45;&gt;markdown::decorators</title>
<path fill="none" stroke="black" stroke-width="0.5" stroke-dasharray="5,2" d="M98.1036,-31.7664C103.761,-38.6685 110.632,-47.051 116.961,-54.773"/>
<polygon fill="black" stroke="black" stroke-width="0.5" points="120.411,-58.9814 115.501,-56.5408 118.826,-57.048 117.241,-55.1145 117.241,-55.1145 117.241,-55.1145 118.826,-57.048 118.981,-53.6881 120.411,-58.9814 120.411,-58.9814"/>
</g>
<!-- markdown::wikilinks -->
<g id="node2" class="node"><title>markdown::wikilinks</title>
<polygon fill="#fffaf3" stroke="black" points="293,-104 197,-104 197,-54 299,-54 299,-98 293,-104"/>
<polyline fill="none" stroke="black" points="293,-104 293,-98 "/>
<polyline fill="none" stroke="black" points="299,-98 293,-98 "/>
<text text-anchor="start" x="199" y="-94.5" font-family="Helvetica,sans-Serif" font-weight="bold" font-size="10.00">wikilinks</text>
<text text-anchor="start" x="199" y="-79" font-family="Helvetica,sans-Serif" font-size="10.00" fill="forestgreen">+</text>
<text text-anchor="start" x="206" y="-79" font-family="Helvetica,sans-Serif" font-size="10.00">Decorator</text>
<text text-anchor="start" x="199" y="-69" font-family="Helvetica,sans-Serif" font-size="10.00" fill="forestgreen">+</text>
<text text-anchor="start" x="206" y="-69" font-family="Helvetica,sans-Serif" font-size="10.00">MarkdownProcessor</text>
<text text-anchor="start" x="199" y="-59" font-family="Helvetica,sans-Serif" font-size="10.00" fill="forestgreen">+</text>
<text text-anchor="start" x="206" y="-59" font-family="Helvetica,sans-Serif" font-size="10.00">TokenWikiLink</text>
</g>
<!-- markdown::markdown -->
<g id="node5" class="node"><title>markdown::markdown</title>
<polygon fill="#fffaf3" stroke="black" points="189,-696 77,-696 77,-126 195,-126 195,-690 189,-696"/>
<polyline fill="none" stroke="black" points="189,-696 189,-690 "/>
<polyline fill="none" stroke="black" points="195,-690 189,-690 "/>
<text text-anchor="start" x="79" y="-686.5" font-family="Helvetica,sans-Serif" font-weight="bold" font-size="10.00">markdown</text>
<text text-anchor="start" x="79" y="-671" font-family="Helvetica,sans-Serif" font-size="10.00" fill="forestgreen">+</text>
<text text-anchor="start" x="86" y="-671" font-family="Helvetica,sans-Serif" font-size="10.00">Block</text>
<text text-anchor="start" x="79" y="-661" font-family="Helvetica,sans-Serif" font-size="10.00" fill="forestgreen">+</text>
<text text-anchor="start" x="86" y="-661" font-family="Helvetica,sans-Serif" font-size="10.00">BlockCode</text>
<text text-anchor="start" x="79" y="-651" font-family="Helvetica,sans-Serif" font-size="10.00" fill="forestgreen">+</text>
<text text-anchor="start" x="86" y="-651" font-family="Helvetica,sans-Serif" font-size="10.00">BlockFence</text>
<text text-anchor="start" x="79" y="-641" font-family="Helvetica,sans-Serif" font-size="10.00" fill="forestgreen">+</text>
<text text-anchor="start" x="86" y="-641" font-family="Helvetica,sans-Serif" font-size="10.00">BlockHeadline</text>
<text text-anchor="start" x="79" y="-631" font-family="Helvetica,sans-Serif" font-size="10.00" fill="forestgreen">+</text>
<text text-anchor="start" x="86" y="-631" font-family="Helvetica,sans-Serif" font-size="10.00">BlockList</text>
<text text-anchor="start" x="79" y="-621" font-family="Helvetica,sans-Serif" font-size="10.00" fill="forestgreen">+</text>
<text text-anchor="start" x="86" y="-621" font-family="Helvetica,sans-Serif" font-size="10.00">BlockListItem</text>
<text text-anchor="start" x="79" y="-611" font-family="Helvetica,sans-Serif" font-size="10.00" fill="forestgreen">+</text>
<text text-anchor="start" x="86" y="-611" font-family="Helvetica,sans-Serif" font-size="10.00">BlockNone</text>
<text text-anchor="start" x="79" y="-601" font-family="Helvetica,sans-Serif" font-size="10.00" fill="forestgreen">+</text>
<text text-anchor="start" x="86" y="-601" font-family="Helvetica,sans-Serif" font-size="10.00">BlockOrderedList</text>
<text text-anchor="start" x="79" y="-591" font-family="Helvetica,sans-Serif" font-size="10.00" fill="forestgreen">+</text>
<text text-anchor="start" x="86" y="-591" font-family="Helvetica,sans-Serif" font-size="10.00">BlockParagraph</text>
<text text-anchor="start" x="79" y="-581" font-family="Helvetica,sans-Serif" font-size="10.00" fill="forestgreen">+</text>
<text text-anchor="start" x="86" y="-581" font-family="Helvetica,sans-Serif" font-size="10.00">BlockQuote</text>
<text text-anchor="start" x="79" y="-571" font-family="Helvetica,sans-Serif" font-size="10.00" fill="forestgreen">+</text>
<text text-anchor="start" x="86" y="-571" font-family="Helvetica,sans-Serif" font-size="10.00">BlockRuler</text>
<text text-anchor="start" x="79" y="-561" font-family="Helvetica,sans-Serif" font-size="10.00" fill="forestgreen">+</text>
<text text-anchor="start" x="86" y="-561" font-family="Helvetica,sans-Serif" font-size="10.00">BlockUnorderedList</text>
<text text-anchor="start" x="79" y="-551" font-family="Helvetica,sans-Serif" font-size="10.00" fill="forestgreen">+</text>
<text text-anchor="start" x="86" y="-551" font-family="Helvetica,sans-Serif" font-size="10.00">BlockXML</text>
<text text-anchor="start" x="79" y="-541" font-family="Helvetica,sans-Serif" font-size="10.00" fill="forestgreen">+</text>
<text text-anchor="start" x="86" y="-541" font-family="Helvetica,sans-Serif" font-size="10.00">Decorator</text>
<text text-anchor="start" x="79" y="-531" font-family="Helvetica,sans-Serif" font-size="10.00" fill="forestgreen">+</text>
<text text-anchor="start" x="86" y="-531" font-family="Helvetica,sans-Serif" font-size="10.00">HTMLDecorator</text>
<text text-anchor="start" x="79" y="-521" font-family="Helvetica,sans-Serif" font-size="10.00" fill="forestgreen">+</text>
<text text-anchor="start" x="86" y="-521" font-family="Helvetica,sans-Serif" font-size="10.00">HeadLine</text>
<text text-anchor="start" x="79" y="-511" font-family="Helvetica,sans-Serif" font-size="10.00" fill="forestgreen">+</text>
<text text-anchor="start" x="86" y="-511" font-family="Helvetica,sans-Serif" font-size="10.00">Line</text>
<text text-anchor="start" x="79" y="-501" font-family="Helvetica,sans-Serif" font-size="10.00" fill="forestgreen">+</text>
<text text-anchor="start" x="86" y="-501" font-family="Helvetica,sans-Serif" font-size="10.00">LineBlockquote</text>
<text text-anchor="start" x="79" y="-491" font-family="Helvetica,sans-Serif" font-size="10.00" fill="forestgreen">+</text>
<text text-anchor="start" x="86" y="-491" font-family="Helvetica,sans-Serif" font-size="10.00">LineCode</text>
<text text-anchor="start" x="79" y="-481" font-family="Helvetica,sans-Serif" font-size="10.00" fill="forestgreen">+</text>
<text text-anchor="start" x="86" y="-481" font-family="Helvetica,sans-Serif" font-size="10.00">LineEmpty</text>
<text text-anchor="start" x="79" y="-471" font-family="Helvetica,sans-Serif" font-size="10.00" fill="forestgreen">+</text>
<text text-anchor="start" x="86" y="-471" font-family="Helvetica,sans-Serif" font-size="10.00">LineFence</text>
<text text-anchor="start" x="79" y="-461" font-family="Helvetica,sans-Serif" font-size="10.00" fill="forestgreen">+</text>
<text text-anchor="start" x="86" y="-461" font-family="Helvetica,sans-Serif" font-size="10.00">LineHR</text>
<text text-anchor="start" x="79" y="-451" font-family="Helvetica,sans-Serif" font-size="10.00" fill="forestgreen">+</text>
<text text-anchor="start" x="86" y="-451" font-family="Helvetica,sans-Serif" font-size="10.00">LineHeadline</text>
<text text-anchor="start" x="79" y="-441" font-family="Helvetica,sans-Serif" font-size="10.00" fill="forestgreen">+</text>
<text text-anchor="start" x="86" y="-441" font-family="Helvetica,sans-Serif" font-size="10.00">LineHeadline1</text>
<text text-anchor="start" x="79" y="-431" font-family="Helvetica,sans-Serif" font-size="10.00" fill="forestgreen">+</text>
<text text-anchor="start" x="86" y="-431" font-family="Helvetica,sans-Serif" font-size="10.00">LineHeadline2</text>
<text text-anchor="start" x="79" y="-421" font-family="Helvetica,sans-Serif" font-size="10.00" fill="forestgreen">+</text>
<text text-anchor="start" x="86" y="-421" font-family="Helvetica,sans-Serif" font-size="10.00">LineList</text>
<text text-anchor="start" x="79" y="-411" font-family="Helvetica,sans-Serif" font-size="10.00" fill="forestgreen">+</text>
<text text-anchor="start" x="86" y="-411" font-family="Helvetica,sans-Serif" font-size="10.00">LineOList</text>
<text text-anchor="start" x="79" y="-401" font-family="Helvetica,sans-Serif" font-size="10.00" fill="forestgreen">+</text>
<text text-anchor="start" x="86" y="-401" font-family="Helvetica,sans-Serif" font-size="10.00">LineOther</text>
<text text-anchor="start" x="79" y="-391" font-family="Helvetica,sans-Serif" font-size="10.00" fill="forestgreen">+</text>
<text text-anchor="start" x="86" y="-391" font-family="Helvetica,sans-Serif" font-size="10.00">LineUList</text>
<text text-anchor="start" x="79" y="-381" font-family="Helvetica,sans-Serif" font-size="10.00" fill="forestgreen">+</text>
<text text-anchor="start" x="86" y="-381" font-family="Helvetica,sans-Serif" font-size="10.00">LineXML</text>
<text text-anchor="start" x="79" y="-371" font-family="Helvetica,sans-Serif" font-size="10.00" fill="forestgreen">+</text>
<text text-anchor="start" x="86" y="-371" font-family="Helvetica,sans-Serif" font-size="10.00">LinkRef</text>
<text text-anchor="start" x="79" y="-361" font-family="Helvetica,sans-Serif" font-size="10.00" fill="forestgreen">+</text>
<text text-anchor="start" x="86" y="-361" font-family="Helvetica,sans-Serif" font-size="10.00">MDBlock</text>
<text text-anchor="start" x="79" y="-351" font-family="Helvetica,sans-Serif" font-size="10.00" fill="forestgreen">+</text>
<text text-anchor="start" x="86" y="-351" font-family="Helvetica,sans-Serif" font-size="10.00">MDLine</text>
<text text-anchor="start" x="79" y="-341" font-family="Helvetica,sans-Serif" font-size="10.00" fill="forestgreen">+</text>
<text text-anchor="start" x="86" y="-341" font-family="Helvetica,sans-Serif" font-size="10.00">MDLocation</text>
<text text-anchor="start" x="79" y="-331" font-family="Helvetica,sans-Serif" font-size="10.00" fill="forestgreen">+</text>
<text text-anchor="start" x="86" y="-331" font-family="Helvetica,sans-Serif" font-size="10.00">MarkdownProcessor</text>
<text text-anchor="start" x="79" y="-321" font-family="Helvetica,sans-Serif" font-size="10.00" fill="forestgreen">+</text>
<text text-anchor="start" x="86" y="-321" font-family="Helvetica,sans-Serif" font-size="10.00">String</text>
<text text-anchor="start" x="79" y="-311" font-family="Helvetica,sans-Serif" font-size="10.00" fill="forestgreen">+</text>
<text text-anchor="start" x="86" y="-311" font-family="Helvetica,sans-Serif" font-size="10.00">Text</text>
<text text-anchor="start" x="79" y="-301" font-family="Helvetica,sans-Serif" font-size="10.00" fill="forestgreen">+</text>
<text text-anchor="start" x="86" y="-301" font-family="Helvetica,sans-Serif" font-size="10.00">Token</text>
<text text-anchor="start" x="79" y="-291" font-family="Helvetica,sans-Serif" font-size="10.00" fill="forestgreen">+</text>
<text text-anchor="start" x="86" y="-291" font-family="Helvetica,sans-Serif" font-size="10.00">TokenCode</text>
<text text-anchor="start" x="79" y="-281" font-family="Helvetica,sans-Serif" font-size="10.00" fill="forestgreen">+</text>
<text text-anchor="start" x="86" y="-281" font-family="Helvetica,sans-Serif" font-size="10.00">TokenCodeDouble</text>
<text text-anchor="start" x="79" y="-271" font-family="Helvetica,sans-Serif" font-size="10.00" fill="forestgreen">+</text>
<text text-anchor="start" x="86" y="-271" font-family="Helvetica,sans-Serif" font-size="10.00">TokenCodeSingle</text>
<text text-anchor="start" x="79" y="-261" font-family="Helvetica,sans-Serif" font-size="10.00" fill="forestgreen">+</text>
<text text-anchor="start" x="86" y="-261" font-family="Helvetica,sans-Serif" font-size="10.00">TokenEm</text>
<text text-anchor="start" x="79" y="-251" font-family="Helvetica,sans-Serif" font-size="10.00" fill="forestgreen">+</text>
<text text-anchor="start" x="86" y="-251" font-family="Helvetica,sans-Serif" font-size="10.00">TokenEmStar</text>
<text text-anchor="start" x="79" y="-241" font-family="Helvetica,sans-Serif" font-size="10.00" fill="forestgreen">+</text>
<text text-anchor="start" x="86" y="-241" font-family="Helvetica,sans-Serif" font-size="10.00">TokenEmUnderscore</text>
<text text-anchor="start" x="79" y="-231" font-family="Helvetica,sans-Serif" font-size="10.00" fill="forestgreen">+</text>
<text text-anchor="start" x="86" y="-231" font-family="Helvetica,sans-Serif" font-size="10.00">TokenEntity</text>
<text text-anchor="start" x="79" y="-221" font-family="Helvetica,sans-Serif" font-size="10.00" fill="forestgreen">+</text>
<text text-anchor="start" x="86" y="-221" font-family="Helvetica,sans-Serif" font-size="10.00">TokenEscape</text>
<text text-anchor="start" x="79" y="-211" font-family="Helvetica,sans-Serif" font-size="10.00" fill="forestgreen">+</text>
<text text-anchor="start" x="86" y="-211" font-family="Helvetica,sans-Serif" font-size="10.00">TokenHTML</text>
<text text-anchor="start" x="79" y="-201" font-family="Helvetica,sans-Serif" font-size="10.00" fill="forestgreen">+</text>
<text text-anchor="start" x="86" y="-201" font-family="Helvetica,sans-Serif" font-size="10.00">TokenImage</text>
<text text-anchor="start" x="79" y="-191" font-family="Helvetica,sans-Serif" font-size="10.00" fill="forestgreen">+</text>
<text text-anchor="start" x="86" y="-191" font-family="Helvetica,sans-Serif" font-size="10.00">TokenLink</text>
<text text-anchor="start" x="79" y="-181" font-family="Helvetica,sans-Serif" font-size="10.00" fill="forestgreen">+</text>
<text text-anchor="start" x="86" y="-181" font-family="Helvetica,sans-Serif" font-size="10.00">TokenLinkOrImage</text>
<text text-anchor="start" x="79" y="-171" font-family="Helvetica,sans-Serif" font-size="10.00" fill="forestgreen">+</text>
<text text-anchor="start" x="86" y="-171" font-family="Helvetica,sans-Serif" font-size="10.00">TokenNone</text>
<text text-anchor="start" x="79" y="-161" font-family="Helvetica,sans-Serif" font-size="10.00" fill="forestgreen">+</text>
<text text-anchor="start" x="86" y="-161" font-family="Helvetica,sans-Serif" font-size="10.00">TokenStrike</text>
<text text-anchor="start" x="79" y="-151" font-family="Helvetica,sans-Serif" font-size="10.00" fill="forestgreen">+</text>
<text text-anchor="start" x="86" y="-151" font-family="Helvetica,sans-Serif" font-size="10.00">TokenStrong</text>
<text text-anchor="start" x="79" y="-141" font-family="Helvetica,sans-Serif" font-size="10.00" fill="forestgreen">+</text>
<text text-anchor="start" x="86" y="-141" font-family="Helvetica,sans-Serif" font-size="10.00">TokenStrongStar</text>
<text text-anchor="start" x="79" y="-131" font-family="Helvetica,sans-Serif" font-size="10.00" fill="forestgreen">+</text>
<text text-anchor="start" x="86" y="-131" font-family="Helvetica,sans-Serif" font-size="10.00">TokenStrongUnderscore</text>
</g>
<!-- markdown::wikilinks&#45;&gt;markdown::markdown -->
<g id="edge3" class="edge"><title>markdown::wikilinks&#45;&gt;markdown::markdown</title>
<path fill="none" stroke="black" stroke-width="0.5" stroke-dasharray="5,2" d="M239.764,-104.266C230.27,-132.24 213.765,-180.871 196.675,-231.225"/>
<polygon fill="black" stroke="black" stroke-width="0.5" points="195.02,-236.103 194.496,-230.645 195.823,-233.735 196.627,-231.368 196.627,-231.368 196.627,-231.368 195.823,-233.735 198.757,-232.091 195.02,-236.103 195.02,-236.103"/>
</g>
<!-- markdown::man&#45;&gt;markdown::markdown -->
<g id="edge4" class="edge"><title>markdown::man&#45;&gt;markdown::markdown</title>
<path fill="none" stroke="black" stroke-width="0.5" stroke-dasharray="5,2" d="M41.3816,-94.6055C47.9299,-116.433 61.0547,-160.182 75.4956,-208.319"/>
<polygon fill="black" stroke="black" stroke-width="0.5" points="76.9879,-213.293 73.3959,-209.15 76.2694,-210.898 75.551,-208.504 75.551,-208.504 75.551,-208.504 76.2694,-210.898 77.7062,-207.857 76.9879,-213.293 76.9879,-213.293"/>
</g>
<!-- markdown::decorators&#45;&gt;markdown::markdown -->
<g id="edge5" class="edge"><title>markdown::decorators&#45;&gt;markdown::markdown</title>
<path fill="none" stroke="black" stroke-width="0.5" stroke-dasharray="5,2" d="M136,-99.1686C136,-105.149 136,-112.355 136,-120.536"/>
<polygon fill="black" stroke="black" stroke-width="0.5" points="136,-125.753 133.75,-120.753 136,-123.253 136,-120.753 136,-120.753 136,-120.753 136,-123.253 138.25,-120.753 136,-125.753 136,-125.753"/>
</g>
</g>
</svg>
