<?xml version="1.0" encoding="UTF-8" standalone="no"?>
<!DOCTYPE svg PUBLIC "-//W3C//DTD SVG 1.1//EN"
 "http://www.w3.org/Graphics/SVG/1.1/DTD/svg11.dtd">
<!-- Generated by graphviz version 2.36.0 (20140111.2315)
 -->
<!-- Title: G Pages: 1 -->
<svg width="280pt" height="260pt"
 viewBox="0.00 0.00 280.00 260.00" xmlns="http://www.w3.org/2000/svg" xmlns:xlink="http://www.w3.org/1999/xlink">
<g id="graph0" class="graph" transform="scale(1 1) rotate(0) translate(4 256)">
<title>G</title>
<polygon fill="white" stroke="none" points="-4,4 -4,-256 276,-256 276,4 -4,4"/>
<!-- linux::audio -->
<g id="node1" class="node"><title>linux::audio</title>
<polygon fill="#fffaf3" stroke="black" points="68.5,-115 -0.5,-115 -0.5,-65 74.5,-65 74.5,-109 68.5,-115"/>
<polyline fill="none" stroke="black" points="68.5,-115 68.5,-109 "/>
<polyline fill="none" stroke="black" points="74.5,-109 68.5,-109 "/>
<text text-anchor="start" x="2" y="-105.5" font-family="Helvetica,sans-Serif" font-weight="bold" font-size="10.00">audio</text>
<text text-anchor="start" x="2" y="-90" font-family="Helvetica,sans-Serif" font-size="10.00" fill="forestgreen">+</text>
<text text-anchor="start" x="9" y="-90" font-family="Helvetica,sans-Serif" font-size="10.00">Music</text>
<text text-anchor="start" x="2" y="-80" font-family="Helvetica,sans-Serif" font-size="10.00" fill="forestgreen">+</text>
<text text-anchor="start" x="9" y="-80" font-family="Helvetica,sans-Serif" font-size="10.00">PlayableAudio</text>
<text text-anchor="start" x="2" y="-70" font-family="Helvetica,sans-Serif" font-size="10.00" fill="forestgreen">+</text>
<text text-anchor="start" x="9" y="-70" font-family="Helvetica,sans-Serif" font-size="10.00">Sound</text>
</g>
<!-- linux::linux -->
<g id="node4" class="node"><title>linux::linux</title>
<polygon fill="#fffaf3" stroke="black" points="60,-252 8,-252 8,-202 66,-202 66,-246 60,-252"/>
<polyline fill="none" stroke="black" points="60,-252 60,-246 "/>
<polyline fill="none" stroke="black" points="66,-246 60,-246 "/>
<text text-anchor="start" x="10" y="-242.5" font-family="Helvetica,sans-Serif" font-weight="bold" font-size="10.00">linux</text>
<text text-anchor="start" x="10" y="-227" font-family="Helvetica,sans-Serif" font-size="10.00" fill="forestgreen">+</text>
<text text-anchor="start" x="17" y="-227" font-family="Helvetica,sans-Serif" font-size="10.00">App</text>
<text text-anchor="start" x="10" y="-217" font-family="Helvetica,sans-Serif" font-size="10.00" fill="forestgreen">+</text>
<text text-anchor="start" x="17" y="-217" font-family="Helvetica,sans-Serif" font-size="10.00">Sys</text>
<text text-anchor="start" x="10" y="-207" font-family="Helvetica,sans-Serif" font-size="10.00" fill="forestgreen">+</text>
<text text-anchor="start" x="17" y="-207" font-family="Helvetica,sans-Serif" font-size="10.00">TextAsset</text>
</g>
<!-- linux::audio&#45;&gt;linux::linux -->
<g id="edge1" class="edge"><title>linux::audio&#45;&gt;linux::linux</title>
<path fill="none" stroke="black" stroke-width="0.5" stroke-dasharray="5,2" d="M37,-115.135C37,-137.935 37,-172.18 37,-196.571"/>
<polygon fill="black" stroke="black" stroke-width="0.5" points="37,-201.618 34.7501,-196.618 37,-199.118 37.0001,-196.618 37.0001,-196.618 37.0001,-196.618 37,-199.118 39.2501,-196.619 37,-201.618 37,-201.618"/>
</g>
<!-- linux::data_store -->
<g id="node2" class="node"><title>linux::data_store</title>
<polygon fill="#fffaf3" stroke="black" points="165.333,-242.5 113.5,-242.5 113.5,-211.5 170.5,-211.5 170.5,-237.333 165.333,-242.5"/>
<polyline fill="none" stroke="black" points="165.333,-242.5 165.333,-237.333 "/>
<polyline fill="none" stroke="black" points="170.5,-237.333 165.333,-237.333 "/>
<text text-anchor="start" x="116" y="-232.5" font-family="Helvetica,sans-Serif" font-weight="bold" font-size="10.00">data_store</text>
<text text-anchor="start" x="116" y="-217" font-family="Helvetica,sans-Serif" font-size="10.00" fill="forestgreen">+</text>
<text text-anchor="start" x="123" y="-217" font-family="Helvetica,sans-Serif" font-size="10.00">DataStore</text>
</g>
<!-- linux::http_request -->
<g id="node3" class="node"><title>linux::http_request</title>
<polygon fill="#fffaf3" stroke="black" points="266.5,-110 209.5,-110 209.5,-70 272.5,-70 272.5,-104 266.5,-110"/>
<polyline fill="none" stroke="black" points="266.5,-110 266.5,-104 "/>
<polyline fill="none" stroke="black" points="272.5,-104 266.5,-104 "/>
<text text-anchor="start" x="212" y="-100.5" font-family="Helvetica,sans-Serif" font-weight="bold" font-size="10.00">http_request</text>
<text text-anchor="start" x="212" y="-85" font-family="Helvetica,sans-Serif" font-size="10.00" fill="forestgreen">+</text>
<text text-anchor="start" x="219" y="-85" font-family="Helvetica,sans-Serif" font-size="10.00">App</text>
<text text-anchor="start" x="212" y="-75" font-family="Helvetica,sans-Serif" font-size="10.00" fill="forestgreen">+</text>
<text text-anchor="start" x="219" y="-75" font-family="Helvetica,sans-Serif" font-size="10.00">Text</text>
</g>
<!-- linux::ui -->
<g id="node5" class="node"><title>linux::ui</title>
<polygon fill="#fffaf3" stroke="black" points="181.5,-180 96.5,-180 96.5,-0 187.5,-0 187.5,-174 181.5,-180"/>
<polyline fill="none" stroke="black" points="181.5,-180 181.5,-174 "/>
<polyline fill="none" stroke="black" points="187.5,-174 181.5,-174 "/>
<text text-anchor="start" x="99" y="-170.5" font-family="Helvetica,sans-Serif" font-weight="bold" font-size="10.00">ui</text>
<text text-anchor="start" x="99" y="-155" font-family="Helvetica,sans-Serif" font-size="10.00" fill="forestgreen">+</text>
<text text-anchor="start" x="106" y="-155" font-family="Helvetica,sans-Serif" font-size="10.00">App</text>
<text text-anchor="start" x="99" y="-145" font-family="Helvetica,sans-Serif" font-size="10.00" fill="forestgreen">+</text>
<text text-anchor="start" x="106" y="-145" font-family="Helvetica,sans-Serif" font-size="10.00">BackButton</text>
<text text-anchor="start" x="99" y="-135" font-family="Helvetica,sans-Serif" font-size="10.00" fill="forestgreen">+</text>
<text text-anchor="start" x="106" y="-135" font-family="Helvetica,sans-Serif" font-size="10.00">Button</text>
<text text-anchor="start" x="99" y="-125" font-family="Helvetica,sans-Serif" font-size="10.00" fill="forestgreen">+</text>
<text text-anchor="start" x="106" y="-125" font-family="Helvetica,sans-Serif" font-size="10.00">CheckBox</text>
<text text-anchor="start" x="99" y="-115" font-family="Helvetica,sans-Serif" font-size="10.00" fill="forestgreen">+</text>
<text text-anchor="start" x="106" y="-115" font-family="Helvetica,sans-Serif" font-size="10.00">CompositeControl</text>
<text text-anchor="start" x="99" y="-105" font-family="Helvetica,sans-Serif" font-size="10.00" fill="forestgreen">+</text>
<text text-anchor="start" x="106" y="-105" font-family="Helvetica,sans-Serif" font-size="10.00">Control</text>
<text text-anchor="start" x="99" y="-95" font-family="Helvetica,sans-Serif" font-size="10.00" fill="forestgreen">+</text>
<text text-anchor="start" x="106" y="-95" font-family="Helvetica,sans-Serif" font-size="10.00">HorizontalLayout</text>
<text text-anchor="start" x="99" y="-85" font-family="Helvetica,sans-Serif" font-size="10.00" fill="forestgreen">+</text>
<text text-anchor="start" x="106" y="-85" font-family="Helvetica,sans-Serif" font-size="10.00">Label</text>
<text text-anchor="start" x="99" y="-75" font-family="Helvetica,sans-Serif" font-size="10.00" fill="forestgreen">+</text>
<text text-anchor="start" x="106" y="-75" font-family="Helvetica,sans-Serif" font-size="10.00">Layout</text>
<text text-anchor="start" x="99" y="-65" font-family="Helvetica,sans-Serif" font-size="10.00" fill="forestgreen">+</text>
<text text-anchor="start" x="106" y="-65" font-family="Helvetica,sans-Serif" font-size="10.00">ListLayout</text>
<text text-anchor="start" x="99" y="-55" font-family="Helvetica,sans-Serif" font-size="10.00" fill="forestgreen">+</text>
<text text-anchor="start" x="106" y="-55" font-family="Helvetica,sans-Serif" font-size="10.00">Sys</text>
<text text-anchor="start" x="99" y="-45" font-family="Helvetica,sans-Serif" font-size="10.00" fill="forestgreen">+</text>
<text text-anchor="start" x="106" y="-45" font-family="Helvetica,sans-Serif" font-size="10.00">Text</text>
<text text-anchor="start" x="99" y="-35" font-family="Helvetica,sans-Serif" font-size="10.00" fill="forestgreen">+</text>
<text text-anchor="start" x="106" y="-35" font-family="Helvetica,sans-Serif" font-size="10.00">TextInput</text>
<text text-anchor="start" x="99" y="-25" font-family="Helvetica,sans-Serif" font-size="10.00" fill="forestgreen">+</text>
<text text-anchor="start" x="106" y="-25" font-family="Helvetica,sans-Serif" font-size="10.00">VerticalLayout</text>
<text text-anchor="start" x="99" y="-15" font-family="Helvetica,sans-Serif" font-size="10.00" fill="forestgreen">+</text>
<text text-anchor="start" x="106" y="-15" font-family="Helvetica,sans-Serif" font-size="10.00">View</text>
<text text-anchor="start" x="99" y="-5" font-family="Helvetica,sans-Serif" font-size="10.00" fill="forestgreen">+</text>
<text text-anchor="start" x="106" y="-5" font-family="Helvetica,sans-Serif" font-size="10.00">Window</text>
</g>
<!-- linux::ui&#45;&gt;linux::data_store -->
<g id="edge2" class="edge"><title>linux::ui&#45;&gt;linux::data_store</title>
<path fill="none" stroke="black" stroke-width="0.5" stroke-dasharray="5,2" d="M142,-180.295C142,-189.829 142,-198.713 142,-206.066"/>
<polygon fill="black" stroke="black" stroke-width="0.5" points="142,-211.376 139.75,-206.376 142,-208.876 142,-206.376 142,-206.376 142,-206.376 142,-208.876 144.25,-206.376 142,-211.376 142,-211.376"/>
</g>
</g>
</svg>
