<?xml version="1.0" encoding="UTF-8" standalone="no"?>
<!DOCTYPE svg PUBLIC "-//W3C//DTD SVG 1.1//EN"
 "http://www.w3.org/Graphics/SVG/1.1/DTD/svg11.dtd">
<!-- Generated by graphviz version 2.36.0 (20140111.2315)
 -->
<!-- Title: G Pages: 1 -->
<svg width="104pt" height="160pt"
 viewBox="0.00 0.00 104.00 160.00" xmlns="http://www.w3.org/2000/svg" xmlns:xlink="http://www.w3.org/1999/xlink">
<g id="graph0" class="graph" transform="scale(1 1) rotate(0) translate(4 156)">
<title>G</title>
<polygon fill="white" stroke="none" points="-4,4 -4,-156 100,-156 100,4 -4,4"/>
<!-- nlp::nlp -->
<g id="node1" class="node"><title>nlp::nlp</title>
<polygon fill="#fffaf3" stroke="black" points="78,-40 12,-40 12,-0 84,-0 84,-34 78,-40"/>
<polyline fill="none" stroke="black" points="78,-40 78,-34 "/>
<polyline fill="none" stroke="black" points="84,-34 78,-34 "/>
<text text-anchor="start" x="14" y="-30.5" font-family="Helvetica,sans-Serif" font-weight="bold" font-size="10.00">nlp</text>
<text text-anchor="start" x="14" y="-15" font-family="Helvetica,sans-Serif" font-size="10.00" fill="forestgreen">+</text>
<text text-anchor="start" x="21" y="-15" font-family="Helvetica,sans-Serif" font-size="10.00">NLPFileIndex</text>
<text text-anchor="start" x="14" y="-5" font-family="Helvetica,sans-Serif" font-size="10.00" fill="forestgreen">+</text>
<text text-anchor="start" x="21" y="-5" font-family="Helvetica,sans-Serif" font-size="10.00">NLPIndex</text>
</g>
<!-- nlp::stanford -->
<g id="node2" class="node"><title>nlp::stanford</title>
<polygon fill="#fffaf3" stroke="black" points="90.5,-152 -0.5,-152 -0.5,-62 96.5,-62 96.5,-146 90.5,-152"/>
<polyline fill="none" stroke="black" points="90.5,-152 90.5,-146 "/>
<polyline fill="none" stroke="black" points="96.5,-146 90.5,-146 "/>
<text text-anchor="start" x="2" y="-142.5" font-family="Helvetica,sans-Serif" font-weight="bold" font-size="10.00">stanford</text>
<text text-anchor="start" x="2" y="-127" font-family="Helvetica,sans-Serif" font-size="10.00" fill="forestgreen">+</text>
<text text-anchor="start" x="9" y="-127" font-family="Helvetica,sans-Serif" font-size="10.00">NLPClient</text>
<text text-anchor="start" x="2" y="-117" font-family="Helvetica,sans-Serif" font-size="10.00" fill="forestgreen">+</text>
<text text-anchor="start" x="9" y="-117" font-family="Helvetica,sans-Serif" font-size="10.00">NLPDocument</text>
<text text-anchor="start" x="2" y="-107" font-family="Helvetica,sans-Serif" font-size="10.00" fill="forestgreen">+</text>
<text text-anchor="start" x="9" y="-107" font-family="Helvetica,sans-Serif" font-size="10.00">NLPJavaProcessor</text>
<text text-anchor="start" x="2" y="-97" font-family="Helvetica,sans-Serif" font-size="10.00" fill="forestgreen">+</text>
<text text-anchor="start" x="9" y="-97" font-family="Helvetica,sans-Serif" font-size="10.00">NLPProcessor</text>
<text text-anchor="start" x="2" y="-87" font-family="Helvetica,sans-Serif" font-size="10.00" fill="forestgreen">+</text>
<text text-anchor="start" x="9" y="-87" font-family="Helvetica,sans-Serif" font-size="10.00">NLPSentence</text>
<text text-anchor="start" x="2" y="-77" font-family="Helvetica,sans-Serif" font-size="10.00" fill="forestgreen">+</text>
<text text-anchor="start" x="9" y="-77" font-family="Helvetica,sans-Serif" font-size="10.00">NLPServer</text>
<text text-anchor="start" x="2" y="-67" font-family="Helvetica,sans-Serif" font-size="10.00" fill="forestgreen">+</text>
<text text-anchor="start" x="9" y="-67" font-family="Helvetica,sans-Serif" font-size="10.00">NLPToken</text>
</g>
<!-- nlp::nlp&#45;&gt;nlp::stanford -->
<g id="edge1" class="edge"><title>nlp::nlp&#45;&gt;nlp::stanford</title>
<path fill="none" stroke="black" stroke-width="0.5" stroke-dasharray="5,2" d="M48,-40.2878C48,-45.238 48,-50.7943 48,-56.5245"/>
<polygon fill="black" stroke="black" stroke-width="0.5" points="48,-61.8234 45.7501,-56.8233 48,-59.3234 48.0001,-56.8234 48.0001,-56.8234 48.0001,-56.8234 48,-59.3234 50.2501,-56.8234 48,-61.8234 48,-61.8234"/>
</g>
</g>
</svg>
