<?xml version="1.0" encoding="UTF-8" standalone="no"?>
<!DOCTYPE svg PUBLIC "-//W3C//DTD SVG 1.1//EN"
 "http://www.w3.org/Graphics/SVG/1.1/DTD/svg11.dtd">
<!-- Generated by graphviz version 2.36.0 (20140111.2315)
 -->
<!-- Title: G Pages: 1 -->
<svg width="162pt" height="130pt"
 viewBox="0.00 0.00 162.00 130.00" xmlns="http://www.w3.org/2000/svg" xmlns:xlink="http://www.w3.org/1999/xlink">
<g id="graph0" class="graph" transform="scale(1 1) rotate(0) translate(4 126)">
<title>G</title>
<polygon fill="white" stroke="none" points="-4,4 -4,-126 158,-126 158,4 -4,4"/>
<!-- ai::ai -->
<g id="node1" class="node"><title>ai::ai</title>
<polygon fill="#fffaf3" stroke="black" points="50.6667,-33 39,-33 39,-17 53,-17 53,-30.6667 50.6667,-33"/>
<polyline fill="none" stroke="black" points="50.6667,-33 50.6667,-30.6667 "/>
<polyline fill="none" stroke="black" points="53,-30.6667 50.6667,-30.6667 "/>
<text text-anchor="start" x="41" y="-23.5" font-family="Helvetica,sans-Serif" font-weight="bold" font-size="10.00">ai</text>
</g>
<!-- ai::backtrack -->
<g id="node2" class="node"><title>ai::backtrack</title>
<polygon fill="#fffaf3" stroke="black" points="86.5,-122 -0.5,-122 -0.5,-72 92.5,-72 92.5,-116 86.5,-122"/>
<polyline fill="none" stroke="black" points="86.5,-122 86.5,-116 "/>
<polyline fill="none" stroke="black" points="92.5,-116 86.5,-116 "/>
<text text-anchor="start" x="2" y="-112.5" font-family="Helvetica,sans-Serif" font-weight="bold" font-size="10.00">backtrack</text>
<text text-anchor="start" x="2" y="-97" font-family="Helvetica,sans-Serif" font-size="10.00" fill="forestgreen">+</text>
<text text-anchor="start" x="9" y="-97" font-family="Helvetica,sans-Serif" font-size="10.00">BacktrackNode</text>
<text text-anchor="start" x="2" y="-87" font-family="Helvetica,sans-Serif" font-size="10.00" fill="forestgreen">+</text>
<text text-anchor="start" x="9" y="-87" font-family="Helvetica,sans-Serif" font-size="10.00">BacktrackProblem</text>
<text text-anchor="start" x="2" y="-77" font-family="Helvetica,sans-Serif" font-size="10.00" fill="forestgreen">+</text>
<text text-anchor="start" x="9" y="-77" font-family="Helvetica,sans-Serif" font-size="10.00">BacktrackSolver</text>
</g>
<!-- ai::ai&#45;&gt;ai::backtrack -->
<g id="edge1" class="edge"><title>ai::ai&#45;&gt;ai::backtrack</title>
<path fill="none" stroke="black" stroke-width="0.5" stroke-dasharray="5,2" d="M46,-33.2276C46,-41.1745 46,-54.4526 46,-66.7553"/>
<polygon fill="black" stroke="black" stroke-width="0.5" points="46,-71.9498 43.7501,-66.9497 46,-69.4498 46.0001,-66.9498 46.0001,-66.9498 46.0001,-66.9498 46,-69.4498 48.2501,-66.9498 46,-71.9498 46,-71.9498"/>
</g>
<!-- ai::search -->
<g id="node3" class="node"><title>ai::search</title>
<polygon fill="#fffaf3" stroke="black" points="148.5,-50 75.5,-50 75.5,-0 154.5,-0 154.5,-44 148.5,-50"/>
<polyline fill="none" stroke="black" points="148.5,-50 148.5,-44 "/>
<polyline fill="none" stroke="black" points="154.5,-44 148.5,-44 "/>
<text text-anchor="start" x="78" y="-40.5" font-family="Helvetica,sans-Serif" font-weight="bold" font-size="10.00">search</text>
<text text-anchor="start" x="78" y="-25" font-family="Helvetica,sans-Serif" font-size="10.00" fill="forestgreen">+</text>
<text text-anchor="start" x="85" y="-25" font-family="Helvetica,sans-Serif" font-size="10.00">SearchNode</text>
<text text-anchor="start" x="78" y="-15" font-family="Helvetica,sans-Serif" font-size="10.00" fill="forestgreen">+</text>
<text text-anchor="start" x="85" y="-15" font-family="Helvetica,sans-Serif" font-size="10.00">SearchProblem</text>
<text text-anchor="start" x="78" y="-5" font-family="Helvetica,sans-Serif" font-size="10.00" fill="forestgreen">+</text>
<text text-anchor="start" x="85" y="-5" font-family="Helvetica,sans-Serif" font-size="10.00">SearchSolver</text>
</g>
</g>
</svg>
