<?xml version="1.0" encoding="UTF-8" standalone="no"?>
<!DOCTYPE svg PUBLIC "-//W3C//DTD SVG 1.1//EN"
 "http://www.w3.org/Graphics/SVG/1.1/DTD/svg11.dtd">
<!-- Generated by graphviz version 2.36.0 (20140111.2315)
 -->
<!-- Title: G Pages: 1 -->
<svg width="94pt" height="130pt"
 viewBox="0.00 0.00 94.00 130.00" xmlns="http://www.w3.org/2000/svg" xmlns:xlink="http://www.w3.org/1999/xlink">
<g id="graph0" class="graph" transform="scale(1 1) rotate(0) translate(4 126)">
<title>G</title>
<polygon fill="white" stroke="none" points="-4,4 -4,-126 90,-126 90,4 -4,4"/>
<!-- neo4j&amp;gt; -->
<g id="node1" class="node"><title>neo4j&amp;gt;</title>
<polygon fill="#fefef2" stroke="black" points="69,-122 66,-126 45,-126 42,-122 17,-122 17,-72 69,-72 69,-122"/>
<text text-anchor="start" x="19" y="-112.5" font-family="Helvetica,sans-Serif" font-weight="bold" font-size="10.00">neo4j</text>
<text text-anchor="start" x="19" y="-97" font-family="Helvetica,sans-Serif" font-size="10.00" fill="forestgreen">+</text>
<text text-anchor="start" x="26" y="-97" font-family="Helvetica,sans-Serif" font-size="10.00">curl_json</text>
<text text-anchor="start" x="19" y="-87" font-family="Helvetica,sans-Serif" font-size="10.00" fill="forestgreen">+</text>
<text text-anchor="start" x="26" y="-87" font-family="Helvetica,sans-Serif" font-size="10.00">error</text>
<text text-anchor="start" x="19" y="-77" font-family="Helvetica,sans-Serif" font-size="10.00" fill="forestgreen">+</text>
<text text-anchor="start" x="26" y="-77" font-family="Helvetica,sans-Serif" font-size="10.00">neo4j</text>
</g>
<!-- neo4j&amp;gt;graph&amp;gt; -->
<g id="node2" class="node"><title>neo4j&amp;gt;graph&amp;gt;</title>
<polygon fill="#fefef2" stroke="black" points="86.5,-50 83.5,-54 62.5,-54 59.5,-50 -0.5,-50 -0.5,-0 86.5,-0 86.5,-50"/>
<text text-anchor="start" x="2" y="-40.5" font-family="Helvetica,sans-Serif" font-weight="bold" font-size="10.00">graph</text>
<text text-anchor="start" x="2" y="-25" font-family="Helvetica,sans-Serif" font-size="10.00" fill="forestgreen">+</text>
<text text-anchor="start" x="9" y="-25" font-family="Helvetica,sans-Serif" font-size="10.00">graph</text>
<text text-anchor="start" x="2" y="-15" font-family="Helvetica,sans-Serif" font-size="10.00" fill="forestgreen">+</text>
<text text-anchor="start" x="9" y="-15" font-family="Helvetica,sans-Serif" font-size="10.00">json_graph_store</text>
<text text-anchor="start" x="2" y="-5" font-family="Helvetica,sans-Serif" font-size="10.00" fill="forestgreen">+</text>
<text text-anchor="start" x="9" y="-5" font-family="Helvetica,sans-Serif" font-size="10.00">sequential_id</text>
</g>
<!-- neo4j&amp;gt;graph&amp;gt;&#45;&gt;neo4j&amp;gt; -->
<g id="edge1" class="edge"><title>neo4j&amp;gt;graph&amp;gt;&#45;&gt;neo4j&amp;gt;</title>
<path fill="none" stroke="black" stroke-width="0.5" stroke-dasharray="5,2" d="M43,-50.09C43,-55.3103 43,-60.8904 43,-66.2978"/>
<polygon fill="black" stroke="black" stroke-width="0.5" points="43,-71.6279 40.7501,-66.6279 43,-69.1279 43.0001,-66.6279 43.0001,-66.6279 43.0001,-66.6279 43,-69.1279 45.2501,-66.628 43,-71.6279 43,-71.6279"/>
</g>
</g>
</svg>
