<?xml version="1.0" encoding="UTF-8" standalone="no"?>
<!DOCTYPE svg PUBLIC "-//W3C//DTD SVG 1.1//EN"
 "http://www.w3.org/Graphics/SVG/1.1/DTD/svg11.dtd">
<!-- Generated by graphviz version 2.36.0 (20140111.2315)
 -->
<!-- Title: G Pages: 1 -->
<svg width="126pt" height="148pt"
 viewBox="0.00 0.00 126.00 148.00" xmlns="http://www.w3.org/2000/svg" xmlns:xlink="http://www.w3.org/1999/xlink">
<g id="graph0" class="graph" transform="scale(1 1) rotate(0) translate(4 144)">
<title>G</title>
<polygon fill="white" stroke="none" points="-4,4 -4,-144 122,-144 122,4 -4,4"/>
<!-- crapto::crapto -->
<g id="node1" class="node"><title>crapto::crapto</title>
<polygon fill="#fffaf3" stroke="black" points="73.8333,-16 41.5,-16 41.5,-0 76.5,-0 76.5,-13.3333 73.8333,-16"/>
<polyline fill="none" stroke="black" points="73.8333,-16 73.8333,-13.3333 "/>
<polyline fill="none" stroke="black" points="76.5,-13.3333 73.8333,-13.3333 "/>
<text text-anchor="start" x="44" y="-6.5" font-family="Helvetica,sans-Serif" font-weight="bold" font-size="10.00">crapto</text>
</g>
<!-- crapto::xor -->
<g id="node3" class="node"><title>crapto::xor</title>
<polygon fill="#fffaf3" stroke="black" points="112,-78 0,-78 0,-38 118,-38 118,-72 112,-78"/>
<polyline fill="none" stroke="black" points="112,-78 112,-72 "/>
<polyline fill="none" stroke="black" points="118,-72 112,-72 "/>
<text text-anchor="start" x="2" y="-68.5" font-family="Helvetica,sans-Serif" font-weight="bold" font-size="10.00">xor</text>
<text text-anchor="start" x="2" y="-53" font-family="Helvetica,sans-Serif" font-size="10.00" fill="forestgreen">+</text>
<text text-anchor="start" x="9" y="-53" font-family="Helvetica,sans-Serif" font-size="10.00">RepeatingKeyXorCipher</text>
<text text-anchor="start" x="2" y="-43" font-family="Helvetica,sans-Serif" font-size="10.00" fill="forestgreen">+</text>
<text text-anchor="start" x="9" y="-43" font-family="Helvetica,sans-Serif" font-size="10.00">SingleByteXorCipher</text>
</g>
<!-- crapto::crapto&#45;&gt;crapto::xor -->
<g id="edge1" class="edge"><title>crapto::crapto&#45;&gt;crapto::xor</title>
<path fill="none" stroke="black" stroke-width="0.5" stroke-dasharray="5,2" d="M59,-16.0826C59,-20.5647 59,-26.6486 59,-32.7538"/>
<polygon fill="black" stroke="black" stroke-width="0.5" points="59,-37.8524 56.7501,-32.8523 59,-35.3524 59.0001,-32.8524 59.0001,-32.8524 59.0001,-32.8524 59,-35.3524 61.2501,-32.8524 59,-37.8524 59,-37.8524"/>
</g>
<!-- crapto::english_utils -->
<g id="node2" class="node"><title>crapto::english_utils</title>
<polygon fill="#fffaf3" stroke="black" points="86,-140 26,-140 26,-100 92,-100 92,-134 86,-140"/>
<polyline fill="none" stroke="black" points="86,-140 86,-134 "/>
<polyline fill="none" stroke="black" points="92,-134 86,-134 "/>
<text text-anchor="start" x="28" y="-130.5" font-family="Helvetica,sans-Serif" font-weight="bold" font-size="10.00">english_utils</text>
<text text-anchor="start" x="28" y="-115" font-family="Helvetica,sans-Serif" font-size="10.00" fill="forestgreen">+</text>
<text text-anchor="start" x="35" y="-115" font-family="Helvetica,sans-Serif" font-size="10.00">Sys</text>
<text text-anchor="start" x="28" y="-105" font-family="Helvetica,sans-Serif" font-size="10.00" fill="forestgreen">+</text>
<text text-anchor="start" x="35" y="-105" font-family="Helvetica,sans-Serif" font-size="10.00">Text</text>
</g>
<!-- crapto::xor&#45;&gt;crapto::english_utils -->
<g id="edge2" class="edge"><title>crapto::xor&#45;&gt;crapto::english_utils</title>
<path fill="none" stroke="black" stroke-width="0.5" stroke-dasharray="5,2" d="M59,-78.3146C59,-83.4533 59,-89.0731 59,-94.451"/>
<polygon fill="black" stroke="black" stroke-width="0.5" points="59,-99.7215 56.7501,-94.7215 59,-97.2215 59.0001,-94.7215 59.0001,-94.7215 59.0001,-94.7215 59,-97.2215 61.2501,-94.7216 59,-99.7215 59,-99.7215"/>
</g>
</g>
</svg>
