<?xml version="1.0" encoding="UTF-8" standalone="no"?>
<!DOCTYPE svg PUBLIC "-//W3C//DTD SVG 1.1//EN"
 "http://www.w3.org/Graphics/SVG/1.1/DTD/svg11.dtd">
<!-- Generated by graphviz version 2.36.0 (20140111.2315)
 -->
<!-- Title: G Pages: 1 -->
<svg width="487pt" height="320pt"
 viewBox="0.00 0.00 487.00 320.00" xmlns="http://www.w3.org/2000/svg" xmlns:xlink="http://www.w3.org/1999/xlink">
<g id="graph0" class="graph" transform="scale(1 1) rotate(0) translate(4 316)">
<title>G</title>
<polygon fill="white" stroke="none" points="-4,4 -4,-316 483,-316 483,4 -4,4"/>
<!-- app::app -->
<g id="node1" class="node"><title>app::app</title>
<polygon fill="#fffaf3" stroke="black" points="458.833,-128 438.5,-128 438.5,-112 461.5,-112 461.5,-125.333 458.833,-128"/>
<polyline fill="none" stroke="black" points="458.833,-128 458.833,-125.333 "/>
<polyline fill="none" stroke="black" points="461.5,-125.333 458.833,-125.333 "/>
<text text-anchor="start" x="441" y="-118.5" font-family="Helvetica,sans-Serif" font-weight="bold" font-size="10.00">app</text>
</g>
<!-- app::app_base -->
<g id="node2" class="node"><title>app::app_base</title>
<polygon fill="#fffaf3" stroke="black" points="273,-312 199,-312 199,-262 279,-262 279,-306 273,-312"/>
<polyline fill="none" stroke="black" points="273,-312 273,-306 "/>
<polyline fill="none" stroke="black" points="279,-306 273,-306 "/>
<text text-anchor="start" x="201" y="-302.5" font-family="Helvetica,sans-Serif" font-weight="bold" font-size="10.00">app_base</text>
<text text-anchor="start" x="201" y="-287" font-family="Helvetica,sans-Serif" font-size="10.00" fill="forestgreen">+</text>
<text text-anchor="start" x="208" y="-287" font-family="Helvetica,sans-Serif" font-size="10.00">App</text>
<text text-anchor="start" x="201" y="-277" font-family="Helvetica,sans-Serif" font-size="10.00" fill="forestgreen">+</text>
<text text-anchor="start" x="208" y="-277" font-family="Helvetica,sans-Serif" font-size="10.00">AppComponent</text>
<text text-anchor="start" x="201" y="-267" font-family="Helvetica,sans-Serif" font-size="10.00" fill="forestgreen">+</text>
<text text-anchor="start" x="208" y="-267" font-family="Helvetica,sans-Serif" font-size="10.00">Sys</text>
</g>
<!-- app::app&#45;&gt;app::app_base -->
<g id="edge1" class="edge"><title>app::app&#45;&gt;app::app_base</title>
<path fill="none" stroke="black" stroke-width="0.5" stroke-dasharray="5,2" d="M450.99,-128.046C453.427,-148.422 457.47,-207.997 427,-240 407.623,-260.351 333.317,-273.745 284.127,-280.586"/>
<polygon fill="black" stroke="black" stroke-width="0.5" points="279.152,-281.267 283.8,-278.36 281.628,-280.928 284.105,-280.589 284.105,-280.589 284.105,-280.589 281.628,-280.928 284.411,-282.818 279.152,-281.267 279.152,-281.267"/>
</g>
<!-- app::assets -->
<g id="node3" class="node"><title>app::assets</title>
<polygon fill="#fffaf3" stroke="black" points="473,-307 421,-307 421,-267 479,-267 479,-301 473,-307"/>
<polyline fill="none" stroke="black" points="473,-307 473,-301 "/>
<polyline fill="none" stroke="black" points="479,-301 473,-301 "/>
<text text-anchor="start" x="423" y="-297.5" font-family="Helvetica,sans-Serif" font-weight="bold" font-size="10.00">assets</text>
<text text-anchor="start" x="423" y="-282" font-family="Helvetica,sans-Serif" font-size="10.00" fill="forestgreen">+</text>
<text text-anchor="start" x="430" y="-282" font-family="Helvetica,sans-Serif" font-size="10.00">Asset</text>
<text text-anchor="start" x="423" y="-272" font-family="Helvetica,sans-Serif" font-size="10.00" fill="forestgreen">+</text>
<text text-anchor="start" x="430" y="-272" font-family="Helvetica,sans-Serif" font-size="10.00">TextAsset</text>
</g>
<!-- app::app&#45;&gt;app::assets -->
<g id="edge2" class="edge"><title>app::app&#45;&gt;app::assets</title>
<path fill="none" stroke="black" stroke-width="0.5" stroke-dasharray="5,2" d="M450,-128.09C450,-150.901 450,-223.142 450,-261.507"/>
<polygon fill="black" stroke="black" stroke-width="0.5" points="450,-266.911 447.75,-261.911 450,-264.411 450,-261.911 450,-261.911 450,-261.911 450,-264.411 452.25,-261.911 450,-266.911 450,-266.911"/>
</g>
<!-- app::audio -->
<g id="node4" class="node"><title>app::audio</title>
<polygon fill="#fffaf3" stroke="black" points="68.5,-150 -0.5,-150 -0.5,-90 74.5,-90 74.5,-144 68.5,-150"/>
<polyline fill="none" stroke="black" points="68.5,-150 68.5,-144 "/>
<polyline fill="none" stroke="black" points="74.5,-144 68.5,-144 "/>
<text text-anchor="start" x="2" y="-140.5" font-family="Helvetica,sans-Serif" font-weight="bold" font-size="10.00">audio</text>
<text text-anchor="start" x="2" y="-125" font-family="Helvetica,sans-Serif" font-size="10.00" fill="forestgreen">+</text>
<text text-anchor="start" x="9" y="-125" font-family="Helvetica,sans-Serif" font-size="10.00">Music</text>
<text text-anchor="start" x="2" y="-115" font-family="Helvetica,sans-Serif" font-size="10.00" fill="forestgreen">+</text>
<text text-anchor="start" x="9" y="-115" font-family="Helvetica,sans-Serif" font-size="10.00">PlayableAudio</text>
<text text-anchor="start" x="2" y="-105" font-family="Helvetica,sans-Serif" font-size="10.00" fill="forestgreen">+</text>
<text text-anchor="start" x="9" y="-105" font-family="Helvetica,sans-Serif" font-size="10.00">Sound</text>
<text text-anchor="start" x="2" y="-95" font-family="Helvetica,sans-Serif" font-size="10.00" fill="forestgreen">+</text>
<text text-anchor="start" x="9" y="-95" font-family="Helvetica,sans-Serif" font-size="10.00">Sys</text>
</g>
<!-- app::audio&#45;&gt;app::app_base -->
<g id="edge3" class="edge"><title>app::audio&#45;&gt;app::app_base</title>
<path fill="none" stroke="black" stroke-width="0.5" stroke-dasharray="5,2" d="M41.3831,-150.058C46.9489,-177.026 59.1445,-216.447 85,-240 114.762,-267.112 159.893,-278.275 193.616,-282.855"/>
<polygon fill="black" stroke="black" stroke-width="0.5" points="198.926,-283.534 193.681,-285.131 196.447,-283.217 193.967,-282.899 193.967,-282.899 193.967,-282.899 196.447,-283.217 194.253,-280.668 198.926,-283.534 198.926,-283.534"/>
</g>
<!-- app::data_store -->
<g id="node5" class="node"><title>app::data_store</title>
<polygon fill="#fffaf3" stroke="black" points="147.5,-140 96.5,-140 96.5,-100 153.5,-100 153.5,-134 147.5,-140"/>
<polyline fill="none" stroke="black" points="147.5,-140 147.5,-134 "/>
<polyline fill="none" stroke="black" points="153.5,-134 147.5,-134 "/>
<text text-anchor="start" x="99" y="-130.5" font-family="Helvetica,sans-Serif" font-weight="bold" font-size="10.00">data_store</text>
<text text-anchor="start" x="99" y="-115" font-family="Helvetica,sans-Serif" font-size="10.00" fill="forestgreen">+</text>
<text text-anchor="start" x="106" y="-115" font-family="Helvetica,sans-Serif" font-size="10.00">App</text>
<text text-anchor="start" x="99" y="-105" font-family="Helvetica,sans-Serif" font-size="10.00" fill="forestgreen">+</text>
<text text-anchor="start" x="106" y="-105" font-family="Helvetica,sans-Serif" font-size="10.00">DataStore</text>
</g>
<!-- app::data_store&#45;&gt;app::app_base -->
<g id="edge4" class="edge"><title>app::data_store&#45;&gt;app::app_base</title>
<path fill="none" stroke="black" stroke-width="0.5" stroke-dasharray="5,2" d="M127.371,-140.218C131.33,-165.464 141.331,-210.09 165,-240 172.956,-250.053 183.754,-258.491 194.641,-265.282"/>
<polygon fill="black" stroke="black" stroke-width="0.5" points="198.975,-267.9 193.531,-267.241 196.835,-266.607 194.695,-265.315 194.695,-265.315 194.695,-265.315 196.835,-266.607 195.858,-263.389 198.975,-267.9 198.975,-267.9"/>
</g>
<!-- app::http_request -->
<g id="node6" class="node"><title>app::http_request</title>
<polygon fill="#fffaf3" stroke="black" points="296,-155 176,-155 176,-85 302,-85 302,-149 296,-155"/>
<polyline fill="none" stroke="black" points="296,-155 296,-149 "/>
<polyline fill="none" stroke="black" points="302,-149 296,-149 "/>
<text text-anchor="start" x="178" y="-145.5" font-family="Helvetica,sans-Serif" font-weight="bold" font-size="10.00">http_request</text>
<text text-anchor="start" x="178" y="-130" font-family="Helvetica,sans-Serif" font-size="10.00" fill="forestgreen">+</text>
<text text-anchor="start" x="185" y="-130" font-family="Helvetica,sans-Serif" font-size="10.00">App</text>
<text text-anchor="start" x="178" y="-120" font-family="Helvetica,sans-Serif" font-size="10.00" fill="forestgreen">+</text>
<text text-anchor="start" x="185" y="-120" font-family="Helvetica,sans-Serif" font-size="10.00">AsyncHttpRequest</text>
<text text-anchor="start" x="178" y="-110" font-family="Helvetica,sans-Serif" font-size="10.00" fill="forestgreen">+</text>
<text text-anchor="start" x="185" y="-110" font-family="Helvetica,sans-Serif" font-size="10.00">HttpRequestResult</text>
<text text-anchor="start" x="178" y="-100" font-family="Helvetica,sans-Serif" font-size="10.00" fill="forestgreen">+</text>
<text text-anchor="start" x="185" y="-100" font-family="Helvetica,sans-Serif" font-size="10.00">SimpleAsyncHttpRequest</text>
<text text-anchor="start" x="178" y="-90" font-family="Helvetica,sans-Serif" font-size="10.00" fill="forestgreen">+</text>
<text text-anchor="start" x="185" y="-90" font-family="Helvetica,sans-Serif" font-size="10.00">Text</text>
</g>
<!-- app::http_request&#45;&gt;app::app_base -->
<g id="edge5" class="edge"><title>app::http_request&#45;&gt;app::app_base</title>
<path fill="none" stroke="black" stroke-width="0.5" stroke-dasharray="5,2" d="M239,-155.188C239,-185.224 239,-228.45 239,-256.871"/>
<polygon fill="black" stroke="black" stroke-width="0.5" points="239,-261.999 236.75,-256.999 239,-259.499 239,-256.999 239,-256.999 239,-256.999 239,-259.499 241.25,-256.999 239,-261.999 239,-261.999"/>
</g>
<!-- app::ui -->
<g id="node7" class="node"><title>app::ui</title>
<polygon fill="#fffaf3" stroke="black" points="410,-240 324,-240 324,-2.84217e-14 416,-2.84217e-14 416,-234 410,-240"/>
<polyline fill="none" stroke="black" points="410,-240 410,-234 "/>
<polyline fill="none" stroke="black" points="416,-234 410,-234 "/>
<text text-anchor="start" x="326" y="-230.5" font-family="Helvetica,sans-Serif" font-weight="bold" font-size="10.00">ui</text>
<text text-anchor="start" x="326" y="-215" font-family="Helvetica,sans-Serif" font-size="10.00" fill="forestgreen">+</text>
<text text-anchor="start" x="333" y="-215" font-family="Helvetica,sans-Serif" font-size="10.00">App</text>
<text text-anchor="start" x="326" y="-205" font-family="Helvetica,sans-Serif" font-size="10.00" fill="forestgreen">+</text>
<text text-anchor="start" x="333" y="-205" font-family="Helvetica,sans-Serif" font-size="10.00">AppComponent</text>
<text text-anchor="start" x="326" y="-195" font-family="Helvetica,sans-Serif" font-size="10.00" fill="forestgreen">+</text>
<text text-anchor="start" x="333" y="-195" font-family="Helvetica,sans-Serif" font-size="10.00">AppEvent</text>
<text text-anchor="start" x="326" y="-185" font-family="Helvetica,sans-Serif" font-size="10.00" fill="forestgreen">+</text>
<text text-anchor="start" x="333" y="-185" font-family="Helvetica,sans-Serif" font-size="10.00">AppObserver</text>
<text text-anchor="start" x="326" y="-175" font-family="Helvetica,sans-Serif" font-size="10.00" fill="forestgreen">+</text>
<text text-anchor="start" x="333" y="-175" font-family="Helvetica,sans-Serif" font-size="10.00">Button</text>
<text text-anchor="start" x="326" y="-165" font-family="Helvetica,sans-Serif" font-size="10.00" fill="forestgreen">+</text>
<text text-anchor="start" x="333" y="-165" font-family="Helvetica,sans-Serif" font-size="10.00">ButtonPressEvent</text>
<text text-anchor="start" x="326" y="-155" font-family="Helvetica,sans-Serif" font-size="10.00" fill="forestgreen">+</text>
<text text-anchor="start" x="333" y="-155" font-family="Helvetica,sans-Serif" font-size="10.00">CheckBox</text>
<text text-anchor="start" x="326" y="-145" font-family="Helvetica,sans-Serif" font-size="10.00" fill="forestgreen">+</text>
<text text-anchor="start" x="333" y="-145" font-family="Helvetica,sans-Serif" font-size="10.00">CompositeControl</text>
<text text-anchor="start" x="326" y="-135" font-family="Helvetica,sans-Serif" font-size="10.00" fill="forestgreen">+</text>
<text text-anchor="start" x="333" y="-135" font-family="Helvetica,sans-Serif" font-size="10.00">Control</text>
<text text-anchor="start" x="326" y="-125" font-family="Helvetica,sans-Serif" font-size="10.00" fill="forestgreen">+</text>
<text text-anchor="start" x="333" y="-125" font-family="Helvetica,sans-Serif" font-size="10.00">HorizontalLayout</text>
<text text-anchor="start" x="326" y="-115" font-family="Helvetica,sans-Serif" font-size="10.00" fill="forestgreen">+</text>
<text text-anchor="start" x="333" y="-115" font-family="Helvetica,sans-Serif" font-size="10.00">Label</text>
<text text-anchor="start" x="326" y="-105" font-family="Helvetica,sans-Serif" font-size="10.00" fill="forestgreen">+</text>
<text text-anchor="start" x="333" y="-105" font-family="Helvetica,sans-Serif" font-size="10.00">Layout</text>
<text text-anchor="start" x="326" y="-95" font-family="Helvetica,sans-Serif" font-size="10.00" fill="forestgreen">+</text>
<text text-anchor="start" x="333" y="-95" font-family="Helvetica,sans-Serif" font-size="10.00">ListLayout</text>
<text text-anchor="start" x="326" y="-85" font-family="Helvetica,sans-Serif" font-size="10.00" fill="forestgreen">+</text>
<text text-anchor="start" x="333" y="-85" font-family="Helvetica,sans-Serif" font-size="10.00">Sys</text>
<text text-anchor="start" x="326" y="-75" font-family="Helvetica,sans-Serif" font-size="10.00" fill="forestgreen">+</text>
<text text-anchor="start" x="333" y="-75" font-family="Helvetica,sans-Serif" font-size="10.00">Text</text>
<text text-anchor="start" x="326" y="-65" font-family="Helvetica,sans-Serif" font-size="10.00" fill="forestgreen">+</text>
<text text-anchor="start" x="333" y="-65" font-family="Helvetica,sans-Serif" font-size="10.00">TextInput</text>
<text text-anchor="start" x="326" y="-55" font-family="Helvetica,sans-Serif" font-size="10.00" fill="forestgreen">+</text>
<text text-anchor="start" x="333" y="-55" font-family="Helvetica,sans-Serif" font-size="10.00">TextView</text>
<text text-anchor="start" x="326" y="-45" font-family="Helvetica,sans-Serif" font-size="10.00" fill="forestgreen">+</text>
<text text-anchor="start" x="333" y="-45" font-family="Helvetica,sans-Serif" font-size="10.00">ToggleEvent</text>
<text text-anchor="start" x="326" y="-35" font-family="Helvetica,sans-Serif" font-size="10.00" fill="forestgreen">+</text>
<text text-anchor="start" x="333" y="-35" font-family="Helvetica,sans-Serif" font-size="10.00">VerticalLayout</text>
<text text-anchor="start" x="326" y="-25" font-family="Helvetica,sans-Serif" font-size="10.00" fill="forestgreen">+</text>
<text text-anchor="start" x="333" y="-25" font-family="Helvetica,sans-Serif" font-size="10.00">View</text>
<text text-anchor="start" x="326" y="-15" font-family="Helvetica,sans-Serif" font-size="10.00" fill="forestgreen">+</text>
<text text-anchor="start" x="333" y="-15" font-family="Helvetica,sans-Serif" font-size="10.00">ViewEvent</text>
<text text-anchor="start" x="326" y="-5" font-family="Helvetica,sans-Serif" font-size="10.00" fill="forestgreen">+</text>
<text text-anchor="start" x="333" y="-5" font-family="Helvetica,sans-Serif" font-size="10.00">Window</text>
</g>
<!-- app::ui&#45;&gt;app::app_base -->
<g id="edge6" class="edge"><title>app::ui&#45;&gt;app::app_base</title>
<path fill="none" stroke="black" stroke-width="0.5" stroke-dasharray="5,2" d="M323.86,-226.399C320.441,-231.168 316.822,-235.735 313,-240 304.785,-249.167 294.315,-257.155 283.855,-263.786"/>
<polygon fill="black" stroke="black" stroke-width="0.5" points="279.379,-266.544 282.455,-262.005 281.507,-265.232 283.635,-263.921 283.635,-263.921 283.635,-263.921 281.507,-265.232 284.816,-265.836 279.379,-266.544 279.379,-266.544"/>
</g>
</g>
</svg>
