<?xml version="1.0" encoding="UTF-8" standalone="no"?>
<!DOCTYPE svg PUBLIC "-//W3C//DTD SVG 1.1//EN"
 "http://www.w3.org/Graphics/SVG/1.1/DTD/svg11.dtd">
<!-- Generated by graphviz version 2.36.0 (20140111.2315)
 -->
<!-- Title: G Pages: 1 -->
<svg width="344pt" height="528pt"
 viewBox="0.00 0.00 344.00 528.00" xmlns="http://www.w3.org/2000/svg" xmlns:xlink="http://www.w3.org/1999/xlink">
<g id="graph0" class="graph" transform="scale(1 1) rotate(0) translate(4 524)">
<title>G</title>
<polygon fill="white" stroke="none" points="-4,4 -4,-524 340,-524 340,4 -4,4"/>
<!-- sdl2::all -->
<g id="node1" class="node"><title>sdl2::all</title>
<polygon fill="#fffaf3" stroke="black" points="114.833,-16 100.5,-16 100.5,-0 117.5,-0 117.5,-13.3333 114.833,-16"/>
<polyline fill="none" stroke="black" points="114.833,-16 114.833,-13.3333 "/>
<polyline fill="none" stroke="black" points="117.5,-13.3333 114.833,-13.3333 "/>
<text text-anchor="start" x="103" y="-6.5" font-family="Helvetica,sans-Serif" font-weight="bold" font-size="10.00">all</text>
</g>
<!-- sdl2::image -->
<g id="node4" class="node"><title>sdl2::image</title>
<polygon fill="#fffaf3" stroke="black" points="146,-98 66,-98 66,-38 152,-38 152,-92 146,-98"/>
<polyline fill="none" stroke="black" points="146,-98 146,-92 "/>
<polyline fill="none" stroke="black" points="152,-92 146,-92 "/>
<text text-anchor="start" x="68" y="-88.5" font-family="Helvetica,sans-Serif" font-weight="bold" font-size="10.00">image</text>
<text text-anchor="start" x="68" y="-73" font-family="Helvetica,sans-Serif" font-size="10.00" fill="forestgreen">+</text>
<text text-anchor="start" x="75" y="-73" font-family="Helvetica,sans-Serif" font-size="10.00">IMG</text>
<text text-anchor="start" x="68" y="-63" font-family="Helvetica,sans-Serif" font-size="10.00" fill="forestgreen">+</text>
<text text-anchor="start" x="75" y="-63" font-family="Helvetica,sans-Serif" font-size="10.00">SDL</text>
<text text-anchor="start" x="68" y="-53" font-family="Helvetica,sans-Serif" font-size="10.00" fill="forestgreen">+</text>
<text text-anchor="start" x="75" y="-53" font-family="Helvetica,sans-Serif" font-size="10.00">SDLImgInitFlags</text>
<text text-anchor="start" x="68" y="-43" font-family="Helvetica,sans-Serif" font-size="10.00" fill="forestgreen">+</text>
<text text-anchor="start" x="75" y="-43" font-family="Helvetica,sans-Serif" font-size="10.00">SDLSurface</text>
</g>
<!-- sdl2::all&#45;&gt;sdl2::image -->
<g id="edge1" class="edge"><title>sdl2::all&#45;&gt;sdl2::image</title>
<path fill="none" stroke="black" stroke-width="0.5" stroke-dasharray="5,2" d="M109,-16.1119C109,-20.4603 109,-26.3783 109,-32.6418"/>
<polygon fill="black" stroke="black" stroke-width="0.5" points="109,-37.9575 106.75,-32.9575 109,-35.4575 109,-32.9575 109,-32.9575 109,-32.9575 109,-35.4575 111.25,-32.9576 109,-37.9575 109,-37.9575"/>
</g>
<!-- sdl2::sdl2 -->
<g id="node2" class="node"><title>sdl2::sdl2</title>
<polygon fill="#fffaf3" stroke="black" points="118.833,-136 96.5,-136 96.5,-120 121.5,-120 121.5,-133.333 118.833,-136"/>
<polyline fill="none" stroke="black" points="118.833,-136 118.833,-133.333 "/>
<polyline fill="none" stroke="black" points="121.5,-133.333 118.833,-133.333 "/>
<text text-anchor="start" x="99" y="-126.5" font-family="Helvetica,sans-Serif" font-weight="bold" font-size="10.00">sdl2</text>
</g>
<!-- sdl2::syswm -->
<g id="node3" class="node"><title>sdl2::syswm</title>
<polygon fill="#fffaf3" stroke="black" points="78,-258 7.10543e-15,-258 7.10543e-15,-218 84,-218 84,-252 78,-258"/>
<polyline fill="none" stroke="black" points="78,-258 78,-252 "/>
<polyline fill="none" stroke="black" points="84,-252 78,-252 "/>
<text text-anchor="start" x="2" y="-248.5" font-family="Helvetica,sans-Serif" font-weight="bold" font-size="10.00">syswm</text>
<text text-anchor="start" x="2" y="-233" font-family="Helvetica,sans-Serif" font-size="10.00" fill="forestgreen">+</text>
<text text-anchor="start" x="9" y="-233" font-family="Helvetica,sans-Serif" font-size="10.00">SDLSysWMInfo</text>
<text text-anchor="start" x="2" y="-223" font-family="Helvetica,sans-Serif" font-size="10.00" fill="forestgreen">+</text>
<text text-anchor="start" x="9" y="-223" font-family="Helvetica,sans-Serif" font-size="10.00">SDLWindow</text>
</g>
<!-- sdl2::sdl2&#45;&gt;sdl2::syswm -->
<g id="edge2" class="edge"><title>sdl2::sdl2&#45;&gt;sdl2::syswm</title>
<path fill="none" stroke="black" stroke-width="0.5" stroke-dasharray="5,2" d="M104.604,-136.086C95.0664,-151.46 72.1027,-188.476 56.7996,-213.144"/>
<polygon fill="black" stroke="black" stroke-width="0.5" points="54.0363,-217.598 54.7602,-212.163 55.3542,-215.474 56.6722,-213.349 56.6722,-213.349 56.6722,-213.349 55.3542,-215.474 58.5841,-214.536 54.0363,-217.598 54.0363,-217.598"/>
</g>
<!-- sdl2::events -->
<g id="node6" class="node"><title>sdl2::events</title>
<polygon fill="#fffaf3" stroke="black" points="241.5,-318 106.5,-318 106.5,-158 247.5,-158 247.5,-312 241.5,-318"/>
<polyline fill="none" stroke="black" points="241.5,-318 241.5,-312 "/>
<polyline fill="none" stroke="black" points="247.5,-312 241.5,-312 "/>
<text text-anchor="start" x="109" y="-308.5" font-family="Helvetica,sans-Serif" font-weight="bold" font-size="10.00">events</text>
<text text-anchor="start" x="109" y="-293" font-family="Helvetica,sans-Serif" font-size="10.00" fill="forestgreen">+</text>
<text text-anchor="start" x="116" y="-293" font-family="Helvetica,sans-Serif" font-size="10.00">SDLEvent</text>
<text text-anchor="start" x="109" y="-283" font-family="Helvetica,sans-Serif" font-size="10.00" fill="forestgreen">+</text>
<text text-anchor="start" x="116" y="-283" font-family="Helvetica,sans-Serif" font-size="10.00">SDLEventBuffer</text>
<text text-anchor="start" x="109" y="-273" font-family="Helvetica,sans-Serif" font-size="10.00" fill="forestgreen">+</text>
<text text-anchor="start" x="116" y="-273" font-family="Helvetica,sans-Serif" font-size="10.00">SDLKeyboardDownEvent</text>
<text text-anchor="start" x="109" y="-263" font-family="Helvetica,sans-Serif" font-size="10.00" fill="forestgreen">+</text>
<text text-anchor="start" x="116" y="-263" font-family="Helvetica,sans-Serif" font-size="10.00">SDLKeyboardEvent</text>
<text text-anchor="start" x="109" y="-253" font-family="Helvetica,sans-Serif" font-size="10.00" fill="forestgreen">+</text>
<text text-anchor="start" x="116" y="-253" font-family="Helvetica,sans-Serif" font-size="10.00">SDLKeyboardUpEvent</text>
<text text-anchor="start" x="109" y="-243" font-family="Helvetica,sans-Serif" font-size="10.00" fill="forestgreen">+</text>
<text text-anchor="start" x="116" y="-243" font-family="Helvetica,sans-Serif" font-size="10.00">SDLKeysym</text>
<text text-anchor="start" x="109" y="-233" font-family="Helvetica,sans-Serif" font-size="10.00" fill="forestgreen">+</text>
<text text-anchor="start" x="116" y="-233" font-family="Helvetica,sans-Serif" font-size="10.00">SDLMouseButtonDownEvent</text>
<text text-anchor="start" x="109" y="-223" font-family="Helvetica,sans-Serif" font-size="10.00" fill="forestgreen">+</text>
<text text-anchor="start" x="116" y="-223" font-family="Helvetica,sans-Serif" font-size="10.00">SDLMouseButtonEvent</text>
<text text-anchor="start" x="109" y="-213" font-family="Helvetica,sans-Serif" font-size="10.00" fill="forestgreen">+</text>
<text text-anchor="start" x="116" y="-213" font-family="Helvetica,sans-Serif" font-size="10.00">SDLMouseButtonUpEvent</text>
<text text-anchor="start" x="109" y="-203" font-family="Helvetica,sans-Serif" font-size="10.00" fill="forestgreen">+</text>
<text text-anchor="start" x="116" y="-203" font-family="Helvetica,sans-Serif" font-size="10.00">SDLMouseEvent</text>
<text text-anchor="start" x="109" y="-193" font-family="Helvetica,sans-Serif" font-size="10.00" fill="forestgreen">+</text>
<text text-anchor="start" x="116" y="-193" font-family="Helvetica,sans-Serif" font-size="10.00">SDLMouseMotionEvent</text>
<text text-anchor="start" x="109" y="-183" font-family="Helvetica,sans-Serif" font-size="10.00" fill="forestgreen">+</text>
<text text-anchor="start" x="116" y="-183" font-family="Helvetica,sans-Serif" font-size="10.00">SDLMouseWheelEvent</text>
<text text-anchor="start" x="109" y="-173" font-family="Helvetica,sans-Serif" font-size="10.00" fill="forestgreen">+</text>
<text text-anchor="start" x="116" y="-173" font-family="Helvetica,sans-Serif" font-size="10.00">SDLQuitEvent</text>
<text text-anchor="start" x="109" y="-163" font-family="Helvetica,sans-Serif" font-size="10.00" fill="forestgreen">+</text>
<text text-anchor="start" x="116" y="-163" font-family="Helvetica,sans-Serif" font-size="10.00">SDLWindowEvent</text>
</g>
<!-- sdl2::sdl2&#45;&gt;sdl2::events -->
<g id="edge3" class="edge"><title>sdl2::sdl2&#45;&gt;sdl2::events</title>
<path fill="none" stroke="black" stroke-width="0.5" stroke-dasharray="5,2" d="M113.462,-136.086C116.153,-140.361 119.898,-146.309 124.237,-153.2"/>
<polygon fill="black" stroke="black" stroke-width="0.5" points="127.011,-157.605 122.443,-154.573 125.679,-155.49 124.347,-153.374 124.347,-153.374 124.347,-153.374 125.679,-155.49 126.251,-152.175 127.011,-157.605 127.011,-157.605"/>
</g>
<!-- sdl2::sdl2_base -->
<g id="node7" class="node"><title>sdl2::sdl2_base</title>
<polygon fill="#fffaf3" stroke="black" points="227.5,-520 120.5,-520 120.5,-340 233.5,-340 233.5,-514 227.5,-520"/>
<polyline fill="none" stroke="black" points="227.5,-520 227.5,-514 "/>
<polyline fill="none" stroke="black" points="233.5,-514 227.5,-514 "/>
<text text-anchor="start" x="123" y="-510.5" font-family="Helvetica,sans-Serif" font-weight="bold" font-size="10.00">sdl2_base</text>
<text text-anchor="start" x="123" y="-495" font-family="Helvetica,sans-Serif" font-size="10.00" fill="forestgreen">+</text>
<text text-anchor="start" x="130" y="-495" font-family="Helvetica,sans-Serif" font-size="10.00">Int</text>
<text text-anchor="start" x="123" y="-485" font-family="Helvetica,sans-Serif" font-size="10.00" fill="forestgreen">+</text>
<text text-anchor="start" x="130" y="-485" font-family="Helvetica,sans-Serif" font-size="10.00">SDL</text>
<text text-anchor="start" x="123" y="-475" font-family="Helvetica,sans-Serif" font-size="10.00" fill="forestgreen">+</text>
<text text-anchor="start" x="130" y="-475" font-family="Helvetica,sans-Serif" font-size="10.00">SDLColor</text>
<text text-anchor="start" x="123" y="-465" font-family="Helvetica,sans-Serif" font-size="10.00" fill="forestgreen">+</text>
<text text-anchor="start" x="130" y="-465" font-family="Helvetica,sans-Serif" font-size="10.00">SDLInitFlags</text>
<text text-anchor="start" x="123" y="-455" font-family="Helvetica,sans-Serif" font-size="10.00" fill="forestgreen">+</text>
<text text-anchor="start" x="130" y="-455" font-family="Helvetica,sans-Serif" font-size="10.00">SDLMessageBoxFlags</text>
<text text-anchor="start" x="123" y="-445" font-family="Helvetica,sans-Serif" font-size="10.00" fill="forestgreen">+</text>
<text text-anchor="start" x="130" y="-445" font-family="Helvetica,sans-Serif" font-size="10.00">SDLPoint</text>
<text text-anchor="start" x="123" y="-435" font-family="Helvetica,sans-Serif" font-size="10.00" fill="forestgreen">+</text>
<text text-anchor="start" x="130" y="-435" font-family="Helvetica,sans-Serif" font-size="10.00">SDLRect</text>
<text text-anchor="start" x="123" y="-425" font-family="Helvetica,sans-Serif" font-size="10.00" fill="forestgreen">+</text>
<text text-anchor="start" x="130" y="-425" font-family="Helvetica,sans-Serif" font-size="10.00">SDLRenderer</text>
<text text-anchor="start" x="123" y="-415" font-family="Helvetica,sans-Serif" font-size="10.00" fill="forestgreen">+</text>
<text text-anchor="start" x="130" y="-415" font-family="Helvetica,sans-Serif" font-size="10.00">SDLRendererFlags</text>
<text text-anchor="start" x="123" y="-405" font-family="Helvetica,sans-Serif" font-size="10.00" fill="forestgreen">+</text>
<text text-anchor="start" x="130" y="-405" font-family="Helvetica,sans-Serif" font-size="10.00">SDLRendererInfo</text>
<text text-anchor="start" x="123" y="-395" font-family="Helvetica,sans-Serif" font-size="10.00" fill="forestgreen">+</text>
<text text-anchor="start" x="130" y="-395" font-family="Helvetica,sans-Serif" font-size="10.00">SDLSurface</text>
<text text-anchor="start" x="123" y="-385" font-family="Helvetica,sans-Serif" font-size="10.00" fill="forestgreen">+</text>
<text text-anchor="start" x="130" y="-385" font-family="Helvetica,sans-Serif" font-size="10.00">SDLTexture</text>
<text text-anchor="start" x="123" y="-375" font-family="Helvetica,sans-Serif" font-size="10.00" fill="forestgreen">+</text>
<text text-anchor="start" x="130" y="-375" font-family="Helvetica,sans-Serif" font-size="10.00">SDLWindow</text>
<text text-anchor="start" x="123" y="-365" font-family="Helvetica,sans-Serif" font-size="10.00" fill="forestgreen">+</text>
<text text-anchor="start" x="130" y="-365" font-family="Helvetica,sans-Serif" font-size="10.00">SDLWindowFlags</text>
<text text-anchor="start" x="123" y="-355" font-family="Helvetica,sans-Serif" font-size="10.00" fill="forestgreen">+</text>
<text text-anchor="start" x="130" y="-355" font-family="Helvetica,sans-Serif" font-size="10.00">SDL_PixelFormat</text>
<text text-anchor="start" x="123" y="-345" font-family="Helvetica,sans-Serif" font-size="10.00" fill="forestgreen">+</text>
<text text-anchor="start" x="130" y="-345" font-family="Helvetica,sans-Serif" font-size="10.00">Sys</text>
</g>
<!-- sdl2::syswm&#45;&gt;sdl2::sdl2_base -->
<g id="edge4" class="edge"><title>sdl2::syswm&#45;&gt;sdl2::sdl2_base</title>
<path fill="none" stroke="black" stroke-width="0.5" stroke-dasharray="5,2" d="M54.6107,-258.322C65.2007,-274.419 80.8302,-297.88 95,-318 102.246,-328.289 109.972,-339.029 117.674,-349.602"/>
<polygon fill="black" stroke="black" stroke-width="0.5" points="120.738,-353.802 115.974,-351.09 119.265,-351.783 117.791,-349.763 117.791,-349.763 117.791,-349.763 119.265,-351.783 119.609,-348.437 120.738,-353.802 120.738,-353.802"/>
</g>
<!-- sdl2::image&#45;&gt;sdl2::sdl2 -->
<g id="edge5" class="edge"><title>sdl2::image&#45;&gt;sdl2::sdl2</title>
<path fill="none" stroke="black" stroke-width="0.5" stroke-dasharray="5,2" d="M109,-98C109,-103.862 109,-109.725 109,-114.629"/>
<polygon fill="black" stroke="black" stroke-width="0.5" points="109,-119.888 106.75,-114.888 109,-117.388 109,-114.888 109,-114.888 109,-114.888 109,-117.388 111.25,-114.888 109,-119.888 109,-119.888"/>
</g>
<!-- sdl2::mixer -->
<g id="node5" class="node"><title>sdl2::mixer</title>
<polygon fill="#fffaf3" stroke="black" points="330,-278 270,-278 270,-198 336,-198 336,-272 330,-278"/>
<polyline fill="none" stroke="black" points="330,-278 330,-272 "/>
<polyline fill="none" stroke="black" points="336,-272 330,-272 "/>
<text text-anchor="start" x="272" y="-268.5" font-family="Helvetica,sans-Serif" font-weight="bold" font-size="10.00">mixer</text>
<text text-anchor="start" x="272" y="-253" font-family="Helvetica,sans-Serif" font-size="10.00" fill="forestgreen">+</text>
<text text-anchor="start" x="279" y="-253" font-family="Helvetica,sans-Serif" font-size="10.00">Mix</text>
<text text-anchor="start" x="272" y="-243" font-family="Helvetica,sans-Serif" font-size="10.00" fill="forestgreen">+</text>
<text text-anchor="start" x="279" y="-243" font-family="Helvetica,sans-Serif" font-size="10.00">MixChunk</text>
<text text-anchor="start" x="272" y="-233" font-family="Helvetica,sans-Serif" font-size="10.00" fill="forestgreen">+</text>
<text text-anchor="start" x="279" y="-233" font-family="Helvetica,sans-Serif" font-size="10.00">MixFormat</text>
<text text-anchor="start" x="272" y="-223" font-family="Helvetica,sans-Serif" font-size="10.00" fill="forestgreen">+</text>
<text text-anchor="start" x="279" y="-223" font-family="Helvetica,sans-Serif" font-size="10.00">MixInitFlags</text>
<text text-anchor="start" x="272" y="-213" font-family="Helvetica,sans-Serif" font-size="10.00" fill="forestgreen">+</text>
<text text-anchor="start" x="279" y="-213" font-family="Helvetica,sans-Serif" font-size="10.00">MixMusic</text>
<text text-anchor="start" x="272" y="-203" font-family="Helvetica,sans-Serif" font-size="10.00" fill="forestgreen">+</text>
<text text-anchor="start" x="279" y="-203" font-family="Helvetica,sans-Serif" font-size="10.00">Sys</text>
</g>
<!-- sdl2::mixer&#45;&gt;sdl2::sdl2_base -->
<g id="edge6" class="edge"><title>sdl2::mixer&#45;&gt;sdl2::sdl2_base</title>
<path fill="none" stroke="black" stroke-width="0.5" stroke-dasharray="5,2" d="M281.882,-278.093C274.615,-290.986 266.229,-305.276 258,-318 251.195,-328.522 243.772,-339.399 236.272,-350.043"/>
<polygon fill="black" stroke="black" stroke-width="0.5" points="233.282,-354.268 234.333,-348.887 234.726,-352.228 236.17,-350.187 236.17,-350.187 236.17,-350.187 234.726,-352.228 238.007,-351.486 233.282,-354.268 233.282,-354.268"/>
</g>
<!-- sdl2::events&#45;&gt;sdl2::sdl2_base -->
<g id="edge7" class="edge"><title>sdl2::events&#45;&gt;sdl2::sdl2_base</title>
<path fill="none" stroke="black" stroke-width="0.5" stroke-dasharray="5,2" d="M177,-318.201C177,-323.658 177,-329.187 177,-334.713"/>
<polygon fill="black" stroke="black" stroke-width="0.5" points="177,-339.784 174.75,-334.784 177,-337.284 177,-334.784 177,-334.784 177,-334.784 177,-337.284 179.25,-334.784 177,-339.784 177,-339.784"/>
</g>
</g>
</svg>
