<?xml version="1.0" encoding="UTF-8" standalone="no"?>
<!DOCTYPE svg PUBLIC "-//W3C//DTD SVG 1.1//EN"
 "http://www.w3.org/Graphics/SVG/1.1/DTD/svg11.dtd">
<!-- Generated by graphviz version 2.36.0 (20140111.2315)
 -->
<!-- Title: G Pages: 1 -->
<svg width="1544pt" height="202pt"
 viewBox="0.00 0.00 1544.00 202.00" xmlns="http://www.w3.org/2000/svg" xmlns:xlink="http://www.w3.org/1999/xlink">
<g id="graph0" class="graph" transform="scale(1 1) rotate(0) translate(4 198)">
<title>G</title>
<polygon fill="white" stroke="none" points="-4,4 -4,-198 1540,-198 1540,4 -4,4"/>
<!-- a_star::Node -->
<g id="node1" class="node"><title>a_star::Node</title>
<polygon fill="white" stroke="none" points="614.5,-71.5 -0.5,-71.5 -0.5,-0.5 614.5,-0.5 614.5,-71.5"/>
<polygon fill="none" stroke="forestgreen" points="0,-53 0,-71 615,-71 615,-53 0,-53"/>
<text text-anchor="start" x="295" y="-60.5" font-family="Helvetica,sans-Serif" font-weight="bold" font-size="10.00">Node</text>
<polygon fill="none" stroke="forestgreen" points="0,-36 0,-53 615,-53 615,-36 0,-36"/>
<text text-anchor="start" x="3" y="-43" font-family="Helvetica,sans-Serif" font-size="10.00" fill="forestgreen">+</text>
<text text-anchor="start" x="10" y="-43" font-family="Helvetica,sans-Serif" font-size="10.00"> N: Node</text>
<polygon fill="none" stroke="forestgreen" points="0,-0 0,-36 615,-36 615,-0 0,-0"/>
<text text-anchor="start" x="3" y="-26" font-family="Helvetica,sans-Serif" font-size="10.00" fill="forestgreen">+</text>
<text text-anchor="start" x="10" y="-26" font-family="Helvetica,sans-Serif" font-size="10.00"> find_closest(max_cost: Int, context: PathContext, cond: nullable TargetCondition[N]): nullable N</text>
<text text-anchor="start" x="3" y="-16" font-family="Helvetica,sans-Serif" font-size="10.00" fill="forestgreen">+</text>
<text text-anchor="start" x="10" y="-16" font-family="Helvetica,sans-Serif" font-size="10.00"> path_to(dest: N, max_cost: Int, context: PathContext): nullable AStarPath[N]</text>
<text text-anchor="start" x="3" y="-6" font-family="Helvetica,sans-Serif" font-size="10.00" fill="forestgreen">+</text>
<text text-anchor="start" x="10" y="-6" font-family="Helvetica,sans-Serif" font-size="10.00"> path_to_alts(destination: nullable N, max_cost: Int, context: PathContext, alt_targets: nullable TargetCondition[N]): nullable AStarPath[N]</text>
</g>
<!-- a_star::Link -->
<g id="node2" class="node"><title>a_star::Link</title>
<polygon fill="white" stroke="none" points="700,-166 646,-166 646,-122 700,-122 700,-166"/>
<polygon fill="none" stroke="forestgreen" points="646,-148 646,-166 700,-166 700,-148 646,-148"/>
<text text-anchor="start" x="662.5" y="-155.5" font-family="Helvetica,sans-Serif" font-weight="bold" font-size="10.00">Link</text>
<polygon fill="none" stroke="forestgreen" points="646,-122 646,-148 700,-148 700,-122 646,-122"/>
<text text-anchor="start" x="649" y="-138" font-family="Helvetica,sans-Serif" font-size="10.00" fill="forestgreen">+</text>
<text text-anchor="start" x="656" y="-138" font-family="Helvetica,sans-Serif" font-size="10.00"> N: Node</text>
<text text-anchor="start" x="649" y="-128" font-family="Helvetica,sans-Serif" font-size="10.00" fill="forestgreen">+</text>
<text text-anchor="start" x="656" y="-128" font-family="Helvetica,sans-Serif" font-size="10.00"> L: Link</text>
</g>
<!-- a_star::Graph -->
<g id="node3" class="node"><title>a_star::Graph</title>
<polygon fill="white" stroke="none" points="874.5,-58 731.5,-58 731.5,-14 874.5,-14 874.5,-58"/>
<polygon fill="none" stroke="forestgreen" points="732,-40 732,-58 875,-58 875,-40 732,-40"/>
<text text-anchor="start" x="747.5" y="-47.5" font-family="Helvetica,sans-Serif" font-weight="bold" font-size="10.00">Graph[N: Node, L: Link]</text>
<polygon fill="none" stroke="forestgreen" points="732,-14 732,-40 875,-40 875,-14 732,-14"/>
<text text-anchor="start" x="735" y="-30" font-family="Helvetica,sans-Serif" font-size="10.00" fill="forestgreen">+</text>
<text text-anchor="start" x="742" y="-30" font-family="Helvetica,sans-Serif" font-size="10.00"> add_link(link: L: Link): L</text>
<text text-anchor="start" x="735" y="-20" font-family="Helvetica,sans-Serif" font-size="10.00" fill="forestgreen">+</text>
<text text-anchor="start" x="742" y="-20" font-family="Helvetica,sans-Serif" font-size="10.00"> add_node(node: N: Node): N</text>
</g>
<!-- a_star::AStarPath -->
<g id="node4" class="node"><title>a_star::AStarPath</title>
<polygon fill="white" stroke="none" points="1041.5,-63 896.5,-63 896.5,-9 1041.5,-9 1041.5,-63"/>
<polygon fill="none" stroke="forestgreen" points="897,-45 897,-63 1042,-63 1042,-45 897,-45"/>
<text text-anchor="start" x="900.5" y="-52.5" font-family="Helvetica,sans-Serif" font-weight="bold" font-size="10.00">AStarPath[N: nullable Object]</text>
<polygon fill="none" stroke="forestgreen" points="897,-9 897,-45 1042,-45 1042,-9 897,-9"/>
<text text-anchor="start" x="900" y="-35" font-family="Helvetica,sans-Serif" font-size="10.00" fill="forestgreen">+</text>
<text text-anchor="start" x="907" y="-35" font-family="Helvetica,sans-Serif" font-size="10.00"> at_end_of_path(): Bool</text>
<text text-anchor="start" x="900" y="-25" font-family="Helvetica,sans-Serif" font-size="10.00" fill="forestgreen">+</text>
<text text-anchor="start" x="907" y="-25" font-family="Helvetica,sans-Serif" font-size="10.00"> peek_step(): N</text>
<text text-anchor="start" x="900" y="-15" font-family="Helvetica,sans-Serif" font-size="10.00" fill="forestgreen">+</text>
<text text-anchor="start" x="907" y="-15" font-family="Helvetica,sans-Serif" font-size="10.00"> step(): N</text>
</g>
<!-- a_star::PathContext -->
<g id="node5" class="node"><title>a_star::PathContext</title>
<polygon fill="white" stroke="none" points="1255,-193.5 1109,-193.5 1109,-94.5 1255,-94.5 1255,-193.5"/>
<polygon fill="none" stroke="forestgreen" points="1109,-166 1109,-193 1255,-193 1255,-166 1109,-166"/>
<text text-anchor="start" x="1152" y="-182.5" font-family="Helvetica,sans-Serif" font-size="10.00">&lt;&lt;abstract&gt;&gt;</text>
<text text-anchor="start" x="1153" y="-172.5" font-family="Helvetica,sans-Serif" font-weight="bold" font-style="italic" font-size="10.00">PathContext</text>
<polygon fill="none" stroke="forestgreen" points="1109,-140 1109,-166 1255,-166 1255,-140 1109,-140"/>
<text text-anchor="start" x="1112" y="-156" font-family="Helvetica,sans-Serif" font-size="10.00" fill="forestgreen">+</text>
<text text-anchor="start" x="1119" y="-156" font-family="Helvetica,sans-Serif" font-size="10.00"> N: Node</text>
<text text-anchor="start" x="1112" y="-146" font-family="Helvetica,sans-Serif" font-size="10.00" fill="forestgreen">+</text>
<text text-anchor="start" x="1119" y="-146" font-family="Helvetica,sans-Serif" font-size="10.00"> L: Link</text>
<polygon fill="none" stroke="forestgreen" points="1109,-94 1109,-140 1255,-140 1255,-94 1109,-94"/>
<text text-anchor="start" x="1112" y="-130" font-family="Helvetica,sans-Serif" font-size="10.00" fill="forestgreen">+</text>
<text text-anchor="start" x="1119" y="-130" font-family="Helvetica,sans-Serif" font-size="10.00"> </text>
<text text-anchor="start" x="1123" y="-130" font-family="Helvetica,sans-Serif" font-style="italic" font-size="10.00">cost</text>
<text text-anchor="start" x="1142" y="-130" font-family="Helvetica,sans-Serif" font-size="10.00">(link: L): Int</text>
<text text-anchor="start" x="1112" y="-120" font-family="Helvetica,sans-Serif" font-size="10.00" fill="forestgreen">+</text>
<text text-anchor="start" x="1119" y="-120" font-family="Helvetica,sans-Serif" font-size="10.00"> </text>
<text text-anchor="start" x="1123" y="-120" font-family="Helvetica,sans-Serif" font-style="italic" font-size="10.00">heuristic_cost</text>
<text text-anchor="start" x="1184" y="-120" font-family="Helvetica,sans-Serif" font-size="10.00">(a: N, b: N): Int</text>
<text text-anchor="start" x="1112" y="-110" font-family="Helvetica,sans-Serif" font-size="10.00" fill="forestgreen">+</text>
<text text-anchor="start" x="1119" y="-110" font-family="Helvetica,sans-Serif" font-size="10.00"> </text>
<text text-anchor="start" x="1123" y="-110" font-family="Helvetica,sans-Serif" font-style="italic" font-size="10.00">is_blocked</text>
<text text-anchor="start" x="1170" y="-110" font-family="Helvetica,sans-Serif" font-size="10.00">(link: L): Bool</text>
<text text-anchor="start" x="1112" y="-100" font-family="Helvetica,sans-Serif" font-size="10.00" fill="forestgreen">+</text>
<text text-anchor="start" x="1119" y="-100" font-family="Helvetica,sans-Serif" font-size="10.00"> </text>
<text text-anchor="start" x="1123" y="-100" font-family="Helvetica,sans-Serif" font-style="italic" font-size="10.00">worst_heuristic_cost</text>
<text text-anchor="start" x="1214" y="-100" font-family="Helvetica,sans-Serif" font-size="10.00">(): Int</text>
</g>
<!-- a_star::ConstantPathContext -->
<g id="node6" class="node"><title>a_star::ConstantPathContext</title>
<polygon fill="white" stroke="none" points="1170.5,-45 1063.5,-45 1063.5,-27 1170.5,-27 1170.5,-45"/>
<polygon fill="none" stroke="forestgreen" points="1064,-27 1064,-45 1171,-45 1171,-27 1064,-27"/>
<text text-anchor="start" x="1067.5" y="-34.5" font-family="Helvetica,sans-Serif" font-weight="bold" font-size="10.00">ConstantPathContext</text>
</g>
<!-- a_star::ConstantPathContext&#45;&gt;a_star::PathContext -->
<g id="edge1" class="edge"><title>a_star::ConstantPathContext&#45;&gt;a_star::PathContext</title>
<path fill="none" stroke="black" stroke-width="0.5" d="M1122.1,-45.3176C1128.17,-55.216 1138.83,-72.5999 1149.49,-89.9857"/>
<polygon fill="none" stroke="black" stroke-width="0.5" points="1148.09,-91.0538 1152.2,-94.4014 1151.08,-89.2241 1148.09,-91.0538"/>
</g>
<!-- a_star::WeightedPathContext -->
<g id="node7" class="node"><title>a_star::WeightedPathContext</title>
<polygon fill="white" stroke="none" points="1301.5,-45 1192.5,-45 1192.5,-27 1301.5,-27 1301.5,-45"/>
<polygon fill="none" stroke="forestgreen" points="1193,-27 1193,-45 1302,-45 1302,-27 1193,-27"/>
<text text-anchor="start" x="1196.5" y="-34.5" font-family="Helvetica,sans-Serif" font-weight="bold" font-size="10.00">WeightedPathContext</text>
</g>
<!-- a_star::WeightedPathContext&#45;&gt;a_star::PathContext -->
<g id="edge2" class="edge"><title>a_star::WeightedPathContext&#45;&gt;a_star::PathContext</title>
<path fill="none" stroke="black" stroke-width="0.5" d="M1241.9,-45.3176C1235.83,-55.216 1225.17,-72.5999 1214.51,-89.9857"/>
<polygon fill="none" stroke="black" stroke-width="0.5" points="1212.92,-89.2241 1211.8,-94.4014 1215.91,-91.0538 1212.92,-89.2241"/>
</g>
<!-- a_star::WeightedLink -->
<g id="node8" class="node"><title>a_star::WeightedLink</title>
<polygon fill="white" stroke="none" points="709,-45 637,-45 637,-27 709,-27 709,-45"/>
<polygon fill="none" stroke="forestgreen" points="637,-27 637,-45 709,-45 709,-27 637,-27"/>
<text text-anchor="start" x="640.5" y="-34.5" font-family="Helvetica,sans-Serif" font-weight="bold" font-size="10.00">WeightedLink</text>
</g>
<!-- a_star::WeightedLink&#45;&gt;a_star::Link -->
<g id="edge3" class="edge"><title>a_star::WeightedLink&#45;&gt;a_star::Link</title>
<path fill="none" stroke="black" stroke-width="0.5" d="M673,-45.3176C673,-60.4726 673,-93.1741 673,-116.565"/>
<polygon fill="none" stroke="black" stroke-width="0.5" points="671.25,-116.701 673,-121.701 674.75,-116.701 671.25,-116.701"/>
</g>
<!-- a_star::TargetCondition -->
<g id="node9" class="node"><title>a_star::TargetCondition</title>
<polygon fill="white" stroke="none" points="1536,-62.5 1324,-62.5 1324,-9.5 1536,-9.5 1536,-62.5"/>
<polygon fill="none" stroke="forestgreen" points="1324,-35 1324,-62 1536,-62 1536,-35 1324,-35"/>
<text text-anchor="start" x="1400" y="-51.5" font-family="Helvetica,sans-Serif" font-size="10.00">&lt;&lt;abstract&gt;&gt;</text>
<text text-anchor="start" x="1369.5" y="-41.5" font-family="Helvetica,sans-Serif" font-weight="bold" font-style="italic" font-size="10.00">TargetCondition[N: Node]</text>
<polygon fill="none" stroke="forestgreen" points="1324,-9 1324,-35 1536,-35 1536,-9 1324,-9"/>
<text text-anchor="start" x="1327" y="-25" font-family="Helvetica,sans-Serif" font-size="10.00" fill="forestgreen">+</text>
<text text-anchor="start" x="1334" y="-25" font-family="Helvetica,sans-Serif" font-size="10.00"> </text>
<text text-anchor="start" x="1338" y="-25" font-family="Helvetica,sans-Serif" font-style="italic" font-size="10.00">accept</text>
<text text-anchor="start" x="1368" y="-25" font-family="Helvetica,sans-Serif" font-size="10.00">(node: N: Node): Bool</text>
<text text-anchor="start" x="1327" y="-15" font-family="Helvetica,sans-Serif" font-size="10.00" fill="forestgreen">+</text>
<text text-anchor="start" x="1334" y="-15" font-family="Helvetica,sans-Serif" font-size="10.00"> </text>
<text text-anchor="start" x="1338" y="-15" font-family="Helvetica,sans-Serif" font-style="italic" font-size="10.00">heuristic_cost</text>
<text text-anchor="start" x="1399" y="-15" font-family="Helvetica,sans-Serif" font-size="10.00">(node: N: Node, link: Link): Int</text>
</g>
</g>
</svg>
