<?xml version="1.0" encoding="UTF-8" standalone="no"?>
<!DOCTYPE svg PUBLIC "-//W3C//DTD SVG 1.1//EN"
 "http://www.w3.org/Graphics/SVG/1.1/DTD/svg11.dtd">
<!-- Generated by graphviz version 2.36.0 (20140111.2315)
 -->
<!-- Title: G Pages: 1 -->
<svg width="411pt" height="452pt"
 viewBox="0.00 0.00 411.00 452.00" xmlns="http://www.w3.org/2000/svg" xmlns:xlink="http://www.w3.org/1999/xlink">
<g id="graph0" class="graph" transform="scale(1 1) rotate(0) translate(4 448)">
<title>G</title>
<polygon fill="white" stroke="none" points="-4,4 -4,-448 407,-448 407,4 -4,4"/>
<!-- gamnit&amp;gt; -->
<g id="node1" class="node"><title>gamnit&amp;gt;</title>
<polygon fill="#fefef2" stroke="black" points="116,-372 113,-376 92,-376 89,-372 7.10543e-15,-372 7.10543e-15,-82 116,-82 116,-372"/>
<text text-anchor="start" x="2" y="-362.5" font-family="Helvetica,sans-Serif" font-weight="bold" font-size="10.00">gamnit</text>
<text text-anchor="start" x="2" y="-347" font-family="Helvetica,sans-Serif" font-size="10.00" fill="forestgreen">+</text>
<text text-anchor="start" x="9" y="-347" font-family="Helvetica,sans-Serif" font-size="10.00">android19</text>
<text text-anchor="start" x="2" y="-337" font-family="Helvetica,sans-Serif" font-size="10.00" fill="forestgreen">+</text>
<text text-anchor="start" x="9" y="-337" font-family="Helvetica,sans-Serif" font-size="10.00">bmfont</text>
<text text-anchor="start" x="2" y="-327" font-family="Helvetica,sans-Serif" font-size="10.00" fill="forestgreen">+</text>
<text text-anchor="start" x="9" y="-327" font-family="Helvetica,sans-Serif" font-size="10.00">camera_control</text>
<text text-anchor="start" x="2" y="-317" font-family="Helvetica,sans-Serif" font-size="10.00" fill="forestgreen">+</text>
<text text-anchor="start" x="9" y="-317" font-family="Helvetica,sans-Serif" font-size="10.00">camera_control_android</text>
<text text-anchor="start" x="2" y="-307" font-family="Helvetica,sans-Serif" font-size="10.00" fill="forestgreen">+</text>
<text text-anchor="start" x="9" y="-307" font-family="Helvetica,sans-Serif" font-size="10.00">camera_control_linux</text>
<text text-anchor="start" x="2" y="-297" font-family="Helvetica,sans-Serif" font-size="10.00" fill="forestgreen">+</text>
<text text-anchor="start" x="9" y="-297" font-family="Helvetica,sans-Serif" font-size="10.00">cameras</text>
<text text-anchor="start" x="2" y="-287" font-family="Helvetica,sans-Serif" font-size="10.00" fill="forestgreen">+</text>
<text text-anchor="start" x="9" y="-287" font-family="Helvetica,sans-Serif" font-size="10.00">cameras_cache</text>
<text text-anchor="start" x="2" y="-277" font-family="Helvetica,sans-Serif" font-size="10.00" fill="forestgreen">+</text>
<text text-anchor="start" x="9" y="-277" font-family="Helvetica,sans-Serif" font-size="10.00">display</text>
<text text-anchor="start" x="2" y="-267" font-family="Helvetica,sans-Serif" font-size="10.00" fill="forestgreen">+</text>
<text text-anchor="start" x="9" y="-267" font-family="Helvetica,sans-Serif" font-size="10.00">display_android</text>
<text text-anchor="start" x="2" y="-257" font-family="Helvetica,sans-Serif" font-size="10.00" fill="forestgreen">+</text>
<text text-anchor="start" x="9" y="-257" font-family="Helvetica,sans-Serif" font-size="10.00">display_ios</text>
<text text-anchor="start" x="2" y="-247" font-family="Helvetica,sans-Serif" font-size="10.00" fill="forestgreen">+</text>
<text text-anchor="start" x="9" y="-247" font-family="Helvetica,sans-Serif" font-size="10.00">display_linux</text>
<text text-anchor="start" x="2" y="-237" font-family="Helvetica,sans-Serif" font-size="10.00" fill="forestgreen">+</text>
<text text-anchor="start" x="9" y="-237" font-family="Helvetica,sans-Serif" font-size="10.00">dynamic_resolution</text>
<text text-anchor="start" x="2" y="-227" font-family="Helvetica,sans-Serif" font-size="10.00" fill="forestgreen">+</text>
<text text-anchor="start" x="9" y="-227" font-family="Helvetica,sans-Serif" font-size="10.00">egl</text>
<text text-anchor="start" x="2" y="-217" font-family="Helvetica,sans-Serif" font-size="10.00" fill="forestgreen">+</text>
<text text-anchor="start" x="9" y="-217" font-family="Helvetica,sans-Serif" font-size="10.00">font</text>
<text text-anchor="start" x="2" y="-207" font-family="Helvetica,sans-Serif" font-size="10.00" fill="forestgreen">+</text>
<text text-anchor="start" x="9" y="-207" font-family="Helvetica,sans-Serif" font-size="10.00">gamnit</text>
<text text-anchor="start" x="2" y="-197" font-family="Helvetica,sans-Serif" font-size="10.00" fill="forestgreen">+</text>
<text text-anchor="start" x="9" y="-197" font-family="Helvetica,sans-Serif" font-size="10.00">gamnit_android</text>
<text text-anchor="start" x="2" y="-187" font-family="Helvetica,sans-Serif" font-size="10.00" fill="forestgreen">+</text>
<text text-anchor="start" x="9" y="-187" font-family="Helvetica,sans-Serif" font-size="10.00">gamnit_ios</text>
<text text-anchor="start" x="2" y="-177" font-family="Helvetica,sans-Serif" font-size="10.00" fill="forestgreen">+</text>
<text text-anchor="start" x="9" y="-177" font-family="Helvetica,sans-Serif" font-size="10.00">gamnit_linux</text>
<text text-anchor="start" x="2" y="-167" font-family="Helvetica,sans-Serif" font-size="10.00" fill="forestgreen">+</text>
<text text-anchor="start" x="9" y="-167" font-family="Helvetica,sans-Serif" font-size="10.00">input_ios</text>
<text text-anchor="start" x="2" y="-157" font-family="Helvetica,sans-Serif" font-size="10.00" fill="forestgreen">+</text>
<text text-anchor="start" x="9" y="-157" font-family="Helvetica,sans-Serif" font-size="10.00">keys</text>
<text text-anchor="start" x="2" y="-147" font-family="Helvetica,sans-Serif" font-size="10.00" fill="forestgreen">+</text>
<text text-anchor="start" x="9" y="-147" font-family="Helvetica,sans-Serif" font-size="10.00">landscape</text>
<text text-anchor="start" x="2" y="-137" font-family="Helvetica,sans-Serif" font-size="10.00" fill="forestgreen">+</text>
<text text-anchor="start" x="9" y="-137" font-family="Helvetica,sans-Serif" font-size="10.00">limit_fps</text>
<text text-anchor="start" x="2" y="-127" font-family="Helvetica,sans-Serif" font-size="10.00" fill="forestgreen">+</text>
<text text-anchor="start" x="9" y="-127" font-family="Helvetica,sans-Serif" font-size="10.00">portrait</text>
<text text-anchor="start" x="2" y="-117" font-family="Helvetica,sans-Serif" font-size="10.00" fill="forestgreen">+</text>
<text text-anchor="start" x="9" y="-117" font-family="Helvetica,sans-Serif" font-size="10.00">programs</text>
<text text-anchor="start" x="2" y="-107" font-family="Helvetica,sans-Serif" font-size="10.00" fill="forestgreen">+</text>
<text text-anchor="start" x="9" y="-107" font-family="Helvetica,sans-Serif" font-size="10.00">texture_atlas_parser</text>
<text text-anchor="start" x="2" y="-97" font-family="Helvetica,sans-Serif" font-size="10.00" fill="forestgreen">+</text>
<text text-anchor="start" x="9" y="-97" font-family="Helvetica,sans-Serif" font-size="10.00">textures</text>
<text text-anchor="start" x="2" y="-87" font-family="Helvetica,sans-Serif" font-size="10.00" fill="forestgreen">+</text>
<text text-anchor="start" x="9" y="-87" font-family="Helvetica,sans-Serif" font-size="10.00">tileset</text>
</g>
<!-- gamnit&amp;gt;flat&amp;gt; -->
<g id="node3" class="node"><title>gamnit&amp;gt;flat&amp;gt;</title>
<polygon fill="#fefef2" stroke="black" points="122,-439 119,-443 98,-443 95,-439 72,-439 72,-399 122,-399 122,-439"/>
<text text-anchor="start" x="74" y="-429.5" font-family="Helvetica,sans-Serif" font-weight="bold" font-size="10.00">flat</text>
<text text-anchor="start" x="74" y="-414" font-family="Helvetica,sans-Serif" font-size="10.00" fill="forestgreen">+</text>
<text text-anchor="start" x="81" y="-414" font-family="Helvetica,sans-Serif" font-size="10.00">flat</text>
<text text-anchor="start" x="74" y="-404" font-family="Helvetica,sans-Serif" font-size="10.00" fill="forestgreen">+</text>
<text text-anchor="start" x="81" y="-404" font-family="Helvetica,sans-Serif" font-size="10.00">flat_core</text>
</g>
<!-- gamnit&amp;gt;&#45;&gt;gamnit&amp;gt;flat&amp;gt; -->
<g id="edge1" class="edge"><title>gamnit&amp;gt;&#45;&gt;gamnit&amp;gt;flat&amp;gt;</title>
<path fill="none" stroke="black" stroke-width="0.5" stroke-dasharray="5,2" d="M80.3747,-372.006C82.3802,-379.932 84.3579,-387.23 86.2395,-393.568"/>
<polygon fill="black" stroke="black" stroke-width="0.5" points="87.7959,-398.659 84.1823,-394.535 87.0649,-396.268 86.3339,-393.877 86.3339,-393.877 86.3339,-393.877 87.0649,-396.268 88.4856,-393.22 87.7959,-398.659 87.7959,-398.659"/>
</g>
<!-- gamnit&amp;gt;depth&amp;gt; -->
<g id="node2" class="node"><title>gamnit&amp;gt;depth&amp;gt;</title>
<polygon fill="#fefef2" stroke="black" points="278,-302 275,-306 254,-306 251,-302 184,-302 184,-152 278,-152 278,-302"/>
<text text-anchor="start" x="186" y="-292.5" font-family="Helvetica,sans-Serif" font-weight="bold" font-size="10.00">depth</text>
<text text-anchor="start" x="186" y="-277" font-family="Helvetica,sans-Serif" font-size="10.00" fill="forestgreen">+</text>
<text text-anchor="start" x="193" y="-277" font-family="Helvetica,sans-Serif" font-size="10.00">cardboard</text>
<text text-anchor="start" x="186" y="-267" font-family="Helvetica,sans-Serif" font-size="10.00" fill="forestgreen">+</text>
<text text-anchor="start" x="193" y="-267" font-family="Helvetica,sans-Serif" font-size="10.00">depth</text>
<text text-anchor="start" x="186" y="-257" font-family="Helvetica,sans-Serif" font-size="10.00" fill="forestgreen">+</text>
<text text-anchor="start" x="193" y="-257" font-family="Helvetica,sans-Serif" font-size="10.00">depth_core</text>
<text text-anchor="start" x="186" y="-247" font-family="Helvetica,sans-Serif" font-size="10.00" fill="forestgreen">+</text>
<text text-anchor="start" x="193" y="-247" font-family="Helvetica,sans-Serif" font-size="10.00">model_dimensions</text>
<text text-anchor="start" x="186" y="-237" font-family="Helvetica,sans-Serif" font-size="10.00" fill="forestgreen">+</text>
<text text-anchor="start" x="193" y="-237" font-family="Helvetica,sans-Serif" font-size="10.00">more_lights</text>
<text text-anchor="start" x="186" y="-227" font-family="Helvetica,sans-Serif" font-size="10.00" fill="forestgreen">+</text>
<text text-anchor="start" x="193" y="-227" font-family="Helvetica,sans-Serif" font-size="10.00">more_materials</text>
<text text-anchor="start" x="186" y="-217" font-family="Helvetica,sans-Serif" font-size="10.00" fill="forestgreen">+</text>
<text text-anchor="start" x="193" y="-217" font-family="Helvetica,sans-Serif" font-size="10.00">more_meshes</text>
<text text-anchor="start" x="186" y="-207" font-family="Helvetica,sans-Serif" font-size="10.00" fill="forestgreen">+</text>
<text text-anchor="start" x="193" y="-207" font-family="Helvetica,sans-Serif" font-size="10.00">more_models</text>
<text text-anchor="start" x="186" y="-197" font-family="Helvetica,sans-Serif" font-size="10.00" fill="forestgreen">+</text>
<text text-anchor="start" x="193" y="-197" font-family="Helvetica,sans-Serif" font-size="10.00">particles</text>
<text text-anchor="start" x="186" y="-187" font-family="Helvetica,sans-Serif" font-size="10.00" fill="forestgreen">+</text>
<text text-anchor="start" x="193" y="-187" font-family="Helvetica,sans-Serif" font-size="10.00">selection</text>
<text text-anchor="start" x="186" y="-177" font-family="Helvetica,sans-Serif" font-size="10.00" fill="forestgreen">+</text>
<text text-anchor="start" x="193" y="-177" font-family="Helvetica,sans-Serif" font-size="10.00">shadow</text>
<text text-anchor="start" x="186" y="-167" font-family="Helvetica,sans-Serif" font-size="10.00" fill="forestgreen">+</text>
<text text-anchor="start" x="193" y="-167" font-family="Helvetica,sans-Serif" font-size="10.00">stereoscopic_view</text>
<text text-anchor="start" x="186" y="-157" font-family="Helvetica,sans-Serif" font-size="10.00" fill="forestgreen">+</text>
<text text-anchor="start" x="193" y="-157" font-family="Helvetica,sans-Serif" font-size="10.00">vr</text>
</g>
<!-- gamnit&amp;gt;depth&amp;gt;&#45;&gt;gamnit&amp;gt;flat&amp;gt; -->
<g id="edge2" class="edge"><title>gamnit&amp;gt;depth&amp;gt;&#45;&gt;gamnit&amp;gt;flat&amp;gt;</title>
<path fill="none" stroke="black" stroke-width="0.5" stroke-dasharray="5,2" d="M207.476,-302.232C197.521,-326.195 184.173,-351.769 167,-372 156.009,-384.949 140.476,-395.657 126.834,-403.474"/>
<polygon fill="black" stroke="black" stroke-width="0.5" points="122.289,-406.013 125.556,-401.61 124.471,-404.794 126.654,-403.574 126.654,-403.574 126.654,-403.574 124.471,-404.794 127.751,-405.539 122.289,-406.013 122.289,-406.013"/>
</g>
<!-- gamnit&amp;gt;model_parsers&amp;gt; -->
<g id="node4" class="node"><title>gamnit&amp;gt;model_parsers&amp;gt;</title>
<polygon fill="#fefef2" stroke="black" points="279.5,-444 276.5,-448 255.5,-448 252.5,-444 182.5,-444 182.5,-394 279.5,-394 279.5,-444"/>
<text text-anchor="start" x="185" y="-434.5" font-family="Helvetica,sans-Serif" font-weight="bold" font-size="10.00">model_parsers</text>
<text text-anchor="start" x="185" y="-419" font-family="Helvetica,sans-Serif" font-size="10.00" fill="forestgreen">+</text>
<text text-anchor="start" x="192" y="-419" font-family="Helvetica,sans-Serif" font-size="10.00">model_parser_base</text>
<text text-anchor="start" x="185" y="-409" font-family="Helvetica,sans-Serif" font-size="10.00" fill="forestgreen">+</text>
<text text-anchor="start" x="192" y="-409" font-family="Helvetica,sans-Serif" font-size="10.00">mtl</text>
<text text-anchor="start" x="185" y="-399" font-family="Helvetica,sans-Serif" font-size="10.00" fill="forestgreen">+</text>
<text text-anchor="start" x="192" y="-399" font-family="Helvetica,sans-Serif" font-size="10.00">obj</text>
</g>
<!-- gamnit&amp;gt;depth&amp;gt;&#45;&gt;gamnit&amp;gt;model_parsers&amp;gt; -->
<g id="edge3" class="edge"><title>gamnit&amp;gt;depth&amp;gt;&#45;&gt;gamnit&amp;gt;model_parsers&amp;gt;</title>
<path fill="none" stroke="black" stroke-width="0.5" stroke-dasharray="5,2" d="M231,-302.003C231,-332.227 231,-365.435 231,-388.546"/>
<polygon fill="black" stroke="black" stroke-width="0.5" points="231,-393.61 228.75,-388.61 231,-391.11 231,-388.61 231,-388.61 231,-388.61 231,-391.11 233.25,-388.61 231,-393.61 231,-393.61"/>
</g>
<!-- gamnit&amp;gt;flat&amp;gt;&#45;&gt;gamnit&amp;gt; -->
<g id="edge4" class="edge"><title>gamnit&amp;gt;flat&amp;gt;&#45;&gt;gamnit&amp;gt;</title>
<path fill="none" stroke="black" stroke-width="0.5" stroke-dasharray="5,2" d="M98.2641,-398.659C97.6832,-392.539 96.7457,-385.234 95.5334,-377.142"/>
<polygon fill="black" stroke="black" stroke-width="0.5" points="94.7437,-372.006 97.7275,-376.606 95.1236,-374.477 95.5036,-376.948 95.5036,-376.948 95.5036,-376.948 95.1236,-374.477 93.2797,-377.29 94.7437,-372.006 94.7437,-372.006"/>
</g>
<!-- gamnit&amp;gt;network&amp;gt; -->
<g id="node5" class="node"><title>gamnit&amp;gt;network&amp;gt;</title>
<polygon fill="#fefef2" stroke="black" points="245,-60 242,-64 221,-64 218,-60 195,-60 195,-7.10543e-15 245,-7.10543e-15 245,-60"/>
<text text-anchor="start" x="197" y="-50.5" font-family="Helvetica,sans-Serif" font-weight="bold" font-size="10.00">network</text>
<text text-anchor="start" x="197" y="-35" font-family="Helvetica,sans-Serif" font-size="10.00" fill="forestgreen">+</text>
<text text-anchor="start" x="204" y="-35" font-family="Helvetica,sans-Serif" font-size="10.00">client</text>
<text text-anchor="start" x="197" y="-25" font-family="Helvetica,sans-Serif" font-size="10.00" fill="forestgreen">+</text>
<text text-anchor="start" x="204" y="-25" font-family="Helvetica,sans-Serif" font-size="10.00">common</text>
<text text-anchor="start" x="197" y="-15" font-family="Helvetica,sans-Serif" font-size="10.00" fill="forestgreen">+</text>
<text text-anchor="start" x="204" y="-15" font-family="Helvetica,sans-Serif" font-size="10.00">network</text>
<text text-anchor="start" x="197" y="-5" font-family="Helvetica,sans-Serif" font-size="10.00" fill="forestgreen">+</text>
<text text-anchor="start" x="204" y="-5" font-family="Helvetica,sans-Serif" font-size="10.00">server</text>
</g>
<!-- gamnit&amp;gt;virtual_gamepad&amp;gt; -->
<g id="node6" class="node"><title>gamnit&amp;gt;virtual_gamepad&amp;gt;</title>
<polygon fill="#fefef2" stroke="black" points="172.5,-50 169.5,-54 148.5,-54 145.5,-50 35.5,-50 35.5,-10 172.5,-10 172.5,-50"/>
<text text-anchor="start" x="38" y="-40.5" font-family="Helvetica,sans-Serif" font-weight="bold" font-size="10.00">virtual_gamepad</text>
<text text-anchor="start" x="38" y="-25" font-family="Helvetica,sans-Serif" font-size="10.00" fill="forestgreen">+</text>
<text text-anchor="start" x="45" y="-25" font-family="Helvetica,sans-Serif" font-size="10.00">virtual_gamepad</text>
<text text-anchor="start" x="38" y="-15" font-family="Helvetica,sans-Serif" font-size="10.00" fill="forestgreen">+</text>
<text text-anchor="start" x="45" y="-15" font-family="Helvetica,sans-Serif" font-size="10.00">virtual_gamepad_spritesheet</text>
</g>
<!-- gamnit&amp;gt;virtual_gamepad&amp;gt;&#45;&gt;gamnit&amp;gt; -->
<g id="edge5" class="edge"><title>gamnit&amp;gt;virtual_gamepad&amp;gt;&#45;&gt;gamnit&amp;gt;</title>
<path fill="none" stroke="black" stroke-width="0.5" stroke-dasharray="5,2" d="M99.5056,-50.0525C97.7765,-57.3823 95.6378,-66.4485 93.2504,-76.5689"/>
<polygon fill="black" stroke="black" stroke-width="0.5" points="92.0592,-81.6187 91.0173,-76.2357 92.6332,-79.1855 93.2072,-76.7523 93.2072,-76.7523 93.2072,-76.7523 92.6332,-79.1855 95.3971,-77.2689 92.0592,-81.6187 92.0592,-81.6187"/>
</g>
<!-- gamnit&amp;gt;virtual_gamepad&amp;gt;&#45;&gt;gamnit&amp;gt;flat&amp;gt; -->
<g id="edge6" class="edge"><title>gamnit&amp;gt;virtual_gamepad&amp;gt;&#45;&gt;gamnit&amp;gt;flat&amp;gt;</title>
<path fill="none" stroke="black" stroke-width="0.5" stroke-dasharray="5,2" d="M114.513,-50.2468C119.009,-59.547 123.738,-71.0454 126,-82 152.064,-208.226 161.774,-248.175 126,-372 123.786,-379.664 119.874,-387.28 115.626,-394.045"/>
<polygon fill="black" stroke="black" stroke-width="0.5" points="112.648,-398.583 113.51,-393.168 114.02,-396.493 115.391,-394.403 115.391,-394.403 115.391,-394.403 114.02,-396.493 117.273,-395.637 112.648,-398.583 112.648,-398.583"/>
</g>
<!-- gamnit&amp;gt;virtual_gamepad&amp;gt;art&amp;gt; -->
<g id="node7" class="node"><title>gamnit&amp;gt;virtual_gamepad&amp;gt;art&amp;gt;</title>
<polygon fill="#fefef2" stroke="black" points="285,-38 283.667,-39.7778 274.333,-39.7778 273,-38 267,-38 267,-22 285,-22 285,-38"/>
<text text-anchor="start" x="269" y="-28.5" font-family="Helvetica,sans-Serif" font-weight="bold" font-size="10.00">art</text>
</g>
<!-- gamnit&amp;gt;virtual_gamepad&amp;gt;assets&amp;gt; -->
<g id="node8" class="node"><title>gamnit&amp;gt;virtual_gamepad&amp;gt;assets&amp;gt;</title>
<polygon fill="#fefef2" stroke="black" points="342.5,-38 341.167,-39.7778 331.833,-39.7778 330.5,-38 307.5,-38 307.5,-22 342.5,-22 342.5,-38"/>
<text text-anchor="start" x="310" y="-28.5" font-family="Helvetica,sans-Serif" font-weight="bold" font-size="10.00">assets</text>
</g>
<!-- gamnit&amp;gt;virtual_gamepad&amp;gt;assets&amp;gt;images&amp;gt; -->
<g id="node9" class="node"><title>gamnit&amp;gt;virtual_gamepad&amp;gt;assets&amp;gt;images&amp;gt;</title>
<polygon fill="#fefef2" stroke="black" points="403.5,-38 402.167,-39.7778 392.833,-39.7778 391.5,-38 364.5,-38 364.5,-22 403.5,-22 403.5,-38"/>
<text text-anchor="start" x="367" y="-28.5" font-family="Helvetica,sans-Serif" font-weight="bold" font-size="10.00">images</text>
</g>
</g>
</svg>
