<?xml version="1.0" encoding="UTF-8" standalone="no"?>
<!DOCTYPE svg PUBLIC "-//W3C//DTD SVG 1.1//EN"
 "http://www.w3.org/Graphics/SVG/1.1/DTD/svg11.dtd">
<!-- Generated by graphviz version 2.36.0 (20140111.2315)
 -->
<!-- Title: G Pages: 1 -->
<svg width="153pt" height="264pt"
 viewBox="0.00 0.00 153.00 264.00" xmlns="http://www.w3.org/2000/svg" xmlns:xlink="http://www.w3.org/1999/xlink">
<g id="graph0" class="graph" transform="scale(1 1) rotate(0) translate(4 260)">
<title>G</title>
<polygon fill="white" stroke="none" points="-4,4 -4,-260 149,-260 149,4 -4,4"/>
<!-- trees::abstract_tree -->
<g id="node1" class="node"><title>trees::abstract_tree</title>
<polygon fill="#fffaf3" stroke="black" points="103.5,-256 44.5,-256 44.5,-216 109.5,-216 109.5,-250 103.5,-256"/>
<polyline fill="none" stroke="black" points="103.5,-256 103.5,-250 "/>
<polyline fill="none" stroke="black" points="109.5,-250 103.5,-250 "/>
<text text-anchor="start" x="47" y="-246.5" font-family="Helvetica,sans-Serif" font-weight="bold" font-size="10.00">abstract_tree</text>
<text text-anchor="start" x="47" y="-231" font-family="Helvetica,sans-Serif" font-size="10.00" fill="forestgreen">+</text>
<text text-anchor="start" x="54" y="-231" font-family="Helvetica,sans-Serif" font-size="10.00">TreeMap</text>
<text text-anchor="start" x="47" y="-221" font-family="Helvetica,sans-Serif" font-size="10.00" fill="forestgreen">+</text>
<text text-anchor="start" x="54" y="-221" font-family="Helvetica,sans-Serif" font-size="10.00">TreeNode</text>
</g>
<!-- trees::bintree -->
<g id="node2" class="node"><title>trees::bintree</title>
<polygon fill="#fffaf3" stroke="black" points="64,-194 0,-194 0,-154 70,-154 70,-188 64,-194"/>
<polyline fill="none" stroke="black" points="64,-194 64,-188 "/>
<polyline fill="none" stroke="black" points="70,-188 64,-188 "/>
<text text-anchor="start" x="2" y="-184.5" font-family="Helvetica,sans-Serif" font-weight="bold" font-size="10.00">bintree</text>
<text text-anchor="start" x="2" y="-169" font-family="Helvetica,sans-Serif" font-size="10.00" fill="forestgreen">+</text>
<text text-anchor="start" x="9" y="-169" font-family="Helvetica,sans-Serif" font-size="10.00">BinTreeMap</text>
<text text-anchor="start" x="2" y="-159" font-family="Helvetica,sans-Serif" font-size="10.00" fill="forestgreen">+</text>
<text text-anchor="start" x="9" y="-159" font-family="Helvetica,sans-Serif" font-size="10.00">BinTreeNode</text>
</g>
<!-- trees::bintree&#45;&gt;trees::abstract_tree -->
<g id="edge1" class="edge"><title>trees::bintree&#45;&gt;trees::abstract_tree</title>
<path fill="none" stroke="black" stroke-width="0.5" stroke-dasharray="5,2" d="M48.5203,-194.315C52.3421,-199.774 56.5442,-205.777 60.5194,-211.456"/>
<polygon fill="black" stroke="black" stroke-width="0.5" points="63.5051,-215.722 58.7944,-212.916 62.0714,-213.673 60.6377,-211.625 60.6377,-211.625 60.6377,-211.625 62.0714,-213.673 62.481,-210.335 63.5051,-215.722 63.5051,-215.722"/>
</g>
<!-- trees::bktree -->
<g id="node3" class="node"><title>trees::bktree</title>
<polygon fill="#fffaf3" stroke="black" points="139.5,-194 92.5,-194 92.5,-154 145.5,-154 145.5,-188 139.5,-194"/>
<polyline fill="none" stroke="black" points="139.5,-194 139.5,-188 "/>
<polyline fill="none" stroke="black" points="145.5,-188 139.5,-188 "/>
<text text-anchor="start" x="95" y="-184.5" font-family="Helvetica,sans-Serif" font-weight="bold" font-size="10.00">bktree</text>
<text text-anchor="start" x="95" y="-169" font-family="Helvetica,sans-Serif" font-size="10.00" fill="forestgreen">+</text>
<text text-anchor="start" x="102" y="-169" font-family="Helvetica,sans-Serif" font-size="10.00">BKMatch</text>
<text text-anchor="start" x="95" y="-159" font-family="Helvetica,sans-Serif" font-size="10.00" fill="forestgreen">+</text>
<text text-anchor="start" x="102" y="-159" font-family="Helvetica,sans-Serif" font-size="10.00">BKTree</text>
</g>
<!-- trees::bktree&#45;&gt;trees::abstract_tree -->
<g id="edge2" class="edge"><title>trees::bktree&#45;&gt;trees::abstract_tree</title>
<path fill="none" stroke="black" stroke-width="0.5" stroke-dasharray="5,2" d="M105.48,-194.315C101.658,-199.774 97.4558,-205.777 93.4806,-211.456"/>
<polygon fill="black" stroke="black" stroke-width="0.5" points="90.4949,-215.722 91.519,-210.335 91.9286,-213.673 93.3623,-211.625 93.3623,-211.625 93.3623,-211.625 91.9286,-213.673 95.2056,-212.916 90.4949,-215.722 90.4949,-215.722"/>
</g>
<!-- trees::rbtree -->
<g id="node4" class="node"><title>trees::rbtree</title>
<polygon fill="#fffaf3" stroke="black" points="64,-132 0,-132 0,-92 70,-92 70,-126 64,-132"/>
<polyline fill="none" stroke="black" points="64,-132 64,-126 "/>
<polyline fill="none" stroke="black" points="70,-126 64,-126 "/>
<text text-anchor="start" x="2" y="-122.5" font-family="Helvetica,sans-Serif" font-weight="bold" font-size="10.00">rbtree</text>
<text text-anchor="start" x="2" y="-107" font-family="Helvetica,sans-Serif" font-size="10.00" fill="forestgreen">+</text>
<text text-anchor="start" x="9" y="-107" font-family="Helvetica,sans-Serif" font-size="10.00">RBTreeMap</text>
<text text-anchor="start" x="2" y="-97" font-family="Helvetica,sans-Serif" font-size="10.00" fill="forestgreen">+</text>
<text text-anchor="start" x="9" y="-97" font-family="Helvetica,sans-Serif" font-size="10.00">RBTreeNode</text>
</g>
<!-- trees::rbtree&#45;&gt;trees::bintree -->
<g id="edge3" class="edge"><title>trees::rbtree&#45;&gt;trees::bintree</title>
<path fill="none" stroke="black" stroke-width="0.5" stroke-dasharray="5,2" d="M35,-132.315C35,-137.453 35,-143.073 35,-148.451"/>
<polygon fill="black" stroke="black" stroke-width="0.5" points="35,-153.722 32.7501,-148.722 35,-151.222 35.0001,-148.722 35.0001,-148.722 35.0001,-148.722 35,-151.222 37.2501,-148.722 35,-153.722 35,-153.722"/>
</g>
<!-- trees::trees -->
<g id="node5" class="node"><title>trees::trees</title>
<polygon fill="#fffaf3" stroke="black" points="46.3333,-70 21,-70 21,-54 49,-54 49,-67.3333 46.3333,-70"/>
<polyline fill="none" stroke="black" points="46.3333,-70 46.3333,-67.3333 "/>
<polyline fill="none" stroke="black" points="49,-67.3333 46.3333,-67.3333 "/>
<text text-anchor="start" x="23" y="-60.5" font-family="Helvetica,sans-Serif" font-weight="bold" font-size="10.00">trees</text>
</g>
<!-- trees::trees&#45;&gt;trees::rbtree -->
<g id="edge4" class="edge"><title>trees::trees&#45;&gt;trees::rbtree</title>
<path fill="none" stroke="black" stroke-width="0.5" stroke-dasharray="5,2" d="M35,-70.0826C35,-74.5647 35,-80.6486 35,-86.7538"/>
<polygon fill="black" stroke="black" stroke-width="0.5" points="35,-91.8524 32.7501,-86.8523 35,-89.3524 35.0001,-86.8524 35.0001,-86.8524 35.0001,-86.8524 35,-89.3524 37.2501,-86.8524 35,-91.8524 35,-91.8524"/>
</g>
<!-- trees::trie -->
<g id="node6" class="node"><title>trees::trie</title>
<polygon fill="#fffaf3" stroke="black" points="44.6667,-31.5 20.5,-31.5 20.5,-0.5 49.5,-0.5 49.5,-26.6667 44.6667,-31.5"/>
<polyline fill="none" stroke="black" points="44.6667,-31.5 44.6667,-26.6667 "/>
<polyline fill="none" stroke="black" points="49.5,-26.6667 44.6667,-26.6667 "/>
<text text-anchor="start" x="23" y="-21.5" font-family="Helvetica,sans-Serif" font-weight="bold" font-size="10.00">trie</text>
<text text-anchor="start" x="23" y="-6" font-family="Helvetica,sans-Serif" font-size="10.00" fill="forestgreen">+</text>
<text text-anchor="start" x="30" y="-6" font-family="Helvetica,sans-Serif" font-size="10.00">Trie</text>
</g>
<!-- trees::trie&#45;&gt;trees::trees -->
<g id="edge5" class="edge"><title>trees::trie&#45;&gt;trees::trees</title>
<path fill="none" stroke="black" stroke-width="0.5" stroke-dasharray="5,2" d="M35,-31.8964C35,-37.3158 35,-43.3794 35,-48.5634"/>
<polygon fill="black" stroke="black" stroke-width="0.5" points="35,-53.7713 32.7501,-48.7712 35,-51.2713 35.0001,-48.7713 35.0001,-48.7713 35.0001,-48.7713 35,-51.2713 37.2501,-48.7713 35,-53.7713 35,-53.7713"/>
</g>
</g>
</svg>
