<?xml version="1.0" encoding="UTF-8" standalone="no"?>
<!DOCTYPE svg PUBLIC "-//W3C//DTD SVG 1.1//EN"
 "http://www.w3.org/Graphics/SVG/1.1/DTD/svg11.dtd">
<!-- Generated by graphviz version 2.36.0 (20140111.2315)
 -->
<!-- Title: G Pages: 1 -->
<svg width="343pt" height="528pt"
 viewBox="0.00 0.00 343.00 528.00" xmlns="http://www.w3.org/2000/svg" xmlns:xlink="http://www.w3.org/1999/xlink">
<g id="graph0" class="graph" transform="scale(1 1) rotate(0) translate(4 524)">
<title>G</title>
<polygon fill="white" stroke="none" points="-4,4 -4,-524 339,-524 339,4 -4,4"/>
<!-- sdl2::all -->
<g id="node1" class="node"><title>sdl2::all</title>
<polygon fill="#fffaf3" stroke="black" points="142.833,-16 128.5,-16 128.5,-0 145.5,-0 145.5,-13.3333 142.833,-16"/>
<polyline fill="none" stroke="black" points="142.833,-16 142.833,-13.3333 "/>
<polyline fill="none" stroke="black" points="145.5,-13.3333 142.833,-13.3333 "/>
<text text-anchor="start" x="131" y="-6.5" font-family="Helvetica,sans-Serif" font-weight="bold" font-size="10.00">all</text>
</g>
<!-- sdl2::image -->
<g id="node3" class="node"><title>sdl2::image</title>
<polygon fill="#fffaf3" stroke="black" points="174,-98 94,-98 94,-38 180,-38 180,-92 174,-98"/>
<polyline fill="none" stroke="black" points="174,-98 174,-92 "/>
<polyline fill="none" stroke="black" points="180,-92 174,-92 "/>
<text text-anchor="start" x="96" y="-88.5" font-family="Helvetica,sans-Serif" font-weight="bold" font-size="10.00">image</text>
<text text-anchor="start" x="96" y="-73" font-family="Helvetica,sans-Serif" font-size="10.00" fill="forestgreen">+</text>
<text text-anchor="start" x="103" y="-73" font-family="Helvetica,sans-Serif" font-size="10.00">IMG</text>
<text text-anchor="start" x="96" y="-63" font-family="Helvetica,sans-Serif" font-size="10.00" fill="forestgreen">+</text>
<text text-anchor="start" x="103" y="-63" font-family="Helvetica,sans-Serif" font-size="10.00">SDL</text>
<text text-anchor="start" x="96" y="-53" font-family="Helvetica,sans-Serif" font-size="10.00" fill="forestgreen">+</text>
<text text-anchor="start" x="103" y="-53" font-family="Helvetica,sans-Serif" font-size="10.00">SDLImgInitFlags</text>
<text text-anchor="start" x="96" y="-43" font-family="Helvetica,sans-Serif" font-size="10.00" fill="forestgreen">+</text>
<text text-anchor="start" x="103" y="-43" font-family="Helvetica,sans-Serif" font-size="10.00">SDLSurface</text>
</g>
<!-- sdl2::all&#45;&gt;sdl2::image -->
<g id="edge1" class="edge"><title>sdl2::all&#45;&gt;sdl2::image</title>
<path fill="none" stroke="black" stroke-width="0.5" stroke-dasharray="5,2" d="M137,-16.1119C137,-20.4603 137,-26.3783 137,-32.6418"/>
<polygon fill="black" stroke="black" stroke-width="0.5" points="137,-37.9575 134.75,-32.9575 137,-35.4575 137,-32.9575 137,-32.9575 137,-32.9575 137,-35.4575 139.25,-32.9576 137,-37.9575 137,-37.9575"/>
</g>
<!-- sdl2::events -->
<g id="node2" class="node"><title>sdl2::events</title>
<polygon fill="#fffaf3" stroke="black" points="134.5,-318 -0.5,-318 -0.5,-158 140.5,-158 140.5,-312 134.5,-318"/>
<polyline fill="none" stroke="black" points="134.5,-318 134.5,-312 "/>
<polyline fill="none" stroke="black" points="140.5,-312 134.5,-312 "/>
<text text-anchor="start" x="2" y="-308.5" font-family="Helvetica,sans-Serif" font-weight="bold" font-size="10.00">events</text>
<text text-anchor="start" x="2" y="-293" font-family="Helvetica,sans-Serif" font-size="10.00" fill="forestgreen">+</text>
<text text-anchor="start" x="9" y="-293" font-family="Helvetica,sans-Serif" font-size="10.00">SDLEvent</text>
<text text-anchor="start" x="2" y="-283" font-family="Helvetica,sans-Serif" font-size="10.00" fill="forestgreen">+</text>
<text text-anchor="start" x="9" y="-283" font-family="Helvetica,sans-Serif" font-size="10.00">SDLEventBuffer</text>
<text text-anchor="start" x="2" y="-273" font-family="Helvetica,sans-Serif" font-size="10.00" fill="forestgreen">+</text>
<text text-anchor="start" x="9" y="-273" font-family="Helvetica,sans-Serif" font-size="10.00">SDLKeyboardDownEvent</text>
<text text-anchor="start" x="2" y="-263" font-family="Helvetica,sans-Serif" font-size="10.00" fill="forestgreen">+</text>
<text text-anchor="start" x="9" y="-263" font-family="Helvetica,sans-Serif" font-size="10.00">SDLKeyboardEvent</text>
<text text-anchor="start" x="2" y="-253" font-family="Helvetica,sans-Serif" font-size="10.00" fill="forestgreen">+</text>
<text text-anchor="start" x="9" y="-253" font-family="Helvetica,sans-Serif" font-size="10.00">SDLKeyboardUpEvent</text>
<text text-anchor="start" x="2" y="-243" font-family="Helvetica,sans-Serif" font-size="10.00" fill="forestgreen">+</text>
<text text-anchor="start" x="9" y="-243" font-family="Helvetica,sans-Serif" font-size="10.00">SDLKeysym</text>
<text text-anchor="start" x="2" y="-233" font-family="Helvetica,sans-Serif" font-size="10.00" fill="forestgreen">+</text>
<text text-anchor="start" x="9" y="-233" font-family="Helvetica,sans-Serif" font-size="10.00">SDLMouseButtonDownEvent</text>
<text text-anchor="start" x="2" y="-223" font-family="Helvetica,sans-Serif" font-size="10.00" fill="forestgreen">+</text>
<text text-anchor="start" x="9" y="-223" font-family="Helvetica,sans-Serif" font-size="10.00">SDLMouseButtonEvent</text>
<text text-anchor="start" x="2" y="-213" font-family="Helvetica,sans-Serif" font-size="10.00" fill="forestgreen">+</text>
<text text-anchor="start" x="9" y="-213" font-family="Helvetica,sans-Serif" font-size="10.00">SDLMouseButtonUpEvent</text>
<text text-anchor="start" x="2" y="-203" font-family="Helvetica,sans-Serif" font-size="10.00" fill="forestgreen">+</text>
<text text-anchor="start" x="9" y="-203" font-family="Helvetica,sans-Serif" font-size="10.00">SDLMouseEvent</text>
<text text-anchor="start" x="2" y="-193" font-family="Helvetica,sans-Serif" font-size="10.00" fill="forestgreen">+</text>
<text text-anchor="start" x="9" y="-193" font-family="Helvetica,sans-Serif" font-size="10.00">SDLMouseMotionEvent</text>
<text text-anchor="start" x="2" y="-183" font-family="Helvetica,sans-Serif" font-size="10.00" fill="forestgreen">+</text>
<text text-anchor="start" x="9" y="-183" font-family="Helvetica,sans-Serif" font-size="10.00">SDLMouseWheelEvent</text>
<text text-anchor="start" x="2" y="-173" font-family="Helvetica,sans-Serif" font-size="10.00" fill="forestgreen">+</text>
<text text-anchor="start" x="9" y="-173" font-family="Helvetica,sans-Serif" font-size="10.00">SDLQuitEvent</text>
<text text-anchor="start" x="2" y="-163" font-family="Helvetica,sans-Serif" font-size="10.00" fill="forestgreen">+</text>
<text text-anchor="start" x="9" y="-163" font-family="Helvetica,sans-Serif" font-size="10.00">SDLWindowEvent</text>
</g>
<!-- sdl2::sdl2_base -->
<g id="node6" class="node"><title>sdl2::sdl2_base</title>
<polygon fill="#fffaf3" stroke="black" points="255.5,-520 148.5,-520 148.5,-340 261.5,-340 261.5,-514 255.5,-520"/>
<polyline fill="none" stroke="black" points="255.5,-520 255.5,-514 "/>
<polyline fill="none" stroke="black" points="261.5,-514 255.5,-514 "/>
<text text-anchor="start" x="151" y="-510.5" font-family="Helvetica,sans-Serif" font-weight="bold" font-size="10.00">sdl2_base</text>
<text text-anchor="start" x="151" y="-495" font-family="Helvetica,sans-Serif" font-size="10.00" fill="forestgreen">+</text>
<text text-anchor="start" x="158" y="-495" font-family="Helvetica,sans-Serif" font-size="10.00">Int</text>
<text text-anchor="start" x="151" y="-485" font-family="Helvetica,sans-Serif" font-size="10.00" fill="forestgreen">+</text>
<text text-anchor="start" x="158" y="-485" font-family="Helvetica,sans-Serif" font-size="10.00">SDL</text>
<text text-anchor="start" x="151" y="-475" font-family="Helvetica,sans-Serif" font-size="10.00" fill="forestgreen">+</text>
<text text-anchor="start" x="158" y="-475" font-family="Helvetica,sans-Serif" font-size="10.00">SDLColor</text>
<text text-anchor="start" x="151" y="-465" font-family="Helvetica,sans-Serif" font-size="10.00" fill="forestgreen">+</text>
<text text-anchor="start" x="158" y="-465" font-family="Helvetica,sans-Serif" font-size="10.00">SDLInitFlags</text>
<text text-anchor="start" x="151" y="-455" font-family="Helvetica,sans-Serif" font-size="10.00" fill="forestgreen">+</text>
<text text-anchor="start" x="158" y="-455" font-family="Helvetica,sans-Serif" font-size="10.00">SDLMessageBoxFlags</text>
<text text-anchor="start" x="151" y="-445" font-family="Helvetica,sans-Serif" font-size="10.00" fill="forestgreen">+</text>
<text text-anchor="start" x="158" y="-445" font-family="Helvetica,sans-Serif" font-size="10.00">SDLPoint</text>
<text text-anchor="start" x="151" y="-435" font-family="Helvetica,sans-Serif" font-size="10.00" fill="forestgreen">+</text>
<text text-anchor="start" x="158" y="-435" font-family="Helvetica,sans-Serif" font-size="10.00">SDLRect</text>
<text text-anchor="start" x="151" y="-425" font-family="Helvetica,sans-Serif" font-size="10.00" fill="forestgreen">+</text>
<text text-anchor="start" x="158" y="-425" font-family="Helvetica,sans-Serif" font-size="10.00">SDLRenderer</text>
<text text-anchor="start" x="151" y="-415" font-family="Helvetica,sans-Serif" font-size="10.00" fill="forestgreen">+</text>
<text text-anchor="start" x="158" y="-415" font-family="Helvetica,sans-Serif" font-size="10.00">SDLRendererFlags</text>
<text text-anchor="start" x="151" y="-405" font-family="Helvetica,sans-Serif" font-size="10.00" fill="forestgreen">+</text>
<text text-anchor="start" x="158" y="-405" font-family="Helvetica,sans-Serif" font-size="10.00">SDLRendererInfo</text>
<text text-anchor="start" x="151" y="-395" font-family="Helvetica,sans-Serif" font-size="10.00" fill="forestgreen">+</text>
<text text-anchor="start" x="158" y="-395" font-family="Helvetica,sans-Serif" font-size="10.00">SDLSurface</text>
<text text-anchor="start" x="151" y="-385" font-family="Helvetica,sans-Serif" font-size="10.00" fill="forestgreen">+</text>
<text text-anchor="start" x="158" y="-385" font-family="Helvetica,sans-Serif" font-size="10.00">SDLTexture</text>
<text text-anchor="start" x="151" y="-375" font-family="Helvetica,sans-Serif" font-size="10.00" fill="forestgreen">+</text>
<text text-anchor="start" x="158" y="-375" font-family="Helvetica,sans-Serif" font-size="10.00">SDLWindow</text>
<text text-anchor="start" x="151" y="-365" font-family="Helvetica,sans-Serif" font-size="10.00" fill="forestgreen">+</text>
<text text-anchor="start" x="158" y="-365" font-family="Helvetica,sans-Serif" font-size="10.00">SDLWindowFlags</text>
<text text-anchor="start" x="151" y="-355" font-family="Helvetica,sans-Serif" font-size="10.00" fill="forestgreen">+</text>
<text text-anchor="start" x="158" y="-355" font-family="Helvetica,sans-Serif" font-size="10.00">SDL_PixelFormat</text>
<text text-anchor="start" x="151" y="-345" font-family="Helvetica,sans-Serif" font-size="10.00" fill="forestgreen">+</text>
<text text-anchor="start" x="158" y="-345" font-family="Helvetica,sans-Serif" font-size="10.00">Sys</text>
</g>
<!-- sdl2::events&#45;&gt;sdl2::sdl2_base -->
<g id="edge2" class="edge"><title>sdl2::events&#45;&gt;sdl2::sdl2_base</title>
<path fill="none" stroke="black" stroke-width="0.5" stroke-dasharray="5,2" d="M126.275,-318.201C132.616,-327.127 139.094,-336.244 145.476,-345.225"/>
<polygon fill="black" stroke="black" stroke-width="0.5" points="148.6,-349.622 143.869,-346.849 147.151,-347.584 145.703,-345.546 145.703,-345.546 145.703,-345.546 147.151,-347.584 147.538,-344.242 148.6,-349.622 148.6,-349.622"/>
</g>
<!-- sdl2::sdl2 -->
<g id="node5" class="node"><title>sdl2::sdl2</title>
<polygon fill="#fffaf3" stroke="black" points="146.833,-136 124.5,-136 124.5,-120 149.5,-120 149.5,-133.333 146.833,-136"/>
<polyline fill="none" stroke="black" points="146.833,-136 146.833,-133.333 "/>
<polyline fill="none" stroke="black" points="149.5,-133.333 146.833,-133.333 "/>
<text text-anchor="start" x="127" y="-126.5" font-family="Helvetica,sans-Serif" font-weight="bold" font-size="10.00">sdl2</text>
</g>
<!-- sdl2::image&#45;&gt;sdl2::sdl2 -->
<g id="edge3" class="edge"><title>sdl2::image&#45;&gt;sdl2::sdl2</title>
<path fill="none" stroke="black" stroke-width="0.5" stroke-dasharray="5,2" d="M137,-98C137,-103.862 137,-109.725 137,-114.629"/>
<polygon fill="black" stroke="black" stroke-width="0.5" points="137,-119.888 134.75,-114.888 137,-117.388 137,-114.888 137,-114.888 137,-114.888 137,-117.388 139.25,-114.888 137,-119.888 137,-119.888"/>
</g>
<!-- sdl2::mixer -->
<g id="node4" class="node"><title>sdl2::mixer</title>
<polygon fill="#fffaf3" stroke="black" points="329,-278 269,-278 269,-198 335,-198 335,-272 329,-278"/>
<polyline fill="none" stroke="black" points="329,-278 329,-272 "/>
<polyline fill="none" stroke="black" points="335,-272 329,-272 "/>
<text text-anchor="start" x="271" y="-268.5" font-family="Helvetica,sans-Serif" font-weight="bold" font-size="10.00">mixer</text>
<text text-anchor="start" x="271" y="-253" font-family="Helvetica,sans-Serif" font-size="10.00" fill="forestgreen">+</text>
<text text-anchor="start" x="278" y="-253" font-family="Helvetica,sans-Serif" font-size="10.00">Mix</text>
<text text-anchor="start" x="271" y="-243" font-family="Helvetica,sans-Serif" font-size="10.00" fill="forestgreen">+</text>
<text text-anchor="start" x="278" y="-243" font-family="Helvetica,sans-Serif" font-size="10.00">MixChunk</text>
<text text-anchor="start" x="271" y="-233" font-family="Helvetica,sans-Serif" font-size="10.00" fill="forestgreen">+</text>
<text text-anchor="start" x="278" y="-233" font-family="Helvetica,sans-Serif" font-size="10.00">MixFormat</text>
<text text-anchor="start" x="271" y="-223" font-family="Helvetica,sans-Serif" font-size="10.00" fill="forestgreen">+</text>
<text text-anchor="start" x="278" y="-223" font-family="Helvetica,sans-Serif" font-size="10.00">MixInitFlags</text>
<text text-anchor="start" x="271" y="-213" font-family="Helvetica,sans-Serif" font-size="10.00" fill="forestgreen">+</text>
<text text-anchor="start" x="278" y="-213" font-family="Helvetica,sans-Serif" font-size="10.00">MixMusic</text>
<text text-anchor="start" x="271" y="-203" font-family="Helvetica,sans-Serif" font-size="10.00" fill="forestgreen">+</text>
<text text-anchor="start" x="278" y="-203" font-family="Helvetica,sans-Serif" font-size="10.00">Sys</text>
</g>
<!-- sdl2::mixer&#45;&gt;sdl2::sdl2_base -->
<g id="edge4" class="edge"><title>sdl2::mixer&#45;&gt;sdl2::sdl2_base</title>
<path fill="none" stroke="black" stroke-width="0.5" stroke-dasharray="5,2" d="M281.902,-278.368C273.389,-295.042 263.075,-315.246 252.802,-335.368"/>
<polygon fill="black" stroke="black" stroke-width="0.5" points="250.472,-339.93 250.742,-334.454 251.609,-337.704 252.746,-335.477 252.746,-335.477 252.746,-335.477 251.609,-337.704 254.75,-336.5 250.472,-339.93 250.472,-339.93"/>
</g>
<!-- sdl2::sdl2&#45;&gt;sdl2::events -->
<g id="edge5" class="edge"><title>sdl2::sdl2&#45;&gt;sdl2::events</title>
<path fill="none" stroke="black" stroke-width="0.5" stroke-dasharray="5,2" d="M132.604,-136.086C129.952,-140.361 126.262,-146.309 121.987,-153.2"/>
<polygon fill="black" stroke="black" stroke-width="0.5" points="119.254,-157.605 119.978,-152.17 120.572,-155.481 121.89,-153.357 121.89,-153.357 121.89,-153.357 120.572,-155.481 123.802,-154.543 119.254,-157.605 119.254,-157.605"/>
</g>
<!-- sdl2::syswm -->
<g id="node7" class="node"><title>sdl2::syswm</title>
<polygon fill="#fffaf3" stroke="black" points="241,-258 163,-258 163,-218 247,-218 247,-252 241,-258"/>
<polyline fill="none" stroke="black" points="241,-258 241,-252 "/>
<polyline fill="none" stroke="black" points="247,-252 241,-252 "/>
<text text-anchor="start" x="165" y="-248.5" font-family="Helvetica,sans-Serif" font-weight="bold" font-size="10.00">syswm</text>
<text text-anchor="start" x="165" y="-233" font-family="Helvetica,sans-Serif" font-size="10.00" fill="forestgreen">+</text>
<text text-anchor="start" x="172" y="-233" font-family="Helvetica,sans-Serif" font-size="10.00">SDLSysWMInfo</text>
<text text-anchor="start" x="165" y="-223" font-family="Helvetica,sans-Serif" font-size="10.00" fill="forestgreen">+</text>
<text text-anchor="start" x="172" y="-223" font-family="Helvetica,sans-Serif" font-size="10.00">SDLWindow</text>
</g>
<!-- sdl2::sdl2&#45;&gt;sdl2::syswm -->
<g id="edge6" class="edge"><title>sdl2::sdl2&#45;&gt;sdl2::syswm</title>
<path fill="none" stroke="black" stroke-width="0.5" stroke-dasharray="5,2" d="M141.462,-136.086C151.142,-151.46 174.448,-188.476 189.98,-213.144"/>
<polygon fill="black" stroke="black" stroke-width="0.5" points="192.784,-217.598 188.216,-214.566 191.452,-215.483 190.12,-213.367 190.12,-213.367 190.12,-213.367 191.452,-215.483 192.024,-212.168 192.784,-217.598 192.784,-217.598"/>
</g>
<!-- sdl2::syswm&#45;&gt;sdl2::sdl2_base -->
<g id="edge7" class="edge"><title>sdl2::syswm&#45;&gt;sdl2::sdl2_base</title>
<path fill="none" stroke="black" stroke-width="0.5" stroke-dasharray="5,2" d="M205,-258.264C205,-276.636 205,-305.731 205,-334.735"/>
<polygon fill="black" stroke="black" stroke-width="0.5" points="205,-339.765 202.75,-334.765 205,-337.265 205,-334.765 205,-334.765 205,-334.765 205,-337.265 207.25,-334.766 205,-339.765 205,-339.765"/>
</g>
</g>
</svg>
