<?xml version="1.0" encoding="UTF-8" standalone="no"?>
<!DOCTYPE svg PUBLIC "-//W3C//DTD SVG 1.1//EN"
 "http://www.w3.org/Graphics/SVG/1.1/DTD/svg11.dtd">
<!-- Generated by graphviz version 2.36.0 (20140111.2315)
 -->
<!-- Title: G Pages: 1 -->
<svg width="302pt" height="424pt"
 viewBox="0.00 0.00 302.00 424.00" xmlns="http://www.w3.org/2000/svg" xmlns:xlink="http://www.w3.org/1999/xlink">
<g id="graph0" class="graph" transform="scale(1 1) rotate(0) translate(4 420)">
<title>G</title>
<polygon fill="white" stroke="none" points="-4,4 -4,-420 298,-420 298,4 -4,4"/>
<!-- json::json -->
<g id="node1" class="node"><title>json::json</title>
<polygon fill="#fffaf3" stroke="black" points="203.333,-70 180,-70 180,-54 206,-54 206,-67.3333 203.333,-70"/>
<polyline fill="none" stroke="black" points="203.333,-70 203.333,-67.3333 "/>
<polyline fill="none" stroke="black" points="206,-67.3333 203.333,-67.3333 "/>
<text text-anchor="start" x="182" y="-60.5" font-family="Helvetica,sans-Serif" font-weight="bold" font-size="10.00">json</text>
</g>
<!-- json::serialization_read -->
<g id="node5" class="node"><title>json::serialization_read</title>
<polygon fill="#fffaf3" stroke="black" points="176,-197 94,-197 94,-127 182,-127 182,-191 176,-197"/>
<polyline fill="none" stroke="black" points="176,-197 176,-191 "/>
<polyline fill="none" stroke="black" points="182,-191 176,-191 "/>
<text text-anchor="start" x="96" y="-187.5" font-family="Helvetica,sans-Serif" font-weight="bold" font-size="10.00">serialization_read</text>
<text text-anchor="start" x="96" y="-172" font-family="Helvetica,sans-Serif" font-size="10.00" fill="forestgreen">+</text>
<text text-anchor="start" x="103" y="-172" font-family="Helvetica,sans-Serif" font-size="10.00">JsonDeserializer</text>
<text text-anchor="start" x="96" y="-162" font-family="Helvetica,sans-Serif" font-size="10.00" fill="forestgreen">+</text>
<text text-anchor="start" x="103" y="-162" font-family="Helvetica,sans-Serif" font-size="10.00">Map</text>
<text text-anchor="start" x="96" y="-152" font-family="Helvetica,sans-Serif" font-size="10.00" fill="forestgreen">+</text>
<text text-anchor="start" x="103" y="-152" font-family="Helvetica,sans-Serif" font-size="10.00">SimpleCollection</text>
<text text-anchor="start" x="96" y="-142" font-family="Helvetica,sans-Serif" font-size="10.00" fill="forestgreen">+</text>
<text text-anchor="start" x="103" y="-142" font-family="Helvetica,sans-Serif" font-size="10.00">Sys</text>
<text text-anchor="start" x="96" y="-132" font-family="Helvetica,sans-Serif" font-size="10.00" fill="forestgreen">+</text>
<text text-anchor="start" x="103" y="-132" font-family="Helvetica,sans-Serif" font-size="10.00">Text</text>
</g>
<!-- json::json&#45;&gt;json::serialization_read -->
<g id="edge1" class="edge"><title>json::json&#45;&gt;json::serialization_read</title>
<path fill="none" stroke="black" stroke-width="0.5" stroke-dasharray="5,2" d="M189.045,-70.0479C182.908,-80.9828 170.656,-102.814 159.693,-122.346"/>
<polygon fill="black" stroke="black" stroke-width="0.5" points="157.232,-126.733 157.717,-121.271 158.455,-124.553 159.679,-122.373 159.679,-122.373 159.679,-122.373 158.455,-124.553 161.641,-123.474 157.232,-126.733 157.232,-126.733"/>
</g>
<!-- json::serialization_write -->
<g id="node6" class="node"><title>json::serialization_write</title>
<polygon fill="#fffaf3" stroke="black" points="288,-232 204,-232 204,-92 294,-92 294,-226 288,-232"/>
<polyline fill="none" stroke="black" points="288,-232 288,-226 "/>
<polyline fill="none" stroke="black" points="294,-226 288,-226 "/>
<text text-anchor="start" x="206" y="-222.5" font-family="Helvetica,sans-Serif" font-weight="bold" font-size="10.00">serialization_write</text>
<text text-anchor="start" x="206" y="-207" font-family="Helvetica,sans-Serif" font-size="10.00" fill="forestgreen">+</text>
<text text-anchor="start" x="213" y="-207" font-family="Helvetica,sans-Serif" font-size="10.00">Bool</text>
<text text-anchor="start" x="206" y="-197" font-family="Helvetica,sans-Serif" font-size="10.00" fill="forestgreen">+</text>
<text text-anchor="start" x="213" y="-197" font-family="Helvetica,sans-Serif" font-size="10.00">Byte</text>
<text text-anchor="start" x="206" y="-187" font-family="Helvetica,sans-Serif" font-size="10.00" fill="forestgreen">+</text>
<text text-anchor="start" x="213" y="-187" font-family="Helvetica,sans-Serif" font-size="10.00">CString</text>
<text text-anchor="start" x="206" y="-177" font-family="Helvetica,sans-Serif" font-size="10.00" fill="forestgreen">+</text>
<text text-anchor="start" x="213" y="-177" font-family="Helvetica,sans-Serif" font-size="10.00">Char</text>
<text text-anchor="start" x="206" y="-167" font-family="Helvetica,sans-Serif" font-size="10.00" fill="forestgreen">+</text>
<text text-anchor="start" x="213" y="-167" font-family="Helvetica,sans-Serif" font-size="10.00">Collection</text>
<text text-anchor="start" x="206" y="-157" font-family="Helvetica,sans-Serif" font-size="10.00" fill="forestgreen">+</text>
<text text-anchor="start" x="213" y="-157" font-family="Helvetica,sans-Serif" font-size="10.00">Float</text>
<text text-anchor="start" x="206" y="-147" font-family="Helvetica,sans-Serif" font-size="10.00" fill="forestgreen">+</text>
<text text-anchor="start" x="213" y="-147" font-family="Helvetica,sans-Serif" font-size="10.00">Int</text>
<text text-anchor="start" x="206" y="-137" font-family="Helvetica,sans-Serif" font-size="10.00" fill="forestgreen">+</text>
<text text-anchor="start" x="213" y="-137" font-family="Helvetica,sans-Serif" font-size="10.00">JsonSerializer</text>
<text text-anchor="start" x="206" y="-127" font-family="Helvetica,sans-Serif" font-size="10.00" fill="forestgreen">+</text>
<text text-anchor="start" x="213" y="-127" font-family="Helvetica,sans-Serif" font-size="10.00">Map</text>
<text text-anchor="start" x="206" y="-117" font-family="Helvetica,sans-Serif" font-size="10.00" fill="forestgreen">+</text>
<text text-anchor="start" x="213" y="-117" font-family="Helvetica,sans-Serif" font-size="10.00">Serializable</text>
<text text-anchor="start" x="206" y="-107" font-family="Helvetica,sans-Serif" font-size="10.00" fill="forestgreen">+</text>
<text text-anchor="start" x="213" y="-107" font-family="Helvetica,sans-Serif" font-size="10.00">SimpleCollection</text>
<text text-anchor="start" x="206" y="-97" font-family="Helvetica,sans-Serif" font-size="10.00" fill="forestgreen">+</text>
<text text-anchor="start" x="213" y="-97" font-family="Helvetica,sans-Serif" font-size="10.00">Text</text>
</g>
<!-- json::json&#45;&gt;json::serialization_write -->
<g id="edge2" class="edge"><title>json::json&#45;&gt;json::serialization_write</title>
<path fill="none" stroke="black" stroke-width="0.5" stroke-dasharray="5,2" d="M197.027,-70.0479C199.52,-74.4093 203.002,-80.5039 206.997,-87.4947"/>
<polygon fill="black" stroke="black" stroke-width="0.5" points="209.546,-91.9558 205.112,-88.7309 208.306,-89.7852 207.065,-87.6146 207.065,-87.6146 207.065,-87.6146 208.306,-89.7852 209.019,-86.4983 209.546,-91.9558 209.546,-91.9558"/>
</g>
<!-- json::error -->
<g id="node2" class="node"><title>json::error</title>
<polygon fill="#fffaf3" stroke="black" points="121,-416 47,-416 47,-376 127,-376 127,-410 121,-416"/>
<polyline fill="none" stroke="black" points="121,-416 121,-410 "/>
<polyline fill="none" stroke="black" points="127,-410 121,-410 "/>
<text text-anchor="start" x="49" y="-406.5" font-family="Helvetica,sans-Serif" font-weight="bold" font-size="10.00">error</text>
<text text-anchor="start" x="49" y="-391" font-family="Helvetica,sans-Serif" font-size="10.00" fill="forestgreen">+</text>
<text text-anchor="start" x="56" y="-391" font-family="Helvetica,sans-Serif" font-size="10.00">Deserializer</text>
<text text-anchor="start" x="49" y="-381" font-family="Helvetica,sans-Serif" font-size="10.00" fill="forestgreen">+</text>
<text text-anchor="start" x="56" y="-381" font-family="Helvetica,sans-Serif" font-size="10.00">JsonParseError</text>
</g>
<!-- json::store -->
<g id="node3" class="node"><title>json::store</title>
<polygon fill="#fffaf3" stroke="black" points="216.333,-31.5 164.5,-31.5 164.5,-0.5 221.5,-0.5 221.5,-26.3333 216.333,-31.5"/>
<polyline fill="none" stroke="black" points="216.333,-31.5 216.333,-26.3333 "/>
<polyline fill="none" stroke="black" points="221.5,-26.3333 216.333,-26.3333 "/>
<text text-anchor="start" x="167" y="-21.5" font-family="Helvetica,sans-Serif" font-weight="bold" font-size="10.00">store</text>
<text text-anchor="start" x="167" y="-6" font-family="Helvetica,sans-Serif" font-size="10.00" fill="forestgreen">+</text>
<text text-anchor="start" x="174" y="-6" font-family="Helvetica,sans-Serif" font-size="10.00">JsonStore</text>
</g>
<!-- json::store&#45;&gt;json::json -->
<g id="edge3" class="edge"><title>json::store&#45;&gt;json::json</title>
<path fill="none" stroke="black" stroke-width="0.5" stroke-dasharray="5,2" d="M193,-31.8964C193,-37.3158 193,-43.3794 193,-48.5634"/>
<polygon fill="black" stroke="black" stroke-width="0.5" points="193,-53.7713 190.75,-48.7712 193,-51.2713 193,-48.7713 193,-48.7713 193,-48.7713 193,-51.2713 195.25,-48.7713 193,-53.7713 193,-53.7713"/>
</g>
<!-- json::dynamic -->
<g id="node4" class="node"><title>json::dynamic</title>
<polygon fill="#fffaf3" stroke="black" points="66,-187 0,-187 0,-137 72,-137 72,-181 66,-187"/>
<polyline fill="none" stroke="black" points="66,-187 66,-181 "/>
<polyline fill="none" stroke="black" points="72,-181 66,-181 "/>
<text text-anchor="start" x="2" y="-177.5" font-family="Helvetica,sans-Serif" font-weight="bold" font-size="10.00">dynamic</text>
<text text-anchor="start" x="2" y="-162" font-family="Helvetica,sans-Serif" font-size="10.00" fill="forestgreen">+</text>
<text text-anchor="start" x="9" y="-162" font-family="Helvetica,sans-Serif" font-size="10.00">JsonKeyError</text>
<text text-anchor="start" x="2" y="-152" font-family="Helvetica,sans-Serif" font-size="10.00" fill="forestgreen">+</text>
<text text-anchor="start" x="9" y="-152" font-family="Helvetica,sans-Serif" font-size="10.00">JsonValue</text>
<text text-anchor="start" x="2" y="-142" font-family="Helvetica,sans-Serif" font-size="10.00" fill="forestgreen">+</text>
<text text-anchor="start" x="9" y="-142" font-family="Helvetica,sans-Serif" font-size="10.00">Text</text>
</g>
<!-- json::static -->
<g id="node7" class="node"><title>json::static</title>
<polygon fill="#fffaf3" stroke="black" points="131,-354 37,-354 37,-254 137,-254 137,-348 131,-354"/>
<polyline fill="none" stroke="black" points="131,-354 131,-348 "/>
<polyline fill="none" stroke="black" points="137,-348 131,-348 "/>
<text text-anchor="start" x="39" y="-344.5" font-family="Helvetica,sans-Serif" font-weight="bold" font-size="10.00">static</text>
<text text-anchor="start" x="39" y="-329" font-family="Helvetica,sans-Serif" font-size="10.00" fill="forestgreen">+</text>
<text text-anchor="start" x="46" y="-329" font-family="Helvetica,sans-Serif" font-size="10.00">Char</text>
<text text-anchor="start" x="39" y="-319" font-family="Helvetica,sans-Serif" font-size="10.00" fill="forestgreen">+</text>
<text text-anchor="start" x="46" y="-319" font-family="Helvetica,sans-Serif" font-size="10.00">FlatText</text>
<text text-anchor="start" x="39" y="-309" font-family="Helvetica,sans-Serif" font-size="10.00" fill="forestgreen">+</text>
<text text-anchor="start" x="46" y="-309" font-family="Helvetica,sans-Serif" font-size="10.00">JSONStringParser</text>
<text text-anchor="start" x="39" y="-299" font-family="Helvetica,sans-Serif" font-size="10.00" fill="forestgreen">+</text>
<text text-anchor="start" x="46" y="-299" font-family="Helvetica,sans-Serif" font-size="10.00">JsonArray</text>
<text text-anchor="start" x="39" y="-289" font-family="Helvetica,sans-Serif" font-size="10.00" fill="forestgreen">+</text>
<text text-anchor="start" x="46" y="-289" font-family="Helvetica,sans-Serif" font-size="10.00">JsonMapRead</text>
<text text-anchor="start" x="39" y="-279" font-family="Helvetica,sans-Serif" font-size="10.00" fill="forestgreen">+</text>
<text text-anchor="start" x="46" y="-279" font-family="Helvetica,sans-Serif" font-size="10.00">JsonObject</text>
<text text-anchor="start" x="39" y="-269" font-family="Helvetica,sans-Serif" font-size="10.00" fill="forestgreen">+</text>
<text text-anchor="start" x="46" y="-269" font-family="Helvetica,sans-Serif" font-size="10.00">JsonSequenceRead</text>
<text text-anchor="start" x="39" y="-259" font-family="Helvetica,sans-Serif" font-size="10.00" fill="forestgreen">+</text>
<text text-anchor="start" x="46" y="-259" font-family="Helvetica,sans-Serif" font-size="10.00">Text</text>
</g>
<!-- json::dynamic&#45;&gt;json::static -->
<g id="edge4" class="edge"><title>json::dynamic&#45;&gt;json::static</title>
<path fill="none" stroke="black" stroke-width="0.5" stroke-dasharray="5,2" d="M44.7672,-187.067C50.9629,-204.075 59.5181,-227.56 67.3092,-248.947"/>
<polygon fill="black" stroke="black" stroke-width="0.5" points="69.0625,-253.76 65.2369,-249.832 68.2067,-251.411 67.351,-249.062 67.351,-249.062 67.351,-249.062 68.2067,-251.411 69.4651,-248.292 69.0625,-253.76 69.0625,-253.76"/>
</g>
<!-- json::serialization_read&#45;&gt;json::static -->
<g id="edge5" class="edge"><title>json::serialization_read&#45;&gt;json::static</title>
<path fill="none" stroke="black" stroke-width="0.5" stroke-dasharray="5,2" d="M125.524,-197.248C119.863,-212.787 113.032,-231.538 106.704,-248.91"/>
<polygon fill="black" stroke="black" stroke-width="0.5" points="104.934,-253.769 104.532,-248.301 105.79,-251.42 106.646,-249.071 106.646,-249.071 106.646,-249.071 105.79,-251.42 108.76,-249.841 104.934,-253.769 104.934,-253.769"/>
</g>
<!-- json::static&#45;&gt;json::error -->
<g id="edge6" class="edge"><title>json::static&#45;&gt;json::error</title>
<path fill="none" stroke="black" stroke-width="0.5" stroke-dasharray="5,2" d="M87,-354.213C87,-360 87,-365.692 87,-370.904"/>
<polygon fill="black" stroke="black" stroke-width="0.5" points="87,-375.941 84.7501,-370.941 87,-373.441 87.0001,-370.941 87.0001,-370.941 87.0001,-370.941 87,-373.441 89.2501,-370.941 87,-375.941 87,-375.941"/>
</g>
</g>
</svg>
