<?xml version="1.0" encoding="UTF-8" standalone="no"?>
<!DOCTYPE svg PUBLIC "-//W3C//DTD SVG 1.1//EN"
 "http://www.w3.org/Graphics/SVG/1.1/DTD/svg11.dtd">
<!-- Generated by graphviz version 2.36.0 (20140111.2315)
 -->
<!-- Title: G Pages: 1 -->
<svg width="229pt" height="250pt"
 viewBox="0.00 0.00 229.00 250.00" xmlns="http://www.w3.org/2000/svg" xmlns:xlink="http://www.w3.org/1999/xlink">
<g id="graph0" class="graph" transform="scale(1 1) rotate(0) translate(4 246)">
<title>G</title>
<polygon fill="white" stroke="none" points="-4,4 -4,-246 225,-246 225,4 -4,4"/>
<!-- sax&amp;gt; -->
<g id="node1" class="node"><title>sax&amp;gt;</title>
<polygon fill="#fefef2" stroke="black" points="151.5,-242 148.5,-246 127.5,-246 124.5,-242 46.5,-242 46.5,-112 151.5,-112 151.5,-242"/>
<text text-anchor="start" x="49" y="-232.5" font-family="Helvetica,sans-Serif" font-weight="bold" font-size="10.00">sax</text>
<text text-anchor="start" x="49" y="-217" font-family="Helvetica,sans-Serif" font-size="10.00" fill="forestgreen">+</text>
<text text-anchor="start" x="56" y="-217" font-family="Helvetica,sans-Serif" font-size="10.00">attributes</text>
<text text-anchor="start" x="49" y="-207" font-family="Helvetica,sans-Serif" font-size="10.00" fill="forestgreen">+</text>
<text text-anchor="start" x="56" y="-207" font-family="Helvetica,sans-Serif" font-size="10.00">content_handler</text>
<text text-anchor="start" x="49" y="-197" font-family="Helvetica,sans-Serif" font-size="10.00" fill="forestgreen">+</text>
<text text-anchor="start" x="56" y="-197" font-family="Helvetica,sans-Serif" font-size="10.00">dtd_handler</text>
<text text-anchor="start" x="49" y="-187" font-family="Helvetica,sans-Serif" font-size="10.00" fill="forestgreen">+</text>
<text text-anchor="start" x="56" y="-187" font-family="Helvetica,sans-Serif" font-size="10.00">entity_resolver</text>
<text text-anchor="start" x="49" y="-177" font-family="Helvetica,sans-Serif" font-size="10.00" fill="forestgreen">+</text>
<text text-anchor="start" x="56" y="-177" font-family="Helvetica,sans-Serif" font-size="10.00">error_handler</text>
<text text-anchor="start" x="49" y="-167" font-family="Helvetica,sans-Serif" font-size="10.00" fill="forestgreen">+</text>
<text text-anchor="start" x="56" y="-167" font-family="Helvetica,sans-Serif" font-size="10.00">input_source</text>
<text text-anchor="start" x="49" y="-157" font-family="Helvetica,sans-Serif" font-size="10.00" fill="forestgreen">+</text>
<text text-anchor="start" x="56" y="-157" font-family="Helvetica,sans-Serif" font-size="10.00">sax</text>
<text text-anchor="start" x="49" y="-147" font-family="Helvetica,sans-Serif" font-size="10.00" fill="forestgreen">+</text>
<text text-anchor="start" x="56" y="-147" font-family="Helvetica,sans-Serif" font-size="10.00">sax_locator</text>
<text text-anchor="start" x="49" y="-137" font-family="Helvetica,sans-Serif" font-size="10.00" fill="forestgreen">+</text>
<text text-anchor="start" x="56" y="-137" font-family="Helvetica,sans-Serif" font-size="10.00">sax_parse_exception</text>
<text text-anchor="start" x="49" y="-127" font-family="Helvetica,sans-Serif" font-size="10.00" fill="forestgreen">+</text>
<text text-anchor="start" x="56" y="-127" font-family="Helvetica,sans-Serif" font-size="10.00">xml_filter</text>
<text text-anchor="start" x="49" y="-117" font-family="Helvetica,sans-Serif" font-size="10.00" fill="forestgreen">+</text>
<text text-anchor="start" x="56" y="-117" font-family="Helvetica,sans-Serif" font-size="10.00">xml_reader</text>
</g>
<!-- sax&amp;gt;ext&amp;gt; -->
<g id="node2" class="node"><title>sax&amp;gt;ext&amp;gt;</title>
<polygon fill="#fefef2" stroke="black" points="76.5,-70 73.5,-74 52.5,-74 49.5,-70 -0.5,-70 -0.5,-20 76.5,-20 76.5,-70"/>
<text text-anchor="start" x="2" y="-60.5" font-family="Helvetica,sans-Serif" font-weight="bold" font-size="10.00">ext</text>
<text text-anchor="start" x="2" y="-45" font-family="Helvetica,sans-Serif" font-size="10.00" fill="forestgreen">+</text>
<text text-anchor="start" x="9" y="-45" font-family="Helvetica,sans-Serif" font-size="10.00">decl_handler</text>
<text text-anchor="start" x="2" y="-35" font-family="Helvetica,sans-Serif" font-size="10.00" fill="forestgreen">+</text>
<text text-anchor="start" x="9" y="-35" font-family="Helvetica,sans-Serif" font-size="10.00">ext</text>
<text text-anchor="start" x="2" y="-25" font-family="Helvetica,sans-Serif" font-size="10.00" fill="forestgreen">+</text>
<text text-anchor="start" x="9" y="-25" font-family="Helvetica,sans-Serif" font-size="10.00">lexical_handler</text>
</g>
<!-- sax&amp;gt;ext&amp;gt;&#45;&gt;sax&amp;gt; -->
<g id="edge1" class="edge"><title>sax&amp;gt;ext&amp;gt;&#45;&gt;sax&amp;gt;</title>
<path fill="none" stroke="black" stroke-width="0.5" stroke-dasharray="5,2" d="M49.3307,-70.1473C54.3454,-80.8345 60.5229,-93.9996 66.7967,-107.37"/>
<polygon fill="black" stroke="black" stroke-width="0.5" points="68.9265,-111.909 64.7656,-108.338 67.8645,-109.646 66.8025,-107.383 66.8025,-107.383 66.8025,-107.383 67.8645,-109.646 68.8394,-106.427 68.9265,-111.909 68.9265,-111.909"/>
</g>
<!-- sax&amp;gt;helpers&amp;gt; -->
<g id="node3" class="node"><title>sax&amp;gt;helpers&amp;gt;</title>
<polygon fill="#fefef2" stroke="black" points="221,-90 218,-94 197,-94 194,-90 99,-90 99,-0 221,-0 221,-90"/>
<text text-anchor="start" x="101" y="-80.5" font-family="Helvetica,sans-Serif" font-weight="bold" font-size="10.00">helpers</text>
<text text-anchor="start" x="101" y="-65" font-family="Helvetica,sans-Serif" font-size="10.00" fill="forestgreen">+</text>
<text text-anchor="start" x="108" y="-65" font-family="Helvetica,sans-Serif" font-size="10.00">attributes_impl</text>
<text text-anchor="start" x="101" y="-55" font-family="Helvetica,sans-Serif" font-size="10.00" fill="forestgreen">+</text>
<text text-anchor="start" x="108" y="-55" font-family="Helvetica,sans-Serif" font-size="10.00">helpers</text>
<text text-anchor="start" x="101" y="-45" font-family="Helvetica,sans-Serif" font-size="10.00" fill="forestgreen">+</text>
<text text-anchor="start" x="108" y="-45" font-family="Helvetica,sans-Serif" font-size="10.00">namespace_support</text>
<text text-anchor="start" x="101" y="-35" font-family="Helvetica,sans-Serif" font-size="10.00" fill="forestgreen">+</text>
<text text-anchor="start" x="108" y="-35" font-family="Helvetica,sans-Serif" font-size="10.00">sax_locator_impl</text>
<text text-anchor="start" x="101" y="-25" font-family="Helvetica,sans-Serif" font-size="10.00" fill="forestgreen">+</text>
<text text-anchor="start" x="108" y="-25" font-family="Helvetica,sans-Serif" font-size="10.00">test_attributes_impl</text>
<text text-anchor="start" x="101" y="-15" font-family="Helvetica,sans-Serif" font-size="10.00" fill="forestgreen">+</text>
<text text-anchor="start" x="108" y="-15" font-family="Helvetica,sans-Serif" font-size="10.00">test_namespace_support</text>
<text text-anchor="start" x="101" y="-5" font-family="Helvetica,sans-Serif" font-size="10.00" fill="forestgreen">+</text>
<text text-anchor="start" x="108" y="-5" font-family="Helvetica,sans-Serif" font-size="10.00">xml_filter_impl</text>
</g>
<!-- sax&amp;gt;helpers&amp;gt;&#45;&gt;sax&amp;gt; -->
<g id="edge2" class="edge"><title>sax&amp;gt;helpers&amp;gt;&#45;&gt;sax&amp;gt;</title>
<path fill="none" stroke="black" stroke-width="0.5" stroke-dasharray="5,2" d="M139.348,-90.0121C136.756,-95.5366 134.057,-101.288 131.339,-107.08"/>
<polygon fill="black" stroke="black" stroke-width="0.5" points="129.053,-111.952 129.14,-106.47 130.115,-109.689 131.177,-107.426 131.177,-107.426 131.177,-107.426 130.115,-109.689 133.214,-108.381 129.053,-111.952 129.053,-111.952"/>
</g>
</g>
</svg>
