<?xml version="1.0" encoding="UTF-8" standalone="no"?>
<!DOCTYPE svg PUBLIC "-//W3C//DTD SVG 1.1//EN"
 "http://www.w3.org/Graphics/SVG/1.1/DTD/svg11.dtd">
<!-- Generated by graphviz version 2.36.0 (20140111.2315)
 -->
<!-- Title: G Pages: 1 -->
<svg width="626pt" height="258pt"
 viewBox="0.00 0.00 626.00 258.00" xmlns="http://www.w3.org/2000/svg" xmlns:xlink="http://www.w3.org/1999/xlink">
<g id="graph0" class="graph" transform="scale(1 1) rotate(0) translate(4 254)">
<title>G</title>
<polygon fill="white" stroke="none" points="-4,4 -4,-254 622,-254 622,4 -4,4"/>
<!-- mnit::InputEvent -->
<g id="node1" class="node"><title>mnit::InputEvent</title>
<polygon fill="white" stroke="none" points="412.5,-249.5 343.5,-249.5 343.5,-222.5 412.5,-222.5 412.5,-249.5"/>
<polygon fill="none" stroke="forestgreen" points="344,-222 344,-249 413,-249 413,-222 344,-222"/>
<text text-anchor="start" x="347.5" y="-238.5" font-family="Helvetica,sans-Serif" font-size="10.00">&lt;&lt;interface&gt;&gt;</text>
<text text-anchor="start" x="353" y="-228.5" font-family="Helvetica,sans-Serif" font-weight="bold" font-style="italic" font-size="10.00">InputEvent</text>
</g>
<!-- mnit::PointerEvent -->
<g id="node2" class="node"><title>mnit::PointerEvent</title>
<polygon fill="white" stroke="none" points="94,-179.5 -7.10543e-15,-179.5 -7.10543e-15,-116.5 94,-116.5 94,-179.5"/>
<polygon fill="none" stroke="forestgreen" points="0,-152 0,-179 94,-179 94,-152 0,-152"/>
<text text-anchor="start" x="16" y="-168.5" font-family="Helvetica,sans-Serif" font-size="10.00">&lt;&lt;interface&gt;&gt;</text>
<text text-anchor="start" x="16.5" y="-158.5" font-family="Helvetica,sans-Serif" font-weight="bold" font-style="italic" font-size="10.00">PointerEvent</text>
<polygon fill="none" stroke="forestgreen" points="0,-116 0,-152 94,-152 94,-116 0,-116"/>
<text text-anchor="start" x="3" y="-142" font-family="Helvetica,sans-Serif" font-size="10.00" fill="forestgreen">+</text>
<text text-anchor="start" x="10" y="-142" font-family="Helvetica,sans-Serif" font-size="10.00"> depressed(): Bool</text>
<text text-anchor="start" x="3" y="-132" font-family="Helvetica,sans-Serif" font-size="10.00" fill="forestgreen">+</text>
<text text-anchor="start" x="10" y="-132" font-family="Helvetica,sans-Serif" font-size="10.00"> </text>
<text text-anchor="start" x="14" y="-132" font-family="Helvetica,sans-Serif" font-style="italic" font-size="10.00">x</text>
<text text-anchor="start" x="20" y="-132" font-family="Helvetica,sans-Serif" font-size="10.00">(): Float</text>
<text text-anchor="start" x="3" y="-122" font-family="Helvetica,sans-Serif" font-size="10.00" fill="forestgreen">+</text>
<text text-anchor="start" x="10" y="-122" font-family="Helvetica,sans-Serif" font-size="10.00"> </text>
<text text-anchor="start" x="14" y="-122" font-family="Helvetica,sans-Serif" font-style="italic" font-size="10.00">y</text>
<text text-anchor="start" x="20" y="-122" font-family="Helvetica,sans-Serif" font-size="10.00">(): Float</text>
</g>
<!-- mnit::PointerEvent&#45;&gt;mnit::InputEvent -->
<g id="edge1" class="edge"><title>mnit::PointerEvent&#45;&gt;mnit::InputEvent</title>
<path fill="none" stroke="black" stroke-width="0.5" d="M74.9601,-179.52C83.8013,-187.425 94.125,-195.086 105,-200 145.766,-218.42 272.937,-228.618 338.314,-232.768"/>
<polygon fill="none" stroke="black" stroke-width="0.5" points="338.579,-234.538 343.678,-233.104 338.797,-231.045 338.579,-234.538"/>
</g>
<!-- mnit::MotionEvent -->
<g id="node3" class="node"><title>mnit::MotionEvent</title>
<polygon fill="white" stroke="none" points="297.5,-174.5 116.5,-174.5 116.5,-121.5 297.5,-121.5 297.5,-174.5"/>
<polygon fill="none" stroke="forestgreen" points="117,-147 117,-174 298,-174 298,-147 117,-147"/>
<text text-anchor="start" x="176.5" y="-163.5" font-family="Helvetica,sans-Serif" font-size="10.00">&lt;&lt;interface&gt;&gt;</text>
<text text-anchor="start" x="178" y="-153.5" font-family="Helvetica,sans-Serif" font-weight="bold" font-style="italic" font-size="10.00">MotionEvent</text>
<polygon fill="none" stroke="forestgreen" points="117,-121 117,-147 298,-147 298,-121 117,-121"/>
<text text-anchor="start" x="120" y="-137" font-family="Helvetica,sans-Serif" font-size="10.00" fill="forestgreen">+</text>
<text text-anchor="start" x="127" y="-137" font-family="Helvetica,sans-Serif" font-size="10.00"> </text>
<text text-anchor="start" x="131" y="-137" font-family="Helvetica,sans-Serif" font-style="italic" font-size="10.00">down_pointer</text>
<text text-anchor="start" x="189" y="-137" font-family="Helvetica,sans-Serif" font-size="10.00">(): nullable PointerEvent</text>
<text text-anchor="start" x="120" y="-127" font-family="Helvetica,sans-Serif" font-size="10.00" fill="forestgreen">+</text>
<text text-anchor="start" x="127" y="-127" font-family="Helvetica,sans-Serif" font-size="10.00"> </text>
<text text-anchor="start" x="131" y="-127" font-family="Helvetica,sans-Serif" font-style="italic" font-size="10.00">just_went_down</text>
<text text-anchor="start" x="202" y="-127" font-family="Helvetica,sans-Serif" font-size="10.00">(): Bool</text>
</g>
<!-- mnit::MotionEvent&#45;&gt;mnit::InputEvent -->
<g id="edge2" class="edge"><title>mnit::MotionEvent&#45;&gt;mnit::InputEvent</title>
<path fill="none" stroke="black" stroke-width="0.5" d="M257.843,-174.57C287.315,-189.392 323.401,-207.541 348.291,-220.059"/>
<polygon fill="none" stroke="black" stroke-width="0.5" points="347.551,-221.645 352.804,-222.328 349.124,-218.518 347.551,-221.645"/>
</g>
<!-- mnit::TouchEvent -->
<g id="node4" class="node"><title>mnit::TouchEvent</title>
<polygon fill="white" stroke="none" points="92,-59 2,-59 2,-15 92,-15 92,-59"/>
<polygon fill="none" stroke="forestgreen" points="2,-32 2,-59 92,-59 92,-32 2,-32"/>
<text text-anchor="start" x="16" y="-48.5" font-family="Helvetica,sans-Serif" font-size="10.00">&lt;&lt;interface&gt;&gt;</text>
<text text-anchor="start" x="19" y="-38.5" font-family="Helvetica,sans-Serif" font-weight="bold" font-style="italic" font-size="10.00">TouchEvent</text>
<polygon fill="none" stroke="forestgreen" points="2,-15 2,-32 92,-32 92,-15 2,-15"/>
<text text-anchor="start" x="5" y="-22" font-family="Helvetica,sans-Serif" font-size="10.00" fill="forestgreen">+</text>
<text text-anchor="start" x="12" y="-22" font-family="Helvetica,sans-Serif" font-size="10.00"> </text>
<text text-anchor="start" x="16" y="-22" font-family="Helvetica,sans-Serif" font-style="italic" font-size="10.00">pressure</text>
<text text-anchor="start" x="54" y="-22" font-family="Helvetica,sans-Serif" font-size="10.00">(): Float</text>
</g>
<!-- mnit::TouchEvent&#45;&gt;mnit::PointerEvent -->
<g id="edge3" class="edge"><title>mnit::TouchEvent&#45;&gt;mnit::PointerEvent</title>
<path fill="none" stroke="black" stroke-width="0.5" d="M47,-59.0163C47,-73.705 47,-93.6918 47,-110.904"/>
<polygon fill="none" stroke="black" stroke-width="0.5" points="45.2501,-111.147 47,-116.147 48.7501,-111.148 45.2501,-111.147"/>
</g>
<!-- mnit::KeyEvent -->
<g id="node5" class="node"><title>mnit::KeyEvent</title>
<polygon fill="white" stroke="none" points="436,-199.5 320,-199.5 320,-96.5 436,-96.5 436,-199.5"/>
<polygon fill="none" stroke="forestgreen" points="320,-172 320,-199 436,-199 436,-172 320,-172"/>
<text text-anchor="start" x="347" y="-188.5" font-family="Helvetica,sans-Serif" font-size="10.00">&lt;&lt;interface&gt;&gt;</text>
<text text-anchor="start" x="355.5" y="-178.5" font-family="Helvetica,sans-Serif" font-weight="bold" font-style="italic" font-size="10.00">KeyEvent</text>
<polygon fill="none" stroke="forestgreen" points="320,-96 320,-172 436,-172 436,-96 320,-96"/>
<text text-anchor="start" x="323" y="-162" font-family="Helvetica,sans-Serif" font-size="10.00" fill="forestgreen">+</text>
<text text-anchor="start" x="330" y="-162" font-family="Helvetica,sans-Serif" font-size="10.00"> </text>
<text text-anchor="start" x="334" y="-162" font-family="Helvetica,sans-Serif" font-style="italic" font-size="10.00">code</text>
<text text-anchor="start" x="356" y="-162" font-family="Helvetica,sans-Serif" font-size="10.00">(): Int</text>
<text text-anchor="start" x="323" y="-152" font-family="Helvetica,sans-Serif" font-size="10.00" fill="forestgreen">+</text>
<text text-anchor="start" x="330" y="-152" font-family="Helvetica,sans-Serif" font-size="10.00"> </text>
<text text-anchor="start" x="334" y="-152" font-family="Helvetica,sans-Serif" font-style="italic" font-size="10.00">is_arrow_down</text>
<text text-anchor="start" x="400" y="-152" font-family="Helvetica,sans-Serif" font-size="10.00">(): Bool</text>
<text text-anchor="start" x="323" y="-142" font-family="Helvetica,sans-Serif" font-size="10.00" fill="forestgreen">+</text>
<text text-anchor="start" x="330" y="-142" font-family="Helvetica,sans-Serif" font-size="10.00"> </text>
<text text-anchor="start" x="334" y="-142" font-family="Helvetica,sans-Serif" font-style="italic" font-size="10.00">is_arrow_left</text>
<text text-anchor="start" x="390" y="-142" font-family="Helvetica,sans-Serif" font-size="10.00">(): Bool</text>
<text text-anchor="start" x="323" y="-132" font-family="Helvetica,sans-Serif" font-size="10.00" fill="forestgreen">+</text>
<text text-anchor="start" x="330" y="-132" font-family="Helvetica,sans-Serif" font-size="10.00"> </text>
<text text-anchor="start" x="334" y="-132" font-family="Helvetica,sans-Serif" font-style="italic" font-size="10.00">is_arrow_right</text>
<text text-anchor="start" x="395" y="-132" font-family="Helvetica,sans-Serif" font-size="10.00">(): Bool</text>
<text text-anchor="start" x="323" y="-122" font-family="Helvetica,sans-Serif" font-size="10.00" fill="forestgreen">+</text>
<text text-anchor="start" x="330" y="-122" font-family="Helvetica,sans-Serif" font-size="10.00"> </text>
<text text-anchor="start" x="334" y="-122" font-family="Helvetica,sans-Serif" font-style="italic" font-size="10.00">is_arrow_up</text>
<text text-anchor="start" x="387" y="-122" font-family="Helvetica,sans-Serif" font-size="10.00">(): Bool</text>
<text text-anchor="start" x="323" y="-112" font-family="Helvetica,sans-Serif" font-size="10.00" fill="forestgreen">+</text>
<text text-anchor="start" x="330" y="-112" font-family="Helvetica,sans-Serif" font-size="10.00"> is_up(): Bool</text>
<text text-anchor="start" x="323" y="-102" font-family="Helvetica,sans-Serif" font-size="10.00" fill="forestgreen">+</text>
<text text-anchor="start" x="330" y="-102" font-family="Helvetica,sans-Serif" font-size="10.00"> </text>
<text text-anchor="start" x="334" y="-102" font-family="Helvetica,sans-Serif" font-style="italic" font-size="10.00">to_c</text>
<text text-anchor="start" x="353" y="-102" font-family="Helvetica,sans-Serif" font-size="10.00">(): nullable Char</text>
</g>
<!-- mnit::KeyEvent&#45;&gt;mnit::InputEvent -->
<g id="edge4" class="edge"><title>mnit::KeyEvent&#45;&gt;mnit::InputEvent</title>
<path fill="none" stroke="black" stroke-width="0.5" d="M378,-199.524C378,-205.886 378,-212.021 378,-217.348"/>
<polygon fill="none" stroke="black" stroke-width="0.5" points="376.25,-217.385 378,-222.385 379.75,-217.385 376.25,-217.385"/>
</g>
<!-- mnit::MobileKeyEvent -->
<g id="node6" class="node"><title>mnit::MobileKeyEvent</title>
<polygon fill="white" stroke="none" points="435,-73.5 321,-73.5 321,-0.5 435,-0.5 435,-73.5"/>
<polygon fill="none" stroke="forestgreen" points="321,-46 321,-73 435,-73 435,-46 321,-46"/>
<text text-anchor="start" x="347" y="-62.5" font-family="Helvetica,sans-Serif" font-size="10.00">&lt;&lt;interface&gt;&gt;</text>
<text text-anchor="start" x="340" y="-52.5" font-family="Helvetica,sans-Serif" font-weight="bold" font-style="italic" font-size="10.00">MobileKeyEvent</text>
<polygon fill="none" stroke="forestgreen" points="321,-0 321,-46 435,-46 435,-0 321,-0"/>
<text text-anchor="start" x="324" y="-36" font-family="Helvetica,sans-Serif" font-size="10.00" fill="forestgreen">+</text>
<text text-anchor="start" x="331" y="-36" font-family="Helvetica,sans-Serif" font-size="10.00"> </text>
<text text-anchor="start" x="335" y="-36" font-family="Helvetica,sans-Serif" font-style="italic" font-size="10.00">is_back_key</text>
<text text-anchor="start" x="390" y="-36" font-family="Helvetica,sans-Serif" font-size="10.00">(): Bool</text>
<text text-anchor="start" x="324" y="-26" font-family="Helvetica,sans-Serif" font-size="10.00" fill="forestgreen">+</text>
<text text-anchor="start" x="331" y="-26" font-family="Helvetica,sans-Serif" font-size="10.00"> </text>
<text text-anchor="start" x="335" y="-26" font-family="Helvetica,sans-Serif" font-style="italic" font-size="10.00">is_home_key</text>
<text text-anchor="start" x="393" y="-26" font-family="Helvetica,sans-Serif" font-size="10.00">(): Bool</text>
<text text-anchor="start" x="324" y="-16" font-family="Helvetica,sans-Serif" font-size="10.00" fill="forestgreen">+</text>
<text text-anchor="start" x="331" y="-16" font-family="Helvetica,sans-Serif" font-size="10.00"> </text>
<text text-anchor="start" x="335" y="-16" font-family="Helvetica,sans-Serif" font-style="italic" font-size="10.00">is_menu_key</text>
<text text-anchor="start" x="393" y="-16" font-family="Helvetica,sans-Serif" font-size="10.00">(): Bool</text>
<text text-anchor="start" x="324" y="-6" font-family="Helvetica,sans-Serif" font-size="10.00" fill="forestgreen">+</text>
<text text-anchor="start" x="331" y="-6" font-family="Helvetica,sans-Serif" font-size="10.00"> </text>
<text text-anchor="start" x="335" y="-6" font-family="Helvetica,sans-Serif" font-style="italic" font-size="10.00">is_search_key</text>
<text text-anchor="start" x="399" y="-6" font-family="Helvetica,sans-Serif" font-size="10.00">(): Bool</text>
</g>
<!-- mnit::MobileKeyEvent&#45;&gt;mnit::KeyEvent -->
<g id="edge5" class="edge"><title>mnit::MobileKeyEvent&#45;&gt;mnit::KeyEvent</title>
<path fill="none" stroke="black" stroke-width="0.5" d="M378,-73.6907C378,-79.2049 378,-85.0118 378,-90.8441"/>
<polygon fill="none" stroke="black" stroke-width="0.5" points="376.25,-91.1997 378,-96.1998 379.75,-91.1998 376.25,-91.1997"/>
</g>
<!-- mnit::SensorEvent -->
<g id="node7" class="node"><title>mnit::SensorEvent</title>
<polygon fill="white" stroke="none" points="527.5,-161.5 458.5,-161.5 458.5,-134.5 527.5,-134.5 527.5,-161.5"/>
<polygon fill="none" stroke="forestgreen" points="459,-134 459,-161 528,-161 528,-134 459,-134"/>
<text text-anchor="start" x="462.5" y="-150.5" font-family="Helvetica,sans-Serif" font-size="10.00">&lt;&lt;interface&gt;&gt;</text>
<text text-anchor="start" x="463.5" y="-140.5" font-family="Helvetica,sans-Serif" font-weight="bold" font-style="italic" font-size="10.00">SensorEvent</text>
</g>
<!-- mnit::SensorEvent&#45;&gt;mnit::InputEvent -->
<g id="edge6" class="edge"><title>mnit::SensorEvent&#45;&gt;mnit::InputEvent</title>
<path fill="none" stroke="black" stroke-width="0.5" d="M483.241,-161.923C474.4,-173.012 460.561,-188.913 446,-200 435.832,-207.742 423.698,-214.61 412.513,-220.166"/>
<polygon fill="none" stroke="black" stroke-width="0.5" points="411.516,-218.705 407.786,-222.466 413.048,-221.852 411.516,-218.705"/>
</g>
<!-- mnit::QuitEvent -->
<g id="node8" class="node"><title>mnit::QuitEvent</title>
<polygon fill="white" stroke="none" points="618.5,-161.5 549.5,-161.5 549.5,-134.5 618.5,-134.5 618.5,-161.5"/>
<polygon fill="none" stroke="forestgreen" points="550,-134 550,-161 619,-161 619,-134 550,-134"/>
<text text-anchor="start" x="553.5" y="-150.5" font-family="Helvetica,sans-Serif" font-size="10.00">&lt;&lt;interface&gt;&gt;</text>
<text text-anchor="start" x="561.5" y="-140.5" font-family="Helvetica,sans-Serif" font-weight="bold" font-style="italic" font-size="10.00">QuitEvent</text>
</g>
<!-- mnit::QuitEvent&#45;&gt;mnit::InputEvent -->
<g id="edge7" class="edge"><title>mnit::QuitEvent&#45;&gt;mnit::InputEvent</title>
<path fill="none" stroke="black" stroke-width="0.5" d="M576.1,-161.54C567.996,-173.33 554.292,-190.539 538,-200 500.772,-221.619 451.616,-229.909 417.661,-233.073"/>
<polygon fill="none" stroke="black" stroke-width="0.5" points="417.175,-231.359 412.346,-233.538 417.48,-234.846 417.175,-231.359"/>
</g>
</g>
</svg>
