<?xml version="1.0" encoding="UTF-8" standalone="no"?>
<!DOCTYPE svg PUBLIC "-//W3C//DTD SVG 1.1//EN"
 "http://www.w3.org/Graphics/SVG/1.1/DTD/svg11.dtd">
<!-- Generated by graphviz version 2.36.0 (20140111.2315)
 -->
<!-- Title: G Pages: 1 -->
<svg width="540pt" height="188pt"
 viewBox="0.00 0.00 540.00 188.00" xmlns="http://www.w3.org/2000/svg" xmlns:xlink="http://www.w3.org/1999/xlink">
<g id="graph0" class="graph" transform="scale(1 1) rotate(0) translate(4 184)">
<title>G</title>
<polygon fill="white" stroke="none" points="-4,4 -4,-184 536,-184 536,4 -4,4"/>
<!-- scene2d::LiveObject -->
<g id="node1" class="node"><title>scene2d::LiveObject</title>
<polygon fill="white" stroke="none" points="324.5,-179.5 229.5,-179.5 229.5,-126.5 324.5,-126.5 324.5,-179.5"/>
<polygon fill="none" stroke="forestgreen" points="230,-152 230,-179 325,-179 325,-152 230,-152"/>
<text text-anchor="start" x="247.5" y="-168.5" font-family="Helvetica,sans-Serif" font-size="10.00">&lt;&lt;abstract&gt;&gt;</text>
<text text-anchor="start" x="252.5" y="-158.5" font-family="Helvetica,sans-Serif" font-weight="bold" font-style="italic" font-size="10.00">LiveObject</text>
<polygon fill="none" stroke="forestgreen" points="230,-126 230,-152 325,-152 325,-126 230,-126"/>
<text text-anchor="start" x="233" y="-142" font-family="Helvetica,sans-Serif" font-size="10.00" fill="forestgreen">+</text>
<text text-anchor="start" x="240" y="-142" font-family="Helvetica,sans-Serif" font-size="10.00"> </text>
<text text-anchor="start" x="244" y="-142" font-family="Helvetica,sans-Serif" font-style="italic" font-size="10.00">draw</text>
<text text-anchor="start" x="266" y="-142" font-family="Helvetica,sans-Serif" font-size="10.00">(view: View)</text>
<text text-anchor="start" x="233" y="-132" font-family="Helvetica,sans-Serif" font-size="10.00" fill="forestgreen">+</text>
<text text-anchor="start" x="240" y="-132" font-family="Helvetica,sans-Serif" font-size="10.00"> update()</text>
</g>
<!-- scene2d::Sprite -->
<g id="node2" class="node"><title>scene2d::Sprite</title>
<polygon fill="white" stroke="none" points="192,-104 0,-104 0,-0 192,-0 192,-104"/>
<polygon fill="none" stroke="forestgreen" points="0,-86 0,-104 192,-104 192,-86 0,-86"/>
<text text-anchor="start" x="82" y="-93.5" font-family="Helvetica,sans-Serif" font-weight="bold" font-size="10.00">Sprite</text>
<polygon fill="none" stroke="forestgreen" points="0,-0 0,-86 192,-86 192,-0 0,-0"/>
<text text-anchor="start" x="3" y="-76" font-family="Helvetica,sans-Serif" font-size="10.00" fill="forestgreen">+</text>
<text text-anchor="start" x="10" y="-76" font-family="Helvetica,sans-Serif" font-size="10.00"> angle_to(target: Sprite): Float</text>
<text text-anchor="start" x="3" y="-66" font-family="Helvetica,sans-Serif" font-size="10.00" fill="forestgreen">+</text>
<text text-anchor="start" x="10" y="-66" font-family="Helvetica,sans-Serif" font-size="10.00"> bottom(): Int</text>
<text text-anchor="start" x="3" y="-56" font-family="Helvetica,sans-Serif" font-size="10.00" fill="forestgreen">+</text>
<text text-anchor="start" x="10" y="-56" font-family="Helvetica,sans-Serif" font-size="10.00"> left(): Int</text>
<text text-anchor="start" x="3" y="-46" font-family="Helvetica,sans-Serif" font-size="10.00" fill="forestgreen">+</text>
<text text-anchor="start" x="10" y="-46" font-family="Helvetica,sans-Serif" font-size="10.00"> overlaps(other: Sprite): Bool</text>
<text text-anchor="start" x="3" y="-36" font-family="Helvetica,sans-Serif" font-size="10.00" fill="forestgreen">+</text>
<text text-anchor="start" x="10" y="-36" font-family="Helvetica,sans-Serif" font-size="10.00"> right(): Int</text>
<text text-anchor="start" x="3" y="-26" font-family="Helvetica,sans-Serif" font-size="10.00" fill="forestgreen">+</text>
<text text-anchor="start" x="10" y="-26" font-family="Helvetica,sans-Serif" font-size="10.00"> set_velocity(angle: Float, maginude: Int)</text>
<text text-anchor="start" x="3" y="-16" font-family="Helvetica,sans-Serif" font-size="10.00" fill="forestgreen">+</text>
<text text-anchor="start" x="10" y="-16" font-family="Helvetica,sans-Serif" font-size="10.00"> top(): Int</text>
<text text-anchor="start" x="3" y="-6" font-family="Helvetica,sans-Serif" font-size="10.00" fill="forestgreen">+</text>
<text text-anchor="start" x="10" y="-6" font-family="Helvetica,sans-Serif" font-size="10.00"> velocity_angle(): Float</text>
</g>
<!-- scene2d::Sprite&#45;&gt;scene2d::LiveObject -->
<g id="edge1" class="edge"><title>scene2d::Sprite&#45;&gt;scene2d::LiveObject</title>
<path fill="none" stroke="black" stroke-width="0.5" d="M189.416,-104.095C201.931,-110.94 214.371,-117.745 225.779,-123.984"/>
<polygon fill="none" stroke="black" stroke-width="0.5" points="225.038,-125.574 230.265,-126.438 226.718,-122.503 225.038,-125.574"/>
</g>
<!-- scene2d::LiveGroup -->
<g id="node3" class="node"><title>scene2d::LiveGroup</title>
<polygon fill="white" stroke="none" points="339.5,-69.5 214.5,-69.5 214.5,-34.5 339.5,-34.5 339.5,-69.5"/>
<polygon fill="none" stroke="forestgreen" points="215,-51 215,-69 340,-69 340,-51 215,-51"/>
<text text-anchor="start" x="218.5" y="-58.5" font-family="Helvetica,sans-Serif" font-weight="bold" font-size="10.00">LiveGroup[E: LiveObject]</text>
<polygon fill="none" stroke="forestgreen" points="215,-34 215,-51 340,-51 340,-34 215,-34"/>
<text text-anchor="start" x="218" y="-41" font-family="Helvetica,sans-Serif" font-size="10.00" fill="forestgreen">+</text>
<text text-anchor="start" x="225" y="-41" font-family="Helvetica,sans-Serif" font-size="10.00"> gc()</text>
</g>
<!-- scene2d::LiveGroup&#45;&gt;scene2d::LiveObject -->
<g id="edge2" class="edge"><title>scene2d::LiveGroup&#45;&gt;scene2d::LiveObject</title>
<path fill="none" stroke="black" stroke-width="0.5" d="M277,-69.794C277,-83.7924 277,-104.107 277,-121.039"/>
<polygon fill="none" stroke="black" stroke-width="0.5" points="275.25,-121.175 277,-126.175 278.75,-121.175 275.25,-121.175"/>
</g>
<!-- scene2d::Scene -->
<g id="node4" class="node"><title>scene2d::Scene</title>
<polygon fill="white" stroke="none" points="398,-61 362,-61 362,-43 398,-43 398,-61"/>
<polygon fill="none" stroke="forestgreen" points="362,-43 362,-61 398,-61 398,-43 362,-43"/>
<text text-anchor="start" x="365.5" y="-50.5" font-family="Helvetica,sans-Serif" font-weight="bold" font-size="10.00">Scene</text>
</g>
<!-- scene2d::Scene&#45;&gt;scene2d::LiveObject -->
<g id="edge3" class="edge"><title>scene2d::Scene&#45;&gt;scene2d::LiveObject</title>
<path fill="none" stroke="black" stroke-width="0.5" d="M376.53,-61.3595C371.751,-72.1429 362.319,-91.0496 350,-104 343.384,-110.954 335.579,-117.404 327.576,-123.173"/>
<polygon fill="none" stroke="black" stroke-width="0.5" points="326.201,-122 323.116,-126.306 328.213,-124.864 326.201,-122"/>
</g>
<!-- scene2d::View -->
<g id="node5" class="node"><title>scene2d::View</title>
<polygon fill="white" stroke="none" points="532,-74 420,-74 420,-30 532,-30 532,-74"/>
<polygon fill="none" stroke="forestgreen" points="420,-47 420,-74 532,-74 532,-47 420,-47"/>
<text text-anchor="start" x="445" y="-63.5" font-family="Helvetica,sans-Serif" font-size="10.00">&lt;&lt;interface&gt;&gt;</text>
<text text-anchor="start" x="464.5" y="-53.5" font-family="Helvetica,sans-Serif" font-weight="bold" font-style="italic" font-size="10.00">View</text>
<polygon fill="none" stroke="forestgreen" points="420,-30 420,-47 532,-47 532,-30 420,-30"/>
<text text-anchor="start" x="423" y="-37" font-family="Helvetica,sans-Serif" font-size="10.00" fill="forestgreen">+</text>
<text text-anchor="start" x="430" y="-37" font-family="Helvetica,sans-Serif" font-size="10.00"> </text>
<text text-anchor="start" x="434" y="-37" font-family="Helvetica,sans-Serif" font-style="italic" font-size="10.00">draw_sprite</text>
<text text-anchor="start" x="485" y="-37" font-family="Helvetica,sans-Serif" font-size="10.00">(s: Sprite)</text>
</g>
</g>
</svg>
