<?xml version="1.0" encoding="UTF-8" standalone="no"?>
<!DOCTYPE svg PUBLIC "-//W3C//DTD SVG 1.1//EN"
 "http://www.w3.org/Graphics/SVG/1.1/DTD/svg11.dtd">
<!-- Generated by graphviz version 2.36.0 (20140111.2315)
 -->
<!-- Title: G Pages: 1 -->
<svg width="94pt" height="230pt"
 viewBox="0.00 0.00 94.00 230.00" xmlns="http://www.w3.org/2000/svg" xmlns:xlink="http://www.w3.org/1999/xlink">
<g id="graph0" class="graph" transform="scale(1 1) rotate(0) translate(4 226)">
<title>G</title>
<polygon fill="white" stroke="none" points="-4,4 -4,-226 90,-226 90,4 -4,4"/>
<!-- sqlite3::native_sqlite3 -->
<g id="node1" class="node"><title>sqlite3::native_sqlite3</title>
<polygon fill="#fffaf3" stroke="black" points="80,-222 0,-222 0,-152 86,-152 86,-216 80,-222"/>
<polyline fill="none" stroke="black" points="80,-222 80,-216 "/>
<polyline fill="none" stroke="black" points="86,-216 80,-216 "/>
<text text-anchor="start" x="2" y="-212.5" font-family="Helvetica,sans-Serif" font-weight="bold" font-size="10.00">native_sqlite3</text>
<text text-anchor="start" x="2" y="-197" font-family="Helvetica,sans-Serif" font-size="10.00" fill="forestgreen">+</text>
<text text-anchor="start" x="9" y="-197" font-family="Helvetica,sans-Serif" font-size="10.00">DataType</text>
<text text-anchor="start" x="2" y="-187" font-family="Helvetica,sans-Serif" font-size="10.00" fill="forestgreen">+</text>
<text text-anchor="start" x="9" y="-187" font-family="Helvetica,sans-Serif" font-size="10.00">NativeSqlite3</text>
<text text-anchor="start" x="2" y="-177" font-family="Helvetica,sans-Serif" font-size="10.00" fill="forestgreen">+</text>
<text text-anchor="start" x="9" y="-177" font-family="Helvetica,sans-Serif" font-size="10.00">NativeStatement</text>
<text text-anchor="start" x="2" y="-167" font-family="Helvetica,sans-Serif" font-size="10.00" fill="forestgreen">+</text>
<text text-anchor="start" x="9" y="-167" font-family="Helvetica,sans-Serif" font-size="10.00">Sqlite3Code</text>
<text text-anchor="start" x="2" y="-157" font-family="Helvetica,sans-Serif" font-size="10.00" fill="forestgreen">+</text>
<text text-anchor="start" x="9" y="-157" font-family="Helvetica,sans-Serif" font-size="10.00">Sys</text>
</g>
<!-- sqlite3::sqlite3 -->
<g id="node2" class="node"><title>sqlite3::sqlite3</title>
<polygon fill="#fffaf3" stroke="black" points="81,-130 -1,-130 -1,-0 87,-0 87,-124 81,-130"/>
<polyline fill="none" stroke="black" points="81,-130 81,-124 "/>
<polyline fill="none" stroke="black" points="87,-124 81,-124 "/>
<text text-anchor="start" x="1" y="-120.5" font-family="Helvetica,sans-Serif" font-weight="bold" font-size="10.00">sqlite3</text>
<text text-anchor="start" x="1" y="-105" font-family="Helvetica,sans-Serif" font-size="10.00" fill="forestgreen">+</text>
<text text-anchor="start" x="8" y="-105" font-family="Helvetica,sans-Serif" font-size="10.00">Blob</text>
<text text-anchor="start" x="1" y="-95" font-family="Helvetica,sans-Serif" font-size="10.00" fill="forestgreen">+</text>
<text text-anchor="start" x="8" y="-95" font-family="Helvetica,sans-Serif" font-size="10.00">Float</text>
<text text-anchor="start" x="1" y="-85" font-family="Helvetica,sans-Serif" font-size="10.00" fill="forestgreen">+</text>
<text text-anchor="start" x="8" y="-85" font-family="Helvetica,sans-Serif" font-size="10.00">Int</text>
<text text-anchor="start" x="1" y="-75" font-family="Helvetica,sans-Serif" font-size="10.00" fill="forestgreen">+</text>
<text text-anchor="start" x="8" y="-75" font-family="Helvetica,sans-Serif" font-size="10.00">Sqlite3DB</text>
<text text-anchor="start" x="1" y="-65" font-family="Helvetica,sans-Serif" font-size="10.00" fill="forestgreen">+</text>
<text text-anchor="start" x="8" y="-65" font-family="Helvetica,sans-Serif" font-size="10.00">Sqlite3Data</text>
<text text-anchor="start" x="1" y="-55" font-family="Helvetica,sans-Serif" font-size="10.00" fill="forestgreen">+</text>
<text text-anchor="start" x="8" y="-55" font-family="Helvetica,sans-Serif" font-size="10.00">Statement</text>
<text text-anchor="start" x="1" y="-45" font-family="Helvetica,sans-Serif" font-size="10.00" fill="forestgreen">+</text>
<text text-anchor="start" x="8" y="-45" font-family="Helvetica,sans-Serif" font-size="10.00">StatementEntry</text>
<text text-anchor="start" x="1" y="-35" font-family="Helvetica,sans-Serif" font-size="10.00" fill="forestgreen">+</text>
<text text-anchor="start" x="8" y="-35" font-family="Helvetica,sans-Serif" font-size="10.00">StatementIterator</text>
<text text-anchor="start" x="1" y="-25" font-family="Helvetica,sans-Serif" font-size="10.00" fill="forestgreen">+</text>
<text text-anchor="start" x="8" y="-25" font-family="Helvetica,sans-Serif" font-size="10.00">StatementRow</text>
<text text-anchor="start" x="1" y="-15" font-family="Helvetica,sans-Serif" font-size="10.00" fill="forestgreen">+</text>
<text text-anchor="start" x="8" y="-15" font-family="Helvetica,sans-Serif" font-size="10.00">String</text>
<text text-anchor="start" x="1" y="-5" font-family="Helvetica,sans-Serif" font-size="10.00" fill="forestgreen">+</text>
<text text-anchor="start" x="8" y="-5" font-family="Helvetica,sans-Serif" font-size="10.00">Text</text>
</g>
<!-- sqlite3::sqlite3&#45;&gt;sqlite3::native_sqlite3 -->
<g id="edge1" class="edge"><title>sqlite3::sqlite3&#45;&gt;sqlite3::native_sqlite3</title>
<path fill="none" stroke="black" stroke-width="0.5" stroke-dasharray="5,2" d="M43,-130.216C43,-135.816 43,-141.367 43,-146.672"/>
<polygon fill="black" stroke="black" stroke-width="0.5" points="43,-151.889 40.7501,-146.889 43,-149.389 43.0001,-146.889 43.0001,-146.889 43.0001,-146.889 43,-149.389 45.2501,-146.889 43,-151.889 43,-151.889"/>
</g>
</g>
</svg>
