<?xml version="1.0" encoding="UTF-8" standalone="no"?>
<!DOCTYPE svg PUBLIC "-//W3C//DTD SVG 1.1//EN"
 "http://www.w3.org/Graphics/SVG/1.1/DTD/svg11.dtd">
<!-- Generated by graphviz version 2.36.0 (20140111.2315)
 -->
<!-- Title: G Pages: 1 -->
<svg width="208pt" height="156pt"
 viewBox="0.00 0.00 208.00 156.00" xmlns="http://www.w3.org/2000/svg" xmlns:xlink="http://www.w3.org/1999/xlink">
<g id="graph0" class="graph" transform="scale(1 1) rotate(0) translate(4 152)">
<title>G</title>
<polygon fill="white" stroke="none" points="-4,4 -4,-152 204,-152 204,4 -4,4"/>
<!-- saxophonit::lexer -->
<g id="node1" class="node"><title>saxophonit::lexer</title>
<polygon fill="#fffaf3" stroke="black" points="80.8333,-93.5 16,-93.5 16,-62.5 86,-62.5 86,-88.3333 80.8333,-93.5"/>
<polyline fill="none" stroke="black" points="80.8333,-93.5 80.8333,-88.3333 "/>
<polyline fill="none" stroke="black" points="86,-88.3333 80.8333,-88.3333 "/>
<text text-anchor="start" x="18" y="-83.5" font-family="Helvetica,sans-Serif" font-weight="bold" font-size="10.00">lexer</text>
<text text-anchor="start" x="18" y="-68" font-family="Helvetica,sans-Serif" font-size="10.00" fill="forestgreen">+</text>
<text text-anchor="start" x="25" y="-68" font-family="Helvetica,sans-Serif" font-size="10.00">XophonLexer</text>
</g>
<!-- saxophonit::reader_model -->
<g id="node2" class="node"><title>saxophonit::reader_model</title>
<polygon fill="#fffaf3" stroke="black" points="97.3333,-147.5 -0.5,-147.5 -0.5,-116.5 102.5,-116.5 102.5,-142.333 97.3333,-147.5"/>
<polyline fill="none" stroke="black" points="97.3333,-147.5 97.3333,-142.333 "/>
<polyline fill="none" stroke="black" points="102.5,-142.333 97.3333,-142.333 "/>
<text text-anchor="start" x="2" y="-137.5" font-family="Helvetica,sans-Serif" font-weight="bold" font-size="10.00">reader_model</text>
<text text-anchor="start" x="2" y="-122" font-family="Helvetica,sans-Serif" font-size="10.00" fill="forestgreen">+</text>
<text text-anchor="start" x="9" y="-122" font-family="Helvetica,sans-Serif" font-size="10.00">XophonReaderModel</text>
</g>
<!-- saxophonit::lexer&#45;&gt;saxophonit::reader_model -->
<g id="edge1" class="edge"><title>saxophonit::lexer&#45;&gt;saxophonit::reader_model</title>
<path fill="none" stroke="black" stroke-width="0.5" stroke-dasharray="5,2" d="M51,-93.762C51,-99.1874 51,-105.421 51,-111.217"/>
<polygon fill="black" stroke="black" stroke-width="0.5" points="51,-116.381 48.7501,-111.381 51,-113.881 51.0001,-111.381 51.0001,-111.381 51.0001,-111.381 51,-113.881 53.2501,-111.381 51,-116.381 51,-116.381"/>
</g>
<!-- saxophonit::saxophonit -->
<g id="node3" class="node"><title>saxophonit::saxophonit</title>
<polygon fill="#fffaf3" stroke="black" points="84.3333,-35.5 12.5,-35.5 12.5,-4.5 89.5,-4.5 89.5,-30.3333 84.3333,-35.5"/>
<polyline fill="none" stroke="black" points="84.3333,-35.5 84.3333,-30.3333 "/>
<polyline fill="none" stroke="black" points="89.5,-30.3333 84.3333,-30.3333 "/>
<text text-anchor="start" x="15" y="-25.5" font-family="Helvetica,sans-Serif" font-weight="bold" font-size="10.00">saxophonit</text>
<text text-anchor="start" x="15" y="-10" font-family="Helvetica,sans-Serif" font-size="10.00" fill="forestgreen">+</text>
<text text-anchor="start" x="22" y="-10" font-family="Helvetica,sans-Serif" font-size="10.00">XophonReader</text>
</g>
<!-- saxophonit::saxophonit&#45;&gt;saxophonit::lexer -->
<g id="edge2" class="edge"><title>saxophonit::saxophonit&#45;&gt;saxophonit::lexer</title>
<path fill="none" stroke="black" stroke-width="0.5" stroke-dasharray="5,2" d="M51,-35.7133C51,-42.2209 51,-49.9749 51,-56.9965"/>
<polygon fill="black" stroke="black" stroke-width="0.5" points="51,-62.1905 48.7501,-57.1905 51,-59.6905 51.0001,-57.1905 51.0001,-57.1905 51.0001,-57.1905 51,-59.6905 53.2501,-57.1905 51,-62.1905 51,-62.1905"/>
</g>
<!-- saxophonit::testing -->
<g id="node4" class="node"><title>saxophonit::testing</title>
<polygon fill="#fffaf3" stroke="black" points="194,-40 112,-40 112,-0 200,-0 200,-34 194,-40"/>
<polyline fill="none" stroke="black" points="194,-40 194,-34 "/>
<polyline fill="none" stroke="black" points="200,-34 194,-34 "/>
<text text-anchor="start" x="114" y="-30.5" font-family="Helvetica,sans-Serif" font-weight="bold" font-size="10.00">testing</text>
<text text-anchor="start" x="114" y="-15" font-family="Helvetica,sans-Serif" font-size="10.00" fill="forestgreen">+</text>
<text text-anchor="start" x="121" y="-15" font-family="Helvetica,sans-Serif" font-size="10.00">SAXEventLogger</text>
<text text-anchor="start" x="114" y="-5" font-family="Helvetica,sans-Serif" font-size="10.00" fill="forestgreen">+</text>
<text text-anchor="start" x="121" y="-5" font-family="Helvetica,sans-Serif" font-size="10.00">SAXTestSuite</text>
</g>
</g>
</svg>
