<?xml version="1.0" encoding="UTF-8" standalone="no"?>
<!DOCTYPE svg PUBLIC "-//W3C//DTD SVG 1.1//EN"
 "http://www.w3.org/Graphics/SVG/1.1/DTD/svg11.dtd">
<!-- Generated by graphviz version 2.36.0 (20140111.2315)
 -->
<!-- Title: G Pages: 1 -->
<svg width="242pt" height="308pt"
 viewBox="0.00 0.00 242.00 308.00" xmlns="http://www.w3.org/2000/svg" xmlns:xlink="http://www.w3.org/1999/xlink">
<g id="graph0" class="graph" transform="scale(1 1) rotate(0) translate(4 304)">
<title>G</title>
<polygon fill="white" stroke="none" points="-4,4 -4,-304 238,-304 238,4 -4,4"/>
<!-- java::collections -->
<g id="node1" class="node"><title>java::collections</title>
<polygon fill="#fffaf3" stroke="black" points="228,-158 140,-158 140,-38 234,-38 234,-152 228,-158"/>
<polyline fill="none" stroke="black" points="228,-158 228,-152 "/>
<polyline fill="none" stroke="black" points="234,-152 228,-152 "/>
<text text-anchor="start" x="142" y="-148.5" font-family="Helvetica,sans-Serif" font-weight="bold" font-size="10.00">collections</text>
<text text-anchor="start" x="142" y="-133" font-family="Helvetica,sans-Serif" font-size="10.00" fill="forestgreen">+</text>
<text text-anchor="start" x="149" y="-133" font-family="Helvetica,sans-Serif" font-size="10.00">AbstractJavaArray</text>
<text text-anchor="start" x="142" y="-123" font-family="Helvetica,sans-Serif" font-size="10.00" fill="forestgreen">+</text>
<text text-anchor="start" x="149" y="-123" font-family="Helvetica,sans-Serif" font-size="10.00">JavaArray</text>
<text text-anchor="start" x="142" y="-113" font-family="Helvetica,sans-Serif" font-size="10.00" fill="forestgreen">+</text>
<text text-anchor="start" x="149" y="-113" font-family="Helvetica,sans-Serif" font-size="10.00">JavaBoolArray</text>
<text text-anchor="start" x="142" y="-103" font-family="Helvetica,sans-Serif" font-size="10.00" fill="forestgreen">+</text>
<text text-anchor="start" x="149" y="-103" font-family="Helvetica,sans-Serif" font-size="10.00">JavaByteArray</text>
<text text-anchor="start" x="142" y="-93" font-family="Helvetica,sans-Serif" font-size="10.00" fill="forestgreen">+</text>
<text text-anchor="start" x="149" y="-93" font-family="Helvetica,sans-Serif" font-size="10.00">JavaCharArray</text>
<text text-anchor="start" x="142" y="-83" font-family="Helvetica,sans-Serif" font-size="10.00" fill="forestgreen">+</text>
<text text-anchor="start" x="149" y="-83" font-family="Helvetica,sans-Serif" font-size="10.00">JavaDoubleArray</text>
<text text-anchor="start" x="142" y="-73" font-family="Helvetica,sans-Serif" font-size="10.00" fill="forestgreen">+</text>
<text text-anchor="start" x="149" y="-73" font-family="Helvetica,sans-Serif" font-size="10.00">JavaFloatArray</text>
<text text-anchor="start" x="142" y="-63" font-family="Helvetica,sans-Serif" font-size="10.00" fill="forestgreen">+</text>
<text text-anchor="start" x="149" y="-63" font-family="Helvetica,sans-Serif" font-size="10.00">JavaIntArray</text>
<text text-anchor="start" x="142" y="-53" font-family="Helvetica,sans-Serif" font-size="10.00" fill="forestgreen">+</text>
<text text-anchor="start" x="149" y="-53" font-family="Helvetica,sans-Serif" font-size="10.00">JavaLongArray</text>
<text text-anchor="start" x="142" y="-43" font-family="Helvetica,sans-Serif" font-size="10.00" fill="forestgreen">+</text>
<text text-anchor="start" x="149" y="-43" font-family="Helvetica,sans-Serif" font-size="10.00">JavaShortArray</text>
</g>
<!-- java::ffi_support -->
<g id="node2" class="node"><title>java::ffi_support</title>
<polygon fill="#fffaf3" stroke="black" points="168.5,-300 71.5,-300 71.5,-180 174.5,-180 174.5,-294 168.5,-300"/>
<polyline fill="none" stroke="black" points="168.5,-300 168.5,-294 "/>
<polyline fill="none" stroke="black" points="174.5,-294 168.5,-294 "/>
<text text-anchor="start" x="74" y="-290.5" font-family="Helvetica,sans-Serif" font-weight="bold" font-size="10.00">ffi_support</text>
<text text-anchor="start" x="74" y="-275" font-family="Helvetica,sans-Serif" font-size="10.00" fill="forestgreen">+</text>
<text text-anchor="start" x="81" y="-275" font-family="Helvetica,sans-Serif" font-size="10.00">CString</text>
<text text-anchor="start" x="74" y="-265" font-family="Helvetica,sans-Serif" font-size="10.00" fill="forestgreen">+</text>
<text text-anchor="start" x="81" y="-265" font-family="Helvetica,sans-Serif" font-size="10.00">JavaException</text>
<text text-anchor="start" x="74" y="-255" font-family="Helvetica,sans-Serif" font-size="10.00" fill="forestgreen">+</text>
<text text-anchor="start" x="81" y="-255" font-family="Helvetica,sans-Serif" font-size="10.00">JavaObject</text>
<text text-anchor="start" x="74" y="-245" font-family="Helvetica,sans-Serif" font-size="10.00" fill="forestgreen">+</text>
<text text-anchor="start" x="81" y="-245" font-family="Helvetica,sans-Serif" font-size="10.00">JavaString</text>
<text text-anchor="start" x="74" y="-235" font-family="Helvetica,sans-Serif" font-size="10.00" fill="forestgreen">+</text>
<text text-anchor="start" x="81" y="-235" font-family="Helvetica,sans-Serif" font-size="10.00">JavaThrowable</text>
<text text-anchor="start" x="74" y="-225" font-family="Helvetica,sans-Serif" font-size="10.00" fill="forestgreen">+</text>
<text text-anchor="start" x="81" y="-225" font-family="Helvetica,sans-Serif" font-size="10.00">Java_nio_Buffer</text>
<text text-anchor="start" x="74" y="-215" font-family="Helvetica,sans-Serif" font-size="10.00" fill="forestgreen">+</text>
<text text-anchor="start" x="81" y="-215" font-family="Helvetica,sans-Serif" font-size="10.00">Java_nio_ByteBuffer</text>
<text text-anchor="start" x="74" y="-205" font-family="Helvetica,sans-Serif" font-size="10.00" fill="forestgreen">+</text>
<text text-anchor="start" x="81" y="-205" font-family="Helvetica,sans-Serif" font-size="10.00">JniEnv</text>
<text text-anchor="start" x="74" y="-195" font-family="Helvetica,sans-Serif" font-size="10.00" fill="forestgreen">+</text>
<text text-anchor="start" x="81" y="-195" font-family="Helvetica,sans-Serif" font-size="10.00">Sys</text>
<text text-anchor="start" x="74" y="-185" font-family="Helvetica,sans-Serif" font-size="10.00" fill="forestgreen">+</text>
<text text-anchor="start" x="81" y="-185" font-family="Helvetica,sans-Serif" font-size="10.00">Text</text>
</g>
<!-- java::collections&#45;&gt;java::ffi_support -->
<g id="edge1" class="edge"><title>java::collections&#45;&gt;java::ffi_support</title>
<path fill="none" stroke="black" stroke-width="0.5" stroke-dasharray="5,2" d="M159.858,-158.373C157.303,-163.962 154.706,-169.644 152.133,-175.271"/>
<polygon fill="black" stroke="black" stroke-width="0.5" points="149.979,-179.982 150.012,-174.5 151.019,-177.709 152.058,-175.435 152.058,-175.435 152.058,-175.435 151.019,-177.709 154.105,-176.371 149.979,-179.982 149.979,-179.982"/>
</g>
<!-- java::io -->
<g id="node3" class="node"><title>java::io</title>
<polygon fill="#fffaf3" stroke="black" points="112,-133 0,-133 0,-63 118,-63 118,-127 112,-133"/>
<polyline fill="none" stroke="black" points="112,-133 112,-127 "/>
<polyline fill="none" stroke="black" points="118,-127 112,-127 "/>
<text text-anchor="start" x="2" y="-123.5" font-family="Helvetica,sans-Serif" font-weight="bold" font-size="10.00">io</text>
<text text-anchor="start" x="2" y="-108" font-family="Helvetica,sans-Serif" font-size="10.00" fill="forestgreen">+</text>
<text text-anchor="start" x="9" y="-108" font-family="Helvetica,sans-Serif" font-size="10.00">NativeFile</text>
<text text-anchor="start" x="2" y="-98" font-family="Helvetica,sans-Serif" font-size="10.00" fill="forestgreen">+</text>
<text text-anchor="start" x="9" y="-98" font-family="Helvetica,sans-Serif" font-size="10.00">NativeFileDescriptor</text>
<text text-anchor="start" x="2" y="-88" font-family="Helvetica,sans-Serif" font-size="10.00" fill="forestgreen">+</text>
<text text-anchor="start" x="9" y="-88" font-family="Helvetica,sans-Serif" font-size="10.00">NativeFileInputStream</text>
<text text-anchor="start" x="2" y="-78" font-family="Helvetica,sans-Serif" font-size="10.00" fill="forestgreen">+</text>
<text text-anchor="start" x="9" y="-78" font-family="Helvetica,sans-Serif" font-size="10.00">NativeFileOutputStream</text>
<text text-anchor="start" x="2" y="-68" font-family="Helvetica,sans-Serif" font-size="10.00" fill="forestgreen">+</text>
<text text-anchor="start" x="9" y="-68" font-family="Helvetica,sans-Serif" font-size="10.00">NativeInputStream</text>
</g>
<!-- java::io&#45;&gt;java::ffi_support -->
<g id="edge2" class="edge"><title>java::io&#45;&gt;java::ffi_support</title>
<path fill="none" stroke="black" stroke-width="0.5" stroke-dasharray="5,2" d="M74.6562,-133.248C80.408,-145.83 87.1229,-160.519 93.6859,-174.876"/>
<polygon fill="black" stroke="black" stroke-width="0.5" points="95.9043,-179.728 91.7791,-176.116 94.8648,-177.454 93.8254,-175.181 93.8254,-175.181 93.8254,-175.181 94.8648,-177.454 95.8717,-174.245 95.9043,-179.728 95.9043,-179.728"/>
</g>
<!-- java::java -->
<g id="node4" class="node"><title>java::java</title>
<polygon fill="#fffaf3" stroke="black" points="196.333,-16 175,-16 175,-0 199,-0 199,-13.3333 196.333,-16"/>
<polyline fill="none" stroke="black" points="196.333,-16 196.333,-13.3333 "/>
<polyline fill="none" stroke="black" points="199,-13.3333 196.333,-13.3333 "/>
<text text-anchor="start" x="177" y="-6.5" font-family="Helvetica,sans-Serif" font-weight="bold" font-size="10.00">java</text>
</g>
<!-- java::java&#45;&gt;java::collections -->
<g id="edge3" class="edge"><title>java::java&#45;&gt;java::collections</title>
<path fill="none" stroke="black" stroke-width="0.5" stroke-dasharray="5,2" d="M187,-16.2014C187,-20.3884 187,-26.1139 187,-32.5987"/>
<polygon fill="black" stroke="black" stroke-width="0.5" points="187,-37.6927 184.75,-32.6927 187,-35.1927 187,-32.6927 187,-32.6927 187,-32.6927 187,-35.1927 189.25,-32.6928 187,-37.6927 187,-37.6927"/>
</g>
</g>
</svg>
