<?xml version="1.0" encoding="UTF-8" standalone="no"?>
<!DOCTYPE svg PUBLIC "-//W3C//DTD SVG 1.1//EN"
 "http://www.w3.org/Graphics/SVG/1.1/DTD/svg11.dtd">
<!-- Generated by graphviz version 2.36.0 (20140111.2315)
 -->
<!-- Title: G Pages: 1 -->
<svg width="94pt" height="110pt"
 viewBox="0.00 0.00 94.00 110.00" xmlns="http://www.w3.org/2000/svg" xmlns:xlink="http://www.w3.org/1999/xlink">
<g id="graph0" class="graph" transform="scale(1 1) rotate(0) translate(4 106)">
<title>G</title>
<polygon fill="white" stroke="none" points="-4,4 -4,-106 90,-106 90,4 -4,4"/>
<!-- matrix::matrix -->
<g id="node1" class="node"><title>matrix::matrix</title>
<polygon fill="#fffaf3" stroke="black" points="80.5,-102 -0.5,-102 -0.5,-62 86.5,-62 86.5,-96 80.5,-102"/>
<polyline fill="none" stroke="black" points="80.5,-102 80.5,-96 "/>
<polyline fill="none" stroke="black" points="86.5,-96 80.5,-96 "/>
<text text-anchor="start" x="2" y="-92.5" font-family="Helvetica,sans-Serif" font-weight="bold" font-size="10.00">matrix</text>
<text text-anchor="start" x="2" y="-77" font-family="Helvetica,sans-Serif" font-size="10.00" fill="forestgreen">+</text>
<text text-anchor="start" x="9" y="-77" font-family="Helvetica,sans-Serif" font-size="10.00">Matrix</text>
<text text-anchor="start" x="2" y="-67" font-family="Helvetica,sans-Serif" font-size="10.00" fill="forestgreen">+</text>
<text text-anchor="start" x="9" y="-67" font-family="Helvetica,sans-Serif" font-size="10.00">MatrixCoordinate</text>
</g>
<!-- matrix::projection -->
<g id="node2" class="node"><title>matrix::projection</title>
<polygon fill="#fffaf3" stroke="black" points="63.5,-40 16.5,-40 16.5,-0 69.5,-0 69.5,-34 63.5,-40"/>
<polyline fill="none" stroke="black" points="63.5,-40 63.5,-34 "/>
<polyline fill="none" stroke="black" points="69.5,-34 63.5,-34 "/>
<text text-anchor="start" x="19" y="-30.5" font-family="Helvetica,sans-Serif" font-weight="bold" font-size="10.00">projection</text>
<text text-anchor="start" x="19" y="-15" font-family="Helvetica,sans-Serif" font-size="10.00" fill="forestgreen">+</text>
<text text-anchor="start" x="26" y="-15" font-family="Helvetica,sans-Serif" font-size="10.00">Matrix</text>
<text text-anchor="start" x="19" y="-5" font-family="Helvetica,sans-Serif" font-size="10.00" fill="forestgreen">+</text>
<text text-anchor="start" x="26" y="-5" font-family="Helvetica,sans-Serif" font-size="10.00">Sys</text>
</g>
<!-- matrix::projection&#45;&gt;matrix::matrix -->
<g id="edge1" class="edge"><title>matrix::projection&#45;&gt;matrix::matrix</title>
<path fill="none" stroke="black" stroke-width="0.5" stroke-dasharray="5,2" d="M43,-40.3146C43,-45.4533 43,-51.0731 43,-56.451"/>
<polygon fill="black" stroke="black" stroke-width="0.5" points="43,-61.7215 40.7501,-56.7215 43,-59.2215 43.0001,-56.7215 43.0001,-56.7215 43.0001,-56.7215 43,-59.2215 45.2501,-56.7216 43,-61.7215 43,-61.7215"/>
</g>
</g>
</svg>
