<?xml version="1.0" encoding="UTF-8" standalone="no"?>
<!DOCTYPE svg PUBLIC "-//W3C//DTD SVG 1.1//EN"
 "http://www.w3.org/Graphics/SVG/1.1/DTD/svg11.dtd">
<!-- Generated by graphviz version 2.36.0 (20140111.2315)
 -->
<!-- Title: G Pages: 1 -->
<svg width="86pt" height="102pt"
 viewBox="0.00 0.00 86.00 102.00" xmlns="http://www.w3.org/2000/svg" xmlns:xlink="http://www.w3.org/1999/xlink">
<g id="graph0" class="graph" transform="scale(1 1) rotate(0) translate(4 98)">
<title>G</title>
<polygon fill="white" stroke="none" points="-4,4 -4,-98 82,-98 82,4 -4,4"/>
<!-- template::macro -->
<g id="node1" class="node"><title>template::macro</title>
<polygon fill="#fffaf3" stroke="black" points="72.5,-40 -0.5,-40 -0.5,-0 78.5,-0 78.5,-34 72.5,-40"/>
<polyline fill="none" stroke="black" points="72.5,-40 72.5,-34 "/>
<polyline fill="none" stroke="black" points="78.5,-34 72.5,-34 "/>
<text text-anchor="start" x="2" y="-30.5" font-family="Helvetica,sans-Serif" font-weight="bold" font-size="10.00">macro</text>
<text text-anchor="start" x="2" y="-15" font-family="Helvetica,sans-Serif" font-size="10.00" fill="forestgreen">+</text>
<text text-anchor="start" x="9" y="-15" font-family="Helvetica,sans-Serif" font-size="10.00">String</text>
<text text-anchor="start" x="2" y="-5" font-family="Helvetica,sans-Serif" font-size="10.00" fill="forestgreen">+</text>
<text text-anchor="start" x="9" y="-5" font-family="Helvetica,sans-Serif" font-size="10.00">TemplateString</text>
</g>
<!-- template::template -->
<g id="node2" class="node"><title>template::template</title>
<polygon fill="#fffaf3" stroke="black" points="60.3333,-93.5 12.5,-93.5 12.5,-62.5 65.5,-62.5 65.5,-88.3333 60.3333,-93.5"/>
<polyline fill="none" stroke="black" points="60.3333,-93.5 60.3333,-88.3333 "/>
<polyline fill="none" stroke="black" points="65.5,-88.3333 60.3333,-88.3333 "/>
<text text-anchor="start" x="15" y="-83.5" font-family="Helvetica,sans-Serif" font-weight="bold" font-size="10.00">template</text>
<text text-anchor="start" x="15" y="-68" font-family="Helvetica,sans-Serif" font-size="10.00" fill="forestgreen">+</text>
<text text-anchor="start" x="22" y="-68" font-family="Helvetica,sans-Serif" font-size="10.00">Template</text>
</g>
<!-- template::macro&#45;&gt;template::template -->
<g id="edge1" class="edge"><title>template::macro&#45;&gt;template::template</title>
<path fill="none" stroke="black" stroke-width="0.5" stroke-dasharray="5,2" d="M39,-40.272C39,-45.6822 39,-51.5754 39,-57.0254"/>
<polygon fill="black" stroke="black" stroke-width="0.5" points="39,-62.2935 36.7501,-57.2935 39,-59.7935 39.0001,-57.2935 39.0001,-57.2935 39.0001,-57.2935 39,-59.7935 41.2501,-57.2936 39,-62.2935 39,-62.2935"/>
</g>
</g>
</svg>
