<?xml version="1.0" encoding="UTF-8" standalone="no"?>
<!DOCTYPE svg PUBLIC "-//W3C//DTD SVG 1.1//EN"
 "http://www.w3.org/Graphics/SVG/1.1/DTD/svg11.dtd">
<!-- Generated by graphviz version 2.36.0 (20140111.2315)
 -->
<!-- Title: G Pages: 1 -->
<svg width="280pt" height="492pt"
 viewBox="0.00 0.00 280.00 492.00" xmlns="http://www.w3.org/2000/svg" xmlns:xlink="http://www.w3.org/1999/xlink">
<g id="graph0" class="graph" transform="scale(1 1) rotate(0) translate(4 488)">
<title>G</title>
<polygon fill="white" stroke="none" points="-4,4 -4,-488 276,-488 276,4 -4,4"/>
<!-- android&amp;gt; -->
<g id="node1" class="node"><title>android&amp;gt;</title>
<polygon fill="#fefef2" stroke="black" points="189.5,-412 186.5,-416 165.5,-416 162.5,-412 78.5,-412 78.5,-142 189.5,-142 189.5,-412"/>
<text text-anchor="start" x="81" y="-402.5" font-family="Helvetica,sans-Serif" font-weight="bold" font-size="10.00">android</text>
<text text-anchor="start" x="81" y="-387" font-family="Helvetica,sans-Serif" font-size="10.00" fill="forestgreen">+</text>
<text text-anchor="start" x="88" y="-387" font-family="Helvetica,sans-Serif" font-size="10.00">activities</text>
<text text-anchor="start" x="81" y="-377" font-family="Helvetica,sans-Serif" font-size="10.00" fill="forestgreen">+</text>
<text text-anchor="start" x="88" y="-377" font-family="Helvetica,sans-Serif" font-size="10.00">android</text>
<text text-anchor="start" x="81" y="-367" font-family="Helvetica,sans-Serif" font-size="10.00" fill="forestgreen">+</text>
<text text-anchor="start" x="88" y="-367" font-family="Helvetica,sans-Serif" font-size="10.00">assets</text>
<text text-anchor="start" x="81" y="-357" font-family="Helvetica,sans-Serif" font-size="10.00" fill="forestgreen">+</text>
<text text-anchor="start" x="88" y="-357" font-family="Helvetica,sans-Serif" font-size="10.00">assets_and_resources</text>
<text text-anchor="start" x="81" y="-347" font-family="Helvetica,sans-Serif" font-size="10.00" fill="forestgreen">+</text>
<text text-anchor="start" x="88" y="-347" font-family="Helvetica,sans-Serif" font-size="10.00">audio</text>
<text text-anchor="start" x="81" y="-337" font-family="Helvetica,sans-Serif" font-size="10.00" fill="forestgreen">+</text>
<text text-anchor="start" x="88" y="-337" font-family="Helvetica,sans-Serif" font-size="10.00">aware</text>
<text text-anchor="start" x="81" y="-327" font-family="Helvetica,sans-Serif" font-size="10.00" fill="forestgreen">+</text>
<text text-anchor="start" x="88" y="-327" font-family="Helvetica,sans-Serif" font-size="10.00">cardboard</text>
<text text-anchor="start" x="81" y="-317" font-family="Helvetica,sans-Serif" font-size="10.00" fill="forestgreen">+</text>
<text text-anchor="start" x="88" y="-317" font-family="Helvetica,sans-Serif" font-size="10.00">dalvik</text>
<text text-anchor="start" x="81" y="-307" font-family="Helvetica,sans-Serif" font-size="10.00" fill="forestgreen">+</text>
<text text-anchor="start" x="88" y="-307" font-family="Helvetica,sans-Serif" font-size="10.00">data_store</text>
<text text-anchor="start" x="81" y="-297" font-family="Helvetica,sans-Serif" font-size="10.00" fill="forestgreen">+</text>
<text text-anchor="start" x="88" y="-297" font-family="Helvetica,sans-Serif" font-size="10.00">game</text>
<text text-anchor="start" x="81" y="-287" font-family="Helvetica,sans-Serif" font-size="10.00" fill="forestgreen">+</text>
<text text-anchor="start" x="88" y="-287" font-family="Helvetica,sans-Serif" font-size="10.00">gamepad</text>
<text text-anchor="start" x="81" y="-277" font-family="Helvetica,sans-Serif" font-size="10.00" fill="forestgreen">+</text>
<text text-anchor="start" x="88" y="-277" font-family="Helvetica,sans-Serif" font-size="10.00">http_request</text>
<text text-anchor="start" x="81" y="-267" font-family="Helvetica,sans-Serif" font-size="10.00" fill="forestgreen">+</text>
<text text-anchor="start" x="88" y="-267" font-family="Helvetica,sans-Serif" font-size="10.00">input_events</text>
<text text-anchor="start" x="81" y="-257" font-family="Helvetica,sans-Serif" font-size="10.00" fill="forestgreen">+</text>
<text text-anchor="start" x="88" y="-257" font-family="Helvetica,sans-Serif" font-size="10.00">key_event</text>
<text text-anchor="start" x="81" y="-247" font-family="Helvetica,sans-Serif" font-size="10.00" fill="forestgreen">+</text>
<text text-anchor="start" x="88" y="-247" font-family="Helvetica,sans-Serif" font-size="10.00">landscape</text>
<text text-anchor="start" x="81" y="-237" font-family="Helvetica,sans-Serif" font-size="10.00" fill="forestgreen">+</text>
<text text-anchor="start" x="88" y="-237" font-family="Helvetica,sans-Serif" font-size="10.00">load_image</text>
<text text-anchor="start" x="81" y="-227" font-family="Helvetica,sans-Serif" font-size="10.00" fill="forestgreen">+</text>
<text text-anchor="start" x="88" y="-227" font-family="Helvetica,sans-Serif" font-size="10.00">log</text>
<text text-anchor="start" x="81" y="-217" font-family="Helvetica,sans-Serif" font-size="10.00" fill="forestgreen">+</text>
<text text-anchor="start" x="88" y="-217" font-family="Helvetica,sans-Serif" font-size="10.00">native_app_glue</text>
<text text-anchor="start" x="81" y="-207" font-family="Helvetica,sans-Serif" font-size="10.00" fill="forestgreen">+</text>
<text text-anchor="start" x="88" y="-207" font-family="Helvetica,sans-Serif" font-size="10.00">nit_activity</text>
<text text-anchor="start" x="81" y="-197" font-family="Helvetica,sans-Serif" font-size="10.00" fill="forestgreen">+</text>
<text text-anchor="start" x="88" y="-197" font-family="Helvetica,sans-Serif" font-size="10.00">platform</text>
<text text-anchor="start" x="81" y="-187" font-family="Helvetica,sans-Serif" font-size="10.00" fill="forestgreen">+</text>
<text text-anchor="start" x="88" y="-187" font-family="Helvetica,sans-Serif" font-size="10.00">portrait</text>
<text text-anchor="start" x="81" y="-177" font-family="Helvetica,sans-Serif" font-size="10.00" fill="forestgreen">+</text>
<text text-anchor="start" x="88" y="-177" font-family="Helvetica,sans-Serif" font-size="10.00">sensors</text>
<text text-anchor="start" x="81" y="-167" font-family="Helvetica,sans-Serif" font-size="10.00" fill="forestgreen">+</text>
<text text-anchor="start" x="88" y="-167" font-family="Helvetica,sans-Serif" font-size="10.00">toast</text>
<text text-anchor="start" x="81" y="-157" font-family="Helvetica,sans-Serif" font-size="10.00" fill="forestgreen">+</text>
<text text-anchor="start" x="88" y="-157" font-family="Helvetica,sans-Serif" font-size="10.00">vibration</text>
<text text-anchor="start" x="81" y="-147" font-family="Helvetica,sans-Serif" font-size="10.00" fill="forestgreen">+</text>
<text text-anchor="start" x="88" y="-147" font-family="Helvetica,sans-Serif" font-size="10.00">wifi</text>
</g>
<!-- android&amp;gt;bundle&amp;gt; -->
<g id="node2" class="node"><title>android&amp;gt;bundle&amp;gt;</title>
<polygon fill="#fefef2" stroke="black" points="48.5,-474.5 45.9167,-477.944 27.8333,-477.944 25.25,-474.5 7.5,-474.5 7.5,-443.5 48.5,-443.5 48.5,-474.5"/>
<text text-anchor="start" x="10" y="-464.5" font-family="Helvetica,sans-Serif" font-weight="bold" font-size="10.00">bundle</text>
<text text-anchor="start" x="10" y="-449" font-family="Helvetica,sans-Serif" font-size="10.00" fill="forestgreen">+</text>
<text text-anchor="start" x="17" y="-449" font-family="Helvetica,sans-Serif" font-size="10.00">bundle</text>
</g>
<!-- android&amp;gt;&#45;&gt;android&amp;gt;bundle&amp;gt; -->
<g id="edge1" class="edge"><title>android&amp;gt;&#45;&gt;android&amp;gt;bundle&amp;gt;</title>
<path fill="none" stroke="black" stroke-width="0.5" stroke-dasharray="5,2" d="M78.685,-357.999C60.8786,-387.775 43.419,-419.029 34.1116,-438.508"/>
<polygon fill="black" stroke="black" stroke-width="0.5" points="31.9257,-443.198 31.9985,-437.716 32.9818,-440.932 34.0379,-438.666 34.0379,-438.666 34.0379,-438.666 32.9818,-440.932 36.0773,-439.617 31.9257,-443.198 31.9257,-443.198"/>
</g>
<!-- android&amp;gt;shared_preferences&amp;gt; -->
<g id="node6" class="node"><title>android&amp;gt;shared_preferences&amp;gt;</title>
<polygon fill="#fefef2" stroke="black" points="197.5,-484 194.5,-488 173.5,-488 170.5,-484 70.5,-484 70.5,-434 197.5,-434 197.5,-484"/>
<text text-anchor="start" x="73" y="-474.5" font-family="Helvetica,sans-Serif" font-weight="bold" font-size="10.00">shared_preferences</text>
<text text-anchor="start" x="73" y="-459" font-family="Helvetica,sans-Serif" font-size="10.00" fill="forestgreen">+</text>
<text text-anchor="start" x="80" y="-459" font-family="Helvetica,sans-Serif" font-size="10.00">shared_preferences</text>
<text text-anchor="start" x="73" y="-449" font-family="Helvetica,sans-Serif" font-size="10.00" fill="forestgreen">+</text>
<text text-anchor="start" x="80" y="-449" font-family="Helvetica,sans-Serif" font-size="10.00">shared_preferences_api10</text>
<text text-anchor="start" x="73" y="-439" font-family="Helvetica,sans-Serif" font-size="10.00" fill="forestgreen">+</text>
<text text-anchor="start" x="80" y="-439" font-family="Helvetica,sans-Serif" font-size="10.00">shared_preferences_api11</text>
</g>
<!-- android&amp;gt;&#45;&gt;android&amp;gt;shared_preferences&amp;gt; -->
<g id="edge2" class="edge"><title>android&amp;gt;&#45;&gt;android&amp;gt;shared_preferences&amp;gt;</title>
<path fill="none" stroke="black" stroke-width="0.5" stroke-dasharray="5,2" d="M126.703,-412.113C126.979,-417.992 127.315,-423.538 127.711,-428.605"/>
<polygon fill="black" stroke="black" stroke-width="0.5" points="128.164,-433.908 125.497,-429.118 127.952,-431.417 127.739,-428.926 127.739,-428.926 127.739,-428.926 127.952,-431.417 129.98,-428.735 128.164,-433.908 128.164,-433.908"/>
</g>
<!-- android&amp;gt;ui&amp;gt; -->
<g id="node7" class="node"><title>android&amp;gt;ui&amp;gt;</title>
<polygon fill="#fefef2" stroke="black" points="272,-479 269,-483 248,-483 245,-479 220,-479 220,-439 272,-439 272,-479"/>
<text text-anchor="start" x="222" y="-469.5" font-family="Helvetica,sans-Serif" font-weight="bold" font-size="10.00">ui</text>
<text text-anchor="start" x="222" y="-454" font-family="Helvetica,sans-Serif" font-size="10.00" fill="forestgreen">+</text>
<text text-anchor="start" x="229" y="-454" font-family="Helvetica,sans-Serif" font-size="10.00">native_ui</text>
<text text-anchor="start" x="222" y="-444" font-family="Helvetica,sans-Serif" font-size="10.00" fill="forestgreen">+</text>
<text text-anchor="start" x="229" y="-444" font-family="Helvetica,sans-Serif" font-size="10.00">ui</text>
</g>
<!-- android&amp;gt;&#45;&gt;android&amp;gt;ui&amp;gt; -->
<g id="edge3" class="edge"><title>android&amp;gt;&#45;&gt;android&amp;gt;ui&amp;gt;</title>
<path fill="none" stroke="black" stroke-width="0.5" stroke-dasharray="5,2" d="M189.343,-380.096C202.276,-400.519 215.259,-420.095 225.609,-434.515"/>
<polygon fill="black" stroke="black" stroke-width="0.5" points="228.733,-438.819 223.975,-436.095 227.265,-436.796 225.796,-434.773 225.796,-434.773 225.796,-434.773 227.265,-436.796 227.617,-433.451 228.733,-438.819 228.733,-438.819"/>
</g>
<!-- android&amp;gt;bundle&amp;gt;&#45;&gt;android&amp;gt; -->
<g id="edge4" class="edge"><title>android&amp;gt;bundle&amp;gt;&#45;&gt;android&amp;gt;</title>
<path fill="none" stroke="black" stroke-width="0.5" stroke-dasharray="5,2" d="M41.3051,-443.477C50.4627,-430.881 63.0444,-411.368 76.0105,-390.1"/>
<polygon fill="black" stroke="black" stroke-width="0.5" points="78.608,-385.824 77.9348,-391.266 77.3099,-387.961 76.0119,-390.098 76.0119,-390.098 76.0119,-390.098 77.3099,-387.961 74.0889,-388.929 78.608,-385.824 78.608,-385.824"/>
</g>
<!-- android&amp;gt;intent&amp;gt; -->
<g id="node3" class="node"><title>android&amp;gt;intent&amp;gt;</title>
<polygon fill="#fefef2" stroke="black" points="64.5,-120 61.5,-124 40.5,-124 37.5,-120 -0.5,-120 -0.5,-1.42109e-14 64.5,-1.42109e-14 64.5,-120"/>
<text text-anchor="start" x="2" y="-110.5" font-family="Helvetica,sans-Serif" font-weight="bold" font-size="10.00">intent</text>
<text text-anchor="start" x="2" y="-95" font-family="Helvetica,sans-Serif" font-size="10.00" fill="forestgreen">+</text>
<text text-anchor="start" x="9" y="-95" font-family="Helvetica,sans-Serif" font-size="10.00">intent</text>
<text text-anchor="start" x="2" y="-85" font-family="Helvetica,sans-Serif" font-size="10.00" fill="forestgreen">+</text>
<text text-anchor="start" x="9" y="-85" font-family="Helvetica,sans-Serif" font-size="10.00">intent_api10</text>
<text text-anchor="start" x="2" y="-75" font-family="Helvetica,sans-Serif" font-size="10.00" fill="forestgreen">+</text>
<text text-anchor="start" x="9" y="-75" font-family="Helvetica,sans-Serif" font-size="10.00">intent_api11</text>
<text text-anchor="start" x="2" y="-65" font-family="Helvetica,sans-Serif" font-size="10.00" fill="forestgreen">+</text>
<text text-anchor="start" x="9" y="-65" font-family="Helvetica,sans-Serif" font-size="10.00">intent_api12</text>
<text text-anchor="start" x="2" y="-55" font-family="Helvetica,sans-Serif" font-size="10.00" fill="forestgreen">+</text>
<text text-anchor="start" x="9" y="-55" font-family="Helvetica,sans-Serif" font-size="10.00">intent_api14</text>
<text text-anchor="start" x="2" y="-45" font-family="Helvetica,sans-Serif" font-size="10.00" fill="forestgreen">+</text>
<text text-anchor="start" x="9" y="-45" font-family="Helvetica,sans-Serif" font-size="10.00">intent_api15</text>
<text text-anchor="start" x="2" y="-35" font-family="Helvetica,sans-Serif" font-size="10.00" fill="forestgreen">+</text>
<text text-anchor="start" x="9" y="-35" font-family="Helvetica,sans-Serif" font-size="10.00">intent_api16</text>
<text text-anchor="start" x="2" y="-25" font-family="Helvetica,sans-Serif" font-size="10.00" fill="forestgreen">+</text>
<text text-anchor="start" x="9" y="-25" font-family="Helvetica,sans-Serif" font-size="10.00">intent_api17</text>
<text text-anchor="start" x="2" y="-15" font-family="Helvetica,sans-Serif" font-size="10.00" fill="forestgreen">+</text>
<text text-anchor="start" x="9" y="-15" font-family="Helvetica,sans-Serif" font-size="10.00">intent_api18</text>
<text text-anchor="start" x="2" y="-5" font-family="Helvetica,sans-Serif" font-size="10.00" fill="forestgreen">+</text>
<text text-anchor="start" x="9" y="-5" font-family="Helvetica,sans-Serif" font-size="10.00">intent_api19</text>
</g>
<!-- android&amp;gt;intent&amp;gt;&#45;&gt;android&amp;gt; -->
<g id="edge5" class="edge"><title>android&amp;gt;intent&amp;gt;&#45;&gt;android&amp;gt;</title>
<path fill="none" stroke="black" stroke-width="0.5" stroke-dasharray="5,2" d="M60.0069,-120.034C65.1613,-130.899 70.7121,-142.599 76.3737,-154.533"/>
<polygon fill="black" stroke="black" stroke-width="0.5" points="78.6335,-159.296 74.4575,-155.743 77.5619,-157.037 76.4903,-154.779 76.4903,-154.779 76.4903,-154.779 77.5619,-157.037 78.5232,-153.814 78.6335,-159.296 78.6335,-159.296"/>
</g>
<!-- android&amp;gt;intent&amp;gt;&#45;&gt;android&amp;gt;bundle&amp;gt; -->
<g id="edge6" class="edge"><title>android&amp;gt;intent&amp;gt;&#45;&gt;android&amp;gt;bundle&amp;gt;</title>
<path fill="none" stroke="black" stroke-width="0.5" stroke-dasharray="5,2" d="M31.4055,-120.006C30.4905,-210.821 28.7818,-380.402 28.2,-438.151"/>
<polygon fill="black" stroke="black" stroke-width="0.5" points="28.1473,-443.384 25.9478,-438.362 28.1725,-440.884 28.1977,-438.384 28.1977,-438.384 28.1977,-438.384 28.1725,-440.884 30.4476,-438.407 28.1473,-443.384 28.1473,-443.384"/>
</g>
<!-- android&amp;gt;notification&amp;gt; -->
<g id="node4" class="node"><title>android&amp;gt;notification&amp;gt;</title>
<polygon fill="#fefef2" stroke="black" points="178.5,-80 175.5,-84 154.5,-84 151.5,-80 87.5,-80 87.5,-40 178.5,-40 178.5,-80"/>
<text text-anchor="start" x="90" y="-70.5" font-family="Helvetica,sans-Serif" font-weight="bold" font-size="10.00">notification</text>
<text text-anchor="start" x="90" y="-55" font-family="Helvetica,sans-Serif" font-size="10.00" fill="forestgreen">+</text>
<text text-anchor="start" x="97" y="-55" font-family="Helvetica,sans-Serif" font-size="10.00">native_notification</text>
<text text-anchor="start" x="90" y="-45" font-family="Helvetica,sans-Serif" font-size="10.00" fill="forestgreen">+</text>
<text text-anchor="start" x="97" y="-45" font-family="Helvetica,sans-Serif" font-size="10.00">notification</text>
</g>
<!-- android&amp;gt;notification&amp;gt;&#45;&gt;android&amp;gt; -->
<g id="edge7" class="edge"><title>android&amp;gt;notification&amp;gt;&#45;&gt;android&amp;gt;</title>
<path fill="none" stroke="black" stroke-width="0.5" stroke-dasharray="5,2" d="M133.089,-80.0798C133.154,-94.0293 133.248,-114.352 133.352,-136.689"/>
<polygon fill="black" stroke="black" stroke-width="0.5" points="133.376,-141.789 131.102,-136.8 133.364,-139.289 133.352,-136.789 133.352,-136.789 133.352,-136.789 133.364,-139.289 135.602,-136.779 133.376,-141.789 133.376,-141.789"/>
</g>
<!-- android&amp;gt;service&amp;gt; -->
<g id="node5" class="node"><title>android&amp;gt;service&amp;gt;</title>
<polygon fill="#fefef2" stroke="black" points="245.5,-80 242.5,-84 221.5,-84 218.5,-80 200.5,-80 200.5,-40 245.5,-40 245.5,-80"/>
<text text-anchor="start" x="203" y="-70.5" font-family="Helvetica,sans-Serif" font-weight="bold" font-size="10.00">service</text>
<text text-anchor="start" x="203" y="-55" font-family="Helvetica,sans-Serif" font-size="10.00" fill="forestgreen">+</text>
<text text-anchor="start" x="210" y="-55" font-family="Helvetica,sans-Serif" font-size="10.00">at_boot</text>
<text text-anchor="start" x="203" y="-45" font-family="Helvetica,sans-Serif" font-size="10.00" fill="forestgreen">+</text>
<text text-anchor="start" x="210" y="-45" font-family="Helvetica,sans-Serif" font-size="10.00">service</text>
</g>
<!-- android&amp;gt;service&amp;gt;&#45;&gt;android&amp;gt; -->
<g id="edge8" class="edge"><title>android&amp;gt;service&amp;gt;&#45;&gt;android&amp;gt;</title>
<path fill="none" stroke="black" stroke-width="0.5" stroke-dasharray="5,2" d="M215.102,-80.0798C209.263,-94.1839 200.728,-114.803 191.361,-137.432"/>
<polygon fill="black" stroke="black" stroke-width="0.5" points="189.35,-142.289 189.183,-136.809 190.306,-139.98 191.262,-137.67 191.262,-137.67 191.262,-137.67 190.306,-139.98 193.341,-138.53 189.35,-142.289 189.35,-142.289"/>
</g>
<!-- android&amp;gt;shared_preferences&amp;gt;&#45;&gt;android&amp;gt; -->
<g id="edge9" class="edge"><title>android&amp;gt;shared_preferences&amp;gt;&#45;&gt;android&amp;gt;</title>
<path fill="none" stroke="black" stroke-width="0.5" stroke-dasharray="5,2" d="M139.836,-433.908C140.303,-428.906 140.703,-423.303 141.034,-417.274"/>
<polygon fill="black" stroke="black" stroke-width="0.5" points="141.297,-412.113 143.29,-417.221 141.17,-414.609 141.043,-417.106 141.043,-417.106 141.043,-417.106 141.17,-414.609 138.796,-416.992 141.297,-412.113 141.297,-412.113"/>
</g>
<!-- android&amp;gt;ui&amp;gt;&#45;&gt;android&amp;gt; -->
<g id="edge10" class="edge"><title>android&amp;gt;ui&amp;gt;&#45;&gt;android&amp;gt;</title>
<path fill="none" stroke="black" stroke-width="0.5" stroke-dasharray="5,2" d="M239.371,-438.766C229.469,-419.352 210.95,-388.052 192.112,-358.206"/>
<polygon fill="black" stroke="black" stroke-width="0.5" points="189.332,-353.815 193.908,-356.835 190.669,-355.927 192.007,-358.039 192.007,-358.039 192.007,-358.039 190.669,-355.927 190.106,-359.243 189.332,-353.815 189.332,-353.815"/>
</g>
</g>
</svg>
