<?xml version="1.0" encoding="UTF-8" standalone="no"?>
<!DOCTYPE svg PUBLIC "-//W3C//DTD SVG 1.1//EN"
 "http://www.w3.org/Graphics/SVG/1.1/DTD/svg11.dtd">
<!-- Generated by graphviz version 2.36.0 (20140111.2315)
 -->
<!-- Title: G Pages: 1 -->
<svg width="349pt" height="332pt"
 viewBox="0.00 0.00 349.00 332.00" xmlns="http://www.w3.org/2000/svg" xmlns:xlink="http://www.w3.org/1999/xlink">
<g id="graph0" class="graph" transform="scale(1 1) rotate(0) translate(4 328)">
<title>G</title>
<polygon fill="white" stroke="none" points="-4,4 -4,-328 345,-328 345,4 -4,4"/>
<!-- msgpack::ext -->
<g id="node1" class="node"><title>msgpack::ext</title>
<polygon fill="#fffaf3" stroke="black" points="201.5,-324 138.5,-324 138.5,-284 207.5,-284 207.5,-318 201.5,-324"/>
<polyline fill="none" stroke="black" points="201.5,-324 201.5,-318 "/>
<polyline fill="none" stroke="black" points="207.5,-318 201.5,-318 "/>
<text text-anchor="start" x="141" y="-314.5" font-family="Helvetica,sans-Serif" font-weight="bold" font-size="10.00">ext</text>
<text text-anchor="start" x="141" y="-299" font-family="Helvetica,sans-Serif" font-size="10.00" fill="forestgreen">+</text>
<text text-anchor="start" x="148" y="-299" font-family="Helvetica,sans-Serif" font-size="10.00">Deserializer</text>
<text text-anchor="start" x="141" y="-289" font-family="Helvetica,sans-Serif" font-size="10.00" fill="forestgreen">+</text>
<text text-anchor="start" x="148" y="-289" font-family="Helvetica,sans-Serif" font-size="10.00">MsgPackExt</text>
</g>
<!-- msgpack::msgpack -->
<g id="node2" class="node"><title>msgpack::msgpack</title>
<polygon fill="#fffaf3" stroke="black" points="244.333,-16 199,-16 199,-0 247,-0 247,-13.3333 244.333,-16"/>
<polyline fill="none" stroke="black" points="244.333,-16 244.333,-13.3333 "/>
<polyline fill="none" stroke="black" points="247,-13.3333 244.333,-13.3333 "/>
<text text-anchor="start" x="201" y="-6.5" font-family="Helvetica,sans-Serif" font-weight="bold" font-size="10.00">msgpack</text>
</g>
<!-- msgpack::serialization_read -->
<g id="node6" class="node"><title>msgpack::serialization_read</title>
<polygon fill="#fffaf3" stroke="black" points="209,-158 109,-158 109,-88 215,-88 215,-152 209,-158"/>
<polyline fill="none" stroke="black" points="209,-158 209,-152 "/>
<polyline fill="none" stroke="black" points="215,-152 209,-152 "/>
<text text-anchor="start" x="111" y="-148.5" font-family="Helvetica,sans-Serif" font-weight="bold" font-size="10.00">serialization_read</text>
<text text-anchor="start" x="111" y="-133" font-family="Helvetica,sans-Serif" font-size="10.00" fill="forestgreen">+</text>
<text text-anchor="start" x="118" y="-133" font-family="Helvetica,sans-Serif" font-size="10.00">Bytes</text>
<text text-anchor="start" x="111" y="-123" font-family="Helvetica,sans-Serif" font-size="10.00" fill="forestgreen">+</text>
<text text-anchor="start" x="118" y="-123" font-family="Helvetica,sans-Serif" font-size="10.00">Map</text>
<text text-anchor="start" x="111" y="-113" font-family="Helvetica,sans-Serif" font-size="10.00" fill="forestgreen">+</text>
<text text-anchor="start" x="118" y="-113" font-family="Helvetica,sans-Serif" font-size="10.00">MsgPackDeserializer</text>
<text text-anchor="start" x="111" y="-103" font-family="Helvetica,sans-Serif" font-size="10.00" fill="forestgreen">+</text>
<text text-anchor="start" x="118" y="-103" font-family="Helvetica,sans-Serif" font-size="10.00">Reader</text>
<text text-anchor="start" x="111" y="-93" font-family="Helvetica,sans-Serif" font-size="10.00" fill="forestgreen">+</text>
<text text-anchor="start" x="118" y="-93" font-family="Helvetica,sans-Serif" font-size="10.00">SimpleCollection</text>
</g>
<!-- msgpack::msgpack&#45;&gt;msgpack::serialization_read -->
<g id="edge1" class="edge"><title>msgpack::msgpack&#45;&gt;msgpack::serialization_read</title>
<path fill="none" stroke="black" stroke-width="0.5" stroke-dasharray="5,2" d="M219.184,-16.0687C212.014,-29.3506 196.06,-58.906 182.82,-83.4319"/>
<polygon fill="black" stroke="black" stroke-width="0.5" points="180.382,-87.9478 180.777,-82.4791 181.57,-85.7479 182.757,-83.548 182.757,-83.548 182.757,-83.548 181.57,-85.7479 184.737,-84.6168 180.382,-87.9478 180.382,-87.9478"/>
</g>
<!-- msgpack::serialization_write -->
<g id="node7" class="node"><title>msgpack::serialization_write</title>
<polygon fill="#fffaf3" stroke="black" points="325,-208 237,-208 237,-38 331,-38 331,-202 325,-208"/>
<polyline fill="none" stroke="black" points="325,-208 325,-202 "/>
<polyline fill="none" stroke="black" points="331,-202 325,-202 "/>
<text text-anchor="start" x="239" y="-198.5" font-family="Helvetica,sans-Serif" font-weight="bold" font-size="10.00">serialization_write</text>
<text text-anchor="start" x="239" y="-183" font-family="Helvetica,sans-Serif" font-size="10.00" fill="forestgreen">+</text>
<text text-anchor="start" x="246" y="-183" font-family="Helvetica,sans-Serif" font-size="10.00">AttributeCounter</text>
<text text-anchor="start" x="239" y="-173" font-family="Helvetica,sans-Serif" font-size="10.00" fill="forestgreen">+</text>
<text text-anchor="start" x="246" y="-173" font-family="Helvetica,sans-Serif" font-size="10.00">Bool</text>
<text text-anchor="start" x="239" y="-163" font-family="Helvetica,sans-Serif" font-size="10.00" fill="forestgreen">+</text>
<text text-anchor="start" x="246" y="-163" font-family="Helvetica,sans-Serif" font-size="10.00">Byte</text>
<text text-anchor="start" x="239" y="-153" font-family="Helvetica,sans-Serif" font-size="10.00" fill="forestgreen">+</text>
<text text-anchor="start" x="246" y="-153" font-family="Helvetica,sans-Serif" font-size="10.00">Bytes</text>
<text text-anchor="start" x="239" y="-143" font-family="Helvetica,sans-Serif" font-size="10.00" fill="forestgreen">+</text>
<text text-anchor="start" x="246" y="-143" font-family="Helvetica,sans-Serif" font-size="10.00">CString</text>
<text text-anchor="start" x="239" y="-133" font-family="Helvetica,sans-Serif" font-size="10.00" fill="forestgreen">+</text>
<text text-anchor="start" x="246" y="-133" font-family="Helvetica,sans-Serif" font-size="10.00">Char</text>
<text text-anchor="start" x="239" y="-123" font-family="Helvetica,sans-Serif" font-size="10.00" fill="forestgreen">+</text>
<text text-anchor="start" x="246" y="-123" font-family="Helvetica,sans-Serif" font-size="10.00">Float</text>
<text text-anchor="start" x="239" y="-113" font-family="Helvetica,sans-Serif" font-size="10.00" fill="forestgreen">+</text>
<text text-anchor="start" x="246" y="-113" font-family="Helvetica,sans-Serif" font-size="10.00">Int</text>
<text text-anchor="start" x="239" y="-103" font-family="Helvetica,sans-Serif" font-size="10.00" fill="forestgreen">+</text>
<text text-anchor="start" x="246" y="-103" font-family="Helvetica,sans-Serif" font-size="10.00">Map</text>
<text text-anchor="start" x="239" y="-93" font-family="Helvetica,sans-Serif" font-size="10.00" fill="forestgreen">+</text>
<text text-anchor="start" x="246" y="-93" font-family="Helvetica,sans-Serif" font-size="10.00">MsgPackExt</text>
<text text-anchor="start" x="239" y="-83" font-family="Helvetica,sans-Serif" font-size="10.00" fill="forestgreen">+</text>
<text text-anchor="start" x="246" y="-83" font-family="Helvetica,sans-Serif" font-size="10.00">MsgPackSerializer</text>
<text text-anchor="start" x="239" y="-73" font-family="Helvetica,sans-Serif" font-size="10.00" fill="forestgreen">+</text>
<text text-anchor="start" x="246" y="-73" font-family="Helvetica,sans-Serif" font-size="10.00">Serializable</text>
<text text-anchor="start" x="239" y="-63" font-family="Helvetica,sans-Serif" font-size="10.00" fill="forestgreen">+</text>
<text text-anchor="start" x="246" y="-63" font-family="Helvetica,sans-Serif" font-size="10.00">SimpleCollection</text>
<text text-anchor="start" x="239" y="-53" font-family="Helvetica,sans-Serif" font-size="10.00" fill="forestgreen">+</text>
<text text-anchor="start" x="246" y="-53" font-family="Helvetica,sans-Serif" font-size="10.00">Text</text>
<text text-anchor="start" x="239" y="-43" font-family="Helvetica,sans-Serif" font-size="10.00" fill="forestgreen">+</text>
<text text-anchor="start" x="246" y="-43" font-family="Helvetica,sans-Serif" font-size="10.00">Writer</text>
</g>
<!-- msgpack::msgpack&#45;&gt;msgpack::serialization_write -->
<g id="edge2" class="edge"><title>msgpack::msgpack&#45;&gt;msgpack::serialization_write</title>
<path fill="none" stroke="black" stroke-width="0.5" stroke-dasharray="5,2" d="M226.816,-16.0687C229.149,-20.39 232.411,-26.4341 236.208,-33.467"/>
<polygon fill="black" stroke="black" stroke-width="0.5" points="238.637,-37.9673 234.282,-34.6363 237.45,-35.7674 236.262,-33.5675 236.262,-33.5675 236.262,-33.5675 237.45,-35.7674 238.242,-32.4986 238.637,-37.9673 238.637,-37.9673"/>
</g>
<!-- msgpack::msgpack_to_json -->
<g id="node3" class="node"><title>msgpack::msgpack_to_json</title>
<polygon fill="#fffaf3" stroke="black" points="81.3333,-138.5 -0.5,-138.5 -0.5,-107.5 86.5,-107.5 86.5,-133.333 81.3333,-138.5"/>
<polyline fill="none" stroke="black" points="81.3333,-138.5 81.3333,-133.333 "/>
<polyline fill="none" stroke="black" points="86.5,-133.333 81.3333,-133.333 "/>
<text text-anchor="start" x="2" y="-128.5" font-family="Helvetica,sans-Serif" font-weight="bold" font-size="10.00">msgpack_to_json</text>
<text text-anchor="start" x="2" y="-113" font-family="Helvetica,sans-Serif" font-size="10.00" fill="forestgreen">+</text>
<text text-anchor="start" x="9" y="-113" font-family="Helvetica,sans-Serif" font-size="10.00">Sys</text>
</g>
<!-- msgpack::read -->
<g id="node4" class="node"><title>msgpack::read</title>
<polygon fill="#fffaf3" stroke="black" points="95.8333,-261.5 57,-261.5 57,-230.5 101,-230.5 101,-256.333 95.8333,-261.5"/>
<polyline fill="none" stroke="black" points="95.8333,-261.5 95.8333,-256.333 "/>
<polyline fill="none" stroke="black" points="101,-256.333 95.8333,-256.333 "/>
<text text-anchor="start" x="59" y="-251.5" font-family="Helvetica,sans-Serif" font-weight="bold" font-size="10.00">read</text>
<text text-anchor="start" x="59" y="-236" font-family="Helvetica,sans-Serif" font-size="10.00" fill="forestgreen">+</text>
<text text-anchor="start" x="66" y="-236" font-family="Helvetica,sans-Serif" font-size="10.00">Reader</text>
</g>
<!-- msgpack::msgpack_to_json&#45;&gt;msgpack::read -->
<g id="edge3" class="edge"><title>msgpack::msgpack_to_json&#45;&gt;msgpack::read</title>
<path fill="none" stroke="black" stroke-width="0.5" stroke-dasharray="5,2" d="M47.4143,-138.837C53.8999,-160.636 66.0113,-201.344 73.2053,-225.524"/>
<polygon fill="black" stroke="black" stroke-width="0.5" points="74.662,-230.42 71.0796,-226.269 73.9491,-228.023 73.2361,-225.627 73.2361,-225.627 73.2361,-225.627 73.9491,-228.023 75.3927,-224.986 74.662,-230.42 74.662,-230.42"/>
</g>
<!-- msgpack::read&#45;&gt;msgpack::ext -->
<g id="edge4" class="edge"><title>msgpack::read&#45;&gt;msgpack::ext</title>
<path fill="none" stroke="black" stroke-width="0.5" stroke-dasharray="5,2" d="M100.802,-259.988C111.429,-266.319 124.495,-274.104 136.578,-281.302"/>
<polygon fill="black" stroke="black" stroke-width="0.5" points="140.979,-283.924 135.532,-283.298 138.831,-282.644 136.684,-281.365 136.684,-281.365 136.684,-281.365 138.831,-282.644 137.835,-279.432 140.979,-283.924 140.979,-283.924"/>
</g>
<!-- msgpack::serialization_common -->
<g id="node5" class="node"><title>msgpack::serialization_common</title>
<polygon fill="#fffaf3" stroke="black" points="227.333,-261.5 123.5,-261.5 123.5,-230.5 232.5,-230.5 232.5,-256.333 227.333,-261.5"/>
<polyline fill="none" stroke="black" points="227.333,-261.5 227.333,-256.333 "/>
<polyline fill="none" stroke="black" points="232.5,-256.333 227.333,-256.333 "/>
<text text-anchor="start" x="126" y="-251.5" font-family="Helvetica,sans-Serif" font-weight="bold" font-size="10.00">serialization_common</text>
<text text-anchor="start" x="126" y="-236" font-family="Helvetica,sans-Serif" font-size="10.00" fill="forestgreen">+</text>
<text text-anchor="start" x="133" y="-236" font-family="Helvetica,sans-Serif" font-size="10.00">MsgPackEngine</text>
</g>
<!-- msgpack::serialization_read&#45;&gt;msgpack::read -->
<g id="edge5" class="edge"><title>msgpack::serialization_read&#45;&gt;msgpack::read</title>
<path fill="none" stroke="black" stroke-width="0.5" stroke-dasharray="5,2" d="M138.659,-158.027C123.63,-179.937 104.644,-207.615 92.1779,-225.789"/>
<polygon fill="black" stroke="black" stroke-width="0.5" points="89.1554,-230.195 90.1283,-224.799 90.5695,-228.134 91.9837,-226.072 91.9837,-226.072 91.9837,-226.072 90.5695,-228.134 93.8391,-227.345 89.1554,-230.195 89.1554,-230.195"/>
</g>
<!-- msgpack::serialization_read&#45;&gt;msgpack::serialization_common -->
<g id="edge6" class="edge"><title>msgpack::serialization_read&#45;&gt;msgpack::serialization_common</title>
<path fill="none" stroke="black" stroke-width="0.5" stroke-dasharray="5,2" d="M166.499,-158.027C169.347,-179.565 172.933,-206.679 175.336,-224.857"/>
<polygon fill="black" stroke="black" stroke-width="0.5" points="176.042,-230.195 173.156,-225.533 175.715,-227.717 175.387,-225.238 175.387,-225.238 175.387,-225.238 175.715,-227.717 177.617,-224.943 176.042,-230.195 176.042,-230.195"/>
</g>
<!-- msgpack::serialization_write&#45;&gt;msgpack::ext -->
<g id="edge7" class="edge"><title>msgpack::serialization_write&#45;&gt;msgpack::ext</title>
<path fill="none" stroke="black" stroke-width="0.5" stroke-dasharray="5,2" d="M269.888,-208.041C263.858,-227.129 255.259,-246.363 243,-262 234.869,-272.372 223.329,-280.64 211.959,-286.956"/>
<polygon fill="black" stroke="black" stroke-width="0.5" points="207.448,-289.368 210.796,-285.026 209.653,-288.189 211.857,-287.01 211.857,-287.01 211.857,-287.01 209.653,-288.189 212.918,-288.994 207.448,-289.368 207.448,-289.368"/>
</g>
<!-- msgpack::serialization_write&#45;&gt;msgpack::serialization_common -->
<g id="edge8" class="edge"><title>msgpack::serialization_write&#45;&gt;msgpack::serialization_common</title>
<path fill="none" stroke="black" stroke-width="0.5" stroke-dasharray="5,2" d="M236.893,-194.451C233.025,-199.164 229.043,-203.73 225,-208 218.494,-214.872 210.664,-221.539 203.278,-227.278"/>
<polygon fill="black" stroke="black" stroke-width="0.5" points="199.231,-230.365 201.841,-225.543 201.219,-228.849 203.206,-227.332 203.206,-227.332 203.206,-227.332 201.219,-228.849 204.571,-229.121 199.231,-230.365 199.231,-230.365"/>
</g>
<!-- msgpack::write -->
<g id="node8" class="node"><title>msgpack::write</title>
<polygon fill="#fffaf3" stroke="black" points="335.333,-261.5 301.5,-261.5 301.5,-230.5 340.5,-230.5 340.5,-256.333 335.333,-261.5"/>
<polyline fill="none" stroke="black" points="335.333,-261.5 335.333,-256.333 "/>
<polyline fill="none" stroke="black" points="340.5,-256.333 335.333,-256.333 "/>
<text text-anchor="start" x="304" y="-251.5" font-family="Helvetica,sans-Serif" font-weight="bold" font-size="10.00">write</text>
<text text-anchor="start" x="304" y="-236" font-family="Helvetica,sans-Serif" font-size="10.00" fill="forestgreen">+</text>
<text text-anchor="start" x="311" y="-236" font-family="Helvetica,sans-Serif" font-size="10.00">Writer</text>
</g>
<!-- msgpack::serialization_write&#45;&gt;msgpack::write -->
<g id="edge9" class="edge"><title>msgpack::serialization_write&#45;&gt;msgpack::write</title>
<path fill="none" stroke="black" stroke-width="0.5" stroke-dasharray="5,2" d="M309.698,-208.039C311.621,-214.33 313.422,-220.218 314.996,-225.366"/>
<polygon fill="black" stroke="black" stroke-width="0.5" points="316.491,-230.254 312.877,-226.13 315.76,-227.863 315.029,-225.472 315.029,-225.472 315.029,-225.472 315.76,-227.863 317.18,-224.814 316.491,-230.254 316.491,-230.254"/>
</g>
</g>
</svg>
