<?xml version="1.0" encoding="UTF-8" standalone="no"?>
<!DOCTYPE svg PUBLIC "-//W3C//DTD SVG 1.1//EN"
 "http://www.w3.org/Graphics/SVG/1.1/DTD/svg11.dtd">
<!-- Generated by graphviz version 2.36.0 (20140111.2315)
 -->
<!-- Title: G Pages: 1 -->
<svg width="424pt" height="236pt"
 viewBox="0.00 0.00 424.00 236.00" xmlns="http://www.w3.org/2000/svg" xmlns:xlink="http://www.w3.org/1999/xlink">
<g id="graph0" class="graph" transform="scale(1 1) rotate(0) translate(4 232)">
<title>G</title>
<polygon fill="white" stroke="none" points="-4,4 -4,-232 420,-232 420,4 -4,4"/>
<!-- dot::DotElement -->
<g id="node1" class="node"><title>dot::DotElement</title>
<polygon fill="white" stroke="none" points="378.5,-227.5 231.5,-227.5 231.5,-154.5 378.5,-154.5 378.5,-227.5"/>
<polygon fill="none" stroke="forestgreen" points="232,-200 232,-227 379,-227 379,-200 232,-200"/>
<text text-anchor="start" x="275.5" y="-216.5" font-family="Helvetica,sans-Serif" font-size="10.00">&lt;&lt;abstract&gt;&gt;</text>
<text text-anchor="start" x="278" y="-206.5" font-family="Helvetica,sans-Serif" font-weight="bold" font-style="italic" font-size="10.00">DotElement</text>
<polygon fill="none" stroke="forestgreen" points="232,-154 232,-200 379,-200 379,-154 232,-154"/>
<text text-anchor="start" x="235" y="-190" font-family="Helvetica,sans-Serif" font-size="10.00" fill="forestgreen">+</text>
<text text-anchor="start" x="242" y="-190" font-family="Helvetica,sans-Serif" font-size="10.00"> [](key: String): Object</text>
<text text-anchor="start" x="235" y="-180" font-family="Helvetica,sans-Serif" font-size="10.00" fill="forestgreen">+</text>
<text text-anchor="start" x="242" y="-180" font-family="Helvetica,sans-Serif" font-size="10.00"> []=(key: String, value: Object)</text>
<text text-anchor="start" x="235" y="-170" font-family="Helvetica,sans-Serif" font-size="10.00" fill="forestgreen">+</text>
<text text-anchor="start" x="242" y="-170" font-family="Helvetica,sans-Serif" font-size="10.00"> escape_id(): String</text>
<text text-anchor="start" x="235" y="-160" font-family="Helvetica,sans-Serif" font-size="10.00" fill="forestgreen">+</text>
<text text-anchor="start" x="242" y="-160" font-family="Helvetica,sans-Serif" font-size="10.00"> to_dot(): Text</text>
</g>
<!-- dot::AttributeMap -->
<g id="node2" class="node"><title>dot::AttributeMap</title>
<polygon fill="white" stroke="none" points="416,-35.5 268,-35.5 268,-0.5 416,-0.5 416,-35.5"/>
<polygon fill="none" stroke="forestgreen" points="268,-17 268,-35 416,-35 416,-17 268,-17"/>
<text text-anchor="start" x="311.5" y="-24.5" font-family="Helvetica,sans-Serif" font-weight="bold" font-size="10.00">AttributeMap</text>
<polygon fill="none" stroke="forestgreen" points="268,-0 268,-17 416,-17 416,-0 268,-0"/>
<text text-anchor="start" x="271" y="-7" font-family="Helvetica,sans-Serif" font-size="10.00" fill="forestgreen">+</text>
<text text-anchor="start" x="278" y="-7" font-family="Helvetica,sans-Serif" font-size="10.00"> to_dot(separator: String): Text</text>
</g>
<!-- dot::DotGraph -->
<g id="node3" class="node"><title>dot::DotGraph</title>
<polygon fill="white" stroke="none" points="258.5,-132 -0.5,-132 -0.5,-58 258.5,-58 258.5,-132"/>
<polygon fill="none" stroke="forestgreen" points="0,-114 0,-132 259,-132 259,-114 0,-114"/>
<text text-anchor="start" x="106.5" y="-121.5" font-family="Helvetica,sans-Serif" font-weight="bold" font-size="10.00">DotGraph</text>
<polygon fill="none" stroke="forestgreen" points="0,-58 0,-114 259,-114 259,-58 0,-58"/>
<text text-anchor="start" x="3" y="-104" font-family="Helvetica,sans-Serif" font-size="10.00" fill="forestgreen">+</text>
<text text-anchor="start" x="10" y="-104" font-family="Helvetica,sans-Serif" font-size="10.00"> add(element: DotElement)</text>
<text text-anchor="start" x="3" y="-94" font-family="Helvetica,sans-Serif" font-size="10.00" fill="forestgreen">+</text>
<text text-anchor="start" x="10" y="-94" font-family="Helvetica,sans-Serif" font-size="10.00"> add_edge(from: DotElement, to: DotElement): DotEdge</text>
<text text-anchor="start" x="3" y="-84" font-family="Helvetica,sans-Serif" font-size="10.00" fill="forestgreen">+</text>
<text text-anchor="start" x="10" y="-84" font-family="Helvetica,sans-Serif" font-size="10.00"> add_node(id: String): DotNode</text>
<text text-anchor="start" x="3" y="-74" font-family="Helvetica,sans-Serif" font-size="10.00" fill="forestgreen">+</text>
<text text-anchor="start" x="10" y="-74" font-family="Helvetica,sans-Serif" font-size="10.00"> show()</text>
<text text-anchor="start" x="3" y="-64" font-family="Helvetica,sans-Serif" font-size="10.00" fill="forestgreen">+</text>
<text text-anchor="start" x="10" y="-64" font-family="Helvetica,sans-Serif" font-size="10.00"> to_svg(): Text</text>
</g>
<!-- dot::DotGraph&#45;&gt;dot::DotElement -->
<g id="edge1" class="edge"><title>dot::DotGraph&#45;&gt;dot::DotElement</title>
<path fill="none" stroke="black" stroke-width="0.5" d="M196.543,-132.074C208.803,-138.622 221.623,-145.469 233.98,-152.069"/>
<polygon fill="none" stroke="black" stroke-width="0.5" points="233.274,-153.676 238.509,-154.488 234.923,-150.589 233.274,-153.676"/>
</g>
<!-- dot::DotNode -->
<g id="node4" class="node"><title>dot::DotNode</title>
<polygon fill="white" stroke="none" points="329.5,-104 280.5,-104 280.5,-86 329.5,-86 329.5,-104"/>
<polygon fill="none" stroke="forestgreen" points="281,-86 281,-104 330,-104 330,-86 281,-86"/>
<text text-anchor="start" x="284.5" y="-93.5" font-family="Helvetica,sans-Serif" font-weight="bold" font-size="10.00">DotNode</text>
</g>
<!-- dot::DotNode&#45;&gt;dot::DotElement -->
<g id="edge2" class="edge"><title>dot::DotNode&#45;&gt;dot::DotElement</title>
<path fill="none" stroke="black" stroke-width="0.5" d="M305,-104.014C305,-114.073 305,-132.067 305,-149.003"/>
<polygon fill="none" stroke="black" stroke-width="0.5" points="303.25,-149.215 305,-154.215 306.75,-149.215 303.25,-149.215"/>
</g>
<!-- dot::DotEdge -->
<g id="node5" class="node"><title>dot::DotEdge</title>
<polygon fill="white" stroke="none" points="400,-104 352,-104 352,-86 400,-86 400,-104"/>
<polygon fill="none" stroke="forestgreen" points="352,-86 352,-104 400,-104 400,-86 352,-86"/>
<text text-anchor="start" x="355.5" y="-93.5" font-family="Helvetica,sans-Serif" font-weight="bold" font-size="10.00">DotEdge</text>
</g>
<!-- dot::DotEdge&#45;&gt;dot::DotElement -->
<g id="edge3" class="edge"><title>dot::DotEdge&#45;&gt;dot::DotElement</title>
<path fill="none" stroke="black" stroke-width="0.5" d="M369.947,-104.014C362.218,-114.247 348.288,-132.69 335.305,-149.878"/>
<polygon fill="none" stroke="black" stroke-width="0.5" points="333.646,-149.171 332.029,-154.215 336.439,-151.28 333.646,-149.171"/>
</g>
<!-- dot::DotCluster -->
<g id="node6" class="node"><title>dot::DotCluster</title>
<polygon fill="white" stroke="none" points="246,-27 188,-27 188,-9 246,-9 246,-27"/>
<polygon fill="none" stroke="forestgreen" points="188,-9 188,-27 246,-27 246,-9 188,-9"/>
<text text-anchor="start" x="191.5" y="-16.5" font-family="Helvetica,sans-Serif" font-weight="bold" font-size="10.00">DotCluster</text>
</g>
<!-- dot::DotCluster&#45;&gt;dot::DotGraph -->
<g id="edge4" class="edge"><title>dot::DotCluster&#45;&gt;dot::DotGraph</title>
<path fill="none" stroke="black" stroke-width="0.5" d="M207.582,-27.0263C199.626,-33.8071 187.595,-44.061 175.322,-54.5209"/>
<polygon fill="none" stroke="black" stroke-width="0.5" points="174.18,-53.1949 171.51,-57.7701 176.45,-55.8587 174.18,-53.1949"/>
</g>
<!-- dot::DotCluster&#45;&gt;dot::DotNode -->
<g id="edge5" class="edge"><title>dot::DotCluster&#45;&gt;dot::DotNode</title>
<path fill="none" stroke="black" stroke-width="0.5" d="M228.934,-27.2174C239.72,-34.8132 255.871,-46.6136 269,-58 277.789,-65.6227 287.057,-74.9238 293.988,-82.1622"/>
<polygon fill="none" stroke="black" stroke-width="0.5" points="292.869,-83.5254 297.58,-85.9476 295.408,-81.1161 292.869,-83.5254"/>
</g>
</g>
</svg>
