<?xml version="1.0" encoding="UTF-8" standalone="no"?>
<!DOCTYPE svg PUBLIC "-//W3C//DTD SVG 1.1//EN"
 "http://www.w3.org/Graphics/SVG/1.1/DTD/svg11.dtd">
<!-- Generated by graphviz version 2.36.0 (20140111.2315)
 -->
<!-- Title: G Pages: 1 -->
<svg width="94pt" height="130pt"
 viewBox="0.00 0.00 94.00 130.00" xmlns="http://www.w3.org/2000/svg" xmlns:xlink="http://www.w3.org/1999/xlink">
<g id="graph0" class="graph" transform="scale(1 1) rotate(0) translate(4 126)">
<title>G</title>
<polygon fill="white" stroke="none" points="-4,4 -4,-126 90,-126 90,4 -4,4"/>
<!-- postgresql::native_postgres -->
<g id="node1" class="node"><title>postgresql::native_postgres</title>
<polygon fill="#fffaf3" stroke="black" points="80,-122 0,-122 0,-62 86,-62 86,-116 80,-122"/>
<polyline fill="none" stroke="black" points="80,-122 80,-116 "/>
<polyline fill="none" stroke="black" points="86,-116 80,-116 "/>
<text text-anchor="start" x="2" y="-112.5" font-family="Helvetica,sans-Serif" font-weight="bold" font-size="10.00">native_postgres</text>
<text text-anchor="start" x="2" y="-97" font-family="Helvetica,sans-Serif" font-size="10.00" fill="forestgreen">+</text>
<text text-anchor="start" x="9" y="-97" font-family="Helvetica,sans-Serif" font-size="10.00">ConnStatusType</text>
<text text-anchor="start" x="2" y="-87" font-family="Helvetica,sans-Serif" font-size="10.00" fill="forestgreen">+</text>
<text text-anchor="start" x="9" y="-87" font-family="Helvetica,sans-Serif" font-size="10.00">ExecStatusType</text>
<text text-anchor="start" x="2" y="-77" font-family="Helvetica,sans-Serif" font-size="10.00" fill="forestgreen">+</text>
<text text-anchor="start" x="9" y="-77" font-family="Helvetica,sans-Serif" font-size="10.00">NativePGResult</text>
<text text-anchor="start" x="2" y="-67" font-family="Helvetica,sans-Serif" font-size="10.00" fill="forestgreen">+</text>
<text text-anchor="start" x="9" y="-67" font-family="Helvetica,sans-Serif" font-size="10.00">NativePostgres</text>
</g>
<!-- postgresql::postgres -->
<g id="node2" class="node"><title>postgresql::postgres</title>
<polygon fill="#fffaf3" stroke="black" points="64.5,-40 15.5,-40 15.5,-0 70.5,-0 70.5,-34 64.5,-40"/>
<polyline fill="none" stroke="black" points="64.5,-40 64.5,-34 "/>
<polyline fill="none" stroke="black" points="70.5,-34 64.5,-34 "/>
<text text-anchor="start" x="18" y="-30.5" font-family="Helvetica,sans-Serif" font-weight="bold" font-size="10.00">postgres</text>
<text text-anchor="start" x="18" y="-15" font-family="Helvetica,sans-Serif" font-size="10.00" fill="forestgreen">+</text>
<text text-anchor="start" x="25" y="-15" font-family="Helvetica,sans-Serif" font-size="10.00">PGResult</text>
<text text-anchor="start" x="18" y="-5" font-family="Helvetica,sans-Serif" font-size="10.00" fill="forestgreen">+</text>
<text text-anchor="start" x="25" y="-5" font-family="Helvetica,sans-Serif" font-size="10.00">Postgres</text>
</g>
<!-- postgresql::postgres&#45;&gt;postgresql::native_postgres -->
<g id="edge1" class="edge"><title>postgresql::postgres&#45;&gt;postgresql::native_postgres</title>
<path fill="none" stroke="black" stroke-width="0.5" stroke-dasharray="5,2" d="M43,-40.1278C43,-45.2725 43,-50.9978 43,-56.6983"/>
<polygon fill="black" stroke="black" stroke-width="0.5" points="43,-61.9092 40.7501,-56.9091 43,-59.4092 43.0001,-56.9092 43.0001,-56.9092 43.0001,-56.9092 43,-59.4092 45.2501,-56.9092 43,-61.9092 43,-61.9092"/>
</g>
</g>
</svg>
