<?xml version="1.0" encoding="UTF-8" standalone="no"?>
<!DOCTYPE svg PUBLIC "-//W3C//DTD SVG 1.1//EN"
 "http://www.w3.org/Graphics/SVG/1.1/DTD/svg11.dtd">
<!-- Generated by graphviz version 2.36.0 (20140111.2315)
 -->
<!-- Title: G Pages: 1 -->
<svg width="98pt" height="152pt"
 viewBox="0.00 0.00 98.00 152.00" xmlns="http://www.w3.org/2000/svg" xmlns:xlink="http://www.w3.org/1999/xlink">
<g id="graph0" class="graph" transform="scale(1 1) rotate(0) translate(4 148)">
<title>G</title>
<polygon fill="white" stroke="none" points="-4,4 -4,-148 94,-148 94,4 -4,4"/>
<!-- vsm::bm25 -->
<g id="node1" class="node"><title>vsm::bm25</title>
<polygon fill="#fffaf3" stroke="black" points="68.8333,-31.5 16,-31.5 16,-0.5 74,-0.5 74,-26.3333 68.8333,-31.5"/>
<polyline fill="none" stroke="black" points="68.8333,-31.5 68.8333,-26.3333 "/>
<polyline fill="none" stroke="black" points="74,-26.3333 68.8333,-26.3333 "/>
<text text-anchor="start" x="18" y="-21.5" font-family="Helvetica,sans-Serif" font-weight="bold" font-size="10.00">bm25</text>
<text text-anchor="start" x="18" y="-6" font-family="Helvetica,sans-Serif" font-size="10.00" fill="forestgreen">+</text>
<text text-anchor="start" x="25" y="-6" font-family="Helvetica,sans-Serif" font-size="10.00">VSMIndex</text>
</g>
<!-- vsm::vsm -->
<g id="node2" class="node"><title>vsm::vsm</title>
<polygon fill="#fffaf3" stroke="black" points="84,-144 0,-144 0,-54 90,-54 90,-138 84,-144"/>
<polyline fill="none" stroke="black" points="84,-144 84,-138 "/>
<polyline fill="none" stroke="black" points="90,-138 84,-138 "/>
<text text-anchor="start" x="2" y="-134.5" font-family="Helvetica,sans-Serif" font-weight="bold" font-size="10.00">vsm</text>
<text text-anchor="start" x="2" y="-119" font-family="Helvetica,sans-Serif" font-size="10.00" fill="forestgreen">+</text>
<text text-anchor="start" x="9" y="-119" font-family="Helvetica,sans-Serif" font-size="10.00">Document</text>
<text text-anchor="start" x="2" y="-109" font-family="Helvetica,sans-Serif" font-size="10.00" fill="forestgreen">+</text>
<text text-anchor="start" x="9" y="-109" font-family="Helvetica,sans-Serif" font-size="10.00">FileIndex</text>
<text text-anchor="start" x="2" y="-99" font-family="Helvetica,sans-Serif" font-size="10.00" fill="forestgreen">+</text>
<text text-anchor="start" x="9" y="-99" font-family="Helvetica,sans-Serif" font-size="10.00">IndexMatch</text>
<text text-anchor="start" x="2" y="-89" font-family="Helvetica,sans-Serif" font-size="10.00" fill="forestgreen">+</text>
<text text-anchor="start" x="9" y="-89" font-family="Helvetica,sans-Serif" font-size="10.00">IndexMatchSorter</text>
<text text-anchor="start" x="2" y="-79" font-family="Helvetica,sans-Serif" font-size="10.00" fill="forestgreen">+</text>
<text text-anchor="start" x="9" y="-79" font-family="Helvetica,sans-Serif" font-size="10.00">StringIndex</text>
<text text-anchor="start" x="2" y="-69" font-family="Helvetica,sans-Serif" font-size="10.00" fill="forestgreen">+</text>
<text text-anchor="start" x="9" y="-69" font-family="Helvetica,sans-Serif" font-size="10.00">VSMIndex</text>
<text text-anchor="start" x="2" y="-59" font-family="Helvetica,sans-Serif" font-size="10.00" fill="forestgreen">+</text>
<text text-anchor="start" x="9" y="-59" font-family="Helvetica,sans-Serif" font-size="10.00">Vector</text>
</g>
<!-- vsm::bm25&#45;&gt;vsm::vsm -->
<g id="edge1" class="edge"><title>vsm::bm25&#45;&gt;vsm::vsm</title>
<path fill="none" stroke="black" stroke-width="0.5" stroke-dasharray="5,2" d="M45,-31.8566C45,-36.7807 45,-42.5638 45,-48.6258"/>
<polygon fill="black" stroke="black" stroke-width="0.5" points="45,-53.7709 42.7501,-48.7708 45,-51.2709 45.0001,-48.7709 45.0001,-48.7709 45.0001,-48.7709 45,-51.2709 47.2501,-48.7709 45,-53.7709 45,-53.7709"/>
</g>
</g>
</svg>
