<?xml version="1.0" encoding="UTF-8" standalone="no"?>
<!DOCTYPE svg PUBLIC "-//W3C//DTD SVG 1.1//EN"
 "http://www.w3.org/Graphics/SVG/1.1/DTD/svg11.dtd">
<!-- Generated by graphviz version 2.36.0 (20140111.2315)
 -->
<!-- Title: G Pages: 1 -->
<svg width="279pt" height="452pt"
 viewBox="0.00 0.00 279.00 452.00" xmlns="http://www.w3.org/2000/svg" xmlns:xlink="http://www.w3.org/1999/xlink">
<g id="graph0" class="graph" transform="scale(1 1) rotate(0) translate(4 448)">
<title>G</title>
<polygon fill="white" stroke="none" points="-4,4 -4,-448 275,-448 275,4 -4,4"/>
<!-- core&amp;gt; -->
<g id="node1" class="node"><title>core&amp;gt;</title>
<polygon fill="#fefef2" stroke="black" points="161.5,-190 158.5,-194 137.5,-194 134.5,-190 106.5,-190 106.5,-0 161.5,-0 161.5,-190"/>
<text text-anchor="start" x="109" y="-180.5" font-family="Helvetica,sans-Serif" font-weight="bold" font-size="10.00">core</text>
<text text-anchor="start" x="109" y="-165" font-family="Helvetica,sans-Serif" font-size="10.00" fill="forestgreen">+</text>
<text text-anchor="start" x="116" y="-165" font-family="Helvetica,sans-Serif" font-size="10.00">bitset</text>
<text text-anchor="start" x="109" y="-155" font-family="Helvetica,sans-Serif" font-size="10.00" fill="forestgreen">+</text>
<text text-anchor="start" x="116" y="-155" font-family="Helvetica,sans-Serif" font-size="10.00">bytes</text>
<text text-anchor="start" x="109" y="-145" font-family="Helvetica,sans-Serif" font-size="10.00" fill="forestgreen">+</text>
<text text-anchor="start" x="116" y="-145" font-family="Helvetica,sans-Serif" font-size="10.00">core</text>
<text text-anchor="start" x="109" y="-135" font-family="Helvetica,sans-Serif" font-size="10.00" fill="forestgreen">+</text>
<text text-anchor="start" x="116" y="-135" font-family="Helvetica,sans-Serif" font-size="10.00">environ</text>
<text text-anchor="start" x="109" y="-125" font-family="Helvetica,sans-Serif" font-size="10.00" fill="forestgreen">+</text>
<text text-anchor="start" x="116" y="-125" font-family="Helvetica,sans-Serif" font-size="10.00">error</text>
<text text-anchor="start" x="109" y="-115" font-family="Helvetica,sans-Serif" font-size="10.00" fill="forestgreen">+</text>
<text text-anchor="start" x="116" y="-115" font-family="Helvetica,sans-Serif" font-size="10.00">exec</text>
<text text-anchor="start" x="109" y="-105" font-family="Helvetica,sans-Serif" font-size="10.00" fill="forestgreen">+</text>
<text text-anchor="start" x="116" y="-105" font-family="Helvetica,sans-Serif" font-size="10.00">file</text>
<text text-anchor="start" x="109" y="-95" font-family="Helvetica,sans-Serif" font-size="10.00" fill="forestgreen">+</text>
<text text-anchor="start" x="116" y="-95" font-family="Helvetica,sans-Serif" font-size="10.00">fixed_ints</text>
<text text-anchor="start" x="109" y="-85" font-family="Helvetica,sans-Serif" font-size="10.00" fill="forestgreen">+</text>
<text text-anchor="start" x="116" y="-85" font-family="Helvetica,sans-Serif" font-size="10.00">gc</text>
<text text-anchor="start" x="109" y="-75" font-family="Helvetica,sans-Serif" font-size="10.00" fill="forestgreen">+</text>
<text text-anchor="start" x="116" y="-75" font-family="Helvetica,sans-Serif" font-size="10.00">kernel</text>
<text text-anchor="start" x="109" y="-65" font-family="Helvetica,sans-Serif" font-size="10.00" fill="forestgreen">+</text>
<text text-anchor="start" x="116" y="-65" font-family="Helvetica,sans-Serif" font-size="10.00">math</text>
<text text-anchor="start" x="109" y="-55" font-family="Helvetica,sans-Serif" font-size="10.00" fill="forestgreen">+</text>
<text text-anchor="start" x="116" y="-55" font-family="Helvetica,sans-Serif" font-size="10.00">numeric</text>
<text text-anchor="start" x="109" y="-45" font-family="Helvetica,sans-Serif" font-size="10.00" fill="forestgreen">+</text>
<text text-anchor="start" x="116" y="-45" font-family="Helvetica,sans-Serif" font-size="10.00">protocol</text>
<text text-anchor="start" x="109" y="-35" font-family="Helvetica,sans-Serif" font-size="10.00" fill="forestgreen">+</text>
<text text-anchor="start" x="116" y="-35" font-family="Helvetica,sans-Serif" font-size="10.00">queue</text>
<text text-anchor="start" x="109" y="-25" font-family="Helvetica,sans-Serif" font-size="10.00" fill="forestgreen">+</text>
<text text-anchor="start" x="116" y="-25" font-family="Helvetica,sans-Serif" font-size="10.00">re</text>
<text text-anchor="start" x="109" y="-15" font-family="Helvetica,sans-Serif" font-size="10.00" fill="forestgreen">+</text>
<text text-anchor="start" x="116" y="-15" font-family="Helvetica,sans-Serif" font-size="10.00">stream</text>
<text text-anchor="start" x="109" y="-5" font-family="Helvetica,sans-Serif" font-size="10.00" fill="forestgreen">+</text>
<text text-anchor="start" x="116" y="-5" font-family="Helvetica,sans-Serif" font-size="10.00">time</text>
</g>
<!-- core&amp;gt;codecs&amp;gt; -->
<g id="node2" class="node"><title>core&amp;gt;codecs&amp;gt;</title>
<polygon fill="#fefef2" stroke="black" points="64.5,-297 61.5,-301 40.5,-301 37.5,-297 -0.5,-297 -0.5,-237 64.5,-237 64.5,-297"/>
<text text-anchor="start" x="2" y="-287.5" font-family="Helvetica,sans-Serif" font-weight="bold" font-size="10.00">codecs</text>
<text text-anchor="start" x="2" y="-272" font-family="Helvetica,sans-Serif" font-size="10.00" fill="forestgreen">+</text>
<text text-anchor="start" x="9" y="-272" font-family="Helvetica,sans-Serif" font-size="10.00">codec_base</text>
<text text-anchor="start" x="2" y="-262" font-family="Helvetica,sans-Serif" font-size="10.00" fill="forestgreen">+</text>
<text text-anchor="start" x="9" y="-262" font-family="Helvetica,sans-Serif" font-size="10.00">codecs</text>
<text text-anchor="start" x="2" y="-252" font-family="Helvetica,sans-Serif" font-size="10.00" fill="forestgreen">+</text>
<text text-anchor="start" x="9" y="-252" font-family="Helvetica,sans-Serif" font-size="10.00">iso8859_1</text>
<text text-anchor="start" x="2" y="-242" font-family="Helvetica,sans-Serif" font-size="10.00" fill="forestgreen">+</text>
<text text-anchor="start" x="9" y="-242" font-family="Helvetica,sans-Serif" font-size="10.00">utf8</text>
</g>
<!-- core&amp;gt;&#45;&gt;core&amp;gt;codecs&amp;gt; -->
<g id="edge1" class="edge"><title>core&amp;gt;&#45;&gt;core&amp;gt;codecs&amp;gt;</title>
<path fill="none" stroke="black" stroke-width="0.5" stroke-dasharray="5,2" d="M106.577,-130.402C86.8151,-160.056 61.2835,-202.629 45.5773,-232.128"/>
<polygon fill="black" stroke="black" stroke-width="0.5" points="43.1433,-236.746 43.4841,-231.273 44.3089,-234.534 45.4746,-232.322 45.4746,-232.322 45.4746,-232.322 44.3089,-234.534 47.4651,-233.372 43.1433,-236.746 43.1433,-236.746"/>
</g>
<!-- core&amp;gt;collection&amp;gt; -->
<g id="node3" class="node"><title>core&amp;gt;collection&amp;gt;</title>
<polygon fill="#fefef2" stroke="black" points="181,-322 178,-326 157,-326 154,-322 87,-322 87,-212 181,-212 181,-322"/>
<text text-anchor="start" x="89" y="-312.5" font-family="Helvetica,sans-Serif" font-weight="bold" font-size="10.00">collection</text>
<text text-anchor="start" x="89" y="-297" font-family="Helvetica,sans-Serif" font-size="10.00" fill="forestgreen">+</text>
<text text-anchor="start" x="96" y="-297" font-family="Helvetica,sans-Serif" font-size="10.00">abstract_collection</text>
<text text-anchor="start" x="89" y="-287" font-family="Helvetica,sans-Serif" font-size="10.00" fill="forestgreen">+</text>
<text text-anchor="start" x="96" y="-287" font-family="Helvetica,sans-Serif" font-size="10.00">array</text>
<text text-anchor="start" x="89" y="-277" font-family="Helvetica,sans-Serif" font-size="10.00" fill="forestgreen">+</text>
<text text-anchor="start" x="96" y="-277" font-family="Helvetica,sans-Serif" font-size="10.00">circular_array</text>
<text text-anchor="start" x="89" y="-267" font-family="Helvetica,sans-Serif" font-size="10.00" fill="forestgreen">+</text>
<text text-anchor="start" x="96" y="-267" font-family="Helvetica,sans-Serif" font-size="10.00">collection</text>
<text text-anchor="start" x="89" y="-257" font-family="Helvetica,sans-Serif" font-size="10.00" fill="forestgreen">+</text>
<text text-anchor="start" x="96" y="-257" font-family="Helvetica,sans-Serif" font-size="10.00">hash_collection</text>
<text text-anchor="start" x="89" y="-247" font-family="Helvetica,sans-Serif" font-size="10.00" fill="forestgreen">+</text>
<text text-anchor="start" x="96" y="-247" font-family="Helvetica,sans-Serif" font-size="10.00">list</text>
<text text-anchor="start" x="89" y="-237" font-family="Helvetica,sans-Serif" font-size="10.00" fill="forestgreen">+</text>
<text text-anchor="start" x="96" y="-237" font-family="Helvetica,sans-Serif" font-size="10.00">range</text>
<text text-anchor="start" x="89" y="-227" font-family="Helvetica,sans-Serif" font-size="10.00" fill="forestgreen">+</text>
<text text-anchor="start" x="96" y="-227" font-family="Helvetica,sans-Serif" font-size="10.00">sorter</text>
<text text-anchor="start" x="89" y="-217" font-family="Helvetica,sans-Serif" font-size="10.00" fill="forestgreen">+</text>
<text text-anchor="start" x="96" y="-217" font-family="Helvetica,sans-Serif" font-size="10.00">union_find</text>
</g>
<!-- core&amp;gt;&#45;&gt;core&amp;gt;collection&amp;gt; -->
<g id="edge2" class="edge"><title>core&amp;gt;&#45;&gt;core&amp;gt;collection&amp;gt;</title>
<path fill="none" stroke="black" stroke-width="0.5" stroke-dasharray="5,2" d="M125.795,-190.446C125.849,-195.948 125.948,-201.397 126.095,-206.699"/>
<polygon fill="black" stroke="black" stroke-width="0.5" points="126.257,-211.948 123.853,-207.02 126.179,-209.449 126.102,-206.951 126.102,-206.951 126.102,-206.951 126.179,-209.449 128.351,-206.881 126.257,-211.948 126.257,-211.948"/>
</g>
<!-- core&amp;gt;text&amp;gt; -->
<g id="node4" class="node"><title>core&amp;gt;text&amp;gt;</title>
<polygon fill="#fefef2" stroke="black" points="271.5,-444 268.5,-448 247.5,-448 244.5,-444 180.5,-444 180.5,-344 271.5,-344 271.5,-444"/>
<text text-anchor="start" x="183" y="-434.5" font-family="Helvetica,sans-Serif" font-weight="bold" font-size="10.00">text</text>
<text text-anchor="start" x="183" y="-419" font-family="Helvetica,sans-Serif" font-size="10.00" fill="forestgreen">+</text>
<text text-anchor="start" x="190" y="-419" font-family="Helvetica,sans-Serif" font-size="10.00">abstract_text</text>
<text text-anchor="start" x="183" y="-409" font-family="Helvetica,sans-Serif" font-size="10.00" fill="forestgreen">+</text>
<text text-anchor="start" x="190" y="-409" font-family="Helvetica,sans-Serif" font-size="10.00">fixed_ints_text</text>
<text text-anchor="start" x="183" y="-399" font-family="Helvetica,sans-Serif" font-size="10.00" fill="forestgreen">+</text>
<text text-anchor="start" x="190" y="-399" font-family="Helvetica,sans-Serif" font-size="10.00">flat</text>
<text text-anchor="start" x="183" y="-389" font-family="Helvetica,sans-Serif" font-size="10.00" fill="forestgreen">+</text>
<text text-anchor="start" x="190" y="-389" font-family="Helvetica,sans-Serif" font-size="10.00">native</text>
<text text-anchor="start" x="183" y="-379" font-family="Helvetica,sans-Serif" font-size="10.00" fill="forestgreen">+</text>
<text text-anchor="start" x="190" y="-379" font-family="Helvetica,sans-Serif" font-size="10.00">ropes</text>
<text text-anchor="start" x="183" y="-369" font-family="Helvetica,sans-Serif" font-size="10.00" fill="forestgreen">+</text>
<text text-anchor="start" x="190" y="-369" font-family="Helvetica,sans-Serif" font-size="10.00">string_search</text>
<text text-anchor="start" x="183" y="-359" font-family="Helvetica,sans-Serif" font-size="10.00" fill="forestgreen">+</text>
<text text-anchor="start" x="190" y="-359" font-family="Helvetica,sans-Serif" font-size="10.00">test_abstract_text</text>
<text text-anchor="start" x="183" y="-349" font-family="Helvetica,sans-Serif" font-size="10.00" fill="forestgreen">+</text>
<text text-anchor="start" x="190" y="-349" font-family="Helvetica,sans-Serif" font-size="10.00">text</text>
</g>
<!-- core&amp;gt;&#45;&gt;core&amp;gt;text&amp;gt; -->
<g id="edge3" class="edge"><title>core&amp;gt;&#45;&gt;core&amp;gt;text&amp;gt;</title>
<path fill="none" stroke="black" stroke-width="0.5" stroke-dasharray="5,2" d="M161.325,-164.272C168.501,-179.633 175.649,-196.102 181,-212 194.901,-253.302 203.638,-301.931 210.429,-338.378"/>
<polygon fill="black" stroke="black" stroke-width="0.5" points="211.417,-343.664 208.286,-339.163 210.958,-341.207 210.498,-338.749 210.498,-338.749 210.498,-338.749 210.958,-341.207 212.71,-338.336 211.417,-343.664 211.417,-343.664"/>
</g>
<!-- core&amp;gt;codecs&amp;gt;&#45;&gt;core&amp;gt; -->
<g id="edge4" class="edge"><title>core&amp;gt;codecs&amp;gt;&#45;&gt;core&amp;gt;</title>
<path fill="none" stroke="black" stroke-width="0.5" stroke-dasharray="5,2" d="M55.9906,-236.703C70.378,-215.501 88.5899,-186.036 103.884,-159.546"/>
<polygon fill="black" stroke="black" stroke-width="0.5" points="106.508,-154.981 105.967,-160.437 105.262,-157.148 104.017,-159.316 104.017,-159.316 104.017,-159.316 105.262,-157.148 102.066,-158.195 106.508,-154.981 106.508,-154.981"/>
</g>
<!-- core&amp;gt;codecs&amp;gt;&#45;&gt;core&amp;gt;text&amp;gt; -->
<g id="edge5" class="edge"><title>core&amp;gt;codecs&amp;gt;&#45;&gt;core&amp;gt;text&amp;gt;</title>
<path fill="none" stroke="black" stroke-width="0.5" stroke-dasharray="5,2" d="M51.8095,-297.082C58.7426,-305.846 67.0518,-314.989 76,-322 106.032,-345.529 145.128,-363.713 175.876,-375.787"/>
<polygon fill="black" stroke="black" stroke-width="0.5" points="180.737,-377.672 175.261,-377.961 178.406,-376.768 176.075,-375.864 176.075,-375.864 176.075,-375.864 178.406,-376.768 176.889,-373.766 180.737,-377.672 180.737,-377.672"/>
</g>
<!-- core&amp;gt;collection&amp;gt;&#45;&gt;core&amp;gt; -->
<g id="edge6" class="edge"><title>core&amp;gt;collection&amp;gt;&#45;&gt;core&amp;gt;</title>
<path fill="none" stroke="black" stroke-width="0.5" stroke-dasharray="5,2" d="M141.743,-211.948C141.925,-206.647 142.057,-201.159 142.141,-195.586"/>
<polygon fill="black" stroke="black" stroke-width="0.5" points="142.205,-190.446 144.393,-195.473 142.174,-192.945 142.143,-195.445 142.143,-195.445 142.143,-195.445 142.174,-192.945 139.893,-195.417 142.205,-190.446 142.205,-190.446"/>
</g>
<!-- core&amp;gt;text&amp;gt;&#45;&gt;core&amp;gt; -->
<g id="edge7" class="edge"><title>core&amp;gt;text&amp;gt;&#45;&gt;core&amp;gt;</title>
<path fill="none" stroke="black" stroke-width="0.5" stroke-dasharray="5,2" d="M229.582,-343.664C226.485,-306.732 217.585,-255.333 203,-212 193.438,-183.592 178.137,-153.36 164.104,-130.884"/>
<polygon fill="black" stroke="black" stroke-width="0.5" points="161.316,-126.495 165.896,-129.51 162.657,-128.605 163.997,-130.716 163.997,-130.716 163.997,-130.716 162.657,-128.605 162.098,-131.922 161.316,-126.495 161.316,-126.495"/>
</g>
</g>
</svg>
