<?xml version="1.0" encoding="UTF-8" standalone="no"?>
<!DOCTYPE svg PUBLIC "-//W3C//DTD SVG 1.1//EN"
 "http://www.w3.org/Graphics/SVG/1.1/DTD/svg11.dtd">
<!-- Generated by graphviz version 2.36.0 (20140111.2315)
 -->
<!-- Title: G Pages: 1 -->
<svg width="487pt" height="702pt"
 viewBox="0.00 0.00 487.00 702.00" xmlns="http://www.w3.org/2000/svg" xmlns:xlink="http://www.w3.org/1999/xlink">
<g id="graph0" class="graph" transform="scale(1 1) rotate(0) translate(4 698)">
<title>G</title>
<polygon fill="white" stroke="none" points="-4,4 -4,-698 483,-698 483,4 -4,4"/>
<!-- ios::platform -->
<g id="node1" class="node"><title>ios::platform</title>
<polygon fill="#fffaf3" stroke="black" points="146.833,-694 104.5,-694 104.5,-678 149.5,-678 149.5,-691.333 146.833,-694"/>
<polyline fill="none" stroke="black" points="146.833,-694 146.833,-691.333 "/>
<polyline fill="none" stroke="black" points="149.5,-691.333 146.833,-691.333 "/>
<text text-anchor="start" x="107" y="-684.5" font-family="Helvetica,sans-Serif" font-weight="bold" font-size="10.00">platform</text>
</g>
<!-- ios::ios -->
<g id="node2" class="node"><title>ios::ios</title>
<polygon fill="#fffaf3" stroke="black" points="147,-574 101,-574 101,-524 153,-524 153,-568 147,-574"/>
<polyline fill="none" stroke="black" points="147,-574 147,-568 "/>
<polyline fill="none" stroke="black" points="153,-568 147,-568 "/>
<text text-anchor="start" x="103" y="-564.5" font-family="Helvetica,sans-Serif" font-weight="bold" font-size="10.00">ios</text>
<text text-anchor="start" x="103" y="-549" font-family="Helvetica,sans-Serif" font-size="10.00" fill="forestgreen">+</text>
<text text-anchor="start" x="110" y="-549" font-family="Helvetica,sans-Serif" font-size="10.00">NSString</text>
<text text-anchor="start" x="103" y="-539" font-family="Helvetica,sans-Serif" font-size="10.00" fill="forestgreen">+</text>
<text text-anchor="start" x="110" y="-539" font-family="Helvetica,sans-Serif" font-size="10.00">Sys</text>
<text text-anchor="start" x="103" y="-529" font-family="Helvetica,sans-Serif" font-size="10.00" fill="forestgreen">+</text>
<text text-anchor="start" x="110" y="-529" font-family="Helvetica,sans-Serif" font-size="10.00">Text</text>
</g>
<!-- ios::app -->
<g id="node6" class="node"><title>ios::app</title>
<polygon fill="#fffaf3" stroke="black" points="156.5,-656 91.5,-656 91.5,-596 162.5,-596 162.5,-650 156.5,-656"/>
<polyline fill="none" stroke="black" points="156.5,-656 156.5,-650 "/>
<polyline fill="none" stroke="black" points="162.5,-650 156.5,-650 "/>
<text text-anchor="start" x="94" y="-646.5" font-family="Helvetica,sans-Serif" font-weight="bold" font-size="10.00">app</text>
<text text-anchor="start" x="94" y="-631" font-family="Helvetica,sans-Serif" font-size="10.00" fill="forestgreen">+</text>
<text text-anchor="start" x="101" y="-631" font-family="Helvetica,sans-Serif" font-size="10.00">App</text>
<text text-anchor="start" x="94" y="-621" font-family="Helvetica,sans-Serif" font-size="10.00" fill="forestgreen">+</text>
<text text-anchor="start" x="101" y="-621" font-family="Helvetica,sans-Serif" font-size="10.00">AppDelegate</text>
<text text-anchor="start" x="94" y="-611" font-family="Helvetica,sans-Serif" font-size="10.00" fill="forestgreen">+</text>
<text text-anchor="start" x="101" y="-611" font-family="Helvetica,sans-Serif" font-size="10.00">Sys</text>
<text text-anchor="start" x="94" y="-601" font-family="Helvetica,sans-Serif" font-size="10.00" fill="forestgreen">+</text>
<text text-anchor="start" x="101" y="-601" font-family="Helvetica,sans-Serif" font-size="10.00">UIApplication</text>
</g>
<!-- ios::ios&#45;&gt;ios::app -->
<g id="edge1" class="edge"><title>ios::ios&#45;&gt;ios::app</title>
<path fill="none" stroke="black" stroke-width="0.5" stroke-dasharray="5,2" d="M127,-574.143C127,-579.455 127,-585.177 127,-590.8"/>
<polygon fill="black" stroke="black" stroke-width="0.5" points="127,-595.921 124.75,-590.921 127,-593.421 127,-590.921 127,-590.921 127,-590.921 127,-593.421 129.25,-590.921 127,-595.921 127,-595.921"/>
</g>
<!-- ios::http_request -->
<g id="node3" class="node"><title>ios::http_request</title>
<polygon fill="#fffaf3" stroke="black" points="56.5,-417 -0.5,-417 -0.5,-367 62.5,-367 62.5,-411 56.5,-417"/>
<polyline fill="none" stroke="black" points="56.5,-417 56.5,-411 "/>
<polyline fill="none" stroke="black" points="62.5,-411 56.5,-411 "/>
<text text-anchor="start" x="2" y="-407.5" font-family="Helvetica,sans-Serif" font-weight="bold" font-size="10.00">http_request</text>
<text text-anchor="start" x="2" y="-392" font-family="Helvetica,sans-Serif" font-size="10.00" fill="forestgreen">+</text>
<text text-anchor="start" x="9" y="-392" font-family="Helvetica,sans-Serif" font-size="10.00">App</text>
<text text-anchor="start" x="2" y="-382" font-family="Helvetica,sans-Serif" font-size="10.00" fill="forestgreen">+</text>
<text text-anchor="start" x="9" y="-382" font-family="Helvetica,sans-Serif" font-size="10.00">NSString</text>
<text text-anchor="start" x="2" y="-372" font-family="Helvetica,sans-Serif" font-size="10.00" fill="forestgreen">+</text>
<text text-anchor="start" x="9" y="-372" font-family="Helvetica,sans-Serif" font-size="10.00">Text</text>
</g>
<!-- ios::http_request&#45;&gt;ios::ios -->
<g id="edge2" class="edge"><title>ios::http_request&#45;&gt;ios::ios</title>
<path fill="none" stroke="black" stroke-width="0.5" stroke-dasharray="5,2" d="M36.9169,-417.156C43.4048,-440.392 55.4327,-475.764 74,-502 80.2904,-510.889 88.6485,-519.177 96.8638,-526.202"/>
<polygon fill="black" stroke="black" stroke-width="0.5" points="100.876,-529.546 95.5943,-528.073 98.9553,-527.945 97.0349,-526.345 97.0349,-526.345 97.0349,-526.345 98.9553,-527.945 98.4755,-524.616 100.876,-529.546 100.876,-529.546"/>
</g>
<!-- ios::assets -->
<g id="node4" class="node"><title>ios::assets</title>
<polygon fill="#fffaf3" stroke="black" points="386,-412 334,-412 334,-372 392,-372 392,-406 386,-412"/>
<polyline fill="none" stroke="black" points="386,-412 386,-406 "/>
<polyline fill="none" stroke="black" points="392,-406 386,-406 "/>
<text text-anchor="start" x="336" y="-402.5" font-family="Helvetica,sans-Serif" font-weight="bold" font-size="10.00">assets</text>
<text text-anchor="start" x="336" y="-387" font-family="Helvetica,sans-Serif" font-size="10.00" fill="forestgreen">+</text>
<text text-anchor="start" x="343" y="-387" font-family="Helvetica,sans-Serif" font-size="10.00">Sys</text>
<text text-anchor="start" x="336" y="-377" font-family="Helvetica,sans-Serif" font-size="10.00" fill="forestgreen">+</text>
<text text-anchor="start" x="343" y="-377" font-family="Helvetica,sans-Serif" font-size="10.00">TextAsset</text>
</g>
<!-- ios::data_store -->
<g id="node5" class="node"><title>ios::data_store</title>
<polygon fill="#fffaf3" stroke="black" points="474.333,-145.5 422.5,-145.5 422.5,-114.5 479.5,-114.5 479.5,-140.333 474.333,-145.5"/>
<polyline fill="none" stroke="black" points="474.333,-145.5 474.333,-140.333 "/>
<polyline fill="none" stroke="black" points="479.5,-140.333 474.333,-140.333 "/>
<text text-anchor="start" x="425" y="-135.5" font-family="Helvetica,sans-Serif" font-weight="bold" font-size="10.00">data_store</text>
<text text-anchor="start" x="425" y="-120" font-family="Helvetica,sans-Serif" font-size="10.00" fill="forestgreen">+</text>
<text text-anchor="start" x="432" y="-120" font-family="Helvetica,sans-Serif" font-size="10.00">DataStore</text>
</g>
<!-- ios::app&#45;&gt;ios::platform -->
<g id="edge3" class="edge"><title>ios::app&#45;&gt;ios::platform</title>
<path fill="none" stroke="black" stroke-width="0.5" stroke-dasharray="5,2" d="M127,-656C127,-661.862 127,-667.725 127,-672.629"/>
<polygon fill="black" stroke="black" stroke-width="0.5" points="127,-677.888 124.75,-672.888 127,-675.388 127,-672.888 127,-672.888 127,-672.888 127,-675.388 129.25,-672.888 127,-677.888 127,-677.888"/>
</g>
<!-- ios::audio -->
<g id="node7" class="node"><title>ios::audio</title>
<polygon fill="#fffaf3" stroke="black" points="395.333,-145.5 325.5,-145.5 325.5,-114.5 400.5,-114.5 400.5,-140.333 395.333,-145.5"/>
<polyline fill="none" stroke="black" points="395.333,-145.5 395.333,-140.333 "/>
<polyline fill="none" stroke="black" points="400.5,-140.333 395.333,-140.333 "/>
<text text-anchor="start" x="328" y="-135.5" font-family="Helvetica,sans-Serif" font-weight="bold" font-size="10.00">audio</text>
<text text-anchor="start" x="328" y="-120" font-family="Helvetica,sans-Serif" font-size="10.00" fill="forestgreen">+</text>
<text text-anchor="start" x="335" y="-120" font-family="Helvetica,sans-Serif" font-size="10.00">PlayableAudio</text>
</g>
<!-- ios::audio&#45;&gt;ios::assets -->
<g id="edge4" class="edge"><title>ios::audio&#45;&gt;ios::assets</title>
<path fill="none" stroke="black" stroke-width="0.5" stroke-dasharray="5,2" d="M363,-145.724C363,-188.513 363,-313.175 363,-366.423"/>
<polygon fill="black" stroke="black" stroke-width="0.5" points="363,-371.65 360.75,-366.65 363,-369.15 363,-366.65 363,-366.65 363,-366.65 363,-369.15 365.25,-366.65 363,-371.65 363,-371.65"/>
</g>
<!-- ios::glkit -->
<g id="node8" class="node"><title>ios::glkit</title>
<polygon fill="#fffaf3" stroke="black" points="163.5,-422 84.5,-422 84.5,-362 169.5,-362 169.5,-416 163.5,-422"/>
<polyline fill="none" stroke="black" points="163.5,-422 163.5,-416 "/>
<polyline fill="none" stroke="black" points="169.5,-416 163.5,-416 "/>
<text text-anchor="start" x="87" y="-412.5" font-family="Helvetica,sans-Serif" font-weight="bold" font-size="10.00">glkit</text>
<text text-anchor="start" x="87" y="-397" font-family="Helvetica,sans-Serif" font-size="10.00" fill="forestgreen">+</text>
<text text-anchor="start" x="94" y="-397" font-family="Helvetica,sans-Serif" font-size="10.00">NSSet_UITouch</text>
<text text-anchor="start" x="87" y="-387" font-family="Helvetica,sans-Serif" font-size="10.00" fill="forestgreen">+</text>
<text text-anchor="start" x="94" y="-387" font-family="Helvetica,sans-Serif" font-size="10.00">NitGLKView</text>
<text text-anchor="start" x="87" y="-377" font-family="Helvetica,sans-Serif" font-size="10.00" fill="forestgreen">+</text>
<text text-anchor="start" x="94" y="-377" font-family="Helvetica,sans-Serif" font-size="10.00">UIEvent</text>
<text text-anchor="start" x="87" y="-367" font-family="Helvetica,sans-Serif" font-size="10.00" fill="forestgreen">+</text>
<text text-anchor="start" x="94" y="-367" font-family="Helvetica,sans-Serif" font-size="10.00">UITouch</text>
</g>
<!-- ios::glkit&#45;&gt;ios::ios -->
<g id="edge5" class="edge"><title>ios::glkit&#45;&gt;ios::ios</title>
<path fill="none" stroke="black" stroke-width="0.5" stroke-dasharray="5,2" d="M127,-422.154C127,-449.728 127,-490.897 127,-518.563"/>
<polygon fill="black" stroke="black" stroke-width="0.5" points="127,-523.565 124.75,-518.565 127,-521.065 127,-518.565 127,-518.565 127,-518.565 127,-521.065 129.25,-518.565 127,-523.565 127,-523.565"/>
</g>
<!-- ios::uikit -->
<g id="node9" class="node"><title>ios::uikit</title>
<polygon fill="#fffaf3" stroke="black" points="306.5,-502 191.5,-502 191.5,-282 312.5,-282 312.5,-496 306.5,-502"/>
<polyline fill="none" stroke="black" points="306.5,-502 306.5,-496 "/>
<polyline fill="none" stroke="black" points="312.5,-496 306.5,-496 "/>
<text text-anchor="start" x="194" y="-492.5" font-family="Helvetica,sans-Serif" font-weight="bold" font-size="10.00">uikit</text>
<text text-anchor="start" x="194" y="-477" font-family="Helvetica,sans-Serif" font-size="10.00" fill="forestgreen">+</text>
<text text-anchor="start" x="201" y="-477" font-family="Helvetica,sans-Serif" font-size="10.00">UIButton</text>
<text text-anchor="start" x="194" y="-467" font-family="Helvetica,sans-Serif" font-size="10.00" fill="forestgreen">+</text>
<text text-anchor="start" x="201" y="-467" font-family="Helvetica,sans-Serif" font-size="10.00">UIButtonType</text>
<text text-anchor="start" x="194" y="-457" font-family="Helvetica,sans-Serif" font-size="10.00" fill="forestgreen">+</text>
<text text-anchor="start" x="201" y="-457" font-family="Helvetica,sans-Serif" font-size="10.00">UIColor</text>
<text text-anchor="start" x="194" y="-447" font-family="Helvetica,sans-Serif" font-size="10.00" fill="forestgreen">+</text>
<text text-anchor="start" x="201" y="-447" font-family="Helvetica,sans-Serif" font-size="10.00">UIControl</text>
<text text-anchor="start" x="194" y="-437" font-family="Helvetica,sans-Serif" font-size="10.00" fill="forestgreen">+</text>
<text text-anchor="start" x="201" y="-437" font-family="Helvetica,sans-Serif" font-size="10.00">UILabel</text>
<text text-anchor="start" x="194" y="-427" font-family="Helvetica,sans-Serif" font-size="10.00" fill="forestgreen">+</text>
<text text-anchor="start" x="201" y="-427" font-family="Helvetica,sans-Serif" font-size="10.00">UILayoutConstraintAxis</text>
<text text-anchor="start" x="194" y="-417" font-family="Helvetica,sans-Serif" font-size="10.00" fill="forestgreen">+</text>
<text text-anchor="start" x="201" y="-417" font-family="Helvetica,sans-Serif" font-size="10.00">UIScrollView</text>
<text text-anchor="start" x="194" y="-407" font-family="Helvetica,sans-Serif" font-size="10.00" fill="forestgreen">+</text>
<text text-anchor="start" x="201" y="-407" font-family="Helvetica,sans-Serif" font-size="10.00">UIStackView</text>
<text text-anchor="start" x="194" y="-397" font-family="Helvetica,sans-Serif" font-size="10.00" fill="forestgreen">+</text>
<text text-anchor="start" x="201" y="-397" font-family="Helvetica,sans-Serif" font-size="10.00">UIStackViewAlignment</text>
<text text-anchor="start" x="194" y="-387" font-family="Helvetica,sans-Serif" font-size="10.00" fill="forestgreen">+</text>
<text text-anchor="start" x="201" y="-387" font-family="Helvetica,sans-Serif" font-size="10.00">UIStackViewDistribution</text>
<text text-anchor="start" x="194" y="-377" font-family="Helvetica,sans-Serif" font-size="10.00" fill="forestgreen">+</text>
<text text-anchor="start" x="201" y="-377" font-family="Helvetica,sans-Serif" font-size="10.00">UISwitch</text>
<text text-anchor="start" x="194" y="-367" font-family="Helvetica,sans-Serif" font-size="10.00" fill="forestgreen">+</text>
<text text-anchor="start" x="201" y="-367" font-family="Helvetica,sans-Serif" font-size="10.00">UITableView</text>
<text text-anchor="start" x="194" y="-357" font-family="Helvetica,sans-Serif" font-size="10.00" fill="forestgreen">+</text>
<text text-anchor="start" x="201" y="-357" font-family="Helvetica,sans-Serif" font-size="10.00">UITableViewCell</text>
<text text-anchor="start" x="194" y="-347" font-family="Helvetica,sans-Serif" font-size="10.00" fill="forestgreen">+</text>
<text text-anchor="start" x="201" y="-347" font-family="Helvetica,sans-Serif" font-size="10.00">UITableViewDataSource</text>
<text text-anchor="start" x="194" y="-337" font-family="Helvetica,sans-Serif" font-size="10.00" fill="forestgreen">+</text>
<text text-anchor="start" x="201" y="-337" font-family="Helvetica,sans-Serif" font-size="10.00">UITableViewDelegate</text>
<text text-anchor="start" x="194" y="-327" font-family="Helvetica,sans-Serif" font-size="10.00" fill="forestgreen">+</text>
<text text-anchor="start" x="201" y="-327" font-family="Helvetica,sans-Serif" font-size="10.00">UITableViewStyle</text>
<text text-anchor="start" x="194" y="-317" font-family="Helvetica,sans-Serif" font-size="10.00" fill="forestgreen">+</text>
<text text-anchor="start" x="201" y="-317" font-family="Helvetica,sans-Serif" font-size="10.00">UITextField</text>
<text text-anchor="start" x="194" y="-307" font-family="Helvetica,sans-Serif" font-size="10.00" fill="forestgreen">+</text>
<text text-anchor="start" x="201" y="-307" font-family="Helvetica,sans-Serif" font-size="10.00">UIView</text>
<text text-anchor="start" x="194" y="-297" font-family="Helvetica,sans-Serif" font-size="10.00" fill="forestgreen">+</text>
<text text-anchor="start" x="201" y="-297" font-family="Helvetica,sans-Serif" font-size="10.00">UIViewController</text>
<text text-anchor="start" x="194" y="-287" font-family="Helvetica,sans-Serif" font-size="10.00" fill="forestgreen">+</text>
<text text-anchor="start" x="201" y="-287" font-family="Helvetica,sans-Serif" font-size="10.00">UIWindow</text>
</g>
<!-- ios::uikit&#45;&gt;ios::ios -->
<g id="edge6" class="edge"><title>ios::uikit&#45;&gt;ios::ios</title>
<path fill="none" stroke="black" stroke-width="0.5" stroke-dasharray="5,2" d="M191.708,-487.843C187.876,-492.73 183.962,-497.481 180,-502 173.097,-509.873 164.856,-517.643 156.953,-524.494"/>
<polygon fill="black" stroke="black" stroke-width="0.5" points="153.108,-527.779 155.448,-522.82 155.009,-526.155 156.91,-524.531 156.91,-524.531 156.91,-524.531 155.009,-526.155 158.371,-526.241 153.108,-527.779 153.108,-527.779"/>
</g>
<!-- ios::ui -->
<g id="node10" class="node"><title>ios::ui</title>
<polygon fill="#fffaf3" stroke="black" points="291.5,-260 206.5,-260 206.5,-0 297.5,-0 297.5,-254 291.5,-260"/>
<polyline fill="none" stroke="black" points="291.5,-260 291.5,-254 "/>
<polyline fill="none" stroke="black" points="297.5,-254 291.5,-254 "/>
<text text-anchor="start" x="209" y="-250.5" font-family="Helvetica,sans-Serif" font-weight="bold" font-size="10.00">ui</text>
<text text-anchor="start" x="209" y="-235" font-family="Helvetica,sans-Serif" font-size="10.00" fill="forestgreen">+</text>
<text text-anchor="start" x="216" y="-235" font-family="Helvetica,sans-Serif" font-size="10.00">App</text>
<text text-anchor="start" x="209" y="-225" font-family="Helvetica,sans-Serif" font-size="10.00" fill="forestgreen">+</text>
<text text-anchor="start" x="216" y="-225" font-family="Helvetica,sans-Serif" font-size="10.00">AppDelegate</text>
<text text-anchor="start" x="209" y="-215" font-family="Helvetica,sans-Serif" font-size="10.00" fill="forestgreen">+</text>
<text text-anchor="start" x="216" y="-215" font-family="Helvetica,sans-Serif" font-size="10.00">Button</text>
<text text-anchor="start" x="209" y="-205" font-family="Helvetica,sans-Serif" font-size="10.00" fill="forestgreen">+</text>
<text text-anchor="start" x="216" y="-205" font-family="Helvetica,sans-Serif" font-size="10.00">CheckBox</text>
<text text-anchor="start" x="209" y="-195" font-family="Helvetica,sans-Serif" font-size="10.00" fill="forestgreen">+</text>
<text text-anchor="start" x="216" y="-195" font-family="Helvetica,sans-Serif" font-size="10.00">CompositeControl</text>
<text text-anchor="start" x="209" y="-185" font-family="Helvetica,sans-Serif" font-size="10.00" fill="forestgreen">+</text>
<text text-anchor="start" x="216" y="-185" font-family="Helvetica,sans-Serif" font-size="10.00">Control</text>
<text text-anchor="start" x="209" y="-175" font-family="Helvetica,sans-Serif" font-size="10.00" fill="forestgreen">+</text>
<text text-anchor="start" x="216" y="-175" font-family="Helvetica,sans-Serif" font-size="10.00">HorizontalLayout</text>
<text text-anchor="start" x="209" y="-165" font-family="Helvetica,sans-Serif" font-size="10.00" fill="forestgreen">+</text>
<text text-anchor="start" x="216" y="-165" font-family="Helvetica,sans-Serif" font-size="10.00">Label</text>
<text text-anchor="start" x="209" y="-155" font-family="Helvetica,sans-Serif" font-size="10.00" fill="forestgreen">+</text>
<text text-anchor="start" x="216" y="-155" font-family="Helvetica,sans-Serif" font-size="10.00">Layout</text>
<text text-anchor="start" x="209" y="-145" font-family="Helvetica,sans-Serif" font-size="10.00" fill="forestgreen">+</text>
<text text-anchor="start" x="216" y="-145" font-family="Helvetica,sans-Serif" font-size="10.00">ListLayout</text>
<text text-anchor="start" x="209" y="-135" font-family="Helvetica,sans-Serif" font-size="10.00" fill="forestgreen">+</text>
<text text-anchor="start" x="216" y="-135" font-family="Helvetica,sans-Serif" font-size="10.00">NSString</text>
<text text-anchor="start" x="209" y="-125" font-family="Helvetica,sans-Serif" font-size="10.00" fill="forestgreen">+</text>
<text text-anchor="start" x="216" y="-125" font-family="Helvetica,sans-Serif" font-size="10.00">NitViewController</text>
<text text-anchor="start" x="209" y="-115" font-family="Helvetica,sans-Serif" font-size="10.00" fill="forestgreen">+</text>
<text text-anchor="start" x="216" y="-115" font-family="Helvetica,sans-Serif" font-size="10.00">TableView</text>
<text text-anchor="start" x="209" y="-105" font-family="Helvetica,sans-Serif" font-size="10.00" fill="forestgreen">+</text>
<text text-anchor="start" x="216" y="-105" font-family="Helvetica,sans-Serif" font-size="10.00">Text</text>
<text text-anchor="start" x="209" y="-95" font-family="Helvetica,sans-Serif" font-size="10.00" fill="forestgreen">+</text>
<text text-anchor="start" x="216" y="-95" font-family="Helvetica,sans-Serif" font-size="10.00">TextInput</text>
<text text-anchor="start" x="209" y="-85" font-family="Helvetica,sans-Serif" font-size="10.00" fill="forestgreen">+</text>
<text text-anchor="start" x="216" y="-85" font-family="Helvetica,sans-Serif" font-size="10.00">TextView</text>
<text text-anchor="start" x="209" y="-75" font-family="Helvetica,sans-Serif" font-size="10.00" fill="forestgreen">+</text>
<text text-anchor="start" x="216" y="-75" font-family="Helvetica,sans-Serif" font-size="10.00">UIButton</text>
<text text-anchor="start" x="209" y="-65" font-family="Helvetica,sans-Serif" font-size="10.00" fill="forestgreen">+</text>
<text text-anchor="start" x="216" y="-65" font-family="Helvetica,sans-Serif" font-size="10.00">UILabel</text>
<text text-anchor="start" x="209" y="-55" font-family="Helvetica,sans-Serif" font-size="10.00" fill="forestgreen">+</text>
<text text-anchor="start" x="216" y="-55" font-family="Helvetica,sans-Serif" font-size="10.00">UISwitch</text>
<text text-anchor="start" x="209" y="-45" font-family="Helvetica,sans-Serif" font-size="10.00" fill="forestgreen">+</text>
<text text-anchor="start" x="216" y="-45" font-family="Helvetica,sans-Serif" font-size="10.00">UITableView</text>
<text text-anchor="start" x="209" y="-35" font-family="Helvetica,sans-Serif" font-size="10.00" fill="forestgreen">+</text>
<text text-anchor="start" x="216" y="-35" font-family="Helvetica,sans-Serif" font-size="10.00">UITextField</text>
<text text-anchor="start" x="209" y="-25" font-family="Helvetica,sans-Serif" font-size="10.00" fill="forestgreen">+</text>
<text text-anchor="start" x="216" y="-25" font-family="Helvetica,sans-Serif" font-size="10.00">VerticalLayout</text>
<text text-anchor="start" x="209" y="-15" font-family="Helvetica,sans-Serif" font-size="10.00" fill="forestgreen">+</text>
<text text-anchor="start" x="216" y="-15" font-family="Helvetica,sans-Serif" font-size="10.00">View</text>
<text text-anchor="start" x="209" y="-5" font-family="Helvetica,sans-Serif" font-size="10.00" fill="forestgreen">+</text>
<text text-anchor="start" x="216" y="-5" font-family="Helvetica,sans-Serif" font-size="10.00">Window</text>
</g>
<!-- ios::ui&#45;&gt;ios::uikit -->
<g id="edge7" class="edge"><title>ios::ui&#45;&gt;ios::uikit</title>
<path fill="none" stroke="black" stroke-width="0.5" stroke-dasharray="5,2" d="M252,-260.238C252,-265.8 252,-271.364 252,-276.889"/>
<polygon fill="black" stroke="black" stroke-width="0.5" points="252,-281.951 249.75,-276.95 252,-279.451 252,-276.951 252,-276.951 252,-276.951 252,-279.451 254.25,-276.951 252,-281.951 252,-281.951"/>
</g>
</g>
</svg>
