<?xml version="1.0" encoding="UTF-8" standalone="no"?>
<!DOCTYPE svg PUBLIC "-//W3C//DTD SVG 1.1//EN"
 "http://www.w3.org/Graphics/SVG/1.1/DTD/svg11.dtd">
<!-- Generated by graphviz version 2.36.0 (20140111.2315)
 -->
<!-- Title: G Pages: 1 -->
<svg width="88pt" height="130pt"
 viewBox="0.00 0.00 88.00 130.00" xmlns="http://www.w3.org/2000/svg" xmlns:xlink="http://www.w3.org/1999/xlink">
<g id="graph0" class="graph" transform="scale(1 1) rotate(0) translate(4 126)">
<title>G</title>
<polygon fill="white" stroke="none" points="-4,4 -4,-126 84,-126 84,4 -4,4"/>
<!-- graph::digraph -->
<g id="node1" class="node"><title>graph::digraph</title>
<polygon fill="#fffaf3" stroke="black" points="74.5,-122 -0.5,-122 -0.5,-62 80.5,-62 80.5,-116 74.5,-122"/>
<polyline fill="none" stroke="black" points="74.5,-122 74.5,-116 "/>
<polyline fill="none" stroke="black" points="80.5,-116 74.5,-116 "/>
<text text-anchor="start" x="2" y="-112.5" font-family="Helvetica,sans-Serif" font-weight="bold" font-size="10.00">digraph</text>
<text text-anchor="start" x="2" y="-97" font-family="Helvetica,sans-Serif" font-size="10.00" fill="forestgreen">+</text>
<text text-anchor="start" x="9" y="-97" font-family="Helvetica,sans-Serif" font-size="10.00">ArcsIterator</text>
<text text-anchor="start" x="2" y="-87" font-family="Helvetica,sans-Serif" font-size="10.00" fill="forestgreen">+</text>
<text text-anchor="start" x="9" y="-87" font-family="Helvetica,sans-Serif" font-size="10.00">Digraph</text>
<text text-anchor="start" x="2" y="-77" font-family="Helvetica,sans-Serif" font-size="10.00" fill="forestgreen">+</text>
<text text-anchor="start" x="9" y="-77" font-family="Helvetica,sans-Serif" font-size="10.00">HashDigraph</text>
<text text-anchor="start" x="2" y="-67" font-family="Helvetica,sans-Serif" font-size="10.00" fill="forestgreen">+</text>
<text text-anchor="start" x="9" y="-67" font-family="Helvetica,sans-Serif" font-size="10.00">MutableDigraph</text>
</g>
<!-- graph::pagerank -->
<g id="node2" class="node"><title>graph::pagerank</title>
<polygon fill="#fffaf3" stroke="black" points="58,-40 16,-40 16,-0 64,-0 64,-34 58,-40"/>
<polyline fill="none" stroke="black" points="58,-40 58,-34 "/>
<polyline fill="none" stroke="black" points="64,-34 58,-34 "/>
<text text-anchor="start" x="18" y="-30.5" font-family="Helvetica,sans-Serif" font-weight="bold" font-size="10.00">pagerank</text>
<text text-anchor="start" x="18" y="-15" font-family="Helvetica,sans-Serif" font-size="10.00" fill="forestgreen">+</text>
<text text-anchor="start" x="25" y="-15" font-family="Helvetica,sans-Serif" font-size="10.00">Digraph</text>
<text text-anchor="start" x="18" y="-5" font-family="Helvetica,sans-Serif" font-size="10.00" fill="forestgreen">+</text>
<text text-anchor="start" x="25" y="-5" font-family="Helvetica,sans-Serif" font-size="10.00">PRMap</text>
</g>
<!-- graph::pagerank&#45;&gt;graph::digraph -->
<g id="edge1" class="edge"><title>graph::pagerank&#45;&gt;graph::digraph</title>
<path fill="none" stroke="black" stroke-width="0.5" stroke-dasharray="5,2" d="M40,-40.1278C40,-45.2725 40,-50.9978 40,-56.6983"/>
<polygon fill="black" stroke="black" stroke-width="0.5" points="40,-61.9092 37.7501,-56.9091 40,-59.4092 40.0001,-56.9092 40.0001,-56.9092 40.0001,-56.9092 40,-59.4092 42.2501,-56.9092 40,-61.9092 40,-61.9092"/>
</g>
</g>
</svg>
