<?xml version="1.0" encoding="UTF-8" standalone="no"?>
<!DOCTYPE svg PUBLIC "-//W3C//DTD SVG 1.1//EN"
 "http://www.w3.org/Graphics/SVG/1.1/DTD/svg11.dtd">
<!-- Generated by graphviz version 2.36.0 (20140111.2315)
 -->
<!-- Title: G Pages: 1 -->
<svg width="90pt" height="190pt"
 viewBox="0.00 0.00 90.00 190.00" xmlns="http://www.w3.org/2000/svg" xmlns:xlink="http://www.w3.org/1999/xlink">
<g id="graph0" class="graph" transform="scale(1 1) rotate(0) translate(4 186)">
<title>G</title>
<polygon fill="white" stroke="none" points="-4,4 -4,-186 86,-186 86,4 -4,4"/>
<!-- gtk&amp;gt; -->
<g id="node1" class="node"><title>gtk&amp;gt;</title>
<polygon fill="#fefef2" stroke="black" points="60.5,-60 57.5,-64 36.5,-64 33.5,-60 21.5,-60 21.5,-7.10543e-15 60.5,-7.10543e-15 60.5,-60"/>
<text text-anchor="start" x="24" y="-50.5" font-family="Helvetica,sans-Serif" font-weight="bold" font-size="10.00">gtk</text>
<text text-anchor="start" x="24" y="-35" font-family="Helvetica,sans-Serif" font-size="10.00" fill="forestgreen">+</text>
<text text-anchor="start" x="31" y="-35" font-family="Helvetica,sans-Serif" font-size="10.00">gtk</text>
<text text-anchor="start" x="24" y="-25" font-family="Helvetica,sans-Serif" font-size="10.00" fill="forestgreen">+</text>
<text text-anchor="start" x="31" y="-25" font-family="Helvetica,sans-Serif" font-size="10.00">v3_10</text>
<text text-anchor="start" x="24" y="-15" font-family="Helvetica,sans-Serif" font-size="10.00" fill="forestgreen">+</text>
<text text-anchor="start" x="31" y="-15" font-family="Helvetica,sans-Serif" font-size="10.00">v3_6</text>
<text text-anchor="start" x="24" y="-5" font-family="Helvetica,sans-Serif" font-size="10.00" fill="forestgreen">+</text>
<text text-anchor="start" x="31" y="-5" font-family="Helvetica,sans-Serif" font-size="10.00">v3_8</text>
</g>
<!-- gtk&amp;gt;v3_4&amp;gt; -->
<g id="node2" class="node"><title>gtk&amp;gt;v3_4&amp;gt;</title>
<polygon fill="#fefef2" stroke="black" points="83,-182 80,-186 59,-186 56,-182 -1,-182 -1,-82 83,-82 83,-182"/>
<text text-anchor="start" x="1" y="-172.5" font-family="Helvetica,sans-Serif" font-weight="bold" font-size="10.00">v3_4</text>
<text text-anchor="start" x="1" y="-157" font-family="Helvetica,sans-Serif" font-size="10.00" fill="forestgreen">+</text>
<text text-anchor="start" x="8" y="-157" font-family="Helvetica,sans-Serif" font-size="10.00">gdk</text>
<text text-anchor="start" x="1" y="-147" font-family="Helvetica,sans-Serif" font-size="10.00" fill="forestgreen">+</text>
<text text-anchor="start" x="8" y="-147" font-family="Helvetica,sans-Serif" font-size="10.00">gdk_enums</text>
<text text-anchor="start" x="1" y="-137" font-family="Helvetica,sans-Serif" font-size="10.00" fill="forestgreen">+</text>
<text text-anchor="start" x="8" y="-137" font-family="Helvetica,sans-Serif" font-size="10.00">gtk_assistant</text>
<text text-anchor="start" x="1" y="-127" font-family="Helvetica,sans-Serif" font-size="10.00" fill="forestgreen">+</text>
<text text-anchor="start" x="8" y="-127" font-family="Helvetica,sans-Serif" font-size="10.00">gtk_core</text>
<text text-anchor="start" x="1" y="-117" font-family="Helvetica,sans-Serif" font-size="10.00" fill="forestgreen">+</text>
<text text-anchor="start" x="8" y="-117" font-family="Helvetica,sans-Serif" font-size="10.00">gtk_dialogs</text>
<text text-anchor="start" x="1" y="-107" font-family="Helvetica,sans-Serif" font-size="10.00" fill="forestgreen">+</text>
<text text-anchor="start" x="8" y="-107" font-family="Helvetica,sans-Serif" font-size="10.00">gtk_enums</text>
<text text-anchor="start" x="1" y="-97" font-family="Helvetica,sans-Serif" font-size="10.00" fill="forestgreen">+</text>
<text text-anchor="start" x="8" y="-97" font-family="Helvetica,sans-Serif" font-size="10.00">gtk_widgets_ext</text>
<text text-anchor="start" x="1" y="-87" font-family="Helvetica,sans-Serif" font-size="10.00" fill="forestgreen">+</text>
<text text-anchor="start" x="8" y="-87" font-family="Helvetica,sans-Serif" font-size="10.00">v3_4</text>
</g>
<!-- gtk&amp;gt;&#45;&gt;gtk&amp;gt;v3_4&amp;gt; -->
<g id="edge1" class="edge"><title>gtk&amp;gt;&#45;&gt;gtk&amp;gt;v3_4&amp;gt;</title>
<path fill="none" stroke="black" stroke-width="0.5" stroke-dasharray="5,2" d="M41,-60.193C41,-65.4012 41,-70.976 41,-76.6259"/>
<polygon fill="black" stroke="black" stroke-width="0.5" points="41,-81.8274 38.7501,-76.8273 41,-79.3274 41.0001,-76.8274 41.0001,-76.8274 41.0001,-76.8274 41,-79.3274 43.2501,-76.8274 41,-81.8274 41,-81.8274"/>
</g>
</g>
</svg>
