<?xml version="1.0" encoding="UTF-8" standalone="no"?>
<!DOCTYPE svg PUBLIC "-//W3C//DTD SVG 1.1//EN"
 "http://www.w3.org/Graphics/SVG/1.1/DTD/svg11.dtd">
<!-- Generated by graphviz version 2.36.0 (20140111.2315)
 -->
<!-- Title: G Pages: 1 -->
<svg width="72pt" height="160pt"
 viewBox="0.00 0.00 72.00 160.00" xmlns="http://www.w3.org/2000/svg" xmlns:xlink="http://www.w3.org/1999/xlink">
<g id="graph0" class="graph" transform="scale(1 1) rotate(0) translate(4 156)">
<title>G</title>
<polygon fill="white" stroke="none" points="-4,4 -4,-156 68,-156 68,4 -4,4"/>
<!-- gmp::gmp -->
<g id="node1" class="node"><title>gmp::gmp</title>
<polygon fill="#fffaf3" stroke="black" points="50.5,-80 7.5,-80 7.5,-0 56.5,-0 56.5,-74 50.5,-80"/>
<polyline fill="none" stroke="black" points="50.5,-80 50.5,-74 "/>
<polyline fill="none" stroke="black" points="56.5,-74 50.5,-74 "/>
<text text-anchor="start" x="10" y="-70.5" font-family="Helvetica,sans-Serif" font-weight="bold" font-size="10.00">gmp</text>
<text text-anchor="start" x="10" y="-55" font-family="Helvetica,sans-Serif" font-size="10.00" fill="forestgreen">+</text>
<text text-anchor="start" x="17" y="-55" font-family="Helvetica,sans-Serif" font-size="10.00">BigInt</text>
<text text-anchor="start" x="10" y="-45" font-family="Helvetica,sans-Serif" font-size="10.00" fill="forestgreen">+</text>
<text text-anchor="start" x="17" y="-45" font-family="Helvetica,sans-Serif" font-size="10.00">Float</text>
<text text-anchor="start" x="10" y="-35" font-family="Helvetica,sans-Serif" font-size="10.00" fill="forestgreen">+</text>
<text text-anchor="start" x="17" y="-35" font-family="Helvetica,sans-Serif" font-size="10.00">Int</text>
<text text-anchor="start" x="10" y="-25" font-family="Helvetica,sans-Serif" font-size="10.00" fill="forestgreen">+</text>
<text text-anchor="start" x="17" y="-25" font-family="Helvetica,sans-Serif" font-size="10.00">Numeric</text>
<text text-anchor="start" x="10" y="-15" font-family="Helvetica,sans-Serif" font-size="10.00" fill="forestgreen">+</text>
<text text-anchor="start" x="17" y="-15" font-family="Helvetica,sans-Serif" font-size="10.00">Ratio</text>
<text text-anchor="start" x="10" y="-5" font-family="Helvetica,sans-Serif" font-size="10.00" fill="forestgreen">+</text>
<text text-anchor="start" x="17" y="-5" font-family="Helvetica,sans-Serif" font-size="10.00">Text</text>
</g>
<!-- gmp::native_gmp -->
<g id="node2" class="node"><title>gmp::native_gmp</title>
<polygon fill="#fffaf3" stroke="black" points="58,-152 0,-152 0,-102 64,-102 64,-146 58,-152"/>
<polyline fill="none" stroke="black" points="58,-152 58,-146 "/>
<polyline fill="none" stroke="black" points="64,-146 58,-146 "/>
<text text-anchor="start" x="2" y="-142.5" font-family="Helvetica,sans-Serif" font-weight="bold" font-size="10.00">native_gmp</text>
<text text-anchor="start" x="2" y="-127" font-family="Helvetica,sans-Serif" font-size="10.00" fill="forestgreen">+</text>
<text text-anchor="start" x="9" y="-127" font-family="Helvetica,sans-Serif" font-size="10.00">NativeMPQ</text>
<text text-anchor="start" x="2" y="-117" font-family="Helvetica,sans-Serif" font-size="10.00" fill="forestgreen">+</text>
<text text-anchor="start" x="9" y="-117" font-family="Helvetica,sans-Serif" font-size="10.00">NativeMPZ</text>
<text text-anchor="start" x="2" y="-107" font-family="Helvetica,sans-Serif" font-size="10.00" fill="forestgreen">+</text>
<text text-anchor="start" x="9" y="-107" font-family="Helvetica,sans-Serif" font-size="10.00">UInt64</text>
</g>
<!-- gmp::gmp&#45;&gt;gmp::native_gmp -->
<g id="edge1" class="edge"><title>gmp::gmp&#45;&gt;gmp::native_gmp</title>
<path fill="none" stroke="black" stroke-width="0.5" stroke-dasharray="5,2" d="M32,-80.0171C32,-85.5161 32,-91.0934 32,-96.3774"/>
<polygon fill="black" stroke="black" stroke-width="0.5" points="32,-101.55 29.7501,-96.5498 32,-99.0499 32.0001,-96.5499 32.0001,-96.5499 32.0001,-96.5499 32,-99.0499 34.2501,-96.5499 32,-101.55 32,-101.55"/>
</g>
</g>
</svg>
