<?xml version="1.0" encoding="UTF-8" standalone="no"?>
<!DOCTYPE svg PUBLIC "-//W3C//DTD SVG 1.1//EN"
 "http://www.w3.org/Graphics/SVG/1.1/DTD/svg11.dtd">
<!-- Generated by graphviz version 2.36.0 (20140111.2315)
 -->
<!-- Title: G Pages: 1 -->
<svg width="266pt" height="886pt"
 viewBox="0.00 0.00 266.00 886.00" xmlns="http://www.w3.org/2000/svg" xmlns:xlink="http://www.w3.org/1999/xlink">
<g id="graph0" class="graph" transform="scale(1 1) rotate(0) translate(4 882)">
<title>G</title>
<polygon fill="white" stroke="none" points="-4,4 -4,-882 262,-882 262,4 -4,4"/>
<!-- github::api -->
<g id="node1" class="node"><title>github::api</title>
<polygon fill="#fffaf3" stroke="black" points="197.5,-806 110.5,-806 110.5,-546 203.5,-546 203.5,-800 197.5,-806"/>
<polyline fill="none" stroke="black" points="197.5,-806 197.5,-800 "/>
<polyline fill="none" stroke="black" points="203.5,-800 197.5,-800 "/>
<text text-anchor="start" x="113" y="-796.5" font-family="Helvetica,sans-Serif" font-weight="bold" font-size="10.00">api</text>
<text text-anchor="start" x="113" y="-781" font-family="Helvetica,sans-Serif" font-size="10.00" fill="forestgreen">+</text>
<text text-anchor="start" x="120" y="-781" font-family="Helvetica,sans-Serif" font-size="10.00">Branch</text>
<text text-anchor="start" x="113" y="-771" font-family="Helvetica,sans-Serif" font-size="10.00" fill="forestgreen">+</text>
<text text-anchor="start" x="120" y="-771" font-family="Helvetica,sans-Serif" font-size="10.00">Comment</text>
<text text-anchor="start" x="113" y="-761" font-family="Helvetica,sans-Serif" font-size="10.00" fill="forestgreen">+</text>
<text text-anchor="start" x="120" y="-761" font-family="Helvetica,sans-Serif" font-size="10.00">Commit</text>
<text text-anchor="start" x="113" y="-751" font-family="Helvetica,sans-Serif" font-size="10.00" fill="forestgreen">+</text>
<text text-anchor="start" x="120" y="-751" font-family="Helvetica,sans-Serif" font-size="10.00">CommitComment</text>
<text text-anchor="start" x="113" y="-741" font-family="Helvetica,sans-Serif" font-size="10.00" fill="forestgreen">+</text>
<text text-anchor="start" x="120" y="-741" font-family="Helvetica,sans-Serif" font-size="10.00">ContributorStats</text>
<text text-anchor="start" x="113" y="-731" font-family="Helvetica,sans-Serif" font-size="10.00" fill="forestgreen">+</text>
<text text-anchor="start" x="120" y="-731" font-family="Helvetica,sans-Serif" font-size="10.00">Deserializer</text>
<text text-anchor="start" x="113" y="-721" font-family="Helvetica,sans-Serif" font-size="10.00" fill="forestgreen">+</text>
<text text-anchor="start" x="120" y="-721" font-family="Helvetica,sans-Serif" font-size="10.00">GitCommit</text>
<text text-anchor="start" x="113" y="-711" font-family="Helvetica,sans-Serif" font-size="10.00" fill="forestgreen">+</text>
<text text-anchor="start" x="120" y="-711" font-family="Helvetica,sans-Serif" font-size="10.00">GitUser</text>
<text text-anchor="start" x="113" y="-701" font-family="Helvetica,sans-Serif" font-size="10.00" fill="forestgreen">+</text>
<text text-anchor="start" x="120" y="-701" font-family="Helvetica,sans-Serif" font-size="10.00">GithubAPI</text>
<text text-anchor="start" x="113" y="-691" font-family="Helvetica,sans-Serif" font-size="10.00" fill="forestgreen">+</text>
<text text-anchor="start" x="120" y="-691" font-family="Helvetica,sans-Serif" font-size="10.00">GithubDeserializer</text>
<text text-anchor="start" x="113" y="-681" font-family="Helvetica,sans-Serif" font-size="10.00" fill="forestgreen">+</text>
<text text-anchor="start" x="120" y="-681" font-family="Helvetica,sans-Serif" font-size="10.00">GithubEntity</text>
<text text-anchor="start" x="113" y="-671" font-family="Helvetica,sans-Serif" font-size="10.00" fill="forestgreen">+</text>
<text text-anchor="start" x="120" y="-671" font-family="Helvetica,sans-Serif" font-size="10.00">GithubFile</text>
<text text-anchor="start" x="113" y="-661" font-family="Helvetica,sans-Serif" font-size="10.00" fill="forestgreen">+</text>
<text text-anchor="start" x="120" y="-661" font-family="Helvetica,sans-Serif" font-size="10.00">ISODate</text>
<text text-anchor="start" x="113" y="-651" font-family="Helvetica,sans-Serif" font-size="10.00" fill="forestgreen">+</text>
<text text-anchor="start" x="120" y="-651" font-family="Helvetica,sans-Serif" font-size="10.00">Issue</text>
<text text-anchor="start" x="113" y="-641" font-family="Helvetica,sans-Serif" font-size="10.00" fill="forestgreen">+</text>
<text text-anchor="start" x="120" y="-641" font-family="Helvetica,sans-Serif" font-size="10.00">IssueComment</text>
<text text-anchor="start" x="113" y="-631" font-family="Helvetica,sans-Serif" font-size="10.00" fill="forestgreen">+</text>
<text text-anchor="start" x="120" y="-631" font-family="Helvetica,sans-Serif" font-size="10.00">IssueEvent</text>
<text text-anchor="start" x="113" y="-621" font-family="Helvetica,sans-Serif" font-size="10.00" fill="forestgreen">+</text>
<text text-anchor="start" x="120" y="-621" font-family="Helvetica,sans-Serif" font-size="10.00">Label</text>
<text text-anchor="start" x="113" y="-611" font-family="Helvetica,sans-Serif" font-size="10.00" fill="forestgreen">+</text>
<text text-anchor="start" x="120" y="-611" font-family="Helvetica,sans-Serif" font-size="10.00">Milestone</text>
<text text-anchor="start" x="113" y="-601" font-family="Helvetica,sans-Serif" font-size="10.00" fill="forestgreen">+</text>
<text text-anchor="start" x="120" y="-601" font-family="Helvetica,sans-Serif" font-size="10.00">PullRef</text>
<text text-anchor="start" x="113" y="-591" font-family="Helvetica,sans-Serif" font-size="10.00" fill="forestgreen">+</text>
<text text-anchor="start" x="120" y="-591" font-family="Helvetica,sans-Serif" font-size="10.00">PullRequest</text>
<text text-anchor="start" x="113" y="-581" font-family="Helvetica,sans-Serif" font-size="10.00" fill="forestgreen">+</text>
<text text-anchor="start" x="120" y="-581" font-family="Helvetica,sans-Serif" font-size="10.00">RenameAction</text>
<text text-anchor="start" x="113" y="-571" font-family="Helvetica,sans-Serif" font-size="10.00" fill="forestgreen">+</text>
<text text-anchor="start" x="120" y="-571" font-family="Helvetica,sans-Serif" font-size="10.00">Repo</text>
<text text-anchor="start" x="113" y="-561" font-family="Helvetica,sans-Serif" font-size="10.00" fill="forestgreen">+</text>
<text text-anchor="start" x="120" y="-561" font-family="Helvetica,sans-Serif" font-size="10.00">ReviewComment</text>
<text text-anchor="start" x="113" y="-551" font-family="Helvetica,sans-Serif" font-size="10.00" fill="forestgreen">+</text>
<text text-anchor="start" x="120" y="-551" font-family="Helvetica,sans-Serif" font-size="10.00">User</text>
</g>
<!-- github::github_curl -->
<g id="node5" class="node"><title>github::github_curl</title>
<polygon fill="#fffaf3" stroke="black" points="182,-878 126,-878 126,-828 188,-828 188,-872 182,-878"/>
<polyline fill="none" stroke="black" points="182,-878 182,-872 "/>
<polyline fill="none" stroke="black" points="188,-872 182,-872 "/>
<text text-anchor="start" x="128" y="-868.5" font-family="Helvetica,sans-Serif" font-weight="bold" font-size="10.00">github_curl</text>
<text text-anchor="start" x="128" y="-853" font-family="Helvetica,sans-Serif" font-size="10.00" fill="forestgreen">+</text>
<text text-anchor="start" x="135" y="-853" font-family="Helvetica,sans-Serif" font-size="10.00">GithubCurl</text>
<text text-anchor="start" x="128" y="-843" font-family="Helvetica,sans-Serif" font-size="10.00" fill="forestgreen">+</text>
<text text-anchor="start" x="135" y="-843" font-family="Helvetica,sans-Serif" font-size="10.00">GithubError</text>
<text text-anchor="start" x="128" y="-833" font-family="Helvetica,sans-Serif" font-size="10.00" fill="forestgreen">+</text>
<text text-anchor="start" x="135" y="-833" font-family="Helvetica,sans-Serif" font-size="10.00">Sys</text>
</g>
<!-- github::api&#45;&gt;github::github_curl -->
<g id="edge1" class="edge"><title>github::api&#45;&gt;github::github_curl</title>
<path fill="none" stroke="black" stroke-width="0.5" stroke-dasharray="5,2" d="M157,-806.021C157,-811.89 157,-817.434 157,-822.506"/>
<polygon fill="black" stroke="black" stroke-width="0.5" points="157,-827.816 154.75,-822.816 157,-825.316 157,-822.816 157,-822.816 157,-822.816 157,-825.316 159.25,-822.816 157,-827.816 157,-827.816"/>
</g>
<!-- github::cache -->
<g id="node2" class="node"><title>github::cache</title>
<polygon fill="#fffaf3" stroke="black" points="217.833,-523.5 165,-523.5 165,-492.5 223,-492.5 223,-518.333 217.833,-523.5"/>
<polyline fill="none" stroke="black" points="217.833,-523.5 217.833,-518.333 "/>
<polyline fill="none" stroke="black" points="223,-518.333 217.833,-518.333 "/>
<text text-anchor="start" x="167" y="-513.5" font-family="Helvetica,sans-Serif" font-weight="bold" font-size="10.00">cache</text>
<text text-anchor="start" x="167" y="-498" font-family="Helvetica,sans-Serif" font-size="10.00" fill="forestgreen">+</text>
<text text-anchor="start" x="174" y="-498" font-family="Helvetica,sans-Serif" font-size="10.00">GithubAPI</text>
</g>
<!-- github::cache&#45;&gt;github::api -->
<g id="edge2" class="edge"><title>github::cache&#45;&gt;github::api</title>
<path fill="none" stroke="black" stroke-width="0.5" stroke-dasharray="5,2" d="M190.716,-523.731C189.645,-528.537 188.356,-534.322 186.915,-540.788"/>
<polygon fill="black" stroke="black" stroke-width="0.5" points="185.784,-545.86 184.676,-540.49 186.328,-543.42 186.872,-540.98 186.872,-540.98 186.872,-540.98 186.328,-543.42 189.068,-541.469 185.784,-545.86 185.784,-545.86"/>
</g>
<!-- github::events -->
<g id="node3" class="node"><title>github::events</title>
<polygon fill="#fffaf3" stroke="black" points="160.5,-432 -0.5,-432 -0.5,-252 166.5,-252 166.5,-426 160.5,-432"/>
<polyline fill="none" stroke="black" points="160.5,-432 160.5,-426 "/>
<polyline fill="none" stroke="black" points="166.5,-426 160.5,-426 "/>
<text text-anchor="start" x="2" y="-422.5" font-family="Helvetica,sans-Serif" font-weight="bold" font-size="10.00">events</text>
<text text-anchor="start" x="2" y="-407" font-family="Helvetica,sans-Serif" font-size="10.00" fill="forestgreen">+</text>
<text text-anchor="start" x="9" y="-407" font-family="Helvetica,sans-Serif" font-size="10.00">CommitCommentEvent</text>
<text text-anchor="start" x="2" y="-397" font-family="Helvetica,sans-Serif" font-size="10.00" fill="forestgreen">+</text>
<text text-anchor="start" x="9" y="-397" font-family="Helvetica,sans-Serif" font-size="10.00">CreateEvent</text>
<text text-anchor="start" x="2" y="-387" font-family="Helvetica,sans-Serif" font-size="10.00" fill="forestgreen">+</text>
<text text-anchor="start" x="9" y="-387" font-family="Helvetica,sans-Serif" font-size="10.00">DeleteEvent</text>
<text text-anchor="start" x="2" y="-377" font-family="Helvetica,sans-Serif" font-size="10.00" fill="forestgreen">+</text>
<text text-anchor="start" x="9" y="-377" font-family="Helvetica,sans-Serif" font-size="10.00">DeploymentEvent</text>
<text text-anchor="start" x="2" y="-367" font-family="Helvetica,sans-Serif" font-size="10.00" fill="forestgreen">+</text>
<text text-anchor="start" x="9" y="-367" font-family="Helvetica,sans-Serif" font-size="10.00">DeploymentStatusEvent</text>
<text text-anchor="start" x="2" y="-357" font-family="Helvetica,sans-Serif" font-size="10.00" fill="forestgreen">+</text>
<text text-anchor="start" x="9" y="-357" font-family="Helvetica,sans-Serif" font-size="10.00">Deserializer</text>
<text text-anchor="start" x="2" y="-347" font-family="Helvetica,sans-Serif" font-size="10.00" fill="forestgreen">+</text>
<text text-anchor="start" x="9" y="-347" font-family="Helvetica,sans-Serif" font-size="10.00">ForkEvent</text>
<text text-anchor="start" x="2" y="-337" font-family="Helvetica,sans-Serif" font-size="10.00" fill="forestgreen">+</text>
<text text-anchor="start" x="9" y="-337" font-family="Helvetica,sans-Serif" font-size="10.00">GithubDeserializer</text>
<text text-anchor="start" x="2" y="-327" font-family="Helvetica,sans-Serif" font-size="10.00" fill="forestgreen">+</text>
<text text-anchor="start" x="9" y="-327" font-family="Helvetica,sans-Serif" font-size="10.00">GithubEvent</text>
<text text-anchor="start" x="2" y="-317" font-family="Helvetica,sans-Serif" font-size="10.00" fill="forestgreen">+</text>
<text text-anchor="start" x="9" y="-317" font-family="Helvetica,sans-Serif" font-size="10.00">IssueCommentEvent</text>
<text text-anchor="start" x="2" y="-307" font-family="Helvetica,sans-Serif" font-size="10.00" fill="forestgreen">+</text>
<text text-anchor="start" x="9" y="-307" font-family="Helvetica,sans-Serif" font-size="10.00">IssuesEvent</text>
<text text-anchor="start" x="2" y="-297" font-family="Helvetica,sans-Serif" font-size="10.00" fill="forestgreen">+</text>
<text text-anchor="start" x="9" y="-297" font-family="Helvetica,sans-Serif" font-size="10.00">MemberEvent</text>
<text text-anchor="start" x="2" y="-287" font-family="Helvetica,sans-Serif" font-size="10.00" fill="forestgreen">+</text>
<text text-anchor="start" x="9" y="-287" font-family="Helvetica,sans-Serif" font-size="10.00">PullRequestEvent</text>
<text text-anchor="start" x="2" y="-277" font-family="Helvetica,sans-Serif" font-size="10.00" fill="forestgreen">+</text>
<text text-anchor="start" x="9" y="-277" font-family="Helvetica,sans-Serif" font-size="10.00">PullRequestReviewCommentEvent</text>
<text text-anchor="start" x="2" y="-267" font-family="Helvetica,sans-Serif" font-size="10.00" fill="forestgreen">+</text>
<text text-anchor="start" x="9" y="-267" font-family="Helvetica,sans-Serif" font-size="10.00">PushEvent</text>
<text text-anchor="start" x="2" y="-257" font-family="Helvetica,sans-Serif" font-size="10.00" fill="forestgreen">+</text>
<text text-anchor="start" x="9" y="-257" font-family="Helvetica,sans-Serif" font-size="10.00">StatusEvent</text>
</g>
<!-- github::events&#45;&gt;github::api -->
<g id="edge3" class="edge"><title>github::events&#45;&gt;github::api</title>
<path fill="none" stroke="black" stroke-width="0.5" stroke-dasharray="5,2" d="M102.928,-432.407C110.364,-465.767 118.978,-504.414 127.115,-540.92"/>
<polygon fill="black" stroke="black" stroke-width="0.5" points="128.208,-545.824 124.924,-541.433 127.664,-543.384 127.12,-540.943 127.12,-540.943 127.12,-540.943 127.664,-543.384 129.316,-540.454 128.208,-545.824 128.208,-545.824"/>
</g>
<!-- github::github -->
<g id="node4" class="node"><title>github::github</title>
<polygon fill="#fffaf3" stroke="black" points="228.333,-470 195,-470 195,-454 231,-454 231,-467.333 228.333,-470"/>
<polyline fill="none" stroke="black" points="228.333,-470 228.333,-467.333 "/>
<polyline fill="none" stroke="black" points="231,-467.333 228.333,-467.333 "/>
<text text-anchor="start" x="197" y="-460.5" font-family="Helvetica,sans-Serif" font-weight="bold" font-size="10.00">github</text>
</g>
<!-- github::github&#45;&gt;github::cache -->
<g id="edge4" class="edge"><title>github::github&#45;&gt;github::cache</title>
<path fill="none" stroke="black" stroke-width="0.5" stroke-dasharray="5,2" d="M209.863,-470.266C207.813,-475.012 205.033,-481.451 202.372,-487.612"/>
<polygon fill="black" stroke="black" stroke-width="0.5" points="200.375,-492.238 200.291,-486.755 201.366,-489.943 202.357,-487.647 202.357,-487.647 202.357,-487.647 201.366,-489.943 204.423,-488.539 200.375,-492.238 200.375,-492.238"/>
</g>
<!-- github::hooks -->
<g id="node6" class="node"><title>github::hooks</title>
<polygon fill="#fffaf3" stroke="black" points="112.833,-130.5 48,-130.5 48,-99.5 118,-99.5 118,-125.333 112.833,-130.5"/>
<polyline fill="none" stroke="black" points="112.833,-130.5 112.833,-125.333 "/>
<polyline fill="none" stroke="black" points="118,-125.333 112.833,-125.333 "/>
<text text-anchor="start" x="50" y="-120.5" font-family="Helvetica,sans-Serif" font-weight="bold" font-size="10.00">hooks</text>
<text text-anchor="start" x="50" y="-105" font-family="Helvetica,sans-Serif" font-size="10.00" fill="forestgreen">+</text>
<text text-anchor="start" x="57" y="-105" font-family="Helvetica,sans-Serif" font-size="10.00">HookListener</text>
</g>
<!-- github::hooks&#45;&gt;github::events -->
<g id="edge5" class="edge"><title>github::hooks&#45;&gt;github::events</title>
<path fill="none" stroke="black" stroke-width="0.5" stroke-dasharray="5,2" d="M83,-130.763C83,-154.392 83,-202.559 83,-246.833"/>
<polygon fill="black" stroke="black" stroke-width="0.5" points="83,-251.933 80.7501,-246.933 83,-249.433 83.0001,-246.933 83.0001,-246.933 83.0001,-246.933 83,-249.433 85.2501,-246.933 83,-251.933 83,-251.933"/>
</g>
<!-- github::loader -->
<g id="node7" class="node"><title>github::loader</title>
<polygon fill="#fffaf3" stroke="black" points="252.5,-230 155.5,-230 155.5,-2.84217e-14 258.5,-2.84217e-14 258.5,-224 252.5,-230"/>
<polyline fill="none" stroke="black" points="252.5,-230 252.5,-224 "/>
<polyline fill="none" stroke="black" points="258.5,-224 252.5,-224 "/>
<text text-anchor="start" x="158" y="-220.5" font-family="Helvetica,sans-Serif" font-weight="bold" font-size="10.00">loader</text>
<text text-anchor="start" x="158" y="-205" font-family="Helvetica,sans-Serif" font-size="10.00" fill="forestgreen">+</text>
<text text-anchor="start" x="165" y="-205" font-family="Helvetica,sans-Serif" font-size="10.00">Branch</text>
<text text-anchor="start" x="158" y="-195" font-family="Helvetica,sans-Serif" font-size="10.00" fill="forestgreen">+</text>
<text text-anchor="start" x="165" y="-195" font-family="Helvetica,sans-Serif" font-size="10.00">BranchRepo</text>
<text text-anchor="start" x="158" y="-185" font-family="Helvetica,sans-Serif" font-size="10.00" fill="forestgreen">+</text>
<text text-anchor="start" x="165" y="-185" font-family="Helvetica,sans-Serif" font-size="10.00">Commit</text>
<text text-anchor="start" x="158" y="-175" font-family="Helvetica,sans-Serif" font-size="10.00" fill="forestgreen">+</text>
<text text-anchor="start" x="165" y="-175" font-family="Helvetica,sans-Serif" font-size="10.00">CommitRepo</text>
<text text-anchor="start" x="158" y="-165" font-family="Helvetica,sans-Serif" font-size="10.00" fill="forestgreen">+</text>
<text text-anchor="start" x="165" y="-165" font-family="Helvetica,sans-Serif" font-size="10.00">Deserializer</text>
<text text-anchor="start" x="158" y="-155" font-family="Helvetica,sans-Serif" font-size="10.00" fill="forestgreen">+</text>
<text text-anchor="start" x="165" y="-155" font-family="Helvetica,sans-Serif" font-size="10.00">GithubWallet</text>
<text text-anchor="start" x="158" y="-145" font-family="Helvetica,sans-Serif" font-size="10.00" fill="forestgreen">+</text>
<text text-anchor="start" x="165" y="-145" font-family="Helvetica,sans-Serif" font-size="10.00">Issue</text>
<text text-anchor="start" x="158" y="-135" font-family="Helvetica,sans-Serif" font-size="10.00" fill="forestgreen">+</text>
<text text-anchor="start" x="165" y="-135" font-family="Helvetica,sans-Serif" font-size="10.00">IssueComment</text>
<text text-anchor="start" x="158" y="-125" font-family="Helvetica,sans-Serif" font-size="10.00" fill="forestgreen">+</text>
<text text-anchor="start" x="165" y="-125" font-family="Helvetica,sans-Serif" font-size="10.00">IssueCommentRepo</text>
<text text-anchor="start" x="158" y="-115" font-family="Helvetica,sans-Serif" font-size="10.00" fill="forestgreen">+</text>
<text text-anchor="start" x="165" y="-115" font-family="Helvetica,sans-Serif" font-size="10.00">IssueEvent</text>
<text text-anchor="start" x="158" y="-105" font-family="Helvetica,sans-Serif" font-size="10.00" fill="forestgreen">+</text>
<text text-anchor="start" x="165" y="-105" font-family="Helvetica,sans-Serif" font-size="10.00">IssueEventRepo</text>
<text text-anchor="start" x="158" y="-95" font-family="Helvetica,sans-Serif" font-size="10.00" fill="forestgreen">+</text>
<text text-anchor="start" x="165" y="-95" font-family="Helvetica,sans-Serif" font-size="10.00">IssueRepo</text>
<text text-anchor="start" x="158" y="-85" font-family="Helvetica,sans-Serif" font-size="10.00" fill="forestgreen">+</text>
<text text-anchor="start" x="165" y="-85" font-family="Helvetica,sans-Serif" font-size="10.00">Loader</text>
<text text-anchor="start" x="158" y="-75" font-family="Helvetica,sans-Serif" font-size="10.00" fill="forestgreen">+</text>
<text text-anchor="start" x="165" y="-75" font-family="Helvetica,sans-Serif" font-size="10.00">LoaderConfig</text>
<text text-anchor="start" x="158" y="-65" font-family="Helvetica,sans-Serif" font-size="10.00" fill="forestgreen">+</text>
<text text-anchor="start" x="165" y="-65" font-family="Helvetica,sans-Serif" font-size="10.00">LoaderJob</text>
<text text-anchor="start" x="158" y="-55" font-family="Helvetica,sans-Serif" font-size="10.00" fill="forestgreen">+</text>
<text text-anchor="start" x="165" y="-55" font-family="Helvetica,sans-Serif" font-size="10.00">LoaderJobRepo</text>
<text text-anchor="start" x="158" y="-45" font-family="Helvetica,sans-Serif" font-size="10.00" fill="forestgreen">+</text>
<text text-anchor="start" x="165" y="-45" font-family="Helvetica,sans-Serif" font-size="10.00">PullRequestRepo</text>
<text text-anchor="start" x="158" y="-35" font-family="Helvetica,sans-Serif" font-size="10.00" fill="forestgreen">+</text>
<text text-anchor="start" x="165" y="-35" font-family="Helvetica,sans-Serif" font-size="10.00">Repo</text>
<text text-anchor="start" x="158" y="-25" font-family="Helvetica,sans-Serif" font-size="10.00" fill="forestgreen">+</text>
<text text-anchor="start" x="165" y="-25" font-family="Helvetica,sans-Serif" font-size="10.00">RepoEntity</text>
<text text-anchor="start" x="158" y="-15" font-family="Helvetica,sans-Serif" font-size="10.00" fill="forestgreen">+</text>
<text text-anchor="start" x="165" y="-15" font-family="Helvetica,sans-Serif" font-size="10.00">RepoRepo</text>
<text text-anchor="start" x="158" y="-5" font-family="Helvetica,sans-Serif" font-size="10.00" fill="forestgreen">+</text>
<text text-anchor="start" x="165" y="-5" font-family="Helvetica,sans-Serif" font-size="10.00">Sys</text>
</g>
<!-- github::loader&#45;&gt;github::events -->
<g id="edge6" class="edge"><title>github::loader&#45;&gt;github::events</title>
<path fill="none" stroke="black" stroke-width="0.5" stroke-dasharray="5,2" d="M155.669,-209.14C148.727,-221.738 141.6,-234.67 134.651,-247.278"/>
<polygon fill="black" stroke="black" stroke-width="0.5" points="132.1,-251.907 132.543,-246.442 133.307,-249.717 134.514,-247.528 134.514,-247.528 134.514,-247.528 133.307,-249.717 136.484,-248.614 132.1,-251.907 132.1,-251.907"/>
</g>
<!-- github::wallet -->
<g id="node8" class="node"><title>github::wallet</title>
<polygon fill="#fffaf3" stroke="black" points="252.333,-357.5 188.5,-357.5 188.5,-326.5 257.5,-326.5 257.5,-352.333 252.333,-357.5"/>
<polyline fill="none" stroke="black" points="252.333,-357.5 252.333,-352.333 "/>
<polyline fill="none" stroke="black" points="257.5,-352.333 252.333,-352.333 "/>
<text text-anchor="start" x="191" y="-347.5" font-family="Helvetica,sans-Serif" font-weight="bold" font-size="10.00">wallet</text>
<text text-anchor="start" x="191" y="-332" font-family="Helvetica,sans-Serif" font-size="10.00" fill="forestgreen">+</text>
<text text-anchor="start" x="198" y="-332" font-family="Helvetica,sans-Serif" font-size="10.00">GithubWallet</text>
</g>
<!-- github::loader&#45;&gt;github::wallet -->
<g id="edge7" class="edge"><title>github::loader&#45;&gt;github::wallet</title>
<path fill="none" stroke="black" stroke-width="0.5" stroke-dasharray="5,2" d="M215.117,-230.148C217.613,-265.246 220.094,-300.131 221.587,-321.132"/>
<polygon fill="black" stroke="black" stroke-width="0.5" points="221.945,-326.164 219.346,-321.337 221.768,-323.671 221.59,-321.177 221.59,-321.177 221.59,-321.177 221.768,-323.671 223.835,-321.017 221.945,-326.164 221.945,-326.164"/>
</g>
<!-- github::wallet&#45;&gt;github::github -->
<g id="edge8" class="edge"><title>github::wallet&#45;&gt;github::github</title>
<path fill="none" stroke="black" stroke-width="0.5" stroke-dasharray="5,2" d="M221.733,-357.945C219.736,-381.513 215.892,-426.873 214.043,-448.688"/>
<polygon fill="black" stroke="black" stroke-width="0.5" points="213.598,-453.941 211.779,-448.768 213.809,-451.449 214.021,-448.958 214.021,-448.958 214.021,-448.958 213.809,-451.449 216.263,-449.148 213.598,-453.941 213.598,-453.941"/>
</g>
</g>
</svg>
