<?xml version="1.0" encoding="UTF-8" standalone="no"?>
<!DOCTYPE svg PUBLIC "-//W3C//DTD SVG 1.1//EN"
 "http://www.w3.org/Graphics/SVG/1.1/DTD/svg11.dtd">
<!-- Generated by graphviz version 2.36.0 (20140111.2315)
 -->
<!-- Title: G Pages: 1 -->
<svg width="1750pt" height="174pt"
 viewBox="0.00 0.00 1750.00 174.00" xmlns="http://www.w3.org/2000/svg" xmlns:xlink="http://www.w3.org/1999/xlink">
<g id="graph0" class="graph" transform="scale(1 1) rotate(0) translate(4 170)">
<title>G</title>
<polygon fill="white" stroke="none" points="-4,4 -4,-170 1746,-170 1746,4 -4,4"/>
<!-- c::CArray -->
<g id="node1" class="node"><title>c::CArray</title>
<polygon fill="white" stroke="none" points="545,-166 367,-166 367,-86 545,-86 545,-166"/>
<polygon fill="none" stroke="forestgreen" points="367,-139 367,-166 545,-166 545,-139 367,-139"/>
<text text-anchor="start" x="426" y="-155.5" font-family="Helvetica,sans-Serif" font-size="10.00">&lt;&lt;abstract&gt;&gt;</text>
<text text-anchor="start" x="394.5" y="-145.5" font-family="Helvetica,sans-Serif" font-weight="bold" font-style="italic" font-size="10.00">CArray[E: nullable Object]</text>
<polygon fill="none" stroke="forestgreen" points="367,-122 367,-139 545,-139 545,-122 367,-122"/>
<text text-anchor="start" x="370" y="-129" font-family="Helvetica,sans-Serif" font-size="10.00" fill="forestgreen">+</text>
<text text-anchor="start" x="377" y="-129" font-family="Helvetica,sans-Serif" font-size="10.00"> NATIVE: NativeCArray</text>
<polygon fill="none" stroke="forestgreen" points="367,-86 367,-122 545,-122 545,-86 367,-86"/>
<text text-anchor="start" x="370" y="-112" font-family="Helvetica,sans-Serif" font-size="10.00" fill="forestgreen">+</text>
<text text-anchor="start" x="377" y="-112" font-family="Helvetica,sans-Serif" font-size="10.00"> []=(index: Int, val: E: nullable Object)</text>
<text text-anchor="start" x="370" y="-102" font-family="Helvetica,sans-Serif" font-size="10.00" fill="forestgreen">+</text>
<text text-anchor="start" x="377" y="-102" font-family="Helvetica,sans-Serif" font-size="10.00"> destroy()</text>
<text text-anchor="start" x="370" y="-92" font-family="Helvetica,sans-Serif" font-size="10.00" fill="forestgreen">+</text>
<text text-anchor="start" x="377" y="-92" font-family="Helvetica,sans-Serif" font-size="10.00"> init(length: Int)</text>
</g>
<!-- c::NativeCArray -->
<g id="node2" class="node"><title>c::NativeCArray</title>
<polygon fill="white" stroke="none" points="1400,-166 1290,-166 1290,-86 1400,-86 1400,-166"/>
<polygon fill="none" stroke="forestgreen" points="1290,-139 1290,-166 1400,-166 1400,-139 1290,-139"/>
<text text-anchor="start" x="1319" y="-155.5" font-family="Helvetica,sans-Serif" font-size="10.00">&lt;&lt;extern&gt;&gt;</text>
<text text-anchor="start" x="1313.5" y="-145.5" font-family="Helvetica,sans-Serif" font-weight="bold" font-style="italic" font-size="10.00">NativeCArray</text>
<polygon fill="none" stroke="forestgreen" points="1290,-122 1290,-139 1400,-139 1400,-122 1290,-122"/>
<text text-anchor="start" x="1293" y="-129" font-family="Helvetica,sans-Serif" font-size="10.00" fill="forestgreen">+</text>
<text text-anchor="start" x="1300" y="-129" font-family="Helvetica,sans-Serif" font-size="10.00"> E: nullable Object</text>
<polygon fill="none" stroke="forestgreen" points="1290,-86 1290,-122 1400,-122 1400,-86 1290,-86"/>
<text text-anchor="start" x="1293" y="-112" font-family="Helvetica,sans-Serif" font-size="10.00" fill="forestgreen">+</text>
<text text-anchor="start" x="1300" y="-112" font-family="Helvetica,sans-Serif" font-size="10.00"> </text>
<text text-anchor="start" x="1304" y="-112" font-family="Helvetica,sans-Serif" font-style="italic" font-size="10.00">+</text>
<text text-anchor="start" x="1311" y="-112" font-family="Helvetica,sans-Serif" font-size="10.00">(offset: Int): SELF</text>
<text text-anchor="start" x="1293" y="-102" font-family="Helvetica,sans-Serif" font-size="10.00" fill="forestgreen">+</text>
<text text-anchor="start" x="1300" y="-102" font-family="Helvetica,sans-Serif" font-size="10.00"> </text>
<text text-anchor="start" x="1304" y="-102" font-family="Helvetica,sans-Serif" font-style="italic" font-size="10.00">[]</text>
<text text-anchor="start" x="1311" y="-102" font-family="Helvetica,sans-Serif" font-size="10.00">(index: Int): E</text>
<text text-anchor="start" x="1293" y="-92" font-family="Helvetica,sans-Serif" font-size="10.00" fill="forestgreen">+</text>
<text text-anchor="start" x="1300" y="-92" font-family="Helvetica,sans-Serif" font-size="10.00"> </text>
<text text-anchor="start" x="1304" y="-92" font-family="Helvetica,sans-Serif" font-style="italic" font-size="10.00">[]=</text>
<text text-anchor="start" x="1317" y="-92" font-family="Helvetica,sans-Serif" font-size="10.00">(index: Int, val: E)</text>
</g>
<!-- c::CIntArray -->
<g id="node3" class="node"><title>c::CIntArray</title>
<polygon fill="white" stroke="none" points="202.5,-54 -0.5,-54 -0.5,-10 202.5,-10 202.5,-54"/>
<polygon fill="none" stroke="forestgreen" points="0,-36 0,-54 203,-54 203,-36 0,-36"/>
<text text-anchor="start" x="78.5" y="-43.5" font-family="Helvetica,sans-Serif" font-weight="bold" font-size="10.00">CIntArray</text>
<polygon fill="none" stroke="forestgreen" points="0,-10 0,-36 203,-36 203,-10 0,-10"/>
<text text-anchor="start" x="3" y="-26" font-family="Helvetica,sans-Serif" font-size="10.00" fill="forestgreen">+</text>
<text text-anchor="start" x="10" y="-26" font-family="Helvetica,sans-Serif" font-size="10.00"> from(array: SequenceRead[Int]): CIntArray</text>
<text text-anchor="start" x="3" y="-16" font-family="Helvetica,sans-Serif" font-size="10.00" fill="forestgreen">+</text>
<text text-anchor="start" x="10" y="-16" font-family="Helvetica,sans-Serif" font-size="10.00"> init(size: Int)</text>
</g>
<!-- c::CIntArray&#45;&gt;c::CArray -->
<g id="edge1" class="edge"><title>c::CIntArray&#45;&gt;c::CArray</title>
<path fill="none" stroke="black" stroke-width="0.5" d="M175.938,-54.0102C188.306,-57.4005 201.003,-60.8343 213,-64 262.201,-76.9826 317.181,-90.8383 362.382,-102.058"/>
<polygon fill="none" stroke="black" stroke-width="0.5" points="362.009,-103.768 367.284,-103.274 362.852,-100.371 362.009,-103.768"/>
</g>
<!-- c::NativeCIntArray -->
<g id="node4" class="node"><title>c::NativeCIntArray</title>
<polygon fill="white" stroke="none" points="1132.5,-54 979.5,-54 979.5,-10 1132.5,-10 1132.5,-54"/>
<polygon fill="none" stroke="forestgreen" points="980,-27 980,-54 1133,-54 1133,-27 980,-27"/>
<text text-anchor="start" x="1030.5" y="-43.5" font-family="Helvetica,sans-Serif" font-size="10.00">&lt;&lt;extern&gt;&gt;</text>
<text text-anchor="start" x="1019" y="-33.5" font-family="Helvetica,sans-Serif" font-weight="bold" font-style="italic" font-size="10.00">NativeCIntArray</text>
<polygon fill="none" stroke="forestgreen" points="980,-10 980,-27 1133,-27 1133,-10 980,-10"/>
<text text-anchor="start" x="983" y="-17" font-family="Helvetica,sans-Serif" font-size="10.00" fill="forestgreen">+</text>
<text text-anchor="start" x="990" y="-17" font-family="Helvetica,sans-Serif" font-size="10.00"> new(size: Int): NativeCIntArray</text>
</g>
<!-- c::NativeCIntArray&#45;&gt;c::NativeCArray -->
<g id="edge2" class="edge"><title>c::NativeCIntArray&#45;&gt;c::NativeCArray</title>
<path fill="none" stroke="black" stroke-width="0.5" d="M1113.89,-54.0742C1123.58,-57.4737 1133.56,-60.8937 1143,-64 1190.48,-79.6193 1244.74,-95.9185 1285.06,-107.735"/>
<polygon fill="none" stroke="black" stroke-width="0.5" points="1284.61,-109.429 1289.9,-109.154 1285.59,-106.07 1284.61,-109.429"/>
</g>
<!-- c::CUInt16Array -->
<g id="node5" class="node"><title>c::CUInt16Array</title>
<polygon fill="white" stroke="none" points="445.5,-54 224.5,-54 224.5,-10 445.5,-10 445.5,-54"/>
<polygon fill="none" stroke="forestgreen" points="225,-36 225,-54 446,-54 446,-36 225,-36"/>
<text text-anchor="start" x="303.5" y="-43.5" font-family="Helvetica,sans-Serif" font-weight="bold" font-size="10.00">CUInt16Array</text>
<polygon fill="none" stroke="forestgreen" points="225,-10 225,-36 446,-36 446,-10 225,-10"/>
<text text-anchor="start" x="228" y="-26" font-family="Helvetica,sans-Serif" font-size="10.00" fill="forestgreen">+</text>
<text text-anchor="start" x="235" y="-26" font-family="Helvetica,sans-Serif" font-size="10.00"> from(array: SequenceRead[Int]): CUInt16Array</text>
<text text-anchor="start" x="228" y="-16" font-family="Helvetica,sans-Serif" font-size="10.00" fill="forestgreen">+</text>
<text text-anchor="start" x="235" y="-16" font-family="Helvetica,sans-Serif" font-size="10.00"> init(size: Int)</text>
</g>
<!-- c::CUInt16Array&#45;&gt;c::CArray -->
<g id="edge3" class="edge"><title>c::CUInt16Array&#45;&gt;c::CArray</title>
<path fill="none" stroke="black" stroke-width="0.5" d="M362.76,-54.1067C374.015,-62.6643 387.433,-72.8667 400.535,-82.8281"/>
<polygon fill="none" stroke="black" stroke-width="0.5" points="399.548,-84.2765 404.588,-85.9097 401.667,-81.4904 399.548,-84.2765"/>
</g>
<!-- c::NativeCUInt16Array -->
<g id="node6" class="node"><title>c::NativeCUInt16Array</title>
<polygon fill="white" stroke="none" points="1325.5,-54 1154.5,-54 1154.5,-10 1325.5,-10 1325.5,-54"/>
<polygon fill="none" stroke="forestgreen" points="1155,-27 1155,-54 1326,-54 1326,-27 1155,-27"/>
<text text-anchor="start" x="1214.5" y="-43.5" font-family="Helvetica,sans-Serif" font-size="10.00">&lt;&lt;extern&gt;&gt;</text>
<text text-anchor="start" x="1194" y="-33.5" font-family="Helvetica,sans-Serif" font-weight="bold" font-style="italic" font-size="10.00">NativeCUInt16Array</text>
<polygon fill="none" stroke="forestgreen" points="1155,-10 1155,-27 1326,-27 1326,-10 1155,-10"/>
<text text-anchor="start" x="1158" y="-17" font-family="Helvetica,sans-Serif" font-size="10.00" fill="forestgreen">+</text>
<text text-anchor="start" x="1165" y="-17" font-family="Helvetica,sans-Serif" font-size="10.00"> new(size: Int): NativeCUInt16Array</text>
</g>
<!-- c::NativeCUInt16Array&#45;&gt;c::NativeCArray -->
<g id="edge4" class="edge"><title>c::NativeCUInt16Array&#45;&gt;c::NativeCArray</title>
<path fill="none" stroke="black" stroke-width="0.5" d="M1264.09,-54.1067C1273.77,-62.5905 1285.3,-72.6909 1296.57,-82.5704"/>
<polygon fill="none" stroke="black" stroke-width="0.5" points="1295.47,-83.9309 1300.39,-85.9097 1297.78,-81.2984 1295.47,-83.9309"/>
</g>
<!-- c::CByteArray -->
<g id="node7" class="node"><title>c::CByteArray</title>
<polygon fill="white" stroke="none" points="688.5,-64 467.5,-64 467.5,-0 688.5,-0 688.5,-64"/>
<polygon fill="none" stroke="forestgreen" points="468,-46 468,-64 689,-64 689,-46 468,-46"/>
<text text-anchor="start" x="551" y="-53.5" font-family="Helvetica,sans-Serif" font-weight="bold" font-size="10.00">CByteArray</text>
<polygon fill="none" stroke="forestgreen" points="468,-0 468,-46 689,-46 689,-0 468,-0"/>
<text text-anchor="start" x="471" y="-36" font-family="Helvetica,sans-Serif" font-size="10.00" fill="forestgreen">+</text>
<text text-anchor="start" x="478" y="-36" font-family="Helvetica,sans-Serif" font-size="10.00"> from(array: SequenceRead[Byte]): CByteArray</text>
<text text-anchor="start" x="471" y="-26" font-family="Helvetica,sans-Serif" font-size="10.00" fill="forestgreen">+</text>
<text text-anchor="start" x="478" y="-26" font-family="Helvetica,sans-Serif" font-size="10.00"> init(size: Int)</text>
<text text-anchor="start" x="471" y="-16" font-family="Helvetica,sans-Serif" font-size="10.00" fill="forestgreen">+</text>
<text text-anchor="start" x="478" y="-16" font-family="Helvetica,sans-Serif" font-size="10.00"> move(dst_offset: Int, src_offset: Int, n: Int)</text>
<text text-anchor="start" x="471" y="-6" font-family="Helvetica,sans-Serif" font-size="10.00" fill="forestgreen">+</text>
<text text-anchor="start" x="478" y="-6" font-family="Helvetica,sans-Serif" font-size="10.00"> to_java_nio_buffer(): Java_nio_ByteBuffer</text>
</g>
<!-- c::CByteArray&#45;&gt;c::CArray -->
<g id="edge5" class="edge"><title>c::CByteArray&#45;&gt;c::CArray</title>
<path fill="none" stroke="black" stroke-width="0.5" d="M536.696,-64.147C528.736,-70.15 520.274,-76.5309 511.939,-82.8163"/>
<polygon fill="none" stroke="black" stroke-width="0.5" points="510.799,-81.4843 507.861,-85.892 512.906,-84.2788 510.799,-81.4843"/>
</g>
<!-- c::NativeCByteArray -->
<g id="node8" class="node"><title>c::NativeCByteArray</title>
<polygon fill="white" stroke="none" points="1552,-58.5 1348,-58.5 1348,-5.5 1552,-5.5 1552,-58.5"/>
<polygon fill="none" stroke="forestgreen" points="1348,-31 1348,-58 1552,-58 1552,-31 1348,-31"/>
<text text-anchor="start" x="1424" y="-47.5" font-family="Helvetica,sans-Serif" font-size="10.00">&lt;&lt;extern&gt;&gt;</text>
<text text-anchor="start" x="1408" y="-37.5" font-family="Helvetica,sans-Serif" font-weight="bold" font-style="italic" font-size="10.00">NativeCByteArray</text>
<polygon fill="none" stroke="forestgreen" points="1348,-5 1348,-31 1552,-31 1552,-5 1348,-5"/>
<text text-anchor="start" x="1351" y="-21" font-family="Helvetica,sans-Serif" font-size="10.00" fill="forestgreen">+</text>
<text text-anchor="start" x="1358" y="-21" font-family="Helvetica,sans-Serif" font-size="10.00"> move(dst_offset: Int, src_offset: Int, n: Int)</text>
<text text-anchor="start" x="1351" y="-11" font-family="Helvetica,sans-Serif" font-size="10.00" fill="forestgreen">+</text>
<text text-anchor="start" x="1358" y="-11" font-family="Helvetica,sans-Serif" font-size="10.00"> new(size: Int): NativeCByteArray</text>
</g>
<!-- c::NativeCByteArray&#45;&gt;c::NativeCArray -->
<g id="edge6" class="edge"><title>c::NativeCByteArray&#45;&gt;c::NativeCArray</title>
<path fill="none" stroke="black" stroke-width="0.5" d="M1420.75,-58.6271C1412.36,-65.9776 1402.98,-74.1978 1393.75,-82.2822"/>
<polygon fill="none" stroke="black" stroke-width="0.5" points="1392.42,-81.1243 1389.81,-85.7356 1394.73,-83.7568 1392.42,-81.1243"/>
</g>
<!-- c::CCStringArray -->
<g id="node9" class="node"><title>c::CCStringArray</title>
<polygon fill="white" stroke="none" points="957,-54 711,-54 711,-10 957,-10 957,-54"/>
<polygon fill="none" stroke="forestgreen" points="711,-36 711,-54 957,-54 957,-36 711,-36"/>
<text text-anchor="start" x="799" y="-43.5" font-family="Helvetica,sans-Serif" font-weight="bold" font-size="10.00">CCStringArray</text>
<polygon fill="none" stroke="forestgreen" points="711,-10 711,-36 957,-36 957,-10 711,-10"/>
<text text-anchor="start" x="714" y="-26" font-family="Helvetica,sans-Serif" font-size="10.00" fill="forestgreen">+</text>
<text text-anchor="start" x="721" y="-26" font-family="Helvetica,sans-Serif" font-size="10.00"> from(array: SequenceRead[CString]): CCStringArray</text>
<text text-anchor="start" x="714" y="-16" font-family="Helvetica,sans-Serif" font-size="10.00" fill="forestgreen">+</text>
<text text-anchor="start" x="721" y="-16" font-family="Helvetica,sans-Serif" font-size="10.00"> init(size: Int)</text>
</g>
<!-- c::CCStringArray&#45;&gt;c::CArray -->
<g id="edge7" class="edge"><title>c::CCStringArray&#45;&gt;c::CArray</title>
<path fill="none" stroke="black" stroke-width="0.5" d="M747.279,-54.1067C688.236,-68.4771 610.135,-87.4858 549.669,-102.202"/>
<polygon fill="none" stroke="black" stroke-width="0.5" points="549.056,-100.55 544.612,-103.433 549.884,-103.951 549.056,-100.55"/>
</g>
<!-- c::NativeCStringArray -->
<g id="node10" class="node"><title>c::NativeCStringArray</title>
<polygon fill="white" stroke="none" points="1742,-58.5 1574,-58.5 1574,-5.5 1742,-5.5 1742,-58.5"/>
<polygon fill="none" stroke="forestgreen" points="1574,-31 1574,-58 1742,-58 1742,-31 1574,-31"/>
<text text-anchor="start" x="1632" y="-47.5" font-family="Helvetica,sans-Serif" font-size="10.00">&lt;&lt;extern&gt;&gt;</text>
<text text-anchor="start" x="1612.5" y="-37.5" font-family="Helvetica,sans-Serif" font-weight="bold" font-style="italic" font-size="10.00">NativeCStringArray</text>
<polygon fill="none" stroke="forestgreen" points="1574,-5 1574,-31 1742,-31 1742,-5 1574,-5"/>
<text text-anchor="start" x="1577" y="-21" font-family="Helvetica,sans-Serif" font-size="10.00" fill="forestgreen">+</text>
<text text-anchor="start" x="1584" y="-21" font-family="Helvetica,sans-Serif" font-size="10.00"> destroy()</text>
<text text-anchor="start" x="1577" y="-11" font-family="Helvetica,sans-Serif" font-size="10.00" fill="forestgreen">+</text>
<text text-anchor="start" x="1584" y="-11" font-family="Helvetica,sans-Serif" font-size="10.00"> new(size: Int): NativeCStringArray</text>
</g>
<!-- c::NativeCStringArray&#45;&gt;c::NativeCArray -->
<g id="edge8" class="edge"><title>c::NativeCStringArray&#45;&gt;c::NativeCArray</title>
<path fill="none" stroke="black" stroke-width="0.5" d="M1579.75,-58.5407C1573.75,-60.4151 1567.78,-62.2537 1562,-64 1509.15,-79.9542 1448.66,-96.8476 1404.99,-108.801"/>
<polygon fill="none" stroke="black" stroke-width="0.5" points="1404.38,-107.154 1400.02,-110.161 1405.3,-110.53 1404.38,-107.154"/>
</g>
</g>
</svg>
