<?xml version="1.0" encoding="UTF-8" standalone="no"?>
<!DOCTYPE svg PUBLIC "-//W3C//DTD SVG 1.1//EN"
 "http://www.w3.org/Graphics/SVG/1.1/DTD/svg11.dtd">
<!-- Generated by graphviz version 2.36.0 (20140111.2315)
 -->
<!-- Title: G Pages: 1 -->
<svg width="842pt" height="112pt"
 viewBox="0.00 0.00 842.00 112.00" xmlns="http://www.w3.org/2000/svg" xmlns:xlink="http://www.w3.org/1999/xlink">
<g id="graph0" class="graph" transform="scale(1 1) rotate(0) translate(4 108)">
<title>G</title>
<polygon fill="white" stroke="none" points="-4,4 -4,-108 838,-108 838,4 -4,4"/>
<!-- csv::CsvStream -->
<g id="node1" class="node"><title>csv::CsvStream</title>
<polygon fill="white" stroke="none" points="515.5,-103.5 448.5,-103.5 448.5,-76.5 515.5,-76.5 515.5,-103.5"/>
<polygon fill="none" stroke="forestgreen" points="449,-76 449,-103 516,-103 516,-76 449,-76"/>
<text text-anchor="start" x="452.5" y="-92.5" font-family="Helvetica,sans-Serif" font-size="10.00">&lt;&lt;abstract&gt;&gt;</text>
<text text-anchor="start" x="456.5" y="-82.5" font-family="Helvetica,sans-Serif" font-weight="bold" font-style="italic" font-size="10.00">CsvStream</text>
</g>
<!-- csv::CsvDocument -->
<g id="node2" class="node"><title>csv::CsvDocument</title>
<polygon fill="white" stroke="none" points="368.5,-49 -0.5,-49 -0.5,-5 368.5,-5 368.5,-49"/>
<polygon fill="none" stroke="forestgreen" points="0,-31 0,-49 369,-49 369,-31 0,-31"/>
<text text-anchor="start" x="151" y="-38.5" font-family="Helvetica,sans-Serif" font-weight="bold" font-size="10.00">CsvDocument</text>
<polygon fill="none" stroke="forestgreen" points="0,-5 0,-31 369,-31 369,-5 0,-5"/>
<text text-anchor="start" x="3" y="-21" font-family="Helvetica,sans-Serif" font-size="10.00" fill="forestgreen">+</text>
<text text-anchor="start" x="10" y="-21" font-family="Helvetica,sans-Serif" font-size="10.00"> add_record(objs: Object)</text>
<text text-anchor="start" x="3" y="-11" font-family="Helvetica,sans-Serif" font-size="10.00" fill="forestgreen">+</text>
<text text-anchor="start" x="10" y="-11" font-family="Helvetica,sans-Serif" font-size="10.00"> load_from(stream: Reader, has_header: nullable Bool, skip_empty: nullable Bool)</text>
</g>
<!-- csv::CsvDocument&#45;&gt;csv::CsvStream -->
<g id="edge1" class="edge"><title>csv::CsvDocument&#45;&gt;csv::CsvStream</title>
<path fill="none" stroke="black" stroke-width="0.5" d="M286.972,-49.0782C341.07,-60.1518 404.144,-73.063 443.58,-81.1355"/>
<polygon fill="none" stroke="black" stroke-width="0.5" points="443.497,-82.9046 448.746,-82.193 444.198,-79.4757 443.497,-82.9046"/>
</g>
<!-- csv::CsvWriter -->
<g id="node3" class="node"><title>csv::CsvWriter</title>
<polygon fill="white" stroke="none" points="573.5,-54 390.5,-54 390.5,-0 573.5,-0 573.5,-54"/>
<polygon fill="none" stroke="forestgreen" points="391,-36 391,-54 574,-54 574,-36 391,-36"/>
<text text-anchor="start" x="459" y="-43.5" font-family="Helvetica,sans-Serif" font-weight="bold" font-size="10.00">CsvWriter</text>
<polygon fill="none" stroke="forestgreen" points="391,-0 391,-36 574,-36 574,-0 391,-0"/>
<text text-anchor="start" x="394" y="-26" font-family="Helvetica,sans-Serif" font-size="10.00" fill="forestgreen">+</text>
<text text-anchor="start" x="401" y="-26" font-family="Helvetica,sans-Serif" font-size="10.00"> write_elements(els: Object)</text>
<text text-anchor="start" x="394" y="-16" font-family="Helvetica,sans-Serif" font-size="10.00" fill="forestgreen">+</text>
<text text-anchor="start" x="401" y="-16" font-family="Helvetica,sans-Serif" font-size="10.00"> write_line(line: Array[Object])</text>
<text text-anchor="start" x="394" y="-6" font-family="Helvetica,sans-Serif" font-size="10.00" fill="forestgreen">+</text>
<text text-anchor="start" x="401" y="-6" font-family="Helvetica,sans-Serif" font-size="10.00"> write_lines(lines: Array[Array[Object]])</text>
</g>
<!-- csv::CsvWriter&#45;&gt;csv::CsvStream -->
<g id="edge2" class="edge"><title>csv::CsvWriter&#45;&gt;csv::CsvStream</title>
<path fill="none" stroke="black" stroke-width="0.5" d="M482,-54.2235C482,-59.939 482,-65.859 482,-71.1589"/>
<polygon fill="none" stroke="black" stroke-width="0.5" points="480.25,-71.2217 482,-76.2217 483.75,-71.2217 480.25,-71.2217"/>
</g>
<!-- csv::CsvReader -->
<g id="node4" class="node"><title>csv::CsvReader</title>
<polygon fill="white" stroke="none" points="834,-49 596,-49 596,-5 834,-5 834,-49"/>
<polygon fill="none" stroke="forestgreen" points="596,-31 596,-49 834,-49 834,-31 596,-31"/>
<text text-anchor="start" x="689" y="-38.5" font-family="Helvetica,sans-Serif" font-weight="bold" font-size="10.00">CsvReader</text>
<polygon fill="none" stroke="forestgreen" points="596,-5 596,-31 834,-31 834,-5 596,-5"/>
<text text-anchor="start" x="599" y="-21" font-family="Helvetica,sans-Serif" font-size="10.00" fill="forestgreen">+</text>
<text text-anchor="start" x="606" y="-21" font-family="Helvetica,sans-Serif" font-size="10.00"> from_string(s: String)</text>
<text text-anchor="start" x="599" y="-11" font-family="Helvetica,sans-Serif" font-size="10.00" fill="forestgreen">+</text>
<text text-anchor="start" x="606" y="-11" font-family="Helvetica,sans-Serif" font-size="10.00"> read_all(has_header: nullable Bool): CsvDocument</text>
</g>
<!-- csv::CsvReader&#45;&gt;csv::CsvStream -->
<g id="edge3" class="edge"><title>csv::CsvReader&#45;&gt;csv::CsvStream</title>
<path fill="none" stroke="black" stroke-width="0.5" d="M634.488,-49.0782C595.782,-59.2115 551.199,-70.8836 520.279,-78.9785"/>
<polygon fill="none" stroke="black" stroke-width="0.5" points="519.83,-77.2869 515.436,-80.2462 520.717,-80.6728 519.83,-77.2869"/>
</g>
</g>
</svg>
