<?xml version="1.0" encoding="UTF-8" standalone="no"?>
<!DOCTYPE svg PUBLIC "-//W3C//DTD SVG 1.1//EN"
 "http://www.w3.org/Graphics/SVG/1.1/DTD/svg11.dtd">
<!-- Generated by graphviz version 2.36.0 (20140111.2315)
 -->
<!-- Title: G Pages: 1 -->
<svg width="770pt" height="146pt"
 viewBox="0.00 0.00 770.00 146.00" xmlns="http://www.w3.org/2000/svg" xmlns:xlink="http://www.w3.org/1999/xlink">
<g id="graph0" class="graph" transform="scale(1 1) rotate(0) translate(4 142)">
<title>G</title>
<polygon fill="white" stroke="none" points="-4,4 -4,-142 766,-142 766,4 -4,4"/>
<!-- bucketed_game::Turnable -->
<g id="node1" class="node"><title>bucketed_game::Turnable</title>
<polygon fill="white" stroke="none" points="202.5,-138 63.5,-138 63.5,-94 202.5,-94 202.5,-138"/>
<polygon fill="none" stroke="forestgreen" points="64,-111 64,-138 203,-138 203,-111 64,-111"/>
<text text-anchor="start" x="103.5" y="-127.5" font-family="Helvetica,sans-Serif" font-size="10.00">&lt;&lt;abstract&gt;&gt;</text>
<text text-anchor="start" x="89.5" y="-117.5" font-family="Helvetica,sans-Serif" font-weight="bold" font-style="italic" font-size="10.00">Turnable[G: Game]</text>
<polygon fill="none" stroke="forestgreen" points="64,-94 64,-111 203,-111 203,-94 64,-94"/>
<text text-anchor="start" x="67" y="-101" font-family="Helvetica,sans-Serif" font-size="10.00" fill="forestgreen">+</text>
<text text-anchor="start" x="74" y="-101" font-family="Helvetica,sans-Serif" font-size="10.00"> </text>
<text text-anchor="start" x="78" y="-101" font-family="Helvetica,sans-Serif" font-style="italic" font-size="10.00">do_turn</text>
<text text-anchor="start" x="111" y="-101" font-family="Helvetica,sans-Serif" font-size="10.00">(turn: GameTurn[G])</text>
</g>
<!-- bucketed_game::Bucketable -->
<g id="node2" class="node"><title>bucketed_game::Bucketable</title>
<polygon fill="white" stroke="none" points="106,-58 7.10543e-15,-58 7.10543e-15,-14 106,-14 106,-58"/>
<polygon fill="none" stroke="forestgreen" points="0,-31 0,-58 106,-58 106,-31 0,-31"/>
<text text-anchor="start" x="23" y="-47.5" font-family="Helvetica,sans-Serif" font-size="10.00">&lt;&lt;abstract&gt;&gt;</text>
<text text-anchor="start" x="3.5" y="-37.5" font-family="Helvetica,sans-Serif" font-weight="bold" font-style="italic" font-size="10.00">Bucketable[G: Game]</text>
<polygon fill="none" stroke="forestgreen" points="0,-14 0,-31 106,-31 106,-14 0,-14"/>
<text text-anchor="start" x="3" y="-21" font-family="Helvetica,sans-Serif" font-size="10.00" fill="forestgreen">+</text>
<text text-anchor="start" x="10" y="-21" font-family="Helvetica,sans-Serif" font-size="10.00"> cancel_act()</text>
</g>
<!-- bucketed_game::Bucketable&#45;&gt;bucketed_game::Turnable -->
<g id="edge1" class="edge"><title>bucketed_game::Bucketable&#45;&gt;bucketed_game::Turnable</title>
<path fill="none" stroke="black" stroke-width="0.5" d="M74.8604,-58.3138C84.9962,-68.1963 97.1036,-80.001 107.639,-90.2732"/>
<polygon fill="none" stroke="black" stroke-width="0.5" points="106.641,-91.7445 111.443,-93.982 109.085,-89.2385 106.641,-91.7445"/>
</g>
<!-- bucketed_game::Buckets -->
<g id="node3" class="node"><title>bucketed_game::Buckets</title>
<polygon fill="white" stroke="none" points="307.5,-66.5 128.5,-66.5 128.5,-5.5 307.5,-5.5 307.5,-66.5"/>
<polygon fill="none" stroke="forestgreen" points="129,-48 129,-66 308,-66 308,-48 129,-48"/>
<text text-anchor="start" x="176" y="-55.5" font-family="Helvetica,sans-Serif" font-weight="bold" font-size="10.00">Buckets[G: Game]</text>
<polygon fill="none" stroke="forestgreen" points="129,-31 129,-48 308,-48 308,-31 129,-31"/>
<text text-anchor="start" x="132" y="-38" font-family="Helvetica,sans-Serif" font-size="10.00" fill="forestgreen">+</text>
<text text-anchor="start" x="139" y="-38" font-family="Helvetica,sans-Serif" font-size="10.00"> BUCKET: HashSet[Bucketable[G]]</text>
<polygon fill="none" stroke="forestgreen" points="129,-5 129,-31 308,-31 308,-5 129,-5"/>
<text text-anchor="start" x="132" y="-21" font-family="Helvetica,sans-Serif" font-size="10.00" fill="forestgreen">+</text>
<text text-anchor="start" x="139" y="-21" font-family="Helvetica,sans-Serif" font-size="10.00"> add_at(e: Bucketable[G], at_tick: Int)</text>
<text text-anchor="start" x="132" y="-11" font-family="Helvetica,sans-Serif" font-size="10.00" fill="forestgreen">+</text>
<text text-anchor="start" x="139" y="-11" font-family="Helvetica,sans-Serif" font-size="10.00"> stats(): String</text>
</g>
<!-- bucketed_game::Buckets&#45;&gt;bucketed_game::Turnable -->
<g id="edge2" class="edge"><title>bucketed_game::Buckets&#45;&gt;bucketed_game::Turnable</title>
<path fill="none" stroke="black" stroke-width="0.5" d="M185.38,-66.9338C176.931,-74.687 167.93,-82.9464 159.817,-90.3917"/>
<polygon fill="none" stroke="black" stroke-width="0.5" points="158.412,-89.3056 155.911,-93.9756 160.778,-91.8844 158.412,-89.3056"/>
</g>
<!-- bucketed_game::GameEvent -->
<g id="node4" class="node"><title>bucketed_game::GameEvent</title>
<polygon fill="white" stroke="none" points="430,-138 306,-138 306,-94 430,-94 430,-138"/>
<polygon fill="none" stroke="forestgreen" points="306,-111 306,-138 430,-138 430,-111 306,-111"/>
<text text-anchor="start" x="337" y="-127.5" font-family="Helvetica,sans-Serif" font-size="10.00">&lt;&lt;interface&gt;&gt;</text>
<text text-anchor="start" x="341" y="-117.5" font-family="Helvetica,sans-Serif" font-weight="bold" font-style="italic" font-size="10.00">GameEvent</text>
<polygon fill="none" stroke="forestgreen" points="306,-94 306,-111 430,-111 430,-94 306,-94"/>
<text text-anchor="start" x="309" y="-101" font-family="Helvetica,sans-Serif" font-size="10.00" fill="forestgreen">+</text>
<text text-anchor="start" x="316" y="-101" font-family="Helvetica,sans-Serif" font-size="10.00"> </text>
<text text-anchor="start" x="320" y="-101" font-family="Helvetica,sans-Serif" font-style="italic" font-size="10.00">apply</text>
<text text-anchor="start" x="344" y="-101" font-family="Helvetica,sans-Serif" font-size="10.00">(game: ThinGame)</text>
</g>
<!-- bucketed_game::FirstTurnEvent -->
<g id="node5" class="node"><title>bucketed_game::FirstTurnEvent</title>
<polygon fill="white" stroke="none" points="406.5,-45 329.5,-45 329.5,-27 406.5,-27 406.5,-45"/>
<polygon fill="none" stroke="forestgreen" points="330,-27 330,-45 407,-45 407,-27 330,-27"/>
<text text-anchor="start" x="333.5" y="-34.5" font-family="Helvetica,sans-Serif" font-weight="bold" font-size="10.00">FirstTurnEvent</text>
</g>
<!-- bucketed_game::FirstTurnEvent&#45;&gt;bucketed_game::GameEvent -->
<g id="edge3" class="edge"><title>bucketed_game::FirstTurnEvent&#45;&gt;bucketed_game::GameEvent</title>
<path fill="none" stroke="black" stroke-width="0.5" stroke-dasharray="5,2" d="M368,-45.0536C368,-55.3349 368,-73.6244 368,-88.9228"/>
<polygon fill="none" stroke="black" stroke-width="0.5" points="366.25,-88.9804 368,-93.9804 369.75,-88.9804 366.25,-88.9804"/>
</g>
<!-- bucketed_game::ThinGame -->
<g id="node6" class="node"><title>bucketed_game::ThinGame</title>
<polygon fill="white" stroke="none" points="538,-125 482,-125 482,-107 538,-107 538,-125"/>
<polygon fill="none" stroke="forestgreen" points="482,-107 482,-125 538,-125 538,-107 482,-107"/>
<text text-anchor="start" x="485.5" y="-114.5" font-family="Helvetica,sans-Serif" font-weight="bold" font-size="10.00">ThinGame</text>
</g>
<!-- bucketed_game::ThinGameTurn -->
<g id="node7" class="node"><title>bucketed_game::ThinGameTurn</title>
<polygon fill="white" stroke="none" points="760.5,-125 615.5,-125 615.5,-107 760.5,-107 760.5,-125"/>
<polygon fill="none" stroke="forestgreen" points="616,-107 616,-125 761,-125 761,-107 616,-107"/>
<text text-anchor="start" x="619.5" y="-114.5" font-family="Helvetica,sans-Serif" font-weight="bold" font-size="10.00">ThinGameTurn[G: ThinGame]</text>
</g>
<!-- bucketed_game::GameTurn -->
<g id="node8" class="node"><title>bucketed_game::GameTurn</title>
<polygon fill="white" stroke="none" points="763,-68 613,-68 613,-4 763,-4 763,-68"/>
<polygon fill="none" stroke="forestgreen" points="613,-50 613,-68 763,-68 763,-50 613,-50"/>
<text text-anchor="start" x="640" y="-57.5" font-family="Helvetica,sans-Serif" font-weight="bold" font-size="10.00">GameTurn[G: Game]</text>
<polygon fill="none" stroke="forestgreen" points="613,-4 613,-50 763,-50 763,-4 613,-4"/>
<text text-anchor="start" x="616" y="-40" font-family="Helvetica,sans-Serif" font-size="10.00" fill="forestgreen">+</text>
<text text-anchor="start" x="623" y="-40" font-family="Helvetica,sans-Serif" font-size="10.00"> act_in(e: Bucketable[G], t: Int)</text>
<text text-anchor="start" x="616" y="-30" font-family="Helvetica,sans-Serif" font-size="10.00" fill="forestgreen">+</text>
<text text-anchor="start" x="623" y="-30" font-family="Helvetica,sans-Serif" font-size="10.00"> act_next(e: Bucketable[G])</text>
<text text-anchor="start" x="616" y="-20" font-family="Helvetica,sans-Serif" font-size="10.00" fill="forestgreen">+</text>
<text text-anchor="start" x="623" y="-20" font-family="Helvetica,sans-Serif" font-size="10.00"> add_event(event: GameEvent)</text>
<text text-anchor="start" x="616" y="-10" font-family="Helvetica,sans-Serif" font-size="10.00" fill="forestgreen">+</text>
<text text-anchor="start" x="623" y="-10" font-family="Helvetica,sans-Serif" font-size="10.00"> init(game: G: Game)</text>
</g>
<!-- bucketed_game::GameTurn&#45;&gt;bucketed_game::ThinGameTurn -->
<g id="edge4" class="edge"><title>bucketed_game::GameTurn&#45;&gt;bucketed_game::ThinGameTurn</title>
<path fill="none" stroke="black" stroke-width="0.5" d="M688,-68.2762C688,-79.9289 688,-92.5399 688,-101.72"/>
<polygon fill="none" stroke="black" stroke-width="0.5" points="686.25,-101.953 688,-106.953 689.75,-101.953 686.25,-101.953"/>
</g>
<!-- bucketed_game::Game -->
<g id="node9" class="node"><title>bucketed_game::Game</title>
<polygon fill="white" stroke="none" points="591,-71.5 429,-71.5 429,-0.5 591,-0.5 591,-71.5"/>
<polygon fill="none" stroke="forestgreen" points="429,-53 429,-71 591,-71 591,-53 429,-53"/>
<text text-anchor="start" x="496" y="-60.5" font-family="Helvetica,sans-Serif" font-weight="bold" font-size="10.00">Game</text>
<polygon fill="none" stroke="forestgreen" points="429,-36 429,-53 591,-53 591,-36 429,-36"/>
<text text-anchor="start" x="432" y="-43" font-family="Helvetica,sans-Serif" font-size="10.00" fill="forestgreen">+</text>
<text text-anchor="start" x="439" y="-43" font-family="Helvetica,sans-Serif" font-size="10.00"> G: Game</text>
<polygon fill="none" stroke="forestgreen" points="429,-0 429,-36 591,-36 591,-0 429,-0"/>
<text text-anchor="start" x="432" y="-26" font-family="Helvetica,sans-Serif" font-size="10.00" fill="forestgreen">+</text>
<text text-anchor="start" x="439" y="-26" font-family="Helvetica,sans-Serif" font-size="10.00"> do_post_turn(turn: GameTurn[G])</text>
<text text-anchor="start" x="432" y="-16" font-family="Helvetica,sans-Serif" font-size="10.00" fill="forestgreen">+</text>
<text text-anchor="start" x="439" y="-16" font-family="Helvetica,sans-Serif" font-size="10.00"> do_pre_turn(turn: GameTurn[G])</text>
<text text-anchor="start" x="432" y="-6" font-family="Helvetica,sans-Serif" font-size="10.00" fill="forestgreen">+</text>
<text text-anchor="start" x="439" y="-6" font-family="Helvetica,sans-Serif" font-size="10.00"> do_turn(): GameTurn[G]</text>
</g>
<!-- bucketed_game::Game&#45;&gt;bucketed_game::ThinGame -->
<g id="edge5" class="edge"><title>bucketed_game::Game&#45;&gt;bucketed_game::ThinGame</title>
<path fill="none" stroke="black" stroke-width="0.5" d="M510,-71.8935C510,-82.4397 510,-93.3909 510,-101.616"/>
<polygon fill="none" stroke="black" stroke-width="0.5" points="508.25,-101.837 510,-106.837 511.75,-101.837 508.25,-101.837"/>
</g>
</g>
</svg>
