<?xml version="1.0" encoding="UTF-8" standalone="no"?>
<!DOCTYPE svg PUBLIC "-//W3C//DTD SVG 1.1//EN"
 "http://www.w3.org/Graphics/SVG/1.1/DTD/svg11.dtd">
<!-- Generated by graphviz version 2.36.0 (20140111.2315)
 -->
<!-- Title: G Pages: 1 -->
<svg width="278pt" height="116pt"
 viewBox="0.00 0.00 278.00 116.00" xmlns="http://www.w3.org/2000/svg" xmlns:xlink="http://www.w3.org/1999/xlink">
<g id="graph0" class="graph" transform="scale(1 1) rotate(0) translate(4 112)">
<title>G</title>
<polygon fill="white" stroke="none" points="-4,4 -4,-112 274,-112 274,4 -4,4"/>
<!-- crypto::basic_ciphers -->
<g id="node1" class="node"><title>crypto::basic_ciphers</title>
<polygon fill="#fffaf3" stroke="black" points="64,-103 0,-103 0,-43 70,-43 70,-97 64,-103"/>
<polyline fill="none" stroke="black" points="64,-103 64,-97 "/>
<polyline fill="none" stroke="black" points="70,-97 64,-97 "/>
<text text-anchor="start" x="2" y="-93.5" font-family="Helvetica,sans-Serif" font-weight="bold" font-size="10.00">basic_ciphers</text>
<text text-anchor="start" x="2" y="-78" font-family="Helvetica,sans-Serif" font-size="10.00" fill="forestgreen">+</text>
<text text-anchor="start" x="9" y="-78" font-family="Helvetica,sans-Serif" font-size="10.00">Bytes</text>
<text text-anchor="start" x="2" y="-68" font-family="Helvetica,sans-Serif" font-size="10.00" fill="forestgreen">+</text>
<text text-anchor="start" x="9" y="-68" font-family="Helvetica,sans-Serif" font-size="10.00">Char</text>
<text text-anchor="start" x="2" y="-58" font-family="Helvetica,sans-Serif" font-size="10.00" fill="forestgreen">+</text>
<text text-anchor="start" x="9" y="-58" font-family="Helvetica,sans-Serif" font-size="10.00">Int</text>
<text text-anchor="start" x="2" y="-48" font-family="Helvetica,sans-Serif" font-size="10.00" fill="forestgreen">+</text>
<text text-anchor="start" x="9" y="-48" font-family="Helvetica,sans-Serif" font-size="10.00">Text</text>
</g>
<!-- crypto::bytes -->
<g id="node2" class="node"><title>crypto::bytes</title>
<polygon fill="#fffaf3" stroke="black" points="124.833,-88.5 92,-88.5 92,-57.5 130,-57.5 130,-83.3333 124.833,-88.5"/>
<polyline fill="none" stroke="black" points="124.833,-88.5 124.833,-83.3333 "/>
<polyline fill="none" stroke="black" points="130,-83.3333 124.833,-83.3333 "/>
<text text-anchor="start" x="94" y="-78.5" font-family="Helvetica,sans-Serif" font-weight="bold" font-size="10.00">bytes</text>
<text text-anchor="start" x="94" y="-63" font-family="Helvetica,sans-Serif" font-size="10.00" fill="forestgreen">+</text>
<text text-anchor="start" x="101" y="-63" font-family="Helvetica,sans-Serif" font-size="10.00">Bytes</text>
</g>
<!-- crypto::crypto -->
<g id="node3" class="node"><title>crypto::crypto</title>
<polygon fill="#fffaf3" stroke="black" points="125.833,-16 93.5,-16 93.5,-0 128.5,-0 128.5,-13.3333 125.833,-16"/>
<polyline fill="none" stroke="black" points="125.833,-16 125.833,-13.3333 "/>
<polyline fill="none" stroke="black" points="128.5,-13.3333 125.833,-13.3333 "/>
<text text-anchor="start" x="96" y="-6.5" font-family="Helvetica,sans-Serif" font-weight="bold" font-size="10.00">crypto</text>
</g>
<!-- crypto::crypto&#45;&gt;crypto::basic_ciphers -->
<g id="edge1" class="edge"><title>crypto::crypto&#45;&gt;crypto::basic_ciphers</title>
<path fill="none" stroke="black" stroke-width="0.5" stroke-dasharray="5,2" d="M102.282,-16.2269C95.1979,-22.0991 84.6691,-30.8269 74.0324,-39.6442"/>
<polygon fill="black" stroke="black" stroke-width="0.5" points="70.1149,-42.8916 72.5284,-37.9684 72.0396,-41.2961 73.9643,-39.7006 73.9643,-39.7006 73.9643,-39.7006 72.0396,-41.2961 75.4003,-41.4329 70.1149,-42.8916 70.1149,-42.8916"/>
</g>
<!-- crypto::crypto&#45;&gt;crypto::bytes -->
<g id="edge2" class="edge"><title>crypto::crypto&#45;&gt;crypto::bytes</title>
<path fill="none" stroke="black" stroke-width="0.5" stroke-dasharray="5,2" d="M111,-16.2269C111,-24.9373 111,-39.9306 111,-52.1792"/>
<polygon fill="black" stroke="black" stroke-width="0.5" points="111,-57.2343 108.75,-52.2342 111,-54.7343 111,-52.2343 111,-52.2343 111,-52.2343 111,-54.7343 113.25,-52.2343 111,-57.2343 111,-57.2343"/>
</g>
<!-- crypto::xor_ciphers -->
<g id="node4" class="node"><title>crypto::xor_ciphers</title>
<polygon fill="#fffaf3" stroke="black" points="264,-108 152,-108 152,-38 270,-38 270,-102 264,-108"/>
<polyline fill="none" stroke="black" points="264,-108 264,-102 "/>
<polyline fill="none" stroke="black" points="270,-102 264,-102 "/>
<text text-anchor="start" x="154" y="-98.5" font-family="Helvetica,sans-Serif" font-weight="bold" font-size="10.00">xor_ciphers</text>
<text text-anchor="start" x="154" y="-83" font-family="Helvetica,sans-Serif" font-size="10.00" fill="forestgreen">+</text>
<text text-anchor="start" x="161" y="-83" font-family="Helvetica,sans-Serif" font-size="10.00">Bytes</text>
<text text-anchor="start" x="154" y="-73" font-family="Helvetica,sans-Serif" font-size="10.00" fill="forestgreen">+</text>
<text text-anchor="start" x="161" y="-73" font-family="Helvetica,sans-Serif" font-size="10.00">CString</text>
<text text-anchor="start" x="154" y="-63" font-family="Helvetica,sans-Serif" font-size="10.00" fill="forestgreen">+</text>
<text text-anchor="start" x="161" y="-63" font-family="Helvetica,sans-Serif" font-size="10.00">Cipher</text>
<text text-anchor="start" x="154" y="-53" font-family="Helvetica,sans-Serif" font-size="10.00" fill="forestgreen">+</text>
<text text-anchor="start" x="161" y="-53" font-family="Helvetica,sans-Serif" font-size="10.00">RepeatingKeyXorCipher</text>
<text text-anchor="start" x="154" y="-43" font-family="Helvetica,sans-Serif" font-size="10.00" fill="forestgreen">+</text>
<text text-anchor="start" x="161" y="-43" font-family="Helvetica,sans-Serif" font-size="10.00">SingleByteXorCipher</text>
</g>
<!-- crypto::crypto&#45;&gt;crypto::xor_ciphers -->
<g id="edge3" class="edge"><title>crypto::crypto&#45;&gt;crypto::xor_ciphers</title>
<path fill="none" stroke="black" stroke-width="0.5" stroke-dasharray="5,2" d="M122.471,-16.2269C130.239,-21.1204 141.154,-27.997 152.676,-35.2558"/>
<polygon fill="black" stroke="black" stroke-width="0.5" points="156.944,-37.9445 151.514,-37.1829 154.828,-36.6119 152.713,-35.2792 152.713,-35.2792 152.713,-35.2792 154.828,-36.6119 153.912,-33.3755 156.944,-37.9445 156.944,-37.9445"/>
</g>
</g>
</svg>
