<?xml version="1.0" encoding="UTF-8" standalone="no"?>
<!DOCTYPE svg PUBLIC "-//W3C//DTD SVG 1.1//EN"
 "http://www.w3.org/Graphics/SVG/1.1/DTD/svg11.dtd">
<!-- Generated by graphviz version 2.36.0 (20140111.2315)
 -->
<!-- Title: G Pages: 1 -->
<svg width="74pt" height="170pt"
 viewBox="0.00 0.00 74.00 170.00" xmlns="http://www.w3.org/2000/svg" xmlns:xlink="http://www.w3.org/1999/xlink">
<g id="graph0" class="graph" transform="scale(1 1) rotate(0) translate(4 166)">
<title>G</title>
<polygon fill="white" stroke="none" points="-4,4 -4,-166 70,-166 70,4 -4,4"/>
<!-- ios&amp;gt; -->
<g id="node1" class="node"><title>ios&amp;gt;</title>
<polygon fill="#fefef2" stroke="black" points="66.5,-162 63.5,-166 42.5,-166 39.5,-162 -0.5,-162 -0.5,-62 66.5,-62 66.5,-162"/>
<text text-anchor="start" x="2" y="-152.5" font-family="Helvetica,sans-Serif" font-weight="bold" font-size="10.00">ios</text>
<text text-anchor="start" x="2" y="-137" font-family="Helvetica,sans-Serif" font-size="10.00" fill="forestgreen">+</text>
<text text-anchor="start" x="9" y="-137" font-family="Helvetica,sans-Serif" font-size="10.00">app</text>
<text text-anchor="start" x="2" y="-127" font-family="Helvetica,sans-Serif" font-size="10.00" fill="forestgreen">+</text>
<text text-anchor="start" x="9" y="-127" font-family="Helvetica,sans-Serif" font-size="10.00">assets</text>
<text text-anchor="start" x="2" y="-117" font-family="Helvetica,sans-Serif" font-size="10.00" fill="forestgreen">+</text>
<text text-anchor="start" x="9" y="-117" font-family="Helvetica,sans-Serif" font-size="10.00">audio</text>
<text text-anchor="start" x="2" y="-107" font-family="Helvetica,sans-Serif" font-size="10.00" fill="forestgreen">+</text>
<text text-anchor="start" x="9" y="-107" font-family="Helvetica,sans-Serif" font-size="10.00">data_store</text>
<text text-anchor="start" x="2" y="-97" font-family="Helvetica,sans-Serif" font-size="10.00" fill="forestgreen">+</text>
<text text-anchor="start" x="9" y="-97" font-family="Helvetica,sans-Serif" font-size="10.00">glkit</text>
<text text-anchor="start" x="2" y="-87" font-family="Helvetica,sans-Serif" font-size="10.00" fill="forestgreen">+</text>
<text text-anchor="start" x="9" y="-87" font-family="Helvetica,sans-Serif" font-size="10.00">http_request</text>
<text text-anchor="start" x="2" y="-77" font-family="Helvetica,sans-Serif" font-size="10.00" fill="forestgreen">+</text>
<text text-anchor="start" x="9" y="-77" font-family="Helvetica,sans-Serif" font-size="10.00">ios</text>
<text text-anchor="start" x="2" y="-67" font-family="Helvetica,sans-Serif" font-size="10.00" fill="forestgreen">+</text>
<text text-anchor="start" x="9" y="-67" font-family="Helvetica,sans-Serif" font-size="10.00">platform</text>
</g>
<!-- ios&amp;gt;ui&amp;gt; -->
<g id="node2" class="node"><title>ios&amp;gt;ui&amp;gt;</title>
<polygon fill="#fefef2" stroke="black" points="48.5,-40 45.9167,-43.4444 27.8333,-43.4444 25.25,-40 17.5,-40 17.5,-0 48.5,-0 48.5,-40"/>
<text text-anchor="start" x="20" y="-30.5" font-family="Helvetica,sans-Serif" font-weight="bold" font-size="10.00">ui</text>
<text text-anchor="start" x="20" y="-15" font-family="Helvetica,sans-Serif" font-size="10.00" fill="forestgreen">+</text>
<text text-anchor="start" x="27" y="-15" font-family="Helvetica,sans-Serif" font-size="10.00">ui</text>
<text text-anchor="start" x="20" y="-5" font-family="Helvetica,sans-Serif" font-size="10.00" fill="forestgreen">+</text>
<text text-anchor="start" x="27" y="-5" font-family="Helvetica,sans-Serif" font-size="10.00">uikit</text>
</g>
<!-- ios&amp;gt;ui&amp;gt;&#45;&gt;ios&amp;gt; -->
<g id="edge1" class="edge"><title>ios&amp;gt;ui&amp;gt;&#45;&gt;ios&amp;gt;</title>
<path fill="none" stroke="black" stroke-width="0.5" stroke-dasharray="5,2" d="M33,-40.0867C33,-45.166 33,-50.9134 33,-56.8843"/>
<polygon fill="black" stroke="black" stroke-width="0.5" points="33,-61.9427 30.7501,-56.9427 33,-59.4427 33.0001,-56.9427 33.0001,-56.9427 33.0001,-56.9427 33,-59.4427 35.2501,-56.9428 33,-61.9427 33,-61.9427"/>
</g>
</g>
</svg>
